<svg width="1114" height="2442" viewBox="0 0 1114 2442" fill="none" xmlns="http://www.w3.org/2000/svg">
<path d="M951.4 2407.8H836V2366.6H951.4V2407.8ZM870.8 2401.5V2373H844.9V2401.5H870.8ZM906.6 2401.5V2373H880.7V2401.5H906.6ZM942.5 2401.5V2373H916.6V2401.5H942.5Z" fill="#754ABA"/>
<path d="M836 2407.8H720.5V2366.6H836V2407.8ZM755.3 2401.5V2373H729.4V2401.5H755.3ZM791.2 2401.5V2373H765.3V2401.5H791.2ZM827.1 2401.5V2373H801.2V2401.5H827.1Z" fill="#754ABA"/>
<path d="M720.5 2407.8H605.1V2366.6H720.5V2407.8ZM639.9 2401.5V2373H614V2401.5H639.9ZM675.8 2401.5V2373H649.9V2401.5H675.8ZM711.6 2401.5V2373H685.7V2401.5H711.6Z" fill="#754ABA"/>
<path d="M605.1 2407.8H489.7V2366.6H605.1V2407.8ZM524.5 2401.5V2373H498.6V2401.5H524.5ZM560.3 2401.5V2373H534.4V2401.5H560.3ZM596.2 2401.5V2373H570.3V2401.5H596.2Z" fill="#754ABA"/>
<path d="M489.7 2407.8H374.2V2366.6H489.6V2407.8H489.7ZM409 2401.5V2373H383.1V2401.5H409ZM444.9 2401.5V2373H419V2401.5H444.9ZM480.8 2401.5V2373H454.9V2401.5H480.8Z" fill="#754ABA"/>
<path d="M374.2 2407.8H258.8V2366.6H374.2V2407.8V2407.8ZM293.6 2401.5V2373H267.7V2401.5H293.6ZM329.5 2401.5V2373H303.6V2401.5H329.5ZM365.3 2401.5V2373H339.4V2401.5H365.3Z" fill="#754ABA"/>
<path d="M258.8 2407.8H201.1H172.2H165H163.2H162.3H161.3L157 2407.7C155.6 2407.7 154.1 2407.5 152.7 2407.4C151.3 2407.3 149.8 2407.2 148.4 2407C145.6 2406.6 142.7 2406.3 139.9 2405.8L147.1 2365.3C149 2365.7 150.9 2365.9 152.9 2366.1C153.9 2366.2 154.8 2366.3 155.8 2366.3C156.8 2366.4 157.7 2366.5 158.7 2366.5L161.6 2366.6H162.4H163.3H165.1H172.3H201.2H258.9V2407.8H258.8ZM178.2 2401.5V2373H165.3H162.1L159.3 2372.9C157.4 2372.9 155.6 2372.7 153.7 2372.6L151.1 2401C153.5 2401.2 156 2401.4 158.4 2401.4L162.1 2401.5H165.4H178.2ZM214 2401.5V2373H188.1V2401.5H214ZM249.9 2401.5V2373H224V2401.5H249.9Z" fill="#754ABA"/>
<path d="M139.9 2405.8C128.6 2403.9 117.6 2400.2 107.2 2395.3C96.9 2390.3 87.1999 2384 78.5999 2376.4C61.2999 2361.3 48.1 2341.5 41.2 2319.6L80.4 2307C85.1 2321.8 94 2335.2 105.7 2345.4C111.5 2350.5 118.1 2354.8 125.1 2358.2C132.1 2361.5 139.5 2364 147.2 2365.3L139.9 2405.8ZM65.1 2352.6L88 2335.6C83.6 2329.6 79.8 2323.1 77 2316.2L50.7 2327.2C54.4 2336.2 59.3 2344.7 65.1 2352.6ZM94.2999 2380.6L110.3 2357C104.2 2352.8 98.5 2347.8 93.5 2342.3L72.2999 2361.4C78.7999 2368.7 86.1999 2375.1 94.2999 2380.6ZM131.1 2397.4L138.4 2369.8C131.2 2367.9 124.2 2365.1 117.7 2361.5L103.9 2386.5C112.5 2391.3 121.7 2394.9 131.1 2397.4Z" fill="#754ABA"/>
<path d="M41.1 2319.6C39.4 2314.1 37.9 2308.5 37 2302.9C36.4 2300.1 36.1 2297.2 35.8 2294.4C35.6 2293 35.6 2291.5 35.4 2290.1C35.3 2288.7 35.2 2287.2 35.1 2285.8L35 2281.5V2280.5V2279.6V2277.8V2270.6V2256.2V2198.5H76.2V2256.2V2270.6V2277.8V2279.6V2280.5V2281.3L76.3 2284.2C76.3 2285.2 76.4 2286.1 76.5 2287.1C76.6 2288.1 76.6 2289 76.7 2290C77 2291.9 77.1 2293.9 77.5 2295.8C78.1 2299.6 79.1 2303.4 80.3 2307.1L41.1 2319.6ZM41.3 2233.2H69.8V2207.3H41.3V2233.2ZM41.3 2269.1H69.8V2243.2H41.3V2269.1ZM44.5 2307.9L72.3 2301.5C71.4 2297.9 70.9 2294.2 70.4 2290.5C70.2 2288.6 70.1 2286.8 70 2284.9L69.9 2282.1V2280.7V2279.1H41.3V2280.7V2282.5L41.4 2286.2C41.5 2288.6 41.7 2291.1 41.9 2293.5C42.6 2298.3 43.3 2303.2 44.5 2307.9Z" fill="#754ABA"/>
<path d="M35 2198.4V2083H76.2V2198.4H35ZM41.3 2117.8H69.8V2091.9H41.3V2117.8ZM41.3 2153.6H69.8V2127.7H41.3V2153.6ZM41.3 2189.5H69.8V2163.6H41.3V2189.5Z" fill="#754ABA"/>
<path d="M35 2083V1967.6H76.2V2083H35ZM41.3 2002.3H69.8V1976.4H41.3V2002.3ZM41.3 2038.2H69.8V2012.3H41.3V2038.2ZM41.3 2074.1H69.8V2048.2H41.3V2074.1Z" fill="#754ABA"/>
<path d="M35 1967.5V1852.1H76.2V1967.5H35ZM41.3 1886.9H69.8V1861H41.3V1886.9ZM41.3 1922.8H69.8V1896.9H41.3V1922.8ZM41.3 1958.6H69.8V1932.7H41.3V1958.6Z" fill="#754ABA"/>
<path d="M35 1852.1V1848.5V1846.7V1844.6L35.1 1840.3C35.2 1838.9 35.3 1837.4 35.4 1836C35.6 1833.1 36 1830.3 36.4 1827.5C36.6 1826.1 36.9 1824.7 37.1 1823.3C37.3 1821.9 37.6 1820.5 37.9 1819.1L38.9 1814.9C39.3 1813.5 39.7 1812.1 40.1 1810.8L40.7 1808.7L41.4 1806.7L42.8 1802.6C44.8 1797.2 47.1 1792 49.8 1786.9C60.6 1766.6 76.9 1749.4 96.6 1737.5L117.8 1772.7C104.5 1780.7 93.4 1792.4 86.1 1806.1C84.3 1809.5 82.7 1813.1 81.3 1816.7L80.4 1819.5L79.9 1820.9L79.5 1822.3L78.7 1825.1L78.1 1827.9C77.9 1828.8 77.7 1829.8 77.5 1830.7C77.3 1831.7 77.1 1832.6 77 1833.6C76.8 1835.5 76.5 1837.4 76.4 1839.4C76.3 1840.4 76.2 1841.3 76.2 1842.3L76.1 1845.2V1845.9C76.1 1846.1 76.1 1846.4 76.1 1846.7V1848.5V1852.1H35V1852.1ZM70 1768.3L91.7 1786.7C96.6 1781 102 1775.8 108.1 1771.5L91.4 1748.4C83.5 1754.1 76.3 1760.9 70 1768.3ZM49.3 1803.1L75.9 1813.3C78.6 1806.4 82.1 1799.7 86.4 1793.6L63 1777.3C57.4 1785.3 52.9 1794 49.3 1803.1ZM41.4 1842.8L69.9 1843.6C70 1839.9 70.4 1836.1 70.9 1832.4C71.2 1830.6 71.5 1828.7 71.9 1826.9C72.3 1825.1 72.7 1823.3 73.2 1821.5L45.7 1813.8C45 1816.1 44.5 1818.5 43.9 1820.9C43.4 1823.3 43 1825.7 42.6 1828.1C42 1833 41.5 1837.9 41.4 1842.8Z" fill="#754ABA"/>
<path d="M96.6 1737.4C101.5 1734.5 106.6 1731.8 111.9 1729.5C117.2 1727.3 122.6 1725.3 128.1 1723.8L130.2 1723.2L132.3 1722.7L136.5 1721.7L140.7 1720.9L142.8 1720.5L144.9 1720.2L149.2 1719.7L153.5 1719.4L155.6 1719.2L157.7 1719.1L162 1719H219.7V1760.2H162C146.4 1760.2 131 1764.4 117.7 1772.5L96.6 1737.4ZM185.1 1725.5V1754H211V1725.5H185.1ZM147.5 1726.5L150.9 1754.8C152.7 1754.5 154.6 1754.4 156.5 1754.3C158.4 1754.2 160.2 1754.2 162.1 1754.1H175V1725.6H162.1C159.7 1725.7 157.2 1725.7 154.8 1725.8C152.4 1726 149.9 1726.1 147.5 1726.5ZM108.7 1738L121.3 1763.6C128 1760.3 135.1 1757.9 142.4 1756.2L136.3 1728.3C126.8 1730.4 117.5 1733.6 108.7 1738Z" fill="#754ABA"/>
<path d="M219.9 1719.2H335.3V1760.4H219.9V1719.2ZM300.5 1725.5V1754H326.4V1725.5H300.5ZM264.6 1725.5V1754H290.5V1725.5H264.6ZM228.8 1725.5V1754H254.7V1725.5H228.8Z" fill="#754ABA"/>
<path d="M335.3 1719.2H450.7V1760.4H335.3V1719.2ZM415.9 1725.5V1754H441.8V1725.5H415.9ZM380.1 1725.5V1754H406V1725.5H380.1ZM344.2 1725.5V1754H370.1V1725.5H344.2Z" fill="#754ABA"/>
<path d="M450.7 1719.2H566.1V1760.4H450.7V1719.2ZM531.4 1725.5V1754H557.3V1725.5H531.4ZM495.5 1725.5V1754H521.4V1725.5H495.5ZM459.7 1725.5V1754H485.6V1725.5H459.7Z" fill="#754ABA"/>
<path d="M566.2 1719.2H681.6V1760.4H566.2V1719.2ZM646.8 1725.5V1754H672.7V1725.5H646.8ZM610.9 1725.5V1754H636.8V1725.5H610.9ZM575.1 1725.5V1754H601V1725.5H575.1Z" fill="#754ABA"/>
<path d="M681.6 1719.2H797V1760.4H681.6V1719.2ZM762.2 1725.5V1754H788.1V1725.5H762.2ZM726.4 1725.5V1754H752.3V1725.5H726.4ZM690.5 1725.5V1754H716.4V1725.5H690.5Z" fill="#754ABA"/>
<path d="M797 1719.2H912.4V1760.4H797V1719.2ZM877.7 1725.5V1754H903.6V1725.5H877.7ZM841.8 1725.5V1754H867.7V1725.5H841.8ZM805.9 1725.5V1754H831.8V1725.5H805.9Z" fill="#754ABA"/>
<path d="M912.5 1719.2H941.4H948.6H950.4H951.3H952.3L956.6 1719.3C958 1719.3 959.5 1719.5 960.9 1719.6C962.3 1719.7 963.8 1719.8 965.2 1720C968 1720.4 970.9 1720.7 973.7 1721.2C985 1723.1 996 1726.8 1006.4 1731.7C1016.7 1736.7 1026.4 1743 1035 1750.6L1007.9 1781.6C1002.1 1776.5 995.5 1772.2 988.5 1768.8C981.5 1765.5 974.1 1763 966.4 1761.7C964.5 1761.3 962.6 1761.1 960.6 1760.9C959.6 1760.8 958.7 1760.7 957.7 1760.7C956.7 1760.6 955.8 1760.5 954.8 1760.5L951.9 1760.4H951.1H950.2H948.4H941.2H912.3V1719.2H912.5ZM997.5 1734.7L986.6 1761.1C993.5 1763.9 1000 1767.7 1006.1 1772.1L1023 1749.1C1015.1 1743.3 1006.5 1738.4 997.5 1734.7ZM958 1725.7L956.5 1754.2C964 1754.6 971.4 1755.9 978.5 1758.1L986.8 1730.8C977.4 1728 967.7 1726.3 958 1725.7ZM921.4 1725.5V1754H947.3V1725.5H921.4Z" fill="#754ABA"/>
<path d="M1035 1750.6C1052.3 1765.7 1065.5 1785.5 1072.4 1807.4C1074.1 1812.9 1075.6 1818.5 1076.5 1824.1C1077.1 1826.9 1077.4 1829.8 1077.7 1832.6C1077.9 1834 1077.9 1835.5 1078.1 1836.9C1078.2 1838.3 1078.3 1839.8 1078.4 1841.2L1078.5 1845.5V1846.5V1847.4V1849.2V1856.4V1870.8H1037.3V1856.4V1849.2V1847.4V1846.5V1845.7L1037.2 1842.8C1037.2 1841.8 1037.1 1840.9 1037 1839.9C1036.9 1838.9 1036.9 1838 1036.8 1837C1036.5 1835.1 1036.4 1833.1 1036 1831.2C1035.4 1827.4 1034.4 1823.6 1033.2 1819.9C1028.5 1805.1 1019.6 1791.7 1007.9 1781.5L1035 1750.6ZM1071.7 1834.8L1043.3 1837.5L1043.5 1840.3L1043.6 1841.7V1843.1L1043.7 1845.9C1043.7 1846.3 1043.7 1846.9 1043.7 1847.4V1849V1861.9H1072.2V1849V1847.4C1072.2 1846.9 1072.2 1846.3 1072.2 1845.7L1072.1 1842V1840.2L1072 1838.4L1071.7 1834.8ZM1061.1 1795.7L1035.2 1807.7C1038.3 1814.5 1040.7 1821.6 1042 1828.9L1070 1823.5C1068.3 1813.9 1065.1 1804.5 1061.1 1795.7ZM1038.2 1762.3L1017.7 1782.1C1022.9 1787.5 1027.5 1793.4 1031.2 1799.9L1055.8 1785.5C1051 1777.1 1045 1769.3 1038.2 1762.3Z" fill="#754ABA"/>
<path d="M1078.6 1870.9V1986.3H1037.4V1870.9H1078.6ZM1072.2 1951.5H1043.7V1977.4H1072.2V1951.5ZM1072.2 1915.6H1043.7V1941.5H1072.2V1915.6ZM1072.2 1879.8H1043.7V1905.7H1072.2V1879.8Z" fill="#754ABA"/>
<path d="M1078.6 1986.3V2101.7H1037.4V1986.3H1078.6ZM1072.2 2067H1043.7V2092.9H1072.2V2067ZM1072.2 2031.1H1043.7V2057H1072.2V2031.1ZM1072.2 1995.2H1043.7V2021.1H1072.2V1995.2Z" fill="#754ABA"/>
<path d="M1078.6 2101.7V2217.1H1037.4V2101.7H1078.6ZM1072.2 2182.4H1043.7V2208.3H1072.2V2182.4ZM1072.2 2146.5H1043.7V2172.4H1072.2V2146.5ZM1072.2 2110.7H1043.7V2136.6H1072.2V2110.7Z" fill="#754ABA"/>
<path d="M1078.6 2217.2V2274.9V2278.5V2280.3V2282.4L1078.5 2286.7C1078.4 2288.1 1078.3 2289.6 1078.2 2291C1078 2293.9 1077.6 2296.7 1077.2 2299.5C1077 2300.9 1076.7 2302.3 1076.5 2303.7C1076.3 2305.1 1076 2306.5 1075.7 2307.9L1074.7 2312.1C1074.3 2313.5 1073.9 2314.9 1073.5 2316.2L1072.9 2318.3L1072.2 2320.3L1070.8 2324.4C1068.8 2329.8 1066.5 2335 1063.8 2340.1L1027.5 2320.8C1029.3 2317.4 1030.9 2313.8 1032.3 2310.2L1033.2 2307.4L1033.7 2306L1034.1 2304.6L1034.9 2301.8L1035.5 2299C1035.7 2298.1 1035.9 2297.1 1036.1 2296.1C1036.3 2295.1 1036.5 2294.2 1036.6 2293.2C1036.8 2291.3 1037.1 2289.4 1037.2 2287.4C1037.3 2286.4 1037.4 2285.5 1037.4 2284.5L1037.5 2281.6V2280.9C1037.5 2280.7 1037.5 2280.4 1037.5 2280.1V2278.3V2274.7V2217H1078.6V2217.2ZM1070.7 2300L1042.6 2295.5C1041.4 2302.9 1039.3 2310.1 1036.4 2316.9L1062.6 2328.1C1066.4 2319.1 1069.1 2309.7 1070.7 2300ZM1072.2 2261.9H1043.7V2274.8V2278V2279.6V2280.4V2281.1L1043.6 2283.9V2285.3L1043.5 2286.7L1071.9 2288.6L1072 2286.8L1072.1 2285L1072.2 2281.3V2280.4V2279.6V2278V2274.8V2261.9V2261.9ZM1072.2 2226.1H1043.7V2252H1072.2V2226.1Z" fill="#754ABA"/>
<path d="M1063.7 2340.2C1052.9 2360.5 1036.6 2377.7 1016.9 2389.6C1012 2392.5 1006.9 2395.2 1001.6 2397.5C996.3 2399.7 990.9 2401.7 985.4 2403.2L983.3 2403.8L981.2 2404.3L977 2405.3L972.8 2406.1L970.7 2406.5L968.6 2406.8L964.3 2407.3L960 2407.6L957.9 2407.8L955.8 2407.9L951.5 2408V2366.8C967.1 2366.8 982.5 2362.6 995.8 2354.5C1009.1 2346.5 1020.2 2334.8 1027.5 2321.1L1063.7 2340.2ZM990.1 2395.1L981 2368.1C977.5 2369.3 973.9 2370.2 970.2 2371.1C968.4 2371.4 966.5 2371.8 964.7 2372.1C962.8 2372.3 961 2372.6 959.1 2372.7L961.5 2401.1C963.9 2401 966.4 2400.6 968.8 2400.3C971.2 2400 973.6 2399.5 976 2399C980.8 2397.9 985.5 2396.7 990.1 2395.1ZM1025.8 2375.8L1008.2 2353.3C1005.3 2355.6 1002.2 2357.7 999 2359.7L996.6 2361.1L995.4 2361.8L994.2 2362.4L991.7 2363.7C990.9 2364.1 990 2364.5 989.2 2364.9L1000.9 2390.9C1002 2390.4 1003.1 2389.9 1004.2 2389.4L1007.5 2387.7L1009.1 2386.9L1010.7 2386L1013.9 2384.2C1017.9 2381.6 1021.9 2378.9 1025.8 2375.8ZM1053 2346L1029 2330.6C1027 2333.8 1024.7 2336.7 1022.4 2339.6L1020.6 2341.7L1019.7 2342.8L1018.7 2343.8L1016.8 2345.8L1014.8 2347.7L1034.4 2368.4L1037 2365.9L1039.5 2363.3L1040.8 2362L1042 2360.6L1044.4 2357.8C1047.5 2354 1050.4 2350.1 1053 2346Z" fill="#754ABA"/>
<path d="M76.2 0V121.1H35V0H76.2ZM69.8 84.6H41.3V111.7H69.8V84.6ZM69.8 47H41.3V74.1H69.8V47ZM69.8 9.4H41.3V36.5H69.8V9.4Z" fill="#754ABA"/>
<path d="M76.2 121.1V242.2H35V121.1H76.2ZM69.8 205.7H41.3V232.8H69.8V205.7ZM69.8 168H41.3V195.1H69.8V168ZM69.8 130.4H41.3V157.5H69.8V130.4Z" fill="#754ABA"/>
<path d="M76.2 242.1V363.2H35V242.1H76.2ZM69.8 326.7H41.3V353.8H69.8V326.7ZM69.8 289.1H41.3V316.2H69.8V289.1ZM69.8 251.5H41.3V278.6H69.8V251.5Z" fill="#754ABA"/>
<path d="M76.2 363.2V423.7V438.8V446.4L76.4 453.1C76.8 462 77.9 470.9 79.7 479.6L39.5 488.2C37.2 477.2 35.8 466 35.3 454.7L35 446.4V438.8V423.7V363.2H76.2V363.2ZM69.9 447.7L41.4 447.9C41.4 457.6 42.3 467.4 43.8 477L72 472.5C70.6 464.4 69.9 456.1 69.9 447.7ZM69.8 410.2H41.3V437.3H69.8V410.2ZM69.8 372.6H41.3V399.7H69.8V372.6Z" fill="#754ABA"/>
<path d="M79.7 479.7C87 514.6 106.9 546.7 134.7 569.2L108.8 601.2C91.3 587 76.3 569.9 64.5 550.7C52.7 531.5 44.1 510.3 39.5 488.3L79.7 479.7ZM106.9 550.4L84.8 568.5C91 576 97.7 583.2 105 589.7L124.1 568.5C117.9 563 112.2 556.9 106.9 550.4ZM87.9 521.6L62.6 534.7C67.1 543.4 72.2 551.7 78 559.6L101 542.8C96.1 536 91.8 529 87.9 521.6ZM75.5 489.4L48 496.8C49.2 501.5 50.8 506.2 52.3 510.8L54.9 517.7C55.8 520 56.8 522.2 57.8 524.4L83.9 512.9C83.1 511 82.2 509.1 81.5 507.2L79.3 501.4C77.9 497.4 76.5 493.4 75.5 489.4Z" fill="#754ABA"/>
<path d="M134.6 569.2C148.5 580.4 164.3 589.2 181.1 595.2C189.5 598.2 198.1 600.5 206.9 601.9C211.3 602.6 215.7 603.2 220.2 603.6C221.3 603.7 222.4 603.8 223.5 603.9L226.9 604L230.3 604.1C231.4 604.1 232.5 604.1 233.6 604.1V645.3C232.2 645.3 230.8 645.3 229.4 645.2L225.2 645L221 644.8C219.6 644.7 218.2 644.6 216.8 644.5C211.2 644.1 205.6 643.3 200.1 642.4C189 640.6 178.1 637.6 167.4 633.9C146.2 626.4 126.2 615.2 108.7 601.1L134.6 569.2ZM200.3 607.1L194.5 635L201.7 636.4C204.1 636.8 206.5 637.1 208.9 637.4C211.3 637.8 213.7 637.9 216.2 638.2L219.8 638.5C221 638.6 222.2 638.6 223.4 638.7L224.9 610.2C223.9 610.1 222.8 610.1 221.8 610L218.7 609.7C216.6 609.5 214.6 609.4 212.5 609C210.4 608.7 208.4 608.4 206.3 608.1L200.3 607.1ZM167.4 596.5L155.9 622.6C164.8 626.5 174.1 629.9 183.5 632.4L190.9 604.9C182.9 602.7 175 599.9 167.4 596.5ZM137.5 579.3L120.7 602.4C128.6 608.2 137 613.2 145.6 617.7L158.7 592.4C151.4 588.5 144.2 584.2 137.5 579.3Z" fill="#754ABA"/>
<path d="M233.4 645.3H230.1L230.5 604.1H233.8L233.4 645.3ZM231.2 639L231.5 610.5H230.8L230.5 639H231.2ZM232.2 639L232.5 610.5H231.8L231.5 639H232.2ZM233.2 639L233.5 610.5H232.8L232.5 639H233.2Z" fill="#754ABA"/>
<path d="M230.3 604.2H345.1V645.4H230.3V604.2ZM310.5 610.5V639H336.2V610.5H310.5ZM274.8 610.5V639H300.5V610.5H274.8ZM239.2 610.5V639H264.9V610.5H239.2Z" fill="#754ABA"/>
<path d="M345.1 604.2H459.9V645.4H345.1V604.2ZM425.3 610.5V639H451V610.5H425.3ZM389.6 610.5V639H415.3V610.5H389.6ZM354 610.5V639H379.7V610.5H354Z" fill="#754ABA"/>
<path d="M459.9 604.2H574.7V645.4H459.9V604.2ZM540.1 610.5V639H565.8V610.5H540.1ZM504.5 610.5V639H530.2V610.5H504.5ZM468.8 610.5V639H494.5V610.5H468.8Z" fill="#754ABA"/>
<path d="M574.7 604.2H689.5V645.4H574.7V604.2ZM655 610.5V639H680.7V610.5H655ZM619.3 610.5V639H645V610.5H619.3ZM583.6 610.5V639H609.3V610.5H583.6Z" fill="#754ABA"/>
<path d="M689.5 604.2H747H775.7C776.9 604.2 778.2 604.2 779.4 604.3L783.2 604.4L790.9 604.6C792.2 604.6 793.5 604.7 794.7 604.8L798.5 605.1L806.2 605.7L802.2 646.7L795.6 646.2L792.3 645.9C791.2 645.8 790.1 645.7 789 645.7L782.3 645.5L779 645.4C777.9 645.4 776.8 645.3 775.6 645.3H747H689.6V604.2H689.5ZM769.8 610.5V639H776.2C778.3 639 780.3 639.1 782.3 639.1C786.4 639.2 790.4 639.2 794.5 639.6L796.3 611.1C791.8 610.7 787.3 610.7 782.8 610.5C780.6 610.5 778.3 610.4 776.1 610.4H769.8V610.5ZM734.1 610.5V639H759.8V610.5H734.1ZM698.4 610.5V639H724.1V610.5H698.4Z" fill="#754ABA"/>
<path d="M806.3 605.6C826.7 607.6 847 611.6 866.6 617.7C886.2 623.8 905.2 632 923.1 641.9L903.1 677.9C887.6 669.3 871.2 662.2 854.3 657C837.4 651.8 819.9 648.3 802.2 646.6L806.3 605.6ZM887.3 631.9L876.6 658.3L879.4 659.4L880.8 660L882.2 660.6L887.8 663.1C889.6 664 891.5 664.7 893.3 665.6L898.7 668.4L911.7 643L905.7 639.9C903.7 638.9 901.6 638 899.6 637.1L893.4 634.3L891.9 633.6L890.3 633L887.3 631.9ZM851.7 620.1L844.5 647.7L856.2 651L867.8 654.9L877.5 628.1L864.7 623.8L851.7 620.1ZM814.9 613L811.3 641.3L817.4 642.1L823.4 643.2L829.4 644.3L830.9 644.6L832.4 644.9L835.4 645.6L841.6 617.8L838.3 617L836.7 616.6L835 616.3L828.3 615.1C826.1 614.7 823.9 614.3 821.6 613.9L814.9 613Z" fill="#754ABA"/>
<path d="M923.2 642C959.1 662 990.8 689.3 1015.9 721.8L983.3 746.9C961.6 718.8 934.2 695.2 903.2 677.9L923.2 642ZM987 698.3L966.7 718.3C969.5 721.3 972.4 724.2 975.1 727.2L983.1 736.4L1005.1 718.3C1002.2 714.9 999.2 711.5 996.3 708.1C993.3 704.8 990.1 701.6 987 698.3ZM959 673.4L941.4 695.8L946.2 699.6C947.8 700.9 949.3 702.3 950.8 703.6L955.4 707.6C956.9 708.9 958.4 710.4 959.9 711.8L979.5 691.1C977.9 689.6 976.3 688 974.6 686.5L969.5 682.1C967.8 680.6 966.1 679.1 964.4 677.7L959 673.4ZM928.2 652.2L913.6 676.7C915.4 677.7 917.1 678.8 918.8 679.9L923.9 683.2C924.8 683.8 925.6 684.3 926.5 684.9L929 686.7L934 690.2L950.8 667.2L945.3 663.3L942.5 661.3C941.6 660.7 940.6 660.1 939.7 659.5L934 655.9C932 654.5 930.2 653.2 928.2 652.2Z" fill="#754ABA"/>
<path d="M1015.9 721.8C1041 754.3 1059.5 792 1069.4 831.9L1029.5 842C1020.9 807.6 1005 775.1 983.3 747L1015.9 721.8ZM1052.2 798.8L1025.6 809.1C1026.3 811 1027.1 812.9 1027.8 814.8L1029.8 820.6L1031.8 826.4L1033.5 832.3L1060.9 824.5L1059 818L1056.8 811.6L1054.6 805.2C1053.9 803 1053 800.9 1052.2 798.8ZM1036.4 764.8L1011.4 778.4L1017 789.3C1018.8 793 1020.4 796.7 1022.1 800.4L1048.3 789.1C1046.4 785 1044.6 780.9 1042.7 776.8L1036.4 764.8ZM1016.4 733.1L993.3 749.8C995.6 753.1 998.1 756.4 1000.2 759.9L1003.5 765L1005.1 767.6L1006.6 770.2L1031.1 755.7L1029.4 752.8L1027.6 750L1024 744.3C1021.7 740.4 1019 736.8 1016.4 733.1Z" fill="#754ABA"/>
<path d="M1069.4 831.8C1079.4 871.7 1081.2 913.5 1074.7 954L1034.1 947.5C1039.7 912.5 1038.2 876.2 1029.6 841.9L1069.4 831.8ZM1072 916.9L1043.5 915.8L1043.4 918.9C1043.4 919.9 1043.3 920.9 1043.2 921.9L1042.7 928C1042.5 930 1042.5 932.1 1042.2 934.1L1041.4 940.2L1069.7 943.8L1070.5 937.1C1070.8 934.9 1070.9 932.6 1071.1 930.4L1071.6 923.7C1071.7 922.6 1071.8 921.5 1071.8 920.3L1072 916.9ZM1071 879.5L1042.6 882L1043.1 888.1C1043.2 890.1 1043.5 892.2 1043.5 894.2C1043.6 898.3 1043.7 902.3 1043.8 906.4L1072.3 906.5C1072.3 902 1072.1 897.5 1072 893C1072 890.7 1071.8 888.5 1071.6 886.3L1071 879.5ZM1065.4 842.5L1037.5 848.6L1038.2 851.6C1038.4 852.6 1038.6 853.6 1038.8 854.6L1039.9 860.6L1040.4 863.6L1040.7 865.1L1040.9 866.6L1041.7 872.7L1070 869.2L1069.1 862.5L1068.9 860.8L1068.6 859.1L1068 855.8L1066.8 849.1C1066.6 848 1066.4 846.9 1066.2 845.8L1065.4 842.5Z" fill="#754ABA"/>
<path d="M1074.6 954.1C1068.1 994.7 1053 1033.9 1030.8 1068.4L996.2 1046.2C1015.4 1016.4 1028.3 982.6 1034 947.6L1074.6 954.1ZM1043.3 1033.3L1017.6 1021C1015.8 1024.6 1013.9 1028.2 1012.1 1031.9C1011.7 1032.8 1011.1 1033.7 1010.6 1034.6L1009.1 1037.2L1006.1 1042.5L1030.6 1057.1L1034 1051.2L1035.7 1048.3C1036.3 1047.3 1036.8 1046.4 1037.3 1045.3C1039.2 1041.3 1041.3 1037.3 1043.3 1033.3ZM1057.3 998.5L1030.2 989.5C1028.9 993.3 1027.7 997.2 1026.1 1001L1023.9 1006.7L1022.8 1009.5L1021.5 1012.3L1047.6 1023.7L1049 1020.6L1050.2 1017.5L1052.7 1011.2C1054.5 1007 1055.8 1002.7 1057.3 998.5ZM1066.8 962.2L1038.8 956.8C1038.6 957.8 1038.5 958.8 1038.3 959.8L1037.6 962.8L1036.2 968.7C1035.4 972.7 1034.1 976.6 1033 980.5L1060.4 988.5C1061.6 984.2 1063 979.9 1063.9 975.4L1065.4 968.8L1066.2 965.5C1066.4 964.5 1066.6 963.4 1066.8 962.2Z" fill="#754ABA"/>
<path d="M1030.9 1068.4C1008.7 1103 979.5 1132.9 945.4 1155.9L922.4 1121.8C951.8 1101.9 977.1 1076 996.2 1046.2L1030.9 1068.4ZM970.7 1128.5L952 1107L947.4 1111C945.9 1112.3 944.2 1113.5 942.6 1114.8L937.8 1118.6L936.6 1119.5L935.4 1120.4L932.9 1122.2L949.6 1145.3L952.4 1143.3L953.8 1142.3L955.1 1141.3L960.4 1137.1C962.2 1135.7 964 1134.4 965.7 1132.9L970.7 1128.5ZM997.3 1102.2L976 1083.2C970.6 1089.2 964.9 1095.1 958.9 1100.6L978.4 1121.4C985.1 1115.3 991.3 1108.9 997.3 1102.2ZM1020.4 1072.7L996.9 1056.6L993.4 1061.6L991.6 1064.1L990.7 1065.3L989.8 1066.5C987.3 1069.7 984.8 1072.9 982.2 1076.1L1004.1 1094.3C1007 1090.8 1009.7 1087.2 1012.5 1083.7L1013.5 1082.4L1014.5 1081L1016.5 1078.2L1020.4 1072.7Z" fill="#754ABA"/>
<path d="M945.4 1155.9C911.3 1178.9 872.5 1194.8 832.1 1202.2L824.6 1161.7C859.5 1155.3 892.9 1141.6 922.4 1121.8L945.4 1155.9ZM866.3 1187.2L857.7 1160C856.7 1160.3 855.8 1160.6 854.8 1160.9L851.9 1161.7L846 1163.4C844.1 1164 842.1 1164.4 840.1 1164.9L834.2 1166.3L840.3 1194.2L846.9 1192.7C849.1 1192.2 851.3 1191.7 853.5 1191.1L860 1189.3L863.2 1188.4C864.1 1187.9 865.2 1187.6 866.3 1187.2ZM901.2 1173.6L889.2 1147.7C881.8 1151.2 874.3 1154.2 866.6 1157L876.2 1183.9C884.6 1180.8 893 1177.4 901.2 1173.6ZM934.1 1155.7L918.9 1131.6C915.5 1133.9 911.9 1135.8 908.4 1137.9C906.6 1138.9 904.9 1140 903.1 1140.9L897.7 1143.7L910.6 1169.1L916.6 1166C918.6 1165 920.5 1163.8 922.5 1162.7C926.4 1160.4 930.3 1158.2 934.1 1155.7Z" fill="#754ABA"/>
<path d="M832.1 1202.2L824.5 1203.6C823.2 1203.8 822 1204 820.7 1204.2L816.9 1204.7L809.3 1205.7C808 1205.9 806.7 1206 805.5 1206.1L801.7 1206.4L794 1207C792.7 1207.1 791.4 1207.1 790.2 1207.2L786.4 1207.3L778.7 1207.5C777.4 1207.5 776.2 1207.5 775 1207.5H771.4H714V1166.3H771.4H775C776.2 1166.3 777.4 1166.3 778.5 1166.3L785.2 1166.1L788.5 1166C789.6 1166 790.7 1166 791.8 1165.9L798.4 1165.4L801.7 1165.2C802.8 1165.1 803.9 1165.1 805 1164.9L811.6 1164.1L814.9 1163.7C816 1163.6 817.1 1163.4 818.2 1163.2L824.7 1162L832.1 1202.2ZM748.5 1201V1172.5H722.8V1201H748.5ZM784.5 1200.8L783.8 1172.3L777.7 1172.5C775.6 1172.5 773.4 1172.5 771.3 1172.5H758.4V1201H771.3C773.5 1201 775.5 1201 777.8 1201L784.5 1200.8ZM821.8 1197.6L817.5 1169.4L805.4 1170.9C801.4 1171.3 797.3 1171.5 793.2 1171.9L794.9 1200.4C799.4 1200 803.9 1199.8 808.4 1199.3L821.8 1197.6Z" fill="#754ABA"/>
<path d="M713.9 1207.3H599.1V1166.1H713.9V1207.3ZM633.7 1201V1172.5H608V1201H633.7ZM669.4 1201V1172.5H643.7V1201H669.4ZM705 1201V1172.5H679.3V1201H705Z" fill="#754ABA"/>
<path d="M599.1 1207.3H484.3V1166.1H599.1V1207.3ZM518.8 1201V1172.5H493.1V1201H518.8ZM554.5 1201V1172.5H528.8V1201H554.5ZM590.2 1201V1172.5H564.5V1201H590.2Z" fill="#754ABA"/>
<path d="M484.3 1207.3H426.9H398.2H383.8H376.6H374.8H373.9H373.1L369.9 1207.4L368.9 1166.3L372.9 1166.2H373.9H374.8H376.6H383.8H398.2H426.9H484.3V1207.3ZM404 1201V1172.5H378.3V1201H404ZM439.7 1201V1172.5H414V1201H439.7ZM475.4 1201V1172.5H449.7V1201H475.4Z" fill="#754ABA"/>
<path d="M369.9 1207.4C365.6 1207.4 361.4 1207.8 357.2 1208.1L350.9 1208.9L349.3 1209.1L347.7 1209.4L344.6 1210L341.5 1210.6L338.4 1211.3L335.3 1212L333.8 1212.4L332.3 1212.8L326.2 1214.5L320.2 1216.5C312.2 1219.4 304.5 1222.8 297 1226.9C289.6 1231 282.5 1235.7 275.8 1240.8L250.6 1208.3C259 1201.8 267.9 1195.9 277.3 1190.8C286.7 1185.7 296.4 1181.4 306.5 1177.8L314.1 1175.2L321.8 1173L323.7 1172.5L325.6 1172L329.5 1171.1L333.4 1170.2L337.3 1169.5L341.2 1168.8L343.2 1168.5L345.2 1168.2L353.1 1167.2C358.4 1166.8 363.7 1166.3 369 1166.3L369.9 1207.4ZM298.7 1218.8L285.8 1193.3C277.5 1197.4 269.6 1202.3 262 1207.5L278.3 1230.9C284.9 1226.5 291.6 1222.3 298.7 1218.8ZM329.3 1207L321.7 1179.5C312.8 1181.9 304.1 1185.1 295.6 1188.8L307 1214.9C314.3 1211.8 321.7 1209 329.3 1207ZM361.6 1201.5L359.5 1173.1C350.3 1173.7 341.1 1175.1 332.1 1177L338.2 1204.9C345.9 1203.2 353.7 1201.9 361.6 1201.5Z" fill="#754ABA"/>
<path d="M275.7 1240.8L273.2 1242.8C272.4 1243.5 271.5 1244.1 270.7 1244.8L265.9 1249L261.3 1253.4C260.5 1254.1 259.8 1254.9 259.1 1255.7L256.9 1258C251.1 1264.2 245.7 1270.8 241 1277.8C231.5 1291.9 224.1 1307.4 219.6 1323.7L180 1312.4C185.8 1291.9 195.1 1272.4 207 1254.7C213 1245.9 219.7 1237.6 227 1229.8L229.8 1226.9C230.7 1225.9 231.6 1225 232.6 1224.1L238.4 1218.6L244.4 1213.4C245.4 1212.5 246.4 1211.7 247.5 1210.9L250.6 1208.4L275.7 1240.8ZM225 1292.3L199.6 1279.4C197.4 1283.5 195.6 1287.8 193.7 1292C192 1296.3 190.2 1300.6 188.8 1305L215.8 1314.2C217 1310.4 218.6 1306.8 220 1303.1C221.6 1299.4 223.1 1295.8 225 1292.3ZM242.7 1264.6L220.3 1246.9C217.4 1250.5 214.8 1254.3 212.1 1258.1C210.8 1260 209.6 1262 208.3 1263.9C207.7 1264.9 207 1265.8 206.4 1266.8L204.7 1269.8L229.4 1284.1L230.9 1281.5C231.4 1280.7 232 1279.8 232.5 1279C233.6 1277.3 234.6 1275.7 235.7 1274C238 1271 240.2 1267.7 242.7 1264.6ZM265.5 1241L247 1219.3C239.9 1225.2 233.4 1231.8 227.3 1238.7L248.7 1257.6C253.8 1251.7 259.4 1246.1 265.5 1241Z" fill="#754ABA"/>
<path d="M219.5 1323.6C218.3 1327.7 217.4 1331.8 216.5 1335.9L215.4 1342.2C215.2 1343.2 215.1 1344.3 214.9 1345.3L214.5 1348.5C214.4 1349.6 214.2 1350.6 214.1 1351.7L213.9 1354.9L213.7 1358.1L213.6 1359.7V1361.3L213.4 1367.7L213.5 1374.1C213.9 1382.6 214.7 1391 216.4 1399.4C218.1 1407.7 220.4 1415.9 223.3 1423.8L184.7 1438.1C181 1428.1 178.1 1417.8 176 1407.3C173.9 1396.8 172.8 1386.2 172.3 1375.6C171.8 1365 172.4 1354.3 173.6 1343.7L174.1 1339.7C174.3 1338.4 174.4 1337.1 174.7 1335.7L176.1 1327.8C177.3 1322.6 178.4 1317.4 179.9 1312.3L219.5 1323.6ZM209.2 1395.1L181.1 1399.7L182.3 1406.5C182.7 1408.8 183.3 1411 183.8 1413.3L184.6 1416.7L185.5 1420C186.1 1422.2 186.7 1424.5 187.4 1426.7L214.6 1418.1C214 1416.2 213.5 1414.3 213 1412.4L212.2 1409.6L211.5 1406.7C211.1 1404.8 210.6 1402.9 210.2 1400.9L209.2 1395.1ZM207.1 1362.3L178.6 1361.4C178.5 1363.7 178.5 1366 178.4 1368.3L178.6 1375.2C178.6 1377.5 178.8 1379.8 179 1382.1C179.2 1384.4 179.3 1386.7 179.6 1389L207.9 1385.9C207.6 1383.9 207.6 1382 207.4 1380C207.2 1378 207.1 1376.1 207.1 1374.1L206.9 1368.2C206.9 1366.2 207 1364.3 207.1 1362.3ZM211.3 1329.8L183.5 1323.3L182.7 1326.7L182.3 1328.4L182 1330.1L180.8 1336.9C180.4 1339.2 180.2 1341.5 179.9 1343.8L179.5 1347.2C179.3 1348.3 179.3 1349.5 179.2 1350.7L207.6 1353.2C207.7 1352.2 207.7 1351.2 207.9 1350.2L208.3 1347.3C208.6 1345.3 208.7 1343.4 209.1 1341.4L210.1 1335.6L210.4 1334.1L210.7 1332.7L211.3 1329.8Z" fill="#754ABA"/>
<path d="M223.2 1423.6C235 1455.4 257.1 1483.3 285.5 1501.9L262.8 1536.2C227.1 1512.8 199.4 1477.8 184.6 1437.8L223.2 1423.6ZM257.2 1487.3L237.3 1507.7L242.3 1512.5L247.5 1517C249.2 1518.5 251.1 1519.9 252.9 1521.4C254.7 1522.8 256.5 1524.3 258.4 1525.6L275.3 1502.6C273.7 1501.5 272.2 1500.2 270.6 1499C269 1497.8 267.5 1496.6 266 1495.3L261.5 1491.4L257.2 1487.3ZM236.1 1462.1L212.6 1478.2L216.6 1483.9C217.9 1485.8 219.4 1487.6 220.8 1489.4L222.9 1492.1L225.2 1494.7C226.7 1496.4 228.2 1498.2 229.8 1499.9L250.8 1480.6C249.4 1479.2 248.2 1477.6 246.9 1476.1L245 1473.9L243.2 1471.6C242 1470 240.7 1468.5 239.6 1466.9L236.1 1462.1ZM220.3 1433.4L194.1 1444.6C197.8 1453.1 202 1461.3 206.8 1469.3L231.2 1454.5C227.1 1447.7 223.4 1440.7 220.3 1433.4Z" fill="#754ABA"/>
<path d="M285.5 1502C292.5 1506.7 300 1510.8 307.8 1514.3C315.5 1517.8 323.5 1520.7 331.7 1522.9C339.9 1525.1 348.2 1526.7 356.7 1527.6C358.8 1527.8 360.9 1527.9 363 1528.1C364.1 1528.2 365.1 1528.3 366.2 1528.3L369.4 1528.4L372.6 1528.5C373.1 1528.5 373.6 1528.5 374.2 1528.5H376H383.2V1569.7H376H374.2H372.2L368.2 1569.6L364.2 1569.5C362.9 1569.5 361.5 1569.3 360.2 1569.2C357.5 1569 354.9 1568.8 352.2 1568.5C341.6 1567.4 331.1 1565.3 320.8 1562.6C310.5 1559.9 300.4 1556.2 290.7 1551.8C281 1547.4 271.6 1542.3 262.7 1536.4L285.5 1502ZM350.6 1533.1L346.7 1561.3L353.6 1562.2C355.9 1562.4 358.2 1562.6 360.5 1562.7L364 1563L367.5 1563.1L374.4 1563.3V1534.8L368.4 1534.7L365.4 1534.6L362.4 1534.4C360.4 1534.2 358.5 1534.1 356.5 1533.9L350.6 1533.1ZM318.7 1525.4L309.3 1552.3L315.9 1554.5L322.6 1556.4C324.8 1557.1 327.1 1557.6 329.3 1558.1L332.7 1558.9C333.8 1559.2 335 1559.4 336.1 1559.6L341.6 1531.6C340.6 1531.4 339.7 1531.2 338.7 1531L335.8 1530.3C333.9 1529.9 331.9 1529.4 330.1 1528.9L324.4 1527.3L318.7 1525.4ZM289 1511.6L274.5 1536.1L280.5 1539.6L286.7 1542.8C287.7 1543.3 288.7 1543.9 289.8 1544.3L293 1545.7L296.2 1547.1C297.2 1547.6 298.3 1548 299.4 1548.5L310.3 1522.2C309.4 1521.9 308.5 1521.5 307.6 1521L304.9 1519.8L302.2 1518.6C301.3 1518.2 300.4 1517.7 299.6 1517.3L294.3 1514.6L289 1511.6Z" fill="#754ABA"/>
<path d="M383.1 1528.5H440.5H454.9H458.5H460.3H461.2H462.4C465.5 1528.5 468.6 1528.7 471.7 1529.1C484.1 1530.6 496.2 1534.7 506.9 1541.2L485.6 1576.4C479.9 1573 473.5 1570.8 466.9 1570C465.2 1569.8 463.6 1569.7 461.9 1569.7H461.3H460.4H458.6H455H440.6H383.2V1528.5H383.1ZM463.8 1534.8L462.9 1563.3C469.7 1563.5 476.4 1565 482.6 1567.7L494 1541.6C484.5 1537.5 474.1 1535.2 463.8 1534.8ZM427.6 1534.8V1563.3H453.3V1534.8H427.6ZM392 1534.8V1563.3H417.7V1534.8H392Z" fill="#754ABA"/>
<path d="M506.8 1541.2C517.5 1547.7 526.7 1556.4 533.8 1566.6C540.9 1576.8 545.8 1588.7 548 1600.9L548.4 1603.2L548.7 1605.5L549 1607.8L549.2 1610.1C549.3 1611.7 549.4 1613.2 549.4 1614.8V1617V1618.8V1633.2V1661.9H508.2V1633.2V1618.8V1617C508.2 1616.7 508.2 1616.5 508.2 1616.3V1615.7C508.2 1614.9 508.2 1614 508.1 1613.2L508 1612L507.8 1610.8L507.6 1609.6L507.4 1608.4C506.2 1601.9 503.7 1595.6 499.8 1590.1C496 1584.6 491 1579.9 485.3 1576.5L506.8 1541.2ZM543.1 1627.4H514.6V1653.1H543.1V1627.4ZM537.5 1587.1L510.9 1597.4C512.1 1600.5 513 1603.8 513.6 1607.1C513.8 1607.9 513.9 1608.8 514 1609.6C514.1 1610.4 514.2 1611.3 514.3 1612.1C514.3 1612.9 514.5 1613.8 514.5 1614.6V1615.9C514.5 1616.3 514.5 1616.7 514.5 1617.3H543C543 1616.8 543 1616.1 543 1615.5V1613.6C543 1612.3 542.8 1611 542.8 1609.7C542.7 1608.4 542.5 1607.1 542.4 1605.8C542.3 1604.5 542 1603.2 541.8 1602C540.8 1597 539.4 1591.9 537.5 1587.1ZM512.3 1552.7L494.5 1575C499.8 1579.2 504.3 1584.5 507.6 1590.4L532.4 1576.3C527.2 1567.2 520.4 1559.2 512.3 1552.7Z" fill="#754ABA"/>
<path d="M549.4 1662V1669.2C549.4 1670.2 549.4 1672 549.3 1673.5C549.3 1675.1 549.1 1676.6 549 1678.2C548.5 1684.4 547.3 1690.6 545.4 1696.5C541.7 1708.4 535.5 1719.6 527.2 1728.9C518.9 1738.2 508.7 1745.8 497.3 1750.9C485.9 1756 473.4 1758.7 461 1758.7V1717.5C467.7 1717.5 474.3 1716.1 480.4 1713.3C486.5 1710.6 491.9 1706.5 496.4 1701.5C500.8 1696.5 504.1 1690.6 506.1 1684.2C507.1 1681 507.7 1677.8 508 1674.4C508 1673.6 508.2 1672.7 508.2 1671.9C508.2 1671 508.3 1670.4 508.2 1669V1661.8H549.4V1662ZM501.2 1741.9L487.2 1717C481.3 1720.3 474.8 1722.5 468.1 1723.3L471.8 1751.6C482.1 1750.3 492.1 1747 501.2 1741.9ZM531.7 1712.1L507.2 1697.6C503.8 1703.4 499.2 1708.6 493.8 1712.7L511.2 1735.3C519.4 1728.9 526.4 1721 531.7 1712.1ZM543.1 1671L514.6 1670.8C514.6 1677.6 513.2 1684.3 510.7 1690.6L537.1 1701.4C541 1691.7 543 1681.3 543.1 1671Z" fill="#754ABA"/>
<path d="M56 2V448.68C56 451.68 56.08 454.75 56.23 457.75C58.5184 502.775 77.8 545.257 110.184 576.622C142.569 607.988 185.644 625.902 230.72 626.75C231.83 626.75 232.94 626.75 234.06 626.75H230.72H777.43C932.6 626.75 1058.43 752.54 1058.43 907.75C1058.43 1062.96 932.63 1188.75 777.43 1188.75H374.23C326.183 1188.75 280.105 1207.84 246.131 1241.81C212.156 1275.78 193.07 1321.86 193.07 1369.91C193.07 1417.96 212.156 1464.04 246.131 1498.01C280.105 1531.98 326.183 1551.07 374.23 1551.07H461.51C479.485 1551.07 496.723 1558.21 509.434 1570.92C522.145 1583.63 529.287 1600.87 529.29 1618.84V1672.36C529.279 1689.7 522.621 1706.38 510.686 1718.96C498.751 1731.54 482.447 1739.07 465.13 1740C463.93 1740.06 462.73 1740.09 461.51 1740.09H162.57C134.311 1740.09 107.209 1751.31 87.2242 1771.29C67.2393 1791.27 56.008 1818.37 56 1846.63V2280.9C56 2309.16 67.2279 2336.27 87.2136 2356.26C107.199 2376.24 134.306 2387.47 162.57 2387.47H951.83C980.094 2387.47 1007.2 2376.24 1027.19 2356.26C1047.17 2336.27 1058.4 2309.16 1058.4 2280.9V1846.63C1058.4 1818.37 1047.17 1791.26 1027.19 1771.27C1007.2 1751.29 980.094 1740.06 951.83 1740.06H477.25" stroke="white" stroke-opacity="0.01" stroke-miterlimit="10"/>
<path d="M41.6532 380.839C41.6532 380.839 36.6793 372.041 22.5278 380.265C22.5278 380.265 -4.05837 397.283 0.532893 428.456C0.532893 428.456 9.33281 456.185 30.7538 454.655L34.1973 454.081C34.1973 454.081 40.7016 458.863 45.4841 457.907C45.4841 457.907 47.3972 458.098 49.8841 455.229C49.8841 455.229 53.7102 459.245 59.6408 457.907L63.2756 456.185C63.2756 456.185 64.2318 459.054 72.4576 458.48L75.5187 457.141C75.5187 457.141 92.3483 458.48 104.018 445.474C104.018 445.474 117.601 433.806 111.67 409.902C111.67 409.902 105.739 385.999 87.7623 376.244C87.7623 376.244 73.4144 369.932 69.7847 378.921C69.7847 378.921 61.5583 376.435 61.5583 382.364C61.5583 382.364 55.2455 378.156 52.7585 382.556C52.7585 382.556 46.2543 377.2 41.663 380.834L41.6532 380.839Z" fill="#E8672D"/>
<path d="M35.5364 359.799V355.018C35.5364 355.018 39.9364 351.383 47.9711 353.87C47.9711 353.87 56.5797 356.93 59.832 369.554L62.8925 384.091L48.7363 383.517L50.6493 370.128C50.6493 370.128 51.032 361.138 45.4841 360.182L35.5364 359.799Z" fill="#44413E"/>
<path d="M25.2404 383.929C19.5503 389.495 15.3515 396.533 13.1147 404.169C10.7897 412.105 10.7063 420.614 12.7714 428.617C13.9486 433.183 15.8224 437.573 18.3191 441.57C18.9667 442.614 20.6246 441.653 19.9722 440.604C15.7047 433.762 13.3501 425.802 13.203 417.745C13.0608 410 15.0277 402.301 18.7851 395.533C20.8797 391.756 23.5088 388.304 26.5942 385.282C27.4771 384.419 26.1233 383.071 25.2404 383.929Z" fill="#A85C17"/>
<path d="M23.9406 436.351C24.8676 441.148 27.3742 445.592 30.9893 448.872C31.8968 449.697 33.2555 448.348 32.3432 447.519C28.9439 444.439 26.6531 440.344 25.7849 435.842C25.5544 434.635 23.71 435.145 23.9406 436.351Z" fill="#A85C17"/>
<path d="M39.0535 382.443C36.2183 385.184 34.1335 388.637 33.0103 392.418C32.6571 393.6 34.5014 394.106 34.8546 392.928C35.8896 389.456 37.8075 386.317 40.4073 383.797C41.2952 382.938 39.9413 381.59 39.0535 382.443Z" fill="#A85C17"/>
<path d="M50.1833 384.169C47.6768 388.622 45.7638 393.404 44.5227 398.358C44.2235 399.549 46.0679 400.059 46.3671 398.868C47.5737 394.061 49.4083 389.451 51.8364 385.135C52.4397 384.061 50.7916 383.095 50.1833 384.169Z" fill="#A85C17"/>
<path d="M42.541 416.93C42.1633 419.55 41.9082 422.178 41.7954 424.821C41.7758 425.337 42.2516 425.778 42.7519 425.778C43.2866 425.778 43.6839 425.341 43.7084 424.821C43.8114 422.355 44.0322 419.888 44.3853 417.44C44.4589 416.93 44.2578 416.415 43.7183 416.263C43.267 416.141 42.6146 416.415 42.541 416.93Z" fill="#A85C17"/>
<path d="M45.3223 445.155C45.9845 448.26 46.7791 451.33 47.7112 454.365C48.0692 455.538 49.9185 455.038 49.5555 453.856C48.6235 450.82 47.8289 447.749 47.1667 444.645C47.0587 444.14 46.4652 443.846 45.9894 443.978C45.4645 444.12 45.2144 444.65 45.3223 445.155Z" fill="#A85C17"/>
<path d="M60.9404 385.317C62.8682 388.353 64.1973 391.702 64.8938 395.229C64.9922 395.734 65.6005 396.028 66.0712 395.895C66.6009 395.748 66.8413 395.229 66.7383 394.718C66.0175 391.04 64.6047 387.509 62.5937 384.346C61.9363 383.311 60.2784 384.267 60.9404 385.312V385.317Z" fill="#A85C17"/>
<path d="M68.8279 416.283C69.25 419.348 69.0927 422.497 68.4211 425.513C68.1512 426.71 69.9952 427.225 70.265 426.023C71.0204 422.644 71.1432 419.201 70.6724 415.773C70.6034 415.263 69.9465 414.983 69.495 415.106C68.941 415.258 68.7543 415.768 68.8279 416.283Z" fill="#A85C17"/>
<path d="M67.2974 446.553C66.5273 448.956 65.5954 451.3 64.5017 453.576C64.2759 454.042 64.3738 454.611 64.8451 454.885C65.2622 455.131 65.9292 455.008 66.1544 454.542C67.3172 452.12 68.3181 449.618 69.1419 447.063C69.2987 446.572 68.9558 446.019 68.4749 445.886C67.96 445.744 67.4547 446.063 67.2974 446.553Z" fill="#A85C17"/>
<path d="M71.6927 381.021C73.8116 383.159 75.7541 385.464 77.4855 387.926C77.7848 388.348 78.3195 388.544 78.7953 388.269C79.2123 388.024 79.4381 387.387 79.1388 386.96C77.314 384.365 75.2782 381.918 73.0467 379.667C72.1781 378.789 70.8247 380.143 71.6927 381.021Z" fill="#A85C17"/>
<path d="M91.3524 409.981C94.8746 420.265 92.7704 431.423 88.3214 441.07C87.0607 443.807 85.6185 446.455 84.0687 449.039C83.4355 450.099 85.0889 451.06 85.7214 450.006C91.3671 440.594 95.6447 429.893 94.9827 418.73C94.796 415.582 94.2172 412.463 93.197 409.476C92.7998 408.318 90.9507 408.814 91.3524 409.986V409.981Z" fill="#A85C17"/>
<path d="M88.5664 383.836C95.8309 390.545 100.673 399.652 102.336 409.393C102.806 412.149 102.988 414.949 102.919 417.74C102.89 418.971 104.803 418.971 104.832 417.74C105.083 407.49 101.786 397.195 95.6985 388.951C93.9773 386.617 92.0541 384.449 89.9204 382.477C89.0179 381.644 87.6588 382.992 88.5664 383.831V383.836Z" fill="#A85C17"/>
<path d="M4.29031 411.638C3.52019 419.491 4.90346 427.47 8.14582 434.65C9.06799 436.69 10.152 438.657 11.3734 440.535C12.0406 441.56 13.6985 440.604 13.0265 439.569C8.87176 433.193 6.43389 425.744 6.04637 418.137C5.93847 415.969 5.99239 413.796 6.20332 411.634C6.25238 411.119 5.72753 410.677 5.24683 410.677C4.68763 410.677 4.33936 411.119 4.29031 411.634V411.638Z" fill="#A85C17"/>
<path d="M22.5278 406.656C22.5278 406.656 23.2931 393.841 34.7712 396.518L44.9103 406.082C44.9103 406.082 50.0755 412.011 42.2321 412.968C42.2321 412.968 25.0197 414.689 22.5328 406.656H22.5278Z" fill="#371522"/>
<path d="M61.3626 404.841C61.1957 405.204 61.0485 405.582 60.9309 405.974C59.8468 409.613 62.0342 412.242 65.7573 412.394C65.7573 412.394 79.7227 412.968 84.8829 407.23C84.8829 407.23 91.1957 402.83 86.9872 397.666C85.0838 395.327 80.9098 392.178 77.8634 391.536C73.2277 390.55 70.5152 395.037 67.6805 397.857C65.4925 400.03 62.6917 401.987 61.3626 404.841Z" fill="#371522"/>
<path d="M22.9105 422.335C22.9105 422.335 19.0844 419.466 19.467 423.482C19.467 423.482 23.6757 437.828 37.4445 439.358L40.5054 436.489L43.7575 441.462C43.7575 441.462 49.4966 444.522 62.1179 443.184C62.1179 443.184 77.6133 442.801 84.3041 428.073L89.0863 416.597C89.0863 416.597 89.4688 412.197 86.5996 415.258L73.9734 425.587L71.2954 432.281L68.4256 428.264C68.4256 428.264 59.8173 434.576 43.7526 430.177C43.7526 430.177 30.3614 426.734 22.9055 422.335H22.9105Z" fill="#3C141D"/>
</svg>
