<svg width="53" height="747" viewBox="0 0 53 747" fill="none" xmlns="http://www.w3.org/2000/svg">
<path d="M33.2 0V39.3H19V0H33.2ZM31.1 27.4H21.2V36.2H31.1V27.4ZM31.1 15.2H21.2V24H31.1V15.2ZM31.1 3H21.2V11.8H31.1V3Z" fill="#754ABA"/>
<path d="M33.2 39.3V78.6H19V39.3H33.2ZM31.1 66.7H21.2V75.5H31.1V66.7ZM31.1 54.5H21.2V63.3H31.1V54.5ZM31.1 42.3H21.2V51.1H31.1V42.3Z" fill="#754ABA"/>
<path d="M33.2 78.6V117.9H19V78.6H33.2ZM31.1 106H21.2V114.8H31.1V106ZM31.1 93.8H21.2V102.6H31.1V93.8ZM31.1 81.6H21.2V90.4H31.1V81.6Z" fill="#754ABA"/>
<path d="M33.2 117.9V157.2H19V117.9H33.2ZM31.1 145.3H21.2V154.1H31.1V145.3ZM31.1 133.1H21.2V141.9H31.1V133.1ZM31.1 120.9H21.2V129.7H31.1V120.9Z" fill="#754ABA"/>
<path d="M33.2 157.1V196.4H19V157.1H33.2ZM31.1 184.6H21.2V193.4H31.1V184.6ZM31.1 172.4H21.2V181.2H31.1V172.4ZM31.1 160.2H21.2V169H31.1V160.2Z" fill="#754ABA"/>
<path d="M33.2 196.4V235.7H19V196.4H33.2ZM31.1 223.9H21.2V232.7H31.1V223.9ZM31.1 211.7H21.2V220.5H31.1V211.7ZM31.1 199.5H21.2V208.3H31.1V199.5Z" fill="#754ABA"/>
<path d="M33.2 235.7V275H19V235.7H33.2ZM31.1 263.2H21.2V272H31.1V263.2ZM31.1 250.9H21.2V259.7H31.1V250.9ZM31.1 238.7H21.2V247.5H31.1V238.7Z" fill="#754ABA"/>
<path d="M33.2 275V314.3H19V275H33.2ZM31.1 302.4H21.2V311.2H31.1V302.4ZM31.1 290.2H21.2V299H31.1V290.2ZM31.1 278H21.2V286.8H31.1V278Z" fill="#754ABA"/>
<path d="M33.2 314.3V353.6H19V314.3H33.2ZM31.1 341.7H21.2V350.5H31.1V341.7ZM31.1 329.5H21.2V338.3H31.1V329.5ZM31.1 317.3H21.2V326.1H31.1V317.3Z" fill="#754ABA"/>
<path d="M33.2 353.6V392.9H19V353.6H33.2ZM31.1 381H21.2V389.8H31.1V381ZM31.1 368.8H21.2V377.6H31.1V368.8ZM31.1 356.6H21.2V365.4H31.1V356.6Z" fill="#754ABA"/>
<path d="M33.2 392.8V432.1H19V392.8H33.2ZM31.1 420.3H21.2V429.1H31.1V420.3ZM31.1 408.1H21.2V416.9H31.1V408.1ZM31.1 395.9H21.2V404.7H31.1V395.9Z" fill="#754ABA"/>
<path d="M33.2 432.1V471.4H19V432.1H33.2ZM31.1 459.6H21.2V468.4H31.1V459.6ZM31.1 447.4H21.2V456.2H31.1V447.4ZM31.1 435.2H21.2V444H31.1V435.2Z" fill="#754ABA"/>
<path d="M33.2 471.4V510.7H19V471.4H33.2ZM31.1 498.9H21.2V507.7H31.1V498.9ZM31.1 486.7H21.2V495.5H31.1V486.7ZM31.1 474.5H21.2V483.3H31.1V474.5Z" fill="#754ABA"/>
<path d="M33.2 510.7V550H19V510.7H33.2ZM31.1 538.1H21.2V546.9H31.1V538.1ZM31.1 525.9H21.2V534.7H31.1V525.9ZM31.1 513.7H21.2V522.5H31.1V513.7Z" fill="#754ABA"/>
<path d="M33.2 550V589.3H19V550H33.2ZM31.1 577.4H21.2V586.2H31.1V577.4ZM31.1 565.2H21.2V574H31.1V565.2ZM31.1 553H21.2V561.8H31.1V553Z" fill="#754ABA"/>
<path d="M33.2 589.3V628.6H19V589.3H33.2ZM31.1 616.7H21.2V625.5H31.1V616.7ZM31.1 604.5H21.2V613.3H31.1V604.5ZM31.1 592.3H21.2V601.1H31.1V592.3Z" fill="#754ABA"/>
<path d="M33.2 628.6V667.9H19V628.6H33.2ZM31.1 656H21.2V664.8H31.1V656ZM31.1 643.8H21.2V652.6H31.1V643.8ZM31.1 631.6H21.2V640.4H31.1V631.6Z" fill="#754ABA"/>
<path d="M33.2 667.8V707.1H19V667.8H33.2ZM31.1 695.3H21.2V704.1H31.1V695.3ZM31.1 683.1H21.2V691.9H31.1V683.1ZM31.1 670.9H21.2V679.7H31.1V670.9Z" fill="#754ABA"/>
<path d="M33.2 707.1V746.4H19V707.1H33.2ZM31.1 734.6H21.2V743.4H31.1V734.6ZM31.1 722.4H21.2V731.2H31.1V722.4ZM31.1 710.2H21.2V719H31.1V710.2Z" fill="#754ABA"/>
<path d="M26 0V711" stroke="white" stroke-opacity="0.01" stroke-miterlimit="10"/>
<path d="M19.5073 180.038C19.5073 180.038 17.1779 175.917 10.5504 179.769C10.5504 179.769 -1.90064 187.739 0.249568 202.338C0.249568 202.338 4.3708 215.324 14.4028 214.608L16.0155 214.339C16.0155 214.339 19.0616 216.578 21.3014 216.131C21.3014 216.131 22.1973 216.22 23.362 214.876C23.362 214.876 25.1539 216.758 27.9313 216.131L29.6336 215.324C29.6336 215.324 30.0814 216.668 33.9338 216.399L35.3674 215.772C35.3674 215.772 43.2491 216.399 48.7142 210.308C48.7142 210.308 55.0754 204.844 52.2981 193.649C52.2981 193.649 49.5205 182.454 41.1014 177.886C41.1014 177.886 34.3819 174.93 32.682 179.14C32.682 179.14 28.8294 177.975 28.8294 180.752C28.8294 180.752 25.8729 178.781 24.7082 180.842C24.7082 180.842 21.6621 178.334 19.5119 180.035L19.5073 180.038Z" fill="#E8672D"/>
<path d="M16.6426 170.184V167.945C16.6426 167.945 18.7032 166.243 22.4661 167.407C22.4661 167.407 26.4977 168.841 28.0209 174.753L29.4542 181.561L22.8244 181.292L23.7204 175.021C23.7204 175.021 23.8996 170.811 21.3014 170.363L16.6426 170.184Z" fill="#44413E"/>
<path d="M11.8208 181.485C9.15602 184.092 7.18959 187.388 6.14205 190.964C5.05317 194.68 5.01411 198.665 5.98125 202.414C6.53258 204.552 7.41014 206.608 8.57941 208.48C8.88266 208.969 9.65912 208.519 9.3536 208.027C7.35499 204.823 6.25231 201.095 6.18341 197.322C6.11679 193.695 7.03796 190.089 8.79766 186.919C9.77858 185.151 11.0099 183.534 12.4549 182.119C12.8683 181.714 12.2343 181.083 11.8208 181.485Z" fill="#A85C17"/>
<path d="M11.212 206.036C11.6461 208.282 12.82 210.363 14.5131 211.899C14.9381 212.286 15.5744 211.654 15.1471 211.266C13.5551 209.823 12.4823 207.905 12.0757 205.797C11.9677 205.232 11.104 205.471 11.212 206.036Z" fill="#A85C17"/>
<path d="M18.2897 180.789C16.9619 182.073 15.9856 183.69 15.4595 185.461C15.2941 186.014 16.1579 186.251 16.3233 185.7C16.808 184.073 17.7062 182.603 18.9238 181.423C19.3396 181.021 18.7055 180.389 18.2897 180.789Z" fill="#A85C17"/>
<path d="M23.5022 181.597C22.3283 183.683 21.4324 185.922 20.8511 188.242C20.711 188.8 21.5748 189.039 21.7149 188.481C22.28 186.23 23.1392 184.071 24.2763 182.05C24.5589 181.547 23.787 181.094 23.5022 181.597Z" fill="#A85C17"/>
<path d="M19.9231 196.94C19.7462 198.167 19.6267 199.398 19.5739 200.636C19.5647 200.877 19.7875 201.084 20.0218 201.084C20.2723 201.084 20.4583 200.879 20.4698 200.636C20.5181 199.481 20.6214 198.325 20.7868 197.179C20.8213 196.94 20.7271 196.699 20.4744 196.628C20.2631 196.57 19.9575 196.699 19.9231 196.94Z" fill="#A85C17"/>
<path d="M21.2257 210.159C21.5358 211.613 21.908 213.05 22.3444 214.472C22.5121 215.021 23.3782 214.787 23.2082 214.233C22.7717 212.812 22.3996 211.374 22.0894 209.92C22.0389 209.683 21.7609 209.545 21.5381 209.607C21.2923 209.674 21.1751 209.922 21.2257 210.159Z" fill="#A85C17"/>
<path d="M28.54 182.135C29.4428 183.557 30.0653 185.125 30.3915 186.777C30.4376 187.013 30.7224 187.151 30.9429 187.089C31.1909 187.02 31.3036 186.777 31.2553 186.538C30.9177 184.815 30.2561 183.162 29.3143 181.68C29.0064 181.195 28.23 181.643 28.54 182.133V182.135Z" fill="#A85C17"/>
<path d="M32.234 196.637C32.4317 198.073 32.358 199.547 32.0435 200.96C31.9171 201.52 32.7807 201.761 32.9071 201.199C33.2608 199.616 33.3183 198.004 33.0979 196.398C33.0655 196.159 32.7579 196.028 32.5464 196.086C32.287 196.157 32.1996 196.396 32.234 196.637Z" fill="#A85C17"/>
<path d="M31.5171 210.813C31.1565 211.939 30.72 213.037 30.2078 214.102C30.1021 214.321 30.1479 214.587 30.3687 214.716C30.5639 214.831 30.8764 214.773 30.9818 214.555C31.5264 213.42 31.9951 212.249 32.381 211.052C32.4544 210.822 32.2938 210.563 32.0685 210.501C31.8274 210.434 31.5908 210.584 31.5171 210.813Z" fill="#A85C17"/>
<path d="M33.5755 180.123C34.5679 181.124 35.4776 182.204 36.2884 183.357C36.4286 183.554 36.679 183.646 36.9019 183.518C37.0972 183.403 37.2029 183.104 37.0627 182.904C36.2082 181.689 35.2547 180.543 34.2096 179.489C33.8029 179.078 33.169 179.712 33.5755 180.123Z" fill="#A85C17"/>
<path d="M42.7827 193.686C44.4322 198.502 43.4467 203.727 41.3632 208.245C40.7728 209.527 40.0973 210.767 39.3715 211.978C39.075 212.474 39.8493 212.924 40.1456 212.43C42.7896 208.023 44.7929 203.011 44.4828 197.783C44.3954 196.309 44.1243 194.848 43.6465 193.449C43.4605 192.907 42.5946 193.139 42.7827 193.688V193.686Z" fill="#A85C17"/>
<path d="M41.4779 181.441C44.88 184.583 47.1475 188.849 47.9263 193.41C48.1468 194.701 48.2318 196.012 48.1998 197.319C48.186 197.896 49.0819 197.896 49.0957 197.319C49.2128 192.519 47.669 187.698 44.818 183.837C44.0119 182.744 43.1112 181.728 42.112 180.805C41.6893 180.415 41.0528 181.046 41.4779 181.439V181.441Z" fill="#A85C17"/>
<path d="M2.00929 194.462C1.64862 198.139 2.29644 201.876 3.81492 205.239C4.2468 206.194 4.75448 207.115 5.32648 207.995C5.63893 208.475 6.41539 208.027 6.10067 207.543C4.1549 204.557 3.01318 201.068 2.83169 197.505C2.78116 196.49 2.80641 195.473 2.9052 194.46C2.92817 194.219 2.68237 194.012 2.45725 194.012C2.19536 194.012 2.03226 194.219 2.00929 194.46V194.462Z" fill="#A85C17"/>
<path d="M10.5504 192.128C10.5504 192.128 10.9088 186.127 16.2843 187.381L21.0327 191.86C21.0327 191.86 23.4517 194.637 19.7784 195.084C19.7784 195.084 11.7174 195.891 10.5527 192.128H10.5504Z" fill="#371522"/>
<path d="M28.7376 191.279C28.6594 191.449 28.5905 191.625 28.5354 191.809C28.0277 193.514 29.0521 194.745 30.7958 194.816C30.7958 194.816 37.3361 195.084 39.7528 192.397C39.7528 192.397 42.7093 190.337 40.7383 187.918C39.8469 186.823 37.8921 185.348 36.4654 185.047C34.2944 184.586 33.024 186.687 31.6964 188.008C30.6717 189.025 29.3601 189.942 28.7376 191.279Z" fill="#371522"/>
<path d="M10.7295 199.471C10.7295 199.471 8.93766 198.128 9.11684 200.009C9.11684 200.009 11.0879 206.727 17.5362 207.444L18.9697 206.1L20.4927 208.429C20.4927 208.429 23.1805 209.862 29.0914 209.235C29.0914 209.235 36.3483 209.056 39.4818 202.159L41.7214 196.784C41.7214 196.784 41.9006 194.724 40.5568 196.157L34.6437 200.994L33.3895 204.129L32.0455 202.248C32.0455 202.248 28.014 205.204 20.4905 203.144C20.4905 203.144 14.219 201.532 10.7272 199.471H10.7295Z" fill="#3C141D"/>
</svg>
