<svg width="679" height="1082" viewBox="0 0 679 1082" fill="none" xmlns="http://www.w3.org/2000/svg">
<path d="M631.977 616.668C598.177 637.568 558.577 656.168 558.577 656.168L586.677 583.568L591.077 572.068L588.377 569.368C588.377 569.368 664.277 544.968 677.877 569.368C684.077 580.468 660.077 599.368 631.977 616.668Z" fill="#F6E6FF"/>
<path d="M631.977 616.668C598.177 637.568 558.577 656.168 558.577 656.168L586.677 583.568C589.777 597.168 599.777 616.968 631.977 616.668Z" fill="#E2B6FF"/>
<path d="M442.077 561.268C442.077 561.268 553.777 549.068 549.477 584.868C545.177 620.768 399.177 627.768 395.977 620.968C392.677 614.068 442.077 561.268 442.077 561.268Z" fill="#E2B6FF"/>
<path d="M441.977 561.268C441.977 561.268 519.977 552.868 536.677 573.768C561.077 604.168 414.877 626.368 395.877 620.968C376.977 615.468 441.977 561.268 441.977 561.268Z" fill="#F6E6FF"/>
<path d="M570.777 654.768C512.377 753.068 464.277 814.968 441.977 791.868C441.477 791.368 441.077 790.868 440.677 790.368C431.077 778.468 421.077 784.368 409.777 792.668C395.377 803.168 379.077 817.568 359.377 803.968C359.177 803.868 358.977 803.668 358.777 803.568C338.977 790.268 317.377 799.068 298.577 803.268C284.077 806.568 271.177 807.168 261.777 793.068C243.477 765.568 275.477 749.668 282.577 729.068C283.877 725.268 284.377 721.368 283.477 717.168C280.977 704.968 269.677 703.768 258.277 703.368C244.377 702.968 230.377 703.668 231.877 687.368C233.277 671.468 251.877 666.368 265.377 660.868C277.177 656.168 285.277 651.168 275.177 638.568C274.577 637.868 274.077 637.168 273.577 636.468C255.177 610.768 286.877 597.568 318.577 584.368C318.577 584.368 377.977 559.868 405.377 465.068C425.977 393.468 488.877 344.368 559.877 375.568C653.077 416.468 630.477 554.468 570.777 654.768Z" fill="#F6E6FF"/>
<path d="M282.477 729.068C283.777 725.268 284.277 721.368 283.377 717.168C280.977 704.968 269.677 703.768 258.277 703.368C277.277 693.668 301.977 683.368 314.177 687.668C326.477 691.968 304.877 709.068 282.477 729.068Z" fill="#E2B6FF"/>
<path d="M265.477 660.868C277.277 656.168 285.377 651.168 275.277 638.568C274.677 637.868 274.177 637.168 273.677 636.468C284.677 636.968 292.277 642.468 329.677 627.168C369.777 610.568 317.377 655.268 265.477 660.868Z" fill="#E2B6FF"/>
<path d="M358.677 803.468C338.877 790.168 317.277 798.968 298.477 803.168C314.677 789.268 342.477 767.868 358.977 767.868C374.777 767.968 364.777 785.568 358.677 803.468Z" fill="#E2B6FF"/>
<path d="M441.977 791.868C441.477 791.368 441.077 790.868 440.677 790.368C431.077 778.468 421.077 784.368 409.777 792.668C419.677 777.068 439.077 749.068 453.377 744.368C469.477 738.968 449.577 762.068 441.977 791.868Z" fill="#E2B6FF"/>
<path d="M525.477 491.768C521.377 465.568 534.077 454.868 547.777 460.668C561.477 466.468 556.977 496.968 548.677 504.868C540.277 512.868 528.077 508.168 525.477 491.768Z" fill="#633A8C"/>
<path d="M577.277 475.068C576.977 456.268 608.877 455.568 608.377 486.068C607.977 516.468 578.077 521.668 577.277 475.068Z" fill="#633A8C"/>
<path d="M556.177 533.468C559.377 509.668 589.477 515.368 591.777 537.768C595.077 568.468 544.777 618.068 556.177 533.468Z" fill="#633A8C"/>
<path d="M309.43 429.851C309.43 429.851 311.826 419.484 302.258 413.632C302.258 413.632 302.176 420.208 296.07 421.685L298.114 457.122L312.459 489.561C312.459 489.561 308.481 459.519 326.566 466.587C326.566 466.587 317.871 444.173 340.21 448.584C340.21 448.584 342.763 418.535 371.849 437.695C371.849 437.695 369.081 392.608 313.252 397.905C313.252 397.905 329.314 410.415 309.43 429.851Z" fill="#26143A"/>
<path d="M288.216 434.995C288.216 434.995 281.386 426.821 287.238 417.253C287.238 417.253 290.231 423.023 296.471 421.589L310.816 454.027L312.86 489.465C312.86 489.465 302.688 460.946 289.886 475.358C289.886 475.358 287.385 451.422 269.569 465.505C269.569 465.505 253.627 439.978 236.406 470.199C236.406 470.199 218.218 428.828 270.42 408.064C270.423 408.288 261.705 426.665 288.216 434.995Z" fill="#26143A"/>
<path d="M541.877 815.568C541.877 815.568 547.377 813.068 546.677 806.668C546.677 806.668 543.677 808.968 540.877 806.668L525.677 819.868L516.077 837.568C516.077 837.568 528.177 825.368 531.277 835.868C531.277 835.868 538.277 824.168 544.077 835.768C544.077 835.768 558.377 826.468 559.977 846.168C559.977 846.168 579.277 829.268 557.477 806.068C557.477 806.068 557.477 817.668 541.877 815.568Z" fill="#26143A"/>
<path d="M532.177 807.768C532.177 807.768 533.477 801.868 539.777 801.168C539.777 801.168 538.277 804.568 541.077 806.768L531.477 824.468L516.277 837.668C516.277 837.668 525.577 823.168 514.577 822.468C514.577 822.468 524.377 813.068 511.877 809.968C511.877 809.968 517.777 793.968 498.277 796.768C498.277 796.768 510.477 774.268 537.977 790.468C537.977 790.468 526.777 793.068 532.177 807.768Z" fill="#26143A"/>
<path d="M641.577 684.268C641.577 684.268 643.177 681.168 640.677 678.468C640.677 678.468 640.077 680.568 637.977 680.468L635.677 691.968L637.577 703.568C637.577 703.568 638.877 693.568 643.977 697.368C643.977 697.368 643.077 689.468 649.877 692.768C649.877 692.768 653.277 683.368 660.977 691.968C660.977 691.968 663.877 677.268 645.577 674.268C645.477 674.368 649.577 679.668 641.577 684.268Z" fill="#26143A"/>
<path d="M634.377 684.068C634.377 684.068 632.877 680.868 635.577 678.268C635.577 678.268 636.077 680.368 638.177 680.468L640.077 692.068L637.777 703.568C637.777 703.568 636.977 693.568 631.577 697.168C631.577 697.168 632.777 689.268 625.877 692.268C625.877 692.268 622.877 682.768 614.877 690.968C614.877 690.968 612.577 676.168 630.977 673.968C630.877 674.068 626.577 679.168 634.377 684.068Z" fill="#26143A"/>
<path d="M182.433 875.176C182.433 875.176 185.978 881.591 190.378 888.433C195.695 896.742 202.234 905.784 205.106 904.807C207.734 903.951 211.645 888.189 213.6 872.243C215.556 856.359 215.556 840.23 210.3 838.519C199.911 835.037 182.433 875.176 182.433 875.176Z" fill="#F6E6FF"/>
<path d="M190.439 888.433C195.756 896.742 202.295 905.784 205.167 904.807C207.795 903.951 211.706 888.189 213.662 872.243C210.117 880.552 203.273 889.594 190.439 888.433Z" fill="#E2B6FF"/>
<path d="M26.1686 944.702C40.2856 955.21 56.6637 964.13 65.5251 964.13C80.0087 964.13 66.6862 938.287 59.2305 925.64C56.786 921.486 55.0137 918.797 55.0137 918.797C55.0137 918.797 9.66829 904.807 0.929207 913.543C-3.71534 918.248 9.7294 932.483 26.1686 944.702Z" fill="#F6E6FF"/>
<path d="M26.1687 944.702C40.2857 955.21 56.6638 964.13 65.5251 964.13C80.0088 964.13 66.6862 938.287 59.2305 925.64C55.2582 927.228 52.9971 928.206 52.9971 928.206C52.9971 928.206 51.5915 947.573 26.1687 944.702Z" fill="#E2B6FF"/>
<path d="M72.4918 993.76C95.1645 1033.9 119.609 1081 137.088 1081C148.21 1081 146.56 1071.05 147.11 1062.98C147.416 1058.4 148.393 1054.37 152.794 1053.08C160.188 1050.95 168.805 1057.79 177.605 1062.37C183.35 1065.36 189.155 1067.38 194.656 1065.3C206.939 1060.72 186.833 1033.17 186.528 1023.02C186.466 1021.62 186.833 1020.58 187.689 1019.97C190.439 1017.89 194.228 1019.36 198.261 1021.31C204.556 1024.37 211.339 1028.77 215.617 1023.45C220.995 1016.73 213.906 1006.83 212.011 998.648C211.461 996.265 211.339 994.005 212.134 992.05C214.089 987.162 222.645 991.622 231.323 994.31C238.106 996.388 244.951 997.426 248.801 992.05C254.974 983.435 241.957 973.905 235.051 966.024C232.179 962.724 230.345 959.731 231.384 957.165C233.034 953.071 238.106 951.666 243.24 950.628C249.046 949.406 254.851 948.673 255.768 944.946C257.54 937.981 248.801 934.499 236.579 927.473C207.428 910.794 189.461 887.334 180.722 857.703C171.983 828.072 134.215 771.071 74.264 801.862C9.6682 835.037 49.8191 953.682 72.4918 993.76Z" fill="#F6E6FF"/>
<path d="M234.99 966.024C232.117 962.724 230.284 959.731 231.323 957.165C232.973 953.072 238.045 951.666 243.179 950.628C237.801 948.734 230.345 945.496 220.812 940.119C202.844 929.917 216.961 949.284 234.99 966.024Z" fill="#E2B6FF"/>
<path d="M212.011 998.648C211.461 996.265 211.339 994.005 212.134 992.05C214.089 987.162 222.645 991.622 231.323 994.31C222.462 987.773 210.789 979.587 201.806 974.943C190.805 969.2 202.172 983.497 212.011 998.648Z" fill="#E2B6FF"/>
<path d="M186.589 1023.02C186.527 1021.62 186.894 1020.58 187.75 1019.97C190.5 1017.89 194.289 1019.36 198.322 1021.31C191.294 1013.13 178.522 999.32 174.855 1001.03C172.349 1002.13 178.95 1012.03 186.589 1023.02Z" fill="#E2B6FF"/>
<path d="M147.11 1062.98C147.416 1058.4 148.394 1054.37 152.794 1053.08C160.188 1050.94 168.805 1057.79 177.605 1062.37C164.772 1051.25 146.316 1035.92 141.243 1035.12C135.804 1034.33 142.71 1048.87 147.11 1062.98Z" fill="#E2B6FF"/>
<path d="M146.193 857.581C138.126 835.22 107.326 835.892 112.765 855.076C118.143 874.321 153.282 877.07 146.193 857.581Z" fill="#633A8C"/>
<path d="M88.3199 882.141C77.5641 868.394 89.9699 849.516 99.809 860.33C109.648 871.205 97.7312 894.115 88.3199 882.141Z" fill="#633A8C"/>
<path d="M138.249 899.553C140.449 890.938 132.321 880.735 123.887 882.202C116.004 883.546 123.704 889.533 112.581 895.52C97.67 903.463 132.137 923.196 138.249 899.553Z" fill="#633A8C"/>
<path d="M351.299 42.8643C351.196 43.0201 345.186 55.9035 333.262 50.3046C332.821 50.1246 332.38 49.9445 332.004 49.7514C323.755 46.6416 322.068 54.2646 317.704 58.9939C315.65 61.1638 313.012 62.7784 308.8 62.2862C307.699 62.173 306.493 61.8787 305.196 61.4681C301.163 60.198 298.708 62.3821 297.089 66.6883C296.125 69.2435 295.449 72.5493 294.942 76.3597C293.879 84.3954 293.547 94.3722 292.603 103.327C291.405 114.019 289.283 123.147 283.771 125.547C267.935 132.54 182.331 96.7493 182.331 96.7493C182.331 96.7493 183.982 94.2567 186.858 90.1669C190.934 84.3502 197.5 75.1963 205.295 65.4556C212.174 56.8449 220.01 47.6353 227.863 39.8377C250.801 17.043 286.824 2.2403 301.792 24.8145C313.142 41.8549 329.92 20.9188 334.901 35.4784C339.791 49.9217 351.183 42.9554 351.299 42.8643Z" fill="#633A8C"/>
<path d="M294.929 76.295C293.866 84.3307 293.534 94.3075 292.59 103.263C284.314 104.338 277.086 104.593 277.086 104.593C277.086 104.593 204.395 92.8723 186.78 90.1153C190.856 84.2986 197.422 75.1447 205.217 65.404C220.409 63.5305 258.969 60.8852 294.929 76.295Z" fill="#FFDF43"/>
<path d="M243.052 87.7134C242.663 87.7923 242.262 87.8065 241.86 87.8207L215.471 88.3296C213.658 88.3611 211.971 87.6926 210.711 86.4658C209.45 85.2389 208.707 83.5699 208.675 81.7562L208.326 65.1095C208.25 61.4174 211.194 58.3249 214.886 58.2487L241.275 57.7398C243.089 57.7083 244.775 58.3768 246.035 59.6036C247.296 60.8305 248.04 62.4995 248.071 64.3132L248.42 80.96C248.482 84.2505 246.159 87.0819 243.052 87.7134ZM214.694 63.276C213.853 63.4471 213.259 64.1744 213.301 65.0423L213.65 81.6891C213.677 82.1554 213.834 82.5954 214.172 82.9312C214.51 83.267 214.951 83.447 215.417 83.4197L241.806 82.9107C242.752 82.9208 243.527 82.0892 243.537 81.1434L243.187 64.4967C243.16 64.0304 243.003 63.5903 242.665 63.2545C242.327 62.9187 241.886 62.7387 241.42 62.7661L214.953 63.2234C214.889 63.2366 214.759 63.2629 214.694 63.276Z" fill="#482A6B"/>
<path d="M224.849 61.9321L225.341 85.181L230.294 85.0764L229.803 61.8274L224.849 61.9321Z" fill="#482A6B"/>
<path d="M308.722 62.2345C307.621 62.1213 306.415 61.8271 305.118 61.4165C301.085 60.1463 298.63 62.3304 297.011 66.6367C296.945 61.9988 297.268 53.3046 300.487 50.8979C304.222 48.0491 304.201 57.8954 308.722 62.2345Z" fill="#422663"/>
<path d="M331.939 49.7645C323.69 46.6547 322.003 54.2778 317.639 59.0071C319.322 54.3508 320.286 47.8183 322.907 44.7916C325.682 41.5312 328.714 45.836 331.939 49.7645Z" fill="#422663"/>
<path d="M329.821 120.567C330.608 101.649 286.42 84.4473 231.124 82.1463C175.829 79.8453 130.364 93.316 129.577 112.234C128.79 131.152 172.978 148.353 228.274 150.654C283.57 152.955 329.034 139.485 329.821 120.567Z" fill="#633A8C"/>
<path d="M290.054 121.305C289.995 123.002 288.756 124.535 286.493 126.006C286.312 126.11 286.131 126.214 285.95 126.318C277.259 131.32 255.943 134.236 231.13 133.211C205.359 132.112 183.656 127.152 176.162 121.125C174.304 119.615 173.315 118.063 173.401 116.495C173.495 113.308 177.801 110.613 184.984 108.479C185.114 108.453 185.243 108.426 185.373 108.4C196.142 105.335 213.226 103.818 232.325 104.589C252.046 105.435 269.39 108.517 279.806 112.669C280.026 112.759 280.247 112.849 280.467 112.939C286.564 115.408 290.123 118.325 290.054 121.305Z" fill="#422663"/>
<path d="M184.681 274.842C184.681 274.842 164.689 291.24 149.989 296.856C142.794 299.599 136.822 299.734 135.198 294.065C130.131 276.759 166.052 220.654 166.052 220.654L169.817 231.551L184.681 274.842Z" fill="#F6E6FF"/>
<path d="M184.681 274.842C184.681 274.842 164.689 291.24 149.989 296.856C157.166 292.365 171.593 278.108 169.895 235.917C169.852 234.375 169.821 232.899 169.817 231.551L184.681 274.842Z" fill="#E2B6FF"/>
<path d="M365.375 296.905C364.799 303.358 359.944 304.345 354.633 304.75C347.185 305.252 338.801 304.462 340.222 315.768C340.382 317.218 340.477 318.682 340.481 320.029C340.662 336.508 328.701 343.995 311.64 327.71C309.964 326.096 308.405 324.727 306.963 323.605C294.846 314.068 290.902 320.532 291.449 334.173C291.548 336.647 291.776 339.431 292.161 342.319C294.749 362.354 277.466 353.934 266.757 347.01C266.367 346.752 265.913 346.507 265.511 346.185C260.759 343.038 258.23 346.181 255.705 351.008C252.601 356.965 249.518 365.343 242.438 367.658C232.382 370.915 227.414 360.735 221.951 357.733C220.432 356.895 218.825 356.615 217.027 357.385C213.365 358.938 211.666 362.519 210.225 365.711C208.514 369.564 207.202 372.729 203.414 371.005C184.913 362.563 158.708 233.607 162.025 174.96C163.279 153.268 168.173 135.219 176.032 121.151C176.29 120.762 176.47 120.32 176.728 119.931C179.177 115.726 181.847 111.948 184.855 108.505C184.984 108.479 185.114 108.452 185.243 108.426C196.013 105.361 213.096 103.845 232.195 104.615C251.916 105.461 269.26 108.543 279.676 112.695C281.709 116.394 283.548 120.47 285.233 124.779C285.48 125.335 285.65 125.84 285.834 126.409C291.633 141.679 296.082 160.256 301.883 180.177C316.82 230.463 366.791 281.315 365.375 296.905Z" fill="#F6E6FF"/>
<path d="M221.951 357.733C220.432 356.895 218.825 356.615 217.027 357.385C213.365 358.938 211.666 362.519 210.225 365.711C209.189 357.63 207.164 339.369 210.371 337.571C212.958 336.034 215.687 347.142 221.951 357.733Z" fill="#E2B6FF"/>
<path d="M266.744 346.945C266.354 346.687 265.9 346.443 265.497 346.12C260.746 342.973 258.216 346.116 255.692 350.944C254.381 345.817 250.627 330.334 252.523 327.387C254.097 325.18 258.381 336.645 266.744 346.945Z" fill="#E2B6FF"/>
<path d="M307.015 323.527C294.898 313.99 290.953 320.454 291.501 334.095C288.189 327.42 278.173 305.996 282.158 300.063C285.343 295.169 295.703 310.321 307.015 323.527Z" fill="#E2B6FF"/>
<path d="M354.62 304.685C347.172 305.188 338.788 304.397 340.209 315.703C340.369 317.154 340.464 318.617 340.468 319.965C335.348 310.691 326.082 292.958 328.661 289.063C331.511 284.844 342.128 299.606 354.62 304.685Z" fill="#E2B6FF"/>
<path d="M288.615 188.198C288.615 188.198 255.79 223.046 259.063 246.784C262.336 270.521 302.717 236.362 306.227 223.448L288.615 188.198Z" fill="#E2B6FF"/>
<path d="M292.495 181.748C292.495 181.748 256.341 229.743 264.019 244.968C271.697 260.193 307.084 224.015 307.084 224.015C307.084 224.015 301.534 180.45 292.495 181.748Z" fill="#F6E6FF"/>
<path d="M201.247 172.584C202.106 182.454 198.815 190.807 193.92 191.263C188.959 191.732 184.297 184.051 183.373 174.194C182.513 164.325 185.804 155.971 190.7 155.516C195.596 155.06 200.322 162.728 201.247 172.584Z" fill="#633A8C"/>
<path d="M245.128 163.317C243.929 153.466 238.963 145.966 234.037 146.566C229.112 147.166 226.091 155.638 227.291 165.49C228.491 175.341 233.456 182.841 238.382 182.241C243.307 181.641 246.328 173.169 245.128 163.317Z" fill="#633A8C"/>
<path d="M202.669 217.73C201.571 206.359 210.814 195.447 226.647 196.072C244.049 196.783 251.502 219.199 238.712 222.27C229.52 224.475 228.198 215.98 220.521 221.989C212.844 227.998 203.62 228.053 202.669 217.73Z" fill="#633A8C"/>
</svg>
