<svg width="869" height="1085" viewBox="0 0 869 1085" fill="none" xmlns="http://www.w3.org/2000/svg">
<path d="M105.547 42.1718L71.1777 40.6665L285.594 461.269L302.02 454.75L105.547 42.1718Z" fill="#4B4E5B"/>
<path d="M251.624 159.214L92.8191 258.422L104.505 268.93L262.827 185.901L251.624 159.214Z" fill="#4B4E5B"/>
<path d="M139.079 1070.94H816.908L831.366 467.871L785.441 455.943C785.441 455.943 793.946 396.305 759.927 389.625L762.478 343.823C677.43 319.967 620.449 279.413 597.486 236.951L310.025 243.63C272.604 288.478 240.286 341.914 167.995 359.09L170.547 392.965C170.547 392.965 128.023 408.232 139.079 454.035L96.5555 469.302L139.079 1070.94Z" fill="#9C9EAF"/>
<path d="M824.563 787.057C679.982 750.319 408.68 766.064 122.92 834.29L139.93 1070.94H695.29C742.917 1048.99 785.441 1026.56 819.46 1004.62L824.563 787.057Z" fill="#A7A9B7"/>
<path d="M832.217 467.871L786.291 455.943C786.291 455.943 794.796 396.305 760.777 389.625L763.328 343.823C677.43 319.967 620.448 279.413 597.486 236.951L310.025 243.63C272.604 288.478 240.286 341.914 167.995 359.09L170.547 392.965C170.547 392.965 143.332 402.984 138.229 430.656C199.463 454.512 268.352 475.982 344.044 494.589C520.943 537.529 696.141 552.796 830.516 542.3L832.217 467.871Z" fill="#A7A9B7"/>
<path d="M794.115 1047.08H161.878L123 487.536L161.878 473.643C155.399 439.151 180.392 422.863 190.574 417.593L187.797 385.496L193.351 384.059C245.189 371.603 273.885 335.194 301.655 299.744C307.209 293.037 311.838 286.809 317.392 280.581L320.169 277.707L593.243 271L595.095 274.832C616.385 315.553 670.074 350.045 741.351 370.166L746.905 371.603L744.128 413.76C770.047 423.821 769.122 460.708 767.27 474.601L808 485.62V488.973L794.115 1047.08ZM179.466 1037.02H776.527L789.486 491.847L747.831 480.829L748.757 477.476C751.534 456.876 747.831 425.258 731.169 421.904L724.689 420.467L727.466 377.831C657.115 357.231 603.426 322.26 579.358 282.018L331.277 287.767C326.649 293.037 322.946 298.307 318.318 304.055C290.547 339.506 260.926 376.873 206.311 391.724L209.088 422.384L204.459 423.821C203.534 424.3 170.209 437.234 180.392 475.08L181.318 478.434L141.514 492.806L179.466 1037.02Z" fill="#625D6D"/>
<path d="M256.4 984.092C257.253 1017.12 246.421 1026.47 246.421 1026.47C232.421 989.917 237.889 893.228 237.889 893.228C221.996 920.003 210.838 991.549 210.838 991.549C211.405 943.87 185.158 871.642 185.158 871.642C194.634 901.513 178.918 983.934 178.918 983.934L167.22 942.196L163.752 994.608C151.091 960.465 135.93 845.78 135.93 845.78C122.474 928.531 136.883 1023.22 136.883 1023.22L90.1441 928.469L109.36 1038.84L68.3363 1005.33C68.3363 1005.33 83.7514 1021.22 100.666 1071.08L262.824 1070.86C279.812 1025.95 256.4 984.092 256.4 984.092Z" fill="#3C3542"/>
<path d="M762.091 858.818C741.338 900.163 758.318 966.674 758.318 966.674C764.606 943.305 787.875 915.143 787.875 915.143C779.071 939.71 790.39 979.857 790.39 979.857C813.659 929.524 849.505 901.361 849.505 901.361C822.463 933.119 822.463 1022.4 822.463 1022.4L869 992.44C869 992.44 838.185 1034.98 833.154 1070.94H695.43C700.461 917.54 762.091 858.818 762.091 858.818Z" fill="#3C3542"/>
<path d="M220.156 551.568V554.844H236.968V551.568H220.156ZM234.988 551.568V552.396C234.628 570.108 234.196 576.66 233.044 577.992C232.648 578.532 232.288 578.676 231.64 578.676C230.776 578.676 228.904 578.64 226.852 578.46C227.428 579.396 227.824 580.8 227.86 581.736C229.876 581.844 231.856 581.844 233.116 581.7C234.412 581.52 235.24 581.124 236.104 579.9C237.472 578.028 237.868 571.764 238.3 553.332C238.3 552.9 238.336 551.568 238.336 551.568H234.988ZM225.484 553.188C225.232 565.464 223.972 574.356 217.384 579.36C218.176 579.972 219.58 581.376 220.048 582.024C226.96 576.12 228.544 566.796 228.976 553.26L225.484 553.188ZM211.804 566.076V582.024H215.296V561.936L211.804 566.076ZM219.076 561.9C218.284 563.088 216.772 564.924 215.728 566.004L217.312 567.444C218.464 566.508 219.904 565.104 221.38 563.772L219.076 561.9ZM206.872 554.88V557.94H217.492V554.88H206.872ZM214.648 563.916L212.992 565.464C214.432 567.048 217.564 570.936 218.788 572.808L220.768 570.108C219.832 569.064 215.872 564.888 214.648 563.916ZM216.412 554.88V555.6C214.54 560.64 210.184 566.292 206.044 569.244C206.584 569.892 207.448 571.656 207.736 572.592C212.2 568.992 217.132 562.548 219.616 556.104L217.708 554.736L217.096 554.88H216.412ZM210.472 550.02C211.624 551.568 212.992 553.692 213.604 555.06L216.34 553.296C215.692 552 214.324 550.02 213.136 548.544L210.472 550.02ZM253.168 563.808V566.364H273.976V563.808H253.168ZM251.728 569.244V571.8H275.2V569.244H251.728ZM257.884 561.54V570.648H261.052V561.54H257.884ZM265.912 561.54V570.648H269.08V561.54H265.912ZM265.156 573.276C267.568 574.464 270.124 576.084 271.528 577.344L274.552 575.868C272.86 574.608 269.944 572.988 267.388 571.764L265.156 573.276ZM259.108 571.836C257.488 573.204 254.824 574.536 252.34 575.4C253.096 575.868 254.284 576.876 254.896 577.452C257.344 576.372 260.26 574.644 262.132 572.88L259.108 571.836ZM254.14 549.948V552.144H259.756V554.196H254.14V556.392H262.636V549.948H254.14ZM265.588 549.984V552.18H271.384V554.232H265.588V556.428H274.3V549.984H265.588ZM264.292 549.984V557.148C264.292 559.92 264.976 560.964 267.82 560.964C268.432 560.964 271.672 560.964 272.428 560.964C273.436 560.964 274.444 560.892 275.02 560.748C274.912 560.1 274.84 559.092 274.768 558.372C274.156 558.516 273.04 558.552 272.356 558.552C271.672 558.552 268.648 558.552 267.964 558.552C267.172 558.552 267.028 558.228 267.028 557.22V549.984H264.292ZM252.952 561.936C253.6 561.576 254.752 561.36 262.456 560.028C262.492 559.452 262.672 558.336 262.852 557.652L254.14 558.948L252.844 559.812L252.952 561.936ZM252.952 561.936C252.952 560.964 255.544 559.56 255.544 559.56V549.948H252.844V557.148C252.844 558.516 252.304 559.056 251.8 559.308C252.232 559.956 252.772 561.216 252.952 561.936ZM243.16 550.308C244.78 552.108 246.832 554.592 247.804 556.104L250.432 554.232C249.388 552.792 247.372 550.524 245.68 548.76L243.16 550.308ZM242.62 557.04V559.812H249.208V557.04H242.62ZM249.28 573.096L247.012 574.104C249.676 580.476 254.32 581.484 262.78 581.484C266.884 581.484 271.456 581.412 275.02 581.196C275.2 580.26 275.632 578.676 276.136 577.956C272.248 578.316 266.668 578.532 262.816 578.532C255.904 578.496 251.368 577.884 249.28 573.096ZM248.596 565.86V566.4C247.732 572.772 245.392 577.344 241.9 579.792C242.548 580.26 243.664 581.412 244.132 582.096C247.84 579.288 250.54 574.068 251.62 566.364L249.964 565.788L249.424 565.86H248.596ZM243.304 569.064C243.592 568.812 244.564 568.56 245.392 568.56H249.496V565.86H244.672L243.304 566.58V569.064ZM243.304 569.064C243.304 568.272 245.68 567.084 245.68 567.084C247.408 564.816 250.144 560.1 251.548 557.652L249.388 556.824L248.488 557.184V557.292C247.516 559.2 244.708 564.096 243.808 565.104C243.232 565.824 242.692 566.04 242.152 566.22C242.476 566.832 243.124 568.344 243.304 569.064ZM286.216 548.76C284.38 554.088 281.356 559.38 278.116 562.764C278.692 563.592 279.664 565.392 279.988 566.22C283.696 562.116 287.224 555.816 289.42 549.732L286.216 548.76ZM282.616 558.516V582.024H286V555.204L285.964 555.168L282.616 558.516ZM290.536 553.044V556.212H309.364V553.044H290.536ZM289.816 568.992V572.196H310.048V568.992H289.816ZM288.808 560.784V564.024H311.02V560.784H288.808ZM287.656 577.488V580.764H311.704V577.488H287.656ZM298.096 548.616V562.692H301.552V548.616H298.096ZM298.096 565.248V579.828H301.552V565.248H298.096ZM330.604 554.592L329.02 557.832H347.776V554.592H330.604ZM335.212 562.44V565.536H346.912V562.44H335.212ZM335.176 570.396V573.6H347.38V570.396H335.176ZM333.484 555.672V582.024H336.976V555.672H333.484ZM331.756 549.012C330.028 554.268 327.148 559.488 323.908 562.8C324.664 563.34 325.996 564.564 326.536 565.176C329.848 561.432 333.016 555.636 335.032 549.876L331.756 549.012ZM322.72 548.76C320.776 554.088 317.5 559.38 314.044 562.764C314.656 563.592 315.664 565.5 315.988 566.292C319.912 562.26 323.656 555.924 325.996 549.804L322.72 548.76ZM318.976 558.336V581.988H322.396V554.952L322.36 554.916L318.976 558.336ZM374.928 548.904V569.28H378.456V548.904H374.928ZM387.852 548.904V569.28H391.416V548.904H387.852ZM366.828 567.084V570.396H399.624V567.084H366.828ZM368.196 555.96V559.236H398.4V555.96H368.196ZM386.016 573.816C389.328 576.336 393.684 579.864 395.772 582.024L399.084 580.008C396.78 577.812 392.28 574.428 389.076 572.088L386.016 573.816ZM376.584 572.196C374.64 574.752 370.68 577.812 367.188 579.684C367.98 580.26 369.24 581.34 369.924 582.06C373.524 580.008 377.556 576.696 380.184 573.564L376.584 572.196ZM403.08 557.94V561.468H435.372V557.94H403.08ZM411.972 565.176C409.632 570.324 405.96 575.94 402.576 579.468C403.512 580.008 405.204 581.16 405.996 581.808C409.272 577.956 413.088 571.944 415.752 566.4L411.972 565.176ZM422.412 566.472C425.652 571.296 429.936 577.776 431.844 581.592L435.408 579.612C433.284 575.796 428.856 569.532 425.652 564.924L422.412 566.472ZM415.464 549.912C416.652 552.36 418.128 555.6 418.776 557.544L422.556 556.104C421.764 554.196 420.216 551.064 418.992 548.76L415.464 549.912ZM439.044 561.864V565.392H471.552V561.864H439.044ZM453.372 548.652V582.024H457.044V548.652H453.372ZM486.348 554.952V558.264H506.184V554.952H486.348ZM488.58 560.712C489.624 565.644 490.632 572.16 490.92 575.904L494.268 574.968C493.908 571.296 492.828 564.924 491.676 559.992L488.58 560.712ZM500.748 559.776C500.136 565.356 498.696 573.096 497.364 577.884L500.316 578.532C501.72 573.816 503.304 566.364 504.348 560.352L500.748 559.776ZM484.908 577.308V580.584H507.552V577.308H484.908ZM493.404 549.084C494.052 550.884 494.808 553.26 495.096 554.808L498.48 553.836C498.084 552.288 497.328 550.02 496.644 548.256L493.404 549.084ZM483.036 548.76C481.092 554.088 477.816 559.38 474.396 562.764C474.972 563.556 475.944 565.392 476.268 566.22C480.192 562.152 483.9 555.888 486.24 549.768L483.036 548.76ZM479.292 558.336V581.988H482.712V554.952L482.676 554.916L479.292 558.336ZM217.24 625.668V657.024H220.372V628.656H235.312V656.736H238.552V625.668H217.24ZM221.632 633.516V636.072H234.268V633.516H221.632ZM218.896 651.876V654.9H236.968V651.876H218.896ZM226.492 629.628V641.112H229.192V629.628H226.492ZM225.412 642.12H230.416V646.908H225.412V642.12ZM222.856 639.672V649.356H233.08V639.672H222.856ZM213.208 623.76C211.48 629.088 208.6 634.416 205.468 637.836C206.044 638.7 206.908 640.644 207.196 641.472C210.868 637.26 214.252 630.888 216.304 624.696L213.208 623.76ZM210.22 633.048V657.096H213.46V629.88L213.424 629.844L210.22 633.048ZM256.876 623.724C256.732 629.52 257.164 646.512 242.296 654.216C243.376 654.972 244.492 656.052 245.104 656.952C260.296 648.456 260.548 630.564 260.728 623.724H256.876ZM260.368 628.116L257.092 628.476C257.596 631.824 258.964 649.932 273.436 656.772C273.94 655.8 274.912 654.648 275.92 653.856C261.988 647.628 260.656 630.852 260.368 628.116ZM295.18 641.616V644.712H307.168V641.616H295.18ZM279.772 652.92V656.016H310.516V652.92H279.772ZM293.452 633.696V654.756H297.052V633.696H293.452ZM284.056 639.888V654.468H287.404V639.888H284.056ZM294.676 623.292C291.112 628.764 284.524 633.444 277.936 636.036C278.8 636.828 279.772 638.052 280.276 638.916C287.116 635.856 293.632 630.816 297.736 624.768L294.676 623.292ZM296.512 625.416L293.704 626.748C298.96 633.048 304.252 636.288 309.976 638.916C310.408 637.908 311.344 636.72 312.172 636C306.592 633.768 301.192 630.852 296.512 625.416ZM315.16 645.756V648.6H346.948V645.756H315.16ZM315.268 629.808V632.544H346.804V629.808H315.268ZM316.744 636.18V638.844H345.472V636.18H316.744ZM318.544 641.04V643.56H343.744V641.04H318.544ZM329.236 637.44V657.06H332.62V637.44H329.236ZM326.068 623.58V631.176H329.236V623.58H326.068ZM332.8 623.58V630.996H336.04V623.58H332.8ZM341.152 623.976C340.576 625.596 339.496 627.9 338.56 629.376L341.332 630.276C342.304 628.872 343.564 626.856 344.68 624.876L341.152 623.976ZM336.58 632.364C336.112 633.336 335.176 634.812 334.492 635.82L337.336 636.684C338.164 635.82 339.172 634.596 340.144 633.3L336.58 632.364ZM318.076 624.912C319.192 626.568 320.38 628.836 320.848 630.276L323.908 629.124C323.44 627.684 322.18 625.488 320.992 623.904L318.076 624.912ZM322.432 633.048C323.152 634.164 323.908 635.676 324.196 636.612L327.508 635.784C327.148 634.812 326.356 633.372 325.636 632.328L322.432 633.048ZM325.384 650.148C323.116 651.624 318.688 652.956 314.98 653.532C315.664 654.144 316.6 655.26 317.032 656.016C320.776 655.188 325.348 653.316 327.868 651.3L325.384 650.148ZM334.6 651.66C337.876 652.92 342.34 654.828 344.572 655.98L346.876 654C344.464 652.848 340 651.084 336.796 649.932L334.6 651.66ZM350.44 646.62V649.428H383.668V646.62H350.44ZM372.724 644.496C373.984 645.36 375.568 646.656 376.324 647.484L378.016 645.792C377.188 644.964 375.604 643.776 374.344 642.984L372.724 644.496ZM362.86 635.136V637.44H383.092V635.136H362.86ZM375.496 632.616V640.392C375.496 640.752 375.388 640.86 374.956 640.896C374.524 640.896 373.156 640.896 371.68 640.824C372.076 641.616 372.472 642.588 372.616 643.38C374.812 643.38 376.324 643.416 377.404 643.02C378.448 642.588 378.736 641.94 378.736 640.5V632.616H375.496ZM350.62 634.524V637.26H360.376V634.524H350.62ZM358.468 623.724V644.208H361.564V623.724H358.468ZM352.204 624.516V632.112H360.232V629.448H355.084V624.516H352.204ZM365.344 638.592C366.748 639.528 368.368 640.968 369.124 641.976L371.32 640.176C370.528 639.168 368.836 637.836 367.432 636.972L365.344 638.592ZM368.584 627.504C370.312 628.8 372.256 630.672 373.12 631.968L375.424 631.14C374.416 629.772 372.436 627.9 370.744 626.712L368.584 627.504ZM379.132 625.452V625.884C376.468 630.348 369.7 632.508 362.752 633.264C363.22 633.804 363.796 634.668 364.084 635.28C371.716 634.236 378.844 631.932 382.048 626.28L380.284 625.344L379.708 625.452H379.132ZM372.58 623.508C370.672 625.056 367.324 626.496 362.968 627.504C363.508 627.936 364.336 628.836 364.696 629.448C369.412 628.08 372.904 626.388 375.46 624.12L372.58 623.508ZM371.392 625.452L368.8 627.432H379.996V625.452H371.392ZM352.96 635.64V637.332C352.96 638.736 352.564 641.436 350.368 643.164C351.16 643.488 352.42 644.172 352.996 644.64C355.48 642.624 355.984 639.204 355.984 637.44V635.64H352.96ZM365.164 643.128V645.396C365.164 648.168 363.4 652.344 350.188 654.432C350.872 655.188 351.7 656.412 352.096 657.204C366.568 654.828 368.548 649.428 368.548 645.504V643.128H365.164ZM367.972 651.156C372.58 652.848 379.024 655.44 382.192 657.024L383.776 654.36C380.428 652.812 373.912 650.4 369.484 648.852L367.972 651.156ZM363.832 629.988L364.156 631.86C365.92 631.68 367.756 631.536 369.772 631.356L369.736 629.628C367.468 629.772 365.524 629.916 363.832 629.988ZM402.842 623.904V644.28H406.37V623.904H402.842ZM415.766 623.904V644.28H419.33V623.904H415.766ZM394.742 642.084V645.396H427.538V642.084H394.742ZM396.11 630.96V634.236H426.314V630.96H396.11ZM413.93 648.816C417.242 651.336 421.598 654.864 423.686 657.024L426.998 655.008C424.694 652.812 420.194 649.428 416.99 647.088L413.93 648.816ZM404.498 647.196C402.554 649.752 398.594 652.812 395.102 654.684C395.894 655.26 397.154 656.34 397.838 657.06C401.438 655.008 405.47 651.696 408.098 648.564L404.498 647.196ZM430.994 632.94V636.468H463.286V632.94H430.994ZM439.886 640.176C437.546 645.324 433.874 650.94 430.49 654.468C431.426 655.008 433.118 656.16 433.91 656.808C437.186 652.956 441.002 646.944 443.666 641.4L439.886 640.176ZM450.326 641.472C453.566 646.296 457.85 652.776 459.758 656.592L463.322 654.612C461.198 650.796 456.77 644.532 453.566 639.924L450.326 641.472ZM443.378 624.912C444.566 627.36 446.042 630.6 446.69 632.544L450.47 631.104C449.678 629.196 448.13 626.064 446.906 623.76L443.378 624.912ZM478.262 629.952V633.264H498.098V629.952H478.262ZM480.494 635.712C481.538 640.644 482.546 647.16 482.834 650.904L486.182 649.968C485.822 646.296 484.742 639.924 483.59 634.992L480.494 635.712ZM492.662 634.776C492.05 640.356 490.61 648.096 489.278 652.884L492.23 653.532C493.634 648.816 495.218 641.364 496.262 635.352L492.662 634.776ZM476.822 652.308V655.584H499.466V652.308H476.822ZM485.318 624.084C485.966 625.884 486.722 628.26 487.01 629.808L490.394 628.836C489.998 627.288 489.242 625.02 488.558 623.256L485.318 624.084ZM474.95 623.76C473.006 629.088 469.73 634.38 466.31 637.764C466.886 638.556 467.858 640.392 468.182 641.22C472.106 637.152 475.814 630.888 478.154 624.768L474.95 623.76ZM471.206 633.336V656.988H474.626V629.952L474.59 629.916L471.206 633.336ZM212.74 704.772V706.788H233.08V704.772H212.74ZM212.272 720V721.98H233.584V720H212.272ZM215.908 723.06C216.988 724.068 218.212 725.472 218.752 726.408L221.056 725.184C220.48 724.248 219.184 722.88 218.068 721.98L215.908 723.06ZM216.628 712.44H229.192V713.808H216.628V712.44ZM216.628 709.632H229.192V710.928H216.628V709.632ZM213.964 708.048V715.392H231.964V708.048H213.964ZM225.772 718.812V724.752C225.772 725.112 225.664 725.22 225.304 725.22C224.908 725.256 223.612 725.256 222.352 725.22C222.64 725.724 222.964 726.408 223.108 727.056C225.196 727.056 226.6 727.056 227.464 726.768C228.4 726.48 228.652 726.084 228.652 724.86V718.812H225.772ZM212.848 716.94L212.956 718.92C217.6 718.848 224.188 718.668 230.56 718.452L230.632 716.796C224.044 716.904 217.276 716.976 212.848 716.94ZM227.356 716.292C228.724 717.3 230.38 718.92 231.208 720L233.044 718.596C232.252 717.588 230.596 716.112 229.156 715.104L227.356 716.292ZM221.416 703.26V717.732L224.26 717.588V703.26H221.416ZM208.168 700.092V732.06H211.3V702.72H234.628V731.916H237.868V700.092H208.168ZM209.716 727.56V730.224H235.96V727.56H209.716ZM257.2 714.168V716.688H275.38V714.168H257.2ZM256.768 728.856V731.412H275.704V728.856H256.768ZM262.24 698.652V703.08H264.94V698.652H262.24ZM267.1 698.652V703.08H269.836V698.652H267.1ZM260.44 708.012H271.852V710.244H260.44V708.012ZM260.44 703.656H271.852V705.852H260.44V703.656ZM257.848 701.316V712.548H274.552V701.316H257.848ZM261.736 720.36H270.592V722.88H261.736V720.36ZM258.784 718.164V725.04H273.76V718.164H258.784ZM269.224 724.932C268.828 726.264 268.072 728.208 267.46 729.468L269.656 730.26C270.412 729.144 271.348 727.416 272.284 725.796L269.224 724.932ZM260.44 725.796C261.016 727.164 261.7 729 261.952 730.152L264.652 729.252C264.328 728.1 263.644 726.336 263.032 725.004L260.44 725.796ZM262.78 702.54V711.576H264.976V702.54H262.78ZM267.244 702.54V711.576H269.44V702.54H267.244ZM245.752 714.348V716.652H253.924V714.348H245.752ZM252.304 714.348V728.82C252.304 729.18 252.196 729.324 251.836 729.324C251.476 729.324 250.288 729.324 249.028 729.288C249.388 730.008 249.784 731.124 249.892 731.844C251.872 731.844 253.132 731.808 254.032 731.376C254.932 730.944 255.184 730.188 255.184 728.856V714.348H252.304ZM244.132 699.84V711.072H246.796V702.324H252.448V711.072H255.292V699.84H244.132ZM242.656 709.956V715.356H245.176V712.332H254.176V715.356H256.804V709.956H242.656ZM248.668 704.268V710.82H250.54V706.32H254.284V704.268H248.668ZM244.456 714.348V721.116C244.456 723.996 244.276 727.704 242.404 730.44C243.088 730.764 244.312 731.628 244.816 732.168C246.904 729.072 247.264 724.5 247.264 721.152V714.348H244.456ZM246.904 725.04L248.056 727.38C249.928 726.228 252.016 724.932 254.14 723.6L253.6 721.836C251.08 723.096 248.632 724.32 246.904 725.04ZM247.156 719.244C248.416 720.108 250 721.44 250.756 722.268L252.34 720.54C251.512 719.748 249.964 718.632 248.632 717.768L247.156 719.244ZM295.18 716.616V719.712H307.168V716.616H295.18ZM279.772 727.92V731.016H310.516V727.92H279.772ZM293.452 708.696V729.756H297.052V708.696H293.452ZM284.056 714.888V729.468H287.404V714.888H284.056ZM294.676 698.292C291.112 703.764 284.524 708.444 277.936 711.036C278.8 711.828 279.772 713.052 280.276 713.916C287.116 710.856 293.632 705.816 297.736 699.768L294.676 698.292ZM296.512 700.416L293.704 701.748C298.96 708.048 304.252 711.288 309.976 713.916C310.408 712.908 311.344 711.72 312.172 711C306.592 708.768 301.192 705.852 296.512 700.416ZM315.16 720.756V723.6H346.948V720.756H315.16ZM315.268 704.808V707.544H346.804V704.808H315.268ZM316.744 711.18V713.844H345.472V711.18H316.744ZM318.544 716.04V718.56H343.744V716.04H318.544ZM329.236 712.44V732.06H332.62V712.44H329.236ZM326.068 698.58V706.176H329.236V698.58H326.068ZM332.8 698.58V705.996H336.04V698.58H332.8ZM341.152 698.976C340.576 700.596 339.496 702.9 338.56 704.376L341.332 705.276C342.304 703.872 343.564 701.856 344.68 699.876L341.152 698.976ZM336.58 707.364C336.112 708.336 335.176 709.812 334.492 710.82L337.336 711.684C338.164 710.82 339.172 709.596 340.144 708.3L336.58 707.364ZM318.076 699.912C319.192 701.568 320.38 703.836 320.848 705.276L323.908 704.124C323.44 702.684 322.18 700.488 320.992 698.904L318.076 699.912ZM322.432 708.048C323.152 709.164 323.908 710.676 324.196 711.612L327.508 710.784C327.148 709.812 326.356 708.372 325.636 707.328L322.432 708.048ZM325.384 725.148C323.116 726.624 318.688 727.956 314.98 728.532C315.664 729.144 316.6 730.26 317.032 731.016C320.776 730.188 325.348 728.316 327.868 726.3L325.384 725.148ZM334.6 726.66C337.876 727.92 342.34 729.828 344.572 730.98L346.876 729C344.464 727.848 340 726.084 336.796 724.932L334.6 726.66ZM350.44 721.62V724.428H383.668V721.62H350.44ZM372.724 719.496C373.984 720.36 375.568 721.656 376.324 722.484L378.016 720.792C377.188 719.964 375.604 718.776 374.344 717.984L372.724 719.496ZM362.86 710.136V712.44H383.092V710.136H362.86ZM375.496 707.616V715.392C375.496 715.752 375.388 715.86 374.956 715.896C374.524 715.896 373.156 715.896 371.68 715.824C372.076 716.616 372.472 717.588 372.616 718.38C374.812 718.38 376.324 718.416 377.404 718.02C378.448 717.588 378.736 716.94 378.736 715.5V707.616H375.496ZM350.62 709.524V712.26H360.376V709.524H350.62ZM358.468 698.724V719.208H361.564V698.724H358.468ZM352.204 699.516V707.112H360.232V704.448H355.084V699.516H352.204ZM365.344 713.592C366.748 714.528 368.368 715.968 369.124 716.976L371.32 715.176C370.528 714.168 368.836 712.836 367.432 711.972L365.344 713.592ZM368.584 702.504C370.312 703.8 372.256 705.672 373.12 706.968L375.424 706.14C374.416 704.772 372.436 702.9 370.744 701.712L368.584 702.504ZM379.132 700.452V700.884C376.468 705.348 369.7 707.508 362.752 708.264C363.22 708.804 363.796 709.668 364.084 710.28C371.716 709.236 378.844 706.932 382.048 701.28L380.284 700.344L379.708 700.452H379.132ZM372.58 698.508C370.672 700.056 367.324 701.496 362.968 702.504C363.508 702.936 364.336 703.836 364.696 704.448C369.412 703.08 372.904 701.388 375.46 699.12L372.58 698.508ZM371.392 700.452L368.8 702.432H379.996V700.452H371.392ZM352.96 710.64V712.332C352.96 713.736 352.564 716.436 350.368 718.164C351.16 718.488 352.42 719.172 352.996 719.64C355.48 717.624 355.984 714.204 355.984 712.44V710.64H352.96ZM365.164 718.128V720.396C365.164 723.168 363.4 727.344 350.188 729.432C350.872 730.188 351.7 731.412 352.096 732.204C366.568 729.828 368.548 724.428 368.548 720.504V718.128H365.164ZM367.972 726.156C372.58 727.848 379.024 730.44 382.192 732.024L383.776 729.36C380.428 727.812 373.912 725.4 369.484 723.852L367.972 726.156ZM363.832 704.988L364.156 706.86C365.92 706.68 367.756 706.536 369.772 706.356L369.736 704.628C367.468 704.772 365.524 704.916 363.832 704.988ZM402.842 698.904V719.28H406.37V698.904H402.842ZM415.766 698.904V719.28H419.33V698.904H415.766ZM394.742 717.084V720.396H427.538V717.084H394.742ZM396.11 705.96V709.236H426.314V705.96H396.11ZM413.93 723.816C417.242 726.336 421.598 729.864 423.686 732.024L426.998 730.008C424.694 727.812 420.194 724.428 416.99 722.088L413.93 723.816ZM404.498 722.196C402.554 724.752 398.594 727.812 395.102 729.684C395.894 730.26 397.154 731.34 397.838 732.06C401.438 730.008 405.47 726.696 408.098 723.564L404.498 722.196ZM433.442 702.108V705.564H460.766V702.108H433.442ZM435.818 713.808V717.228H457.922V713.808H435.818ZM431.39 726.156V729.612H462.71V726.156H431.39ZM479.414 728.28V731.376H499.718V728.28H479.414ZM484.706 709.596V712.692H495.218V709.596H484.706ZM484.706 718.884V721.872H495.218V718.884H484.706ZM482.438 700.452V729.864H485.57V703.548H494.138V729.864H497.378V700.452H482.438ZM475.994 713.088C476.93 715.572 477.866 718.812 478.19 720.792L480.962 719.856C480.566 717.948 479.522 714.744 478.55 712.296L475.994 713.088ZM472.322 722.448C472.718 724.932 473.114 728.172 473.186 730.296L475.994 729.72C475.886 727.596 475.454 724.392 474.986 721.908L472.322 722.448ZM467.93 722.052C467.642 724.968 467.174 728.208 466.346 730.368C467.066 730.548 468.434 731.016 469.082 731.34C469.838 729.108 470.486 725.688 470.774 722.52L467.93 722.052ZM467.282 712.476C467.282 711.828 469.262 710.82 469.262 710.82V710.748C471.746 707.904 474.338 703.764 476.282 699.732L473.258 698.472C471.71 702.36 469.154 706.464 468.362 707.508C467.57 708.588 466.922 709.308 466.238 709.488C466.598 710.316 467.102 711.792 467.282 712.476ZM467.282 712.476C467.93 712.152 469.046 711.9 474.95 711.288C474.986 710.604 475.094 709.416 475.274 708.588L468.686 709.092L467.21 710.064L467.282 712.476ZM467.534 720.684C467.534 720.072 469.586 719.064 469.586 719.064V718.956C473.258 715.5 476.966 710.604 479.882 705.744L477.002 703.98C474.518 708.84 470.594 713.916 469.298 715.212C468.146 716.508 467.318 717.372 466.454 717.552C466.85 718.416 467.354 720.036 467.534 720.684ZM467.534 720.684C468.326 720.252 469.658 719.964 478.586 718.668C478.55 718.02 478.622 716.796 478.73 715.968L468.938 717.192L467.426 718.236L467.534 720.684ZM476.426 721.728C477.074 723.636 477.83 726.156 478.082 727.812L480.782 726.912C480.422 725.292 479.666 722.808 478.946 720.936L476.426 721.728ZM217.888 779.52C220.12 782.22 222.46 785.964 223.396 788.448L226.708 786.684C225.664 784.2 223.36 780.672 220.984 778.044L217.888 779.52ZM206.116 799.464L207.304 803.064C211.336 801.336 216.736 798.996 221.668 796.764L220.876 793.452C215.548 795.72 209.788 798.132 206.116 799.464ZM227.5 795.396C230.884 798.996 235.24 803.892 237.184 806.988L240.1 804.216C238.012 801.192 233.476 796.476 230.128 793.056L227.5 795.396ZM232.432 775.56C230.956 790.896 227.176 799.68 215.152 804.144C215.98 804.864 217.384 806.376 217.888 807.132C230.128 801.84 234.412 792.408 236.176 775.92L232.432 775.56ZM210.364 775.704L211.084 799.32L214.612 799.176L213.892 775.56L210.364 775.704ZM257.92 784.92V788.34H272.788V784.92H257.92ZM242.692 801.876V805.296H275.308V801.876H242.692ZM255.976 774.12V803.748H259.612V774.12H255.976ZM283.66 791.436V807.06H287.152V794.316H303.748V807.06H307.42V791.436H283.66ZM285.532 797.268V799.896H304.9V797.268H285.532ZM284.344 777.576V780.636H294.604V777.576H284.344ZM285.532 803.028V805.836H304.9V803.028H285.532ZM292.588 787.836C292.264 789.132 291.544 791.04 290.932 792.336L293.92 793.056C294.604 791.94 295.432 790.284 296.26 788.592L292.588 787.836ZM296.26 773.616V784.776C296.26 788.232 297.268 789.24 301.228 789.24C302.056 789.24 306.232 789.24 307.096 789.24C310.156 789.24 311.164 788.088 311.56 784.128C310.588 783.912 309.184 783.372 308.392 782.832C308.248 785.64 308.032 786.144 306.736 786.144C305.836 786.144 302.416 786.144 301.696 786.144C300.148 786.144 299.86 785.964 299.86 784.74V773.616H296.26ZM282.328 789.924C283.192 789.42 284.632 789.132 294.964 787.008C294.892 786.288 294.892 784.92 295 784.02L283.732 786.144L282.148 787.224L282.328 789.924ZM282.328 789.924C282.328 788.7 286.432 786.468 286.432 786.468V773.652H282.76V784.128C282.76 785.748 281.572 786.684 280.78 787.08C281.32 787.728 282.076 789.132 282.328 789.924ZM298.096 777.576V780.636H310.048V777.576H298.096ZM330.82 781.968H341.836V784.344H330.82V781.968ZM330.82 777.288H341.836V779.664H330.82V777.288ZM327.688 774.768V786.864H345.112V774.768H327.688ZM325.996 789.06V791.868H347.02V789.06H325.996ZM334.708 790.536V803.856L337.912 805.224V790.536H334.708ZM330.532 797.052L328.48 797.772C330.712 805.224 334.852 806.52 340.828 806.52H347.128C347.236 805.656 347.668 804.216 348.1 803.496C346.696 803.568 341.98 803.568 340.936 803.568C336.184 803.568 332.368 802.74 330.532 797.052ZM336.976 795.612V798.348H345.184V795.612H336.976ZM328.264 793.308C327.724 798.456 326.14 802.488 323.008 804.972C323.728 805.44 325.024 806.484 325.528 807.024C328.768 804.108 330.604 799.572 331.36 793.668L328.264 793.308ZM313.936 792.372L314.728 795.684C317.86 794.748 321.856 793.488 325.6 792.3L325.132 789.204C321.028 790.428 316.78 791.688 313.936 792.372ZM314.296 780.708V783.84H325.492V780.708H314.296ZM318.508 773.652V802.92C318.508 803.424 318.364 803.568 317.932 803.568C317.5 803.604 316.168 803.604 314.692 803.568C315.124 804.468 315.52 805.872 315.628 806.7C317.896 806.7 319.408 806.592 320.344 806.052C321.352 805.548 321.676 804.648 321.676 802.956V773.652H318.508ZM358.252 773.688C356.308 779.016 353.032 784.308 349.648 787.692C350.224 788.52 351.16 790.356 351.484 791.184C355.408 787.08 359.116 780.816 361.456 774.696L358.252 773.688ZM354.508 783.336V806.988H357.856V780.06L357.82 780.024L354.508 783.336ZM361.132 781.032V784.308H383.308V781.032H361.132ZM360.232 792.444V795.792H383.668V792.444H360.232ZM365.488 773.976V794.208H368.8V773.976H365.488ZM375.064 773.904V794.244H378.376V773.904H375.064ZM366.316 797.556C364.804 800.256 362.284 802.992 359.764 804.792C360.556 805.26 361.852 806.34 362.464 806.916C364.948 804.9 367.756 801.696 369.52 798.564L366.316 797.556ZM374.38 799.104C376.72 801.516 379.312 804.828 380.5 807.024L383.38 805.224C382.084 803.064 379.492 799.932 377.08 797.592L374.38 799.104ZM393.316 784.164V787.296H412.504V784.164H393.316ZM386.944 790.824V794.028H419.02V790.824H386.944ZM396.376 793.02C396.016 799.608 395.044 802.668 386.404 804.216C387.052 804.9 387.952 806.232 388.204 807.06C397.888 805.08 399.436 800.94 399.832 793.02H396.376ZM405.484 792.696V802.128C405.484 805.476 406.384 806.52 410.092 806.52C410.848 806.52 414.412 806.52 415.204 806.52C418.3 806.52 419.2 805.188 419.596 800.112C418.66 799.86 417.22 799.32 416.5 798.78C416.356 802.776 416.14 803.388 414.88 803.388C414.052 803.388 411.172 803.388 410.524 803.388C409.12 803.388 408.904 803.208 408.904 802.128V792.696H405.484ZM387.736 777.576V786H391.156V780.852H414.592V786H418.12V777.576H387.736ZM399.868 774.264C400.768 775.92 401.704 778.152 402.064 779.52L405.736 778.404C405.304 777 404.296 774.84 403.324 773.256L399.868 774.264ZM423.448 775.776V781.536H426.544V778.44H451.42V781.536H454.66V775.776H423.448ZM432.088 779.016V788.448H435.256V779.016H432.088ZM442.744 779.016V788.448H445.948V779.016H442.744ZM426.868 780.42V782.4H451.132V780.42H426.868ZM427.372 783.768V785.64H450.808V783.768H427.372ZM423.124 786.972V789.42H454.984V786.972H423.124ZM432.628 787.62C430.432 790.212 426.076 792.48 422.044 793.596C422.728 794.172 423.628 795.324 424.096 796.044C428.236 794.676 432.664 791.796 435.148 788.664L432.628 787.62ZM445.768 787.476L443.284 788.448C445.624 791.508 449.8 794.316 453.832 795.612C454.3 794.82 455.236 793.632 455.956 793.02C451.996 792.048 447.856 789.924 445.768 787.476ZM431.908 795.864H445.984V797.268H431.908V795.864ZM431.908 799.032H445.984V800.508H431.908V799.032ZM431.908 792.732H445.984V794.136H431.908V792.732ZM428.776 790.932V802.272H449.26V790.932H428.776ZM441.016 803.532C445.048 804.648 449.044 805.98 451.456 806.916L454.264 805.008C451.564 804.072 447.136 802.74 443.176 801.696L441.016 803.532ZM434.14 801.66C431.872 802.848 427.048 804.18 423.124 804.792C423.736 805.368 424.636 806.412 425.104 806.988C429.028 806.34 433.888 804.972 436.804 803.388L434.14 801.66ZM436.768 774.156C437.38 775.236 437.992 776.712 438.208 777.648L441.736 776.604C441.484 775.704 440.8 774.264 440.152 773.256L436.768 774.156Z" fill="black"/>
<path d="M540.334 555.564V558.552H551.962V555.564H540.334ZM541.378 548.616C540.334 554.772 538.57 561 536.122 564.996C536.806 565.464 537.958 566.544 538.426 567.12C540.982 562.656 542.998 555.816 544.222 549.156L541.378 548.616ZM546.49 557.436C545.446 568.74 542.494 575.796 534.286 579.576C534.826 580.188 535.69 581.484 535.978 582.132C544.726 577.632 548.11 570.072 549.442 557.688L546.49 557.436ZM541.846 558.48L539.398 558.84C540.874 569.316 543.682 577.812 550.126 581.916C550.594 581.088 551.602 579.864 552.322 579.288C546.094 575.868 543.178 567.84 541.846 558.48ZM527.014 548.616V567.66H529.642V548.616H527.014ZM523.738 553.116H533.206V558.912H523.738V553.116ZM521.11 550.884V561.144H535.942V550.884H521.11ZM523.234 564.528H533.566V566.58H523.234V564.528ZM520.39 562.512V568.632H536.554V562.512H520.39ZM518.626 554.628V557.148H522.082V556.968H534.142V557.148H537.922V554.628H534.142V554.772H522.082V554.628H518.626ZM521.002 576.012L523.81 576.588C525.394 574.464 527.554 571.08 528.886 568.092L526.114 567.48C524.926 570.288 522.766 573.78 521.002 576.012ZM521.002 576.012C525.466 577.128 530.866 579.324 533.818 581.052L535.978 579.072C532.882 577.416 527.554 575.292 523.198 574.212L521.002 576.012ZM531.586 569.352V570.756C531.586 573.528 530.434 577.632 518.338 579.792C518.842 580.332 519.49 581.376 519.742 581.988C532.81 579.54 534.322 574.572 534.322 570.828V569.352H531.586ZM518.806 570.612V572.988H537.67V570.612H518.806ZM566.434 554.952V558.264H586.27V554.952H566.434ZM568.666 560.712C569.71 565.644 570.718 572.16 571.006 575.904L574.354 574.968C573.994 571.296 572.914 564.924 571.762 559.992L568.666 560.712ZM580.834 559.776C580.222 565.356 578.782 573.096 577.45 577.884L580.402 578.532C581.806 573.816 583.39 566.364 584.434 560.352L580.834 559.776ZM564.994 577.308V580.584H587.638V577.308H564.994ZM573.49 549.084C574.138 550.884 574.894 553.26 575.182 554.808L578.566 553.836C578.17 552.288 577.414 550.02 576.73 548.256L573.49 549.084ZM563.122 548.76C561.178 554.088 557.902 559.38 554.482 562.764C555.058 563.556 556.03 565.392 556.354 566.22C560.278 562.152 563.986 555.888 566.326 549.768L563.122 548.76ZM559.378 558.336V581.988H562.798V554.952L562.762 554.916L559.378 558.336ZM590.698 571.62V574.428H623.926V571.62H590.698ZM612.982 569.496C614.242 570.36 615.826 571.656 616.582 572.484L618.274 570.792C617.446 569.964 615.862 568.776 614.602 567.984L612.982 569.496ZM603.118 560.136V562.44H623.35V560.136H603.118ZM615.754 557.616V565.392C615.754 565.752 615.646 565.86 615.214 565.896C614.782 565.896 613.414 565.896 611.938 565.824C612.334 566.616 612.73 567.588 612.874 568.38C615.07 568.38 616.582 568.416 617.662 568.02C618.706 567.588 618.994 566.94 618.994 565.5V557.616H615.754ZM590.878 559.524V562.26H600.634V559.524H590.878ZM598.726 548.724V569.208H601.822V548.724H598.726ZM592.462 549.516V557.112H600.49V554.448H595.342V549.516H592.462ZM605.602 563.592C607.006 564.528 608.626 565.968 609.382 566.976L611.578 565.176C610.786 564.168 609.094 562.836 607.69 561.972L605.602 563.592ZM608.842 552.504C610.57 553.8 612.514 555.672 613.378 556.968L615.682 556.14C614.674 554.772 612.694 552.9 611.002 551.712L608.842 552.504ZM619.39 550.452V550.884C616.726 555.348 609.958 557.508 603.01 558.264C603.478 558.804 604.054 559.668 604.342 560.28C611.974 559.236 619.102 556.932 622.306 551.28L620.542 550.344L619.966 550.452H619.39ZM612.838 548.508C610.93 550.056 607.582 551.496 603.226 552.504C603.766 552.936 604.594 553.836 604.954 554.448C609.67 553.08 613.162 551.388 615.718 549.12L612.838 548.508ZM611.65 550.452L609.058 552.432H620.254V550.452H611.65ZM593.218 560.64V562.332C593.218 563.736 592.822 566.436 590.626 568.164C591.418 568.488 592.678 569.172 593.254 569.64C595.738 567.624 596.242 564.204 596.242 562.44V560.64H593.218ZM605.422 568.128V570.396C605.422 573.168 603.658 577.344 590.446 579.432C591.13 580.188 591.958 581.412 592.354 582.204C606.826 579.828 608.806 574.428 608.806 570.504V568.128H605.422ZM608.23 576.156C612.838 577.848 619.282 580.44 622.45 582.024L624.034 579.36C620.686 577.812 614.17 575.4 609.742 573.852L608.23 576.156ZM604.09 554.988L604.414 556.86C606.178 556.68 608.014 556.536 610.03 556.356L609.994 554.628C607.726 554.772 605.782 554.916 604.09 554.988ZM639.946 559.056V562.44H659.854V559.056H639.946ZM652.042 550.956C653.734 552.936 655.642 555.708 656.398 557.508L659.278 556.032C658.414 554.232 656.506 551.604 654.742 549.66L652.042 550.956ZM629.47 558.84V561.9H636.85V558.84H629.47ZM626.698 566.508V569.568H636.346V566.508H626.698ZM635.518 548.616V582.024H638.722V548.616H635.518ZM628.066 550.2V561.864H631.162V550.2H628.066ZM629.254 567.66V570.432C629.254 572.844 628.858 576.912 626.338 579.684C627.13 580.008 628.354 580.764 628.966 581.268C631.81 578.208 632.35 573.384 632.35 570.504V567.66H629.254ZM647.362 548.652V558.876C647.362 565.752 646.57 573.816 638.398 579.504C639.118 580.08 640.234 581.34 640.702 582.132C649.702 575.76 650.638 566.76 650.638 558.876V548.652H647.362ZM651.214 560.172L648.046 560.424C648.586 565.86 649.738 576.732 657.838 581.844C658.378 580.944 659.386 579.792 660.358 579.108C652.618 574.536 651.538 565.032 651.214 560.172ZM512.628 654H516.624V641.544C516.624 638.628 516.264 635.604 516.084 632.832H516.264L519.036 638.412L527.784 654H532.104V627.504H528.108V639.888C528.108 642.732 528.432 645.972 528.684 648.672H528.504L525.732 643.092L516.912 627.504H512.628V654ZM544.465 654H548.677V631.032H556.453V627.504H536.689V631.032H544.465V654ZM561.073 654H568.201C576.121 654 580.729 649.284 580.729 640.644C580.729 632.004 576.121 627.504 567.985 627.504H561.073V654ZM565.285 650.58V630.888H567.661C573.349 630.888 576.445 634.056 576.445 640.644C576.445 647.232 573.349 650.58 567.661 650.58H565.285ZM600.487 654.504C605.383 654.504 609.379 651.768 609.379 647.088C609.379 643.632 606.967 641.4 603.907 640.608V640.464C606.715 639.384 608.479 637.404 608.479 634.452C608.479 630.168 605.131 627.756 600.379 627.756C597.319 627.756 594.871 629.088 592.747 630.996L594.943 633.588C596.455 632.076 598.183 631.068 600.199 631.068C602.755 631.068 604.267 632.472 604.267 634.74C604.267 637.224 602.539 639.132 597.355 639.132V642.228C603.295 642.228 605.167 644.064 605.167 646.872C605.167 649.5 603.115 651.084 600.163 651.084C597.391 651.084 595.447 649.752 593.899 648.168L591.847 650.832C593.647 652.848 596.347 654.504 600.487 654.504ZM614.214 661.236C617.958 659.832 620.154 656.916 620.154 653.1C620.154 650.328 618.966 648.672 616.95 648.672C615.366 648.672 614.034 649.68 614.034 651.336C614.034 653.028 615.366 654 616.842 654C617.526 654 618.174 653.784 618.678 653.244L616.95 650.544L617.238 653.856C617.238 656.016 615.798 657.852 613.314 658.896L614.214 661.236ZM632.389 654.504C637.645 654.504 640.957 649.716 640.957 641.04C640.957 632.364 637.645 627.756 632.389 627.756C627.097 627.756 623.821 632.328 623.821 641.04C623.821 649.716 627.097 654.504 632.389 654.504ZM632.389 651.192C629.689 651.192 627.781 648.42 627.781 641.04C627.781 633.624 629.689 631.032 632.389 631.032C635.089 631.032 636.961 633.624 636.961 641.04C636.961 648.42 635.089 651.192 632.389 651.192ZM652.92 654.504C658.176 654.504 661.488 649.716 661.488 641.04C661.488 632.364 658.176 627.756 652.92 627.756C647.628 627.756 644.352 632.328 644.352 641.04C644.352 649.716 647.628 654.504 652.92 654.504ZM652.92 651.192C650.22 651.192 648.312 648.42 648.312 641.04C648.312 633.624 650.22 631.032 652.92 631.032C655.62 631.032 657.492 633.624 657.492 641.04C657.492 648.42 655.62 651.192 652.92 651.192ZM673.451 654.504C678.707 654.504 682.019 649.716 682.019 641.04C682.019 632.364 678.707 627.756 673.451 627.756C668.159 627.756 664.883 632.328 664.883 641.04C664.883 649.716 668.159 654.504 673.451 654.504ZM673.451 651.192C670.751 651.192 668.843 648.42 668.843 641.04C668.843 633.624 670.751 631.032 673.451 631.032C676.151 631.032 678.023 633.624 678.023 641.04C678.023 648.42 676.151 651.192 673.451 651.192ZM684.155 660.48H687.035L697.007 625.236H694.163L684.155 660.48ZM710.926 629.952V633.264H730.762V629.952H710.926ZM713.158 635.712C714.202 640.644 715.21 647.16 715.498 650.904L718.846 649.968C718.486 646.296 717.406 639.924 716.254 634.992L713.158 635.712ZM725.326 634.776C724.714 640.356 723.274 648.096 721.942 652.884L724.894 653.532C726.298 648.816 727.882 641.364 728.926 635.352L725.326 634.776ZM709.486 652.308V655.584H732.13V652.308H709.486ZM717.982 624.084C718.63 625.884 719.386 628.26 719.674 629.808L723.058 628.836C722.662 627.288 721.906 625.02 721.222 623.256L717.982 624.084ZM707.614 623.76C705.67 629.088 702.394 634.38 698.974 637.764C699.55 638.556 700.522 640.392 700.846 641.22C704.77 637.152 708.478 630.888 710.818 624.768L707.614 623.76ZM703.87 633.336V656.988H707.29V629.952L707.254 629.916L703.87 633.336ZM512.628 729H516.624V716.544C516.624 713.628 516.264 710.604 516.084 707.832H516.264L519.036 713.412L527.784 729H532.104V702.504H528.108V714.888C528.108 717.732 528.432 720.972 528.684 723.672H528.504L525.732 718.092L516.912 702.504H512.628V729ZM544.465 729H548.677V706.032H556.453V702.504H536.689V706.032H544.465V729ZM561.073 729H568.201C576.121 729 580.729 724.284 580.729 715.644C580.729 707.004 576.121 702.504 567.985 702.504H561.073V729ZM565.285 725.58V705.888H567.661C573.349 705.888 576.445 709.056 576.445 715.644C576.445 722.232 573.349 725.58 567.661 725.58H565.285ZM593.935 729H609.091V725.58H603.907V703.224H600.775C599.227 704.16 597.499 704.808 594.979 705.276V707.904H599.767V725.58H593.935V729ZM621.666 729.504C626.922 729.504 630.234 724.716 630.234 716.04C630.234 707.364 626.922 702.756 621.666 702.756C616.374 702.756 613.098 707.328 613.098 716.04C613.098 724.716 616.374 729.504 621.666 729.504ZM621.666 726.192C618.966 726.192 617.058 723.42 617.058 716.04C617.058 708.624 618.966 706.032 621.666 706.032C624.366 706.032 626.238 708.624 626.238 716.04C626.238 723.42 624.366 726.192 621.666 726.192ZM634.746 736.236C638.49 734.832 640.686 731.916 640.686 728.1C640.686 725.328 639.498 723.672 637.482 723.672C635.898 723.672 634.566 724.68 634.566 726.336C634.566 728.028 635.898 729 637.374 729C638.058 729 638.706 728.784 639.21 728.244L637.482 725.544L637.77 728.856C637.77 731.016 636.33 732.852 633.846 733.896L634.746 736.236ZM652.92 729.504C658.176 729.504 661.488 724.716 661.488 716.04C661.488 707.364 658.176 702.756 652.92 702.756C647.628 702.756 644.352 707.328 644.352 716.04C644.352 724.716 647.628 729.504 652.92 729.504ZM652.92 726.192C650.22 726.192 648.312 723.42 648.312 716.04C648.312 708.624 650.22 706.032 652.92 706.032C655.62 706.032 657.492 708.624 657.492 716.04C657.492 723.42 655.62 726.192 652.92 726.192ZM673.451 729.504C678.707 729.504 682.019 724.716 682.019 716.04C682.019 707.364 678.707 702.756 673.451 702.756C668.159 702.756 664.883 707.328 664.883 716.04C664.883 724.716 668.159 729.504 673.451 729.504ZM673.451 726.192C670.751 726.192 668.843 723.42 668.843 716.04C668.843 708.624 670.751 706.032 673.451 706.032C676.151 706.032 678.023 708.624 678.023 716.04C678.023 723.42 676.151 726.192 673.451 726.192ZM693.983 729.504C699.239 729.504 702.551 724.716 702.551 716.04C702.551 707.364 699.239 702.756 693.983 702.756C688.691 702.756 685.415 707.328 685.415 716.04C685.415 724.716 688.691 729.504 693.983 729.504ZM693.983 726.192C691.283 726.192 689.375 723.42 689.375 716.04C689.375 708.624 691.283 706.032 693.983 706.032C696.683 706.032 698.555 708.624 698.555 716.04C698.555 723.42 696.683 726.192 693.983 726.192ZM704.686 735.48H707.566L717.538 700.236H714.694L704.686 735.48ZM732.609 728.28V731.376H752.913V728.28H732.609ZM737.901 709.596V712.692H748.413V709.596H737.901ZM737.901 718.884V721.872H748.413V718.884H737.901ZM735.633 700.452V729.864H738.765V703.548H747.333V729.864H750.573V700.452H735.633ZM729.189 713.088C730.125 715.572 731.061 718.812 731.385 720.792L734.157 719.856C733.761 717.948 732.717 714.744 731.745 712.296L729.189 713.088ZM725.517 722.448C725.913 724.932 726.309 728.172 726.381 730.296L729.189 729.72C729.081 727.596 728.649 724.392 728.181 721.908L725.517 722.448ZM721.125 722.052C720.837 724.968 720.369 728.208 719.541 730.368C720.261 730.548 721.629 731.016 722.277 731.34C723.033 729.108 723.681 725.688 723.969 722.52L721.125 722.052ZM720.477 712.476C720.477 711.828 722.457 710.82 722.457 710.82V710.748C724.941 707.904 727.533 703.764 729.477 699.732L726.453 698.472C724.905 702.36 722.349 706.464 721.557 707.508C720.765 708.588 720.117 709.308 719.433 709.488C719.793 710.316 720.297 711.792 720.477 712.476ZM720.477 712.476C721.125 712.152 722.241 711.9 728.145 711.288C728.181 710.604 728.289 709.416 728.469 708.588L721.881 709.092L720.405 710.064L720.477 712.476ZM720.729 720.684C720.729 720.072 722.781 719.064 722.781 719.064V718.956C726.453 715.5 730.161 710.604 733.077 705.744L730.197 703.98C727.713 708.84 723.789 713.916 722.493 715.212C721.341 716.508 720.513 717.372 719.649 717.552C720.045 718.416 720.549 720.036 720.729 720.684ZM720.729 720.684C721.521 720.252 722.853 719.964 731.781 718.668C731.745 718.02 731.817 716.796 731.925 715.968L722.133 717.192L720.621 718.236L720.729 720.684ZM729.621 721.728C730.269 723.636 731.025 726.156 731.277 727.812L733.977 726.912C733.617 725.292 732.861 722.808 732.141 720.936L729.621 721.728Z" fill="#754ABA"/>
<path d="M480.076 780.564V783.552H491.704V780.564H480.076ZM481.12 773.616C480.076 779.772 478.312 786 475.864 789.996C476.548 790.464 477.7 791.544 478.168 792.12C480.724 787.656 482.74 780.816 483.964 774.156L481.12 773.616ZM486.232 782.436C485.188 793.74 482.236 800.796 474.028 804.576C474.568 805.188 475.432 806.484 475.72 807.132C484.468 802.632 487.852 795.072 489.184 782.688L486.232 782.436ZM481.588 783.48L479.14 783.84C480.616 794.316 483.424 802.812 489.868 806.916C490.336 806.088 491.344 804.864 492.064 804.288C485.836 800.868 482.92 792.84 481.588 783.48ZM466.756 773.616V792.66H469.384V773.616H466.756ZM463.48 778.116H472.948V783.912H463.48V778.116ZM460.852 775.884V786.144H475.684V775.884H460.852ZM462.976 789.528H473.308V791.58H462.976V789.528ZM460.132 787.512V793.632H476.296V787.512H460.132ZM458.368 779.628V782.148H461.824V781.968H473.884V782.148H477.664V779.628H473.884V779.772H461.824V779.628H458.368ZM460.744 801.012L463.552 801.588C465.136 799.464 467.296 796.08 468.628 793.092L465.856 792.48C464.668 795.288 462.508 798.78 460.744 801.012ZM460.744 801.012C465.208 802.128 470.608 804.324 473.56 806.052L475.72 804.072C472.624 802.416 467.296 800.292 462.94 799.212L460.744 801.012ZM471.328 794.352V795.756C471.328 798.528 470.176 802.632 458.08 804.792C458.584 805.332 459.232 806.376 459.484 806.988C472.552 804.54 474.064 799.572 474.064 795.828V794.352H471.328ZM458.548 795.612V797.988H477.412V795.612H458.548ZM506.176 779.952V783.264H526.012V779.952H506.176ZM508.408 785.712C509.452 790.644 510.46 797.16 510.748 800.904L514.096 799.968C513.736 796.296 512.656 789.924 511.504 784.992L508.408 785.712ZM520.576 784.776C519.964 790.356 518.524 798.096 517.192 802.884L520.144 803.532C521.548 798.816 523.132 791.364 524.176 785.352L520.576 784.776ZM504.736 802.308V805.584H527.38V802.308H504.736ZM513.232 774.084C513.88 775.884 514.636 778.26 514.924 779.808L518.308 778.836C517.912 777.288 517.156 775.02 516.472 773.256L513.232 774.084ZM502.864 773.76C500.92 779.088 497.644 784.38 494.224 787.764C494.8 788.556 495.772 790.392 496.096 791.22C500.02 787.152 503.728 780.888 506.068 774.768L502.864 773.76ZM499.12 783.336V806.988H502.54V779.952L502.504 779.916L499.12 783.336ZM530.44 796.62V799.428H563.668V796.62H530.44ZM552.724 794.496C553.984 795.36 555.568 796.656 556.324 797.484L558.016 795.792C557.188 794.964 555.604 793.776 554.344 792.984L552.724 794.496ZM542.86 785.136V787.44H563.092V785.136H542.86ZM555.496 782.616V790.392C555.496 790.752 555.388 790.86 554.956 790.896C554.524 790.896 553.156 790.896 551.68 790.824C552.076 791.616 552.472 792.588 552.616 793.38C554.812 793.38 556.324 793.416 557.404 793.02C558.448 792.588 558.736 791.94 558.736 790.5V782.616H555.496ZM530.62 784.524V787.26H540.376V784.524H530.62ZM538.468 773.724V794.208H541.564V773.724H538.468ZM532.204 774.516V782.112H540.232V779.448H535.084V774.516H532.204ZM545.344 788.592C546.748 789.528 548.368 790.968 549.124 791.976L551.32 790.176C550.528 789.168 548.836 787.836 547.432 786.972L545.344 788.592ZM548.584 777.504C550.312 778.8 552.256 780.672 553.12 781.968L555.424 781.14C554.416 779.772 552.436 777.9 550.744 776.712L548.584 777.504ZM559.132 775.452V775.884C556.468 780.348 549.7 782.508 542.752 783.264C543.22 783.804 543.796 784.668 544.084 785.28C551.716 784.236 558.844 781.932 562.048 776.28L560.284 775.344L559.708 775.452H559.132ZM552.58 773.508C550.672 775.056 547.324 776.496 542.968 777.504C543.508 777.936 544.336 778.836 544.696 779.448C549.412 778.08 552.904 776.388 555.46 774.12L552.58 773.508ZM551.392 775.452L548.8 777.432H559.996V775.452H551.392ZM532.96 785.64V787.332C532.96 788.736 532.564 791.436 530.368 793.164C531.16 793.488 532.42 794.172 532.996 794.64C535.48 792.624 535.984 789.204 535.984 787.44V785.64H532.96ZM545.164 793.128V795.396C545.164 798.168 543.4 802.344 530.188 804.432C530.872 805.188 531.7 806.412 532.096 807.204C546.568 804.828 548.548 799.428 548.548 795.504V793.128H545.164ZM547.972 801.156C552.58 802.848 559.024 805.44 562.192 807.024L563.776 804.36C560.428 802.812 553.912 800.4 549.484 798.852L547.972 801.156ZM543.832 779.988L544.156 781.86C545.92 781.68 547.756 781.536 549.772 781.356L549.736 779.628C547.468 779.772 545.524 779.916 543.832 779.988ZM579.688 784.056V787.44H599.596V784.056H579.688ZM591.784 775.956C593.476 777.936 595.384 780.708 596.14 782.508L599.02 781.032C598.156 779.232 596.248 776.604 594.484 774.66L591.784 775.956ZM569.212 783.84V786.9H576.592V783.84H569.212ZM566.44 791.508V794.568H576.088V791.508H566.44ZM575.26 773.616V807.024H578.464V773.616H575.26ZM567.808 775.2V786.864H570.904V775.2H567.808ZM568.996 792.66V795.432C568.996 797.844 568.6 801.912 566.08 804.684C566.872 805.008 568.096 805.764 568.708 806.268C571.552 803.208 572.092 798.384 572.092 795.504V792.66H568.996ZM587.104 773.652V783.876C587.104 790.752 586.312 798.816 578.14 804.504C578.86 805.08 579.976 806.34 580.444 807.132C589.444 800.76 590.38 791.76 590.38 783.876V773.652H587.104ZM590.956 785.172L587.788 785.424C588.328 790.86 589.48 801.732 597.58 806.844C598.12 805.944 599.128 804.792 600.1 804.108C592.36 799.536 591.28 790.032 590.956 785.172Z" fill="#1D1D1B"/>
<path d="M445.224 498.368V501.896H478.848V498.368H445.224ZM467.94 496.532C469.2 497.432 470.82 498.728 471.612 499.592L473.664 497.504C472.836 496.676 471.18 495.452 469.92 494.66L467.94 496.532ZM458.112 486.848V489.656H478.38V486.848H458.112ZM470.208 484.544V491.744C470.208 492.104 470.064 492.212 469.668 492.248C469.272 492.248 467.976 492.248 466.788 492.176C467.22 493.112 467.724 494.336 467.868 495.308C469.992 495.308 471.576 495.344 472.764 494.876C473.952 494.372 474.276 493.58 474.276 491.888V484.544H470.208ZM445.368 486.128V489.476H455.448V486.128H445.368ZM453.108 475.544V496.136H457.032V475.544H453.108ZM446.808 476.372V484.184H455.34V480.872H450.408V476.372H446.808ZM460.236 490.736C461.568 491.636 463.116 493.04 463.8 494.012L466.572 491.816C465.816 490.844 464.196 489.548 462.864 488.756L460.236 490.736ZM463.62 479.576C465.312 480.872 467.184 482.708 468.012 483.968L470.856 482.996C469.884 481.664 467.94 479.828 466.284 478.64L463.62 479.576ZM473.916 477.236V477.74C471.396 482.06 465.024 484.112 458.112 484.832C458.688 485.48 459.408 486.524 459.768 487.28C467.544 486.236 474.348 484.004 477.552 478.244L475.32 477.128L474.636 477.236H473.916ZM467.652 475.256C465.744 476.696 462.468 477.956 458.148 478.82C458.832 479.36 459.84 480.476 460.272 481.232C465.024 479.936 468.48 478.388 471.144 476.048L467.652 475.256ZM466.788 477.236L463.584 479.576H474.996V477.236H466.788ZM447.42 487.604V489.26C447.42 490.52 447.096 493.256 445.044 494.876C445.98 495.272 447.6 496.136 448.32 496.712C450.732 494.696 451.2 491.06 451.2 489.404V487.604H447.42ZM459.732 494.984V497.396C459.732 500.096 457.824 504.056 444.972 505.964C445.836 506.9 446.88 508.484 447.384 509.456C461.856 507.188 464.016 501.608 464.016 497.54V494.984H459.732ZM462.9 503.696C467.4 505.28 473.88 507.764 477.048 509.276L478.992 505.892C475.644 504.452 469.056 502.184 464.736 500.78L462.9 503.696ZM459.264 481.628L459.624 483.788C461.28 483.608 462.9 483.464 464.7 483.248L464.664 481.232C462.576 481.376 460.812 481.52 459.264 481.628ZM481.62 479.324V483.32H494.004V479.324H481.62ZM485.652 481.628V498.656H490.008V481.628H485.652ZM480.648 498.656L482.412 502.796C486.048 501.5 490.764 499.808 495.12 498.152L494.4 494.408C489.432 496.028 484.032 497.72 480.648 498.656ZM494.472 476.876V480.512H514.956V476.876H494.472ZM499.944 491.384H509.376V493.688H499.944V491.384ZM499.944 496.64H509.376V498.944H499.944V496.64ZM499.944 486.164H509.376V488.468H499.944V486.164ZM495.912 482.996V502.112H513.624V482.996H495.912ZM502.284 478.892C502.104 480.692 501.672 483.14 501.24 484.868L505.092 485.588C505.704 484.04 506.568 481.736 507.324 479.468L502.284 478.892ZM499.764 502.004C497.928 503.48 494.256 505.316 491.232 506.252C492.096 507.08 493.284 508.376 493.896 509.24C497.064 508.196 500.844 506.288 503.256 504.488L499.764 502.004ZM505.2 504.524C507.54 505.892 510.672 507.944 512.148 509.276L515.568 506.756C513.876 505.388 510.672 503.444 508.404 502.22L505.2 504.524Z" fill="black"/>
</svg>
