<svg width="718" height="540" viewBox="0 0 718 540" fill="none" xmlns="http://www.w3.org/2000/svg">
<path d="M632.331 389.275H147.568V484.757H642.778L632.331 389.275Z" fill="#3A3542"/>
<path d="M718 540H47.7943L76.5248 471.458L421.814 480.665L702.851 484.075L718 540Z" fill="#76707F"/>
<path d="M619.794 2.23507C458.902 -1.17497 301.668 0.189046 147.568 4.96311C129.807 149.208 120.404 296.522 119.882 446.223C282.34 467.706 461.514 466.683 656.882 453.725C648.002 294.817 635.987 143.07 619.794 2.23507Z" fill="#76707F"/>
<path d="M630.764 107.606C627.107 71.8002 623.45 36.6767 619.794 1.89425C458.903 -1.51579 301.668 -0.151774 147.568 4.62229C140.777 58.16 135.553 111.698 131.374 165.576L630.764 107.606Z" fill="#625D6D"/>
<path d="M599.421 1.89461C452.634 -1.17444 309.504 0.189583 168.985 4.28164C153.314 145.458 145.478 289.021 144.956 435.312C292.265 456.795 455.246 455.772 632.853 442.814C624.495 287.657 613.525 139.661 599.421 1.89461Z" fill="#918C99"/>
<path d="M622.928 286.293C616.137 187.742 608.301 92.6019 598.899 1.89461C452.634 -1.17444 309.504 0.189583 168.985 4.28164C161.672 68.3905 156.448 132.84 152.269 197.972C160.105 203.428 168.463 209.225 177.343 214.341C319.429 302.32 505.394 329.941 622.928 286.293Z" fill="#A49FAD"/>
<path d="M144.956 424.058C144.956 427.809 144.956 431.56 144.956 435.652C292.265 457.135 455.246 456.112 632.853 443.154C631.286 415.874 629.719 388.934 628.152 362.336C582.183 355.175 531.512 351.083 478.23 351.083C331.966 350.401 206.073 380.409 144.956 424.058Z" fill="#A49FAD"/>
<path d="M122.494 472.822C201.372 499.761 302.19 515.788 411.889 515.788C506.438 515.788 593.675 503.853 666.285 483.393L421.814 480.665L122.494 472.822Z" fill="#918C99"/>
<path d="M394.128 439.404C318.906 439.404 242.64 435.653 166.896 428.151L163.239 427.81L187.79 18.945L191.447 18.604C292.788 12.807 419.724 11.4429 580.093 14.171H583.75L612.48 428.492L608.824 428.833C537.781 435.994 466.216 439.404 394.128 439.404ZM171.597 423.377C317.339 437.699 454.724 432.243 596.287 418.602L576.437 19.6271C419.724 16.899 302.19 22.0141 202.417 27.4702L171.597 423.377Z" fill="#524B5B"/>
<path d="M609.346 420.989L631.286 437.357L642.778 448.61L611.958 443.836L599.943 426.786L609.346 420.989Z" fill="#524B5B"/>
<path d="M107.049 335C127.829 374.875 110.827 439.023 110.827 439.023C104.53 416.484 81.2313 389.323 81.2313 389.323C90.0471 413.017 78.7125 451.737 78.7125 451.737C55.4136 403.193 19.5207 376.031 19.5207 376.031C46.5978 406.66 46.5978 492.768 46.5978 492.768L0 463.873C0 463.873 30.8553 504.904 35.8929 539.578H173.797C168.76 391.635 107.049 335 107.049 335Z" fill="#3C3542"/>
<path d="M230.752 214.084V217.108H251.524V214.084H230.752ZM238.816 198.604L237.34 200.98H247.744L248.5 198.604H238.816ZM243.892 209.332V224.812C243.892 225.28 243.748 225.424 243.172 225.424C242.596 225.46 240.688 225.46 238.744 225.388C239.176 226.324 239.644 227.728 239.752 228.664C242.524 228.664 244.396 228.592 245.584 228.088C246.808 227.548 247.132 226.576 247.132 224.848V209.332H243.892ZM240.04 195.58C237.988 198.46 234.1 201.448 229.888 203.104C230.536 203.644 231.544 204.616 232.012 205.228C236.368 203.212 240.652 200.008 243.352 196.516L240.04 195.58ZM233.056 219.052C234.784 220.852 236.692 223.372 237.484 224.992L240.256 223.264C239.428 221.644 237.412 219.268 235.684 217.54L233.056 219.052ZM236.188 201.808C238.276 203.5 240.544 205.948 241.552 207.676L243.784 206.02C242.74 204.292 240.364 201.916 238.276 200.296L236.188 201.808ZM221.176 205.912V208.864H227.98V205.912H221.176ZM218.296 213.616V216.568H227.764V213.616H218.296ZM226.468 195.652V229.024H229.6V195.652H226.468ZM219.772 197.056V208.864H222.76V197.056H219.772ZM220.168 214.804V216.964C220.168 219.664 219.88 224.272 217.936 227.476C218.692 227.8 219.916 228.592 220.492 229.096C222.796 225.46 223.156 220.132 223.156 217.072V214.804H220.168ZM247.276 198.604V199.144C244.72 205.66 237.772 209.98 230.68 211.672C231.256 212.32 232.012 213.436 232.372 214.192C240.112 211.96 247.42 207.46 250.552 199.468L248.464 198.46L247.888 198.604H247.276ZM230.716 206.38L231.256 208.828C233.38 208.468 235.828 208.072 238.312 207.64L238.096 205.372C235.288 205.768 232.696 206.164 230.716 206.38ZM258.544 213.04V216.388H283.312V213.04H258.544ZM258.544 223.588V226.936H283.24V223.588H258.544ZM256.888 202.564V229.06H260.272V205.984H281.62V228.952H285.184V202.564H256.888ZM269.092 195.652V225.352H272.584V195.652H269.092ZM290.908 204.94V208.468H323.2V204.94H290.908ZM299.8 212.176C297.46 217.324 293.788 222.94 290.404 226.468C291.34 227.008 293.032 228.16 293.824 228.808C297.1 224.956 300.916 218.944 303.58 213.4L299.8 212.176ZM310.24 213.472C313.48 218.296 317.764 224.776 319.672 228.592L323.236 226.612C321.112 222.796 316.684 216.532 313.48 211.924L310.24 213.472ZM303.292 196.912C304.48 199.36 305.956 202.6 306.604 204.544L310.384 203.104C309.592 201.196 308.044 198.064 306.82 195.76L303.292 196.912ZM333.64 203.86V206.884H355.024V203.86H333.64ZM333.64 210.988V213.904H354.484V210.988H333.64ZM333.064 218.224V221.176H354.628V218.224H333.064ZM331.732 203.86V213.04C331.732 217.54 331.192 223.012 326.044 226.828C326.728 227.296 327.988 228.556 328.456 229.24C334.072 225.028 335.044 218.26 335.044 213.076V203.86H331.732ZM353.224 203.86V224.956C353.224 225.64 353.008 225.856 352.216 225.892C351.388 225.928 348.508 225.928 345.772 225.82C346.276 226.72 346.888 228.196 347.068 229.096C350.704 229.096 353.116 229.06 354.628 228.52C356.104 228.016 356.608 227.008 356.608 224.992V203.86H353.224ZM342.244 205.12V219.736H345.484V205.12H342.244ZM336.7 197.668V200.512H347.896V197.668H336.7ZM336.628 195.508C334.864 199.108 331.588 203.428 326.836 206.596C327.628 207.1 328.744 208.252 329.284 209.08C334.36 205.336 337.888 200.62 340.3 196.156L336.628 195.508ZM346.708 197.668V198.316C345.952 200.152 344.26 202.996 342.784 204.688C343.504 205.084 344.548 205.768 345.196 206.272C346.924 204.436 349.048 201.484 350.344 199.036L348.04 197.524L347.464 197.668H346.708ZM362.764 219.376V222.184H395.2V219.376H362.764ZM369.604 213.148V215.632H386.092V213.148H369.604ZM377.668 218.08V225.568C377.668 226.036 377.524 226.144 376.948 226.18C376.372 226.18 374.284 226.18 372.268 226.108C372.7 226.936 373.204 228.088 373.384 228.988C376.192 228.988 378.064 228.988 379.36 228.556C380.656 228.088 381.016 227.296 381.016 225.676V218.08H377.668ZM385.264 213.148V213.724C383.644 215.128 380.404 217.036 377.668 218.08C378.1 218.476 378.892 219.304 379.252 219.844C382.528 218.584 386.164 216.676 388.756 214.732L386.776 212.968L386.056 213.148H385.264ZM363.484 208.54V215.488H366.724V211.096H391.204V215.488H394.588V208.54H363.484ZM389.404 196.912C389.224 201.052 388.864 206.488 388.396 209.872H391.672C392.068 206.596 392.428 201.16 392.644 196.912H389.404ZM383.932 196.912V199.144H390.736V196.912H383.932ZM372.736 195.868C370.864 196.48 367.732 197.38 365.608 197.74L366.832 199.648C368.992 199.324 372.052 198.748 374.212 197.884L372.736 195.868ZM367.336 200.8V202.996H373.96V200.8H367.336ZM367.48 204.652V206.884H374.104V204.652H367.48ZM384.148 200.8V202.996H390.412V200.8H384.148ZM383.932 204.652V206.884H390.16V204.652H383.932ZM380.548 195.904C379.18 197.74 376.696 199.432 374.248 200.584C374.788 200.944 375.688 201.736 376.084 202.168C378.532 200.872 381.232 198.784 382.852 196.552L380.548 195.904ZM374.932 197.668C377.272 198.784 380.116 200.548 381.484 201.844L383.176 200.296C381.7 199.036 378.856 197.308 376.552 196.264L374.932 197.668ZM380.62 201.988C379.18 203.932 376.516 205.732 373.96 206.884C374.5 207.28 375.364 208.18 375.76 208.612C378.352 207.244 381.196 205.048 382.924 202.672L380.62 201.988ZM374.788 203.752C377.236 205.012 380.188 206.956 381.592 208.36L383.32 206.776C381.844 205.372 378.82 203.536 376.444 202.384L374.788 203.752ZM365.608 197.74L366.364 209.764H369.532L368.848 198.604L365.608 197.74ZM413.74 206.524V209.476H428.392V206.524H413.74ZM410.968 212.968V216.028H431.488V212.968H410.968ZM410.86 199.972V206.704H414.028V202.96H428.032V206.704H431.272V199.972H410.86ZM415.828 214.408C415.432 220.492 414.46 224.236 407.836 226.288C408.556 226.936 409.456 228.196 409.78 229.024C417.268 226.432 418.672 221.68 419.104 214.408H415.828ZM422.164 214.336V224.596C422.164 227.62 422.812 228.592 425.62 228.592C426.16 228.592 427.96 228.592 428.536 228.592C430.876 228.592 431.704 227.296 431.956 222.472C431.092 222.256 429.76 221.752 429.112 221.212C429.04 225.1 428.86 225.676 428.176 225.676C427.816 225.676 426.448 225.676 426.16 225.676C425.476 225.676 425.404 225.532 425.404 224.56V214.336H422.164ZM417.952 196.264C418.816 197.74 419.716 199.792 420.076 201.124L423.388 199.972C422.956 198.712 422.02 196.768 421.12 195.292L417.952 196.264ZM399.664 197.092V228.952H402.688V200.152H407.98V197.092H399.664ZM407.188 197.092V198.028C406.54 200.368 405.316 204.76 404.128 208C406.468 210.7 407.044 213.148 407.044 215.02C407.044 216.1 406.828 217 406.36 217.36C406.072 217.576 405.676 217.648 405.28 217.684C404.776 217.72 404.164 217.684 403.408 217.648C403.912 218.476 404.2 219.772 404.2 220.6C405.028 220.636 405.892 220.636 406.612 220.528C407.368 220.42 408.016 220.204 408.556 219.808C409.636 219.016 410.068 217.468 410.068 215.344C410.068 213.148 409.528 210.592 407.08 207.64C408.232 204.796 409.492 201.232 410.464 198.244L408.268 196.948L407.764 197.092H407.188ZM434.764 201.16V204.292H467.2V201.16H434.764ZM438.724 213.04V215.632H448.48V213.04H438.724ZM438.724 218.692V221.284H448.48V218.692H438.724ZM454.384 207.532V222.292H457.552V207.532H454.384ZM447.292 207.172V225.388C447.292 225.856 447.148 226 446.644 226C446.176 226.036 444.592 226.036 443.008 225.964C443.44 226.792 443.944 228.052 444.124 228.916C446.464 228.916 448.084 228.88 449.164 228.376C450.244 227.872 450.568 227.008 450.568 225.46V207.172H447.292ZM461.656 206.488V225.064C461.656 225.568 461.476 225.712 460.9 225.712C460.288 225.748 458.38 225.748 456.328 225.676C456.832 226.576 457.372 228.016 457.552 228.916C460.288 228.952 462.16 228.844 463.384 228.34C464.644 227.8 465.004 226.9 465.004 225.1V206.488H461.656ZM440.092 196.732C441.424 198.244 442.828 200.368 443.368 201.7L446.788 200.476C446.14 199.108 444.628 197.056 443.296 195.58L440.092 196.732ZM458.596 195.472C457.732 197.452 456.184 200.152 454.888 201.844L457.948 202.924C459.244 201.304 460.864 198.892 462.268 196.624L458.596 195.472ZM437.14 207.172V215.632C437.14 219.196 436.888 223.84 434.548 227.152C435.268 227.548 436.6 228.556 437.104 229.096C439.768 225.46 440.2 219.772 440.2 215.668V207.172H437.14ZM439.12 207.172V209.908H448.876V207.172H439.12ZM482.428 208.54V211.6H503.524V208.54H482.428ZM489.052 215.56V228.736H491.68V215.56H489.052ZM494.38 215.56V228.664H497.044V215.56H494.38ZM491.212 195.724V205.048H494.488V195.724H491.212ZM483.4 214.408V229.024H486.46V217.288H501.436V214.408H483.4ZM499.78 214.408V226.036C499.78 226.324 499.672 226.432 499.384 226.432C499.096 226.468 498.268 226.468 497.368 226.432C497.764 227.188 498.16 228.304 498.268 229.132C499.852 229.132 500.932 229.06 501.76 228.628C502.588 228.16 502.768 227.404 502.768 226.072V214.408H499.78ZM491.14 209.584C490.924 211.384 490.456 213.904 489.988 215.632L492.904 216.46C493.552 214.912 494.272 212.608 495.1 210.448L491.14 209.584ZM483.832 197.416V206.272H502.336V197.416H499.06V203.32H487V197.416H483.832ZM470.656 202.204V205.336H482.788V202.204H470.656ZM470.332 222.22L471.052 225.604C474.472 224.776 478.792 223.696 482.968 222.616L482.572 219.484C478.108 220.528 473.464 221.644 470.332 222.22ZM471.664 207.388C472.348 211.312 472.96 216.46 473.032 219.88L475.696 219.412C475.588 215.956 474.976 210.916 474.256 206.92L471.664 207.388ZM478.936 206.668C478.576 211.06 477.748 217.432 476.92 221.248L479.26 221.752C480.16 218.044 481.168 211.924 481.852 207.136L478.936 206.668ZM474.112 196.84C474.976 198.496 475.948 200.728 476.38 202.204L479.368 201.16C478.936 199.72 477.928 197.596 476.992 195.976L474.112 196.84ZM525.412 217.9L528.472 215.308C526.42 212.824 523.072 209.44 520.516 207.352L517.564 209.944C520.084 212.032 523.144 215.128 525.412 217.9ZM230.212 278.504C236.08 278.504 240.04 275.264 240.04 266.66V251.504H236.008V266.912C236.008 272.888 233.524 274.832 230.212 274.832C226.9 274.832 224.524 272.888 224.524 266.912V251.504H220.348V266.66C220.348 275.264 224.308 278.504 230.212 278.504ZM246.858 278H251.07V251.504H246.858V278ZM292.982 254.204C292.55 256.904 291.614 260.72 290.75 263.096L293.414 263.78C294.278 261.512 295.322 257.948 296.222 254.924L292.982 254.204ZM279.23 255.14C280.058 257.876 280.778 261.476 280.922 263.852L283.802 263.132C283.658 260.792 282.902 257.264 281.966 254.492L279.23 255.14ZM278.654 249.56V252.728H296.654V249.56H278.654ZM277.322 265.112V268.352H297.374V265.112H277.322ZM285.746 250.64V281.024H289.094V250.64H285.746ZM265.586 258.56V261.188H275.918V258.56H265.586ZM265.586 263.348V265.976H275.918V263.348H265.586ZM264.146 253.664V256.436H277.394V253.664H264.146ZM266.954 268.244V271.016H273.182V276.164H266.954V278.936H275.954V268.244H266.954ZM265.586 268.244V280.556H268.286V268.244H265.586ZM267.854 248.768C268.754 250.28 269.834 252.404 270.302 253.736L272.858 252.188C272.318 250.892 271.238 248.948 270.266 247.472L267.854 248.768ZM314.942 256.616V267.272H318.038V256.616H314.942ZM314.942 269.504V278.828H318.038V269.504H314.942ZM304.898 268.136V280.952H308.03V270.548H325.202V280.844H328.514V268.136H304.898ZM300.686 261.116V263.816H332.51V261.116H300.686ZM307.022 272.888V275.012H326.498V272.888H307.022ZM307.022 277.46V279.908H326.498V277.46H307.022ZM325.526 254.096C320.774 254.888 312.494 255.356 305.654 255.536C305.942 256.148 306.266 257.228 306.338 257.876C313.286 257.84 321.746 257.336 327.29 256.436L325.526 254.096ZM313.25 261.728C310.262 264.68 304.502 267.56 299.606 268.892C300.254 269.504 301.19 270.62 301.622 271.34C306.482 269.684 312.314 266.372 315.554 262.844L313.25 261.728ZM306.05 258.344C306.842 259.388 307.562 260.792 307.85 261.764L311.234 260.864C310.91 259.892 310.118 258.56 309.29 257.624L306.05 258.344ZM324.086 257.084C323.366 258.38 321.998 260.252 320.954 261.44L323.546 262.34C324.698 261.26 326.138 259.64 327.434 258.02L324.086 257.084ZM301.226 250.316V257.084H304.25V253.16H328.802V257.084H332.006V250.316H301.226ZM313.574 248.228C314.258 249.524 314.87 251.324 315.086 252.404L318.83 251.504C318.614 250.388 317.858 248.66 317.174 247.4L313.574 248.228ZM317.462 263.78C322.682 266.12 327.83 268.964 330.926 271.052L333.122 269.144C329.81 267.056 324.374 264.248 319.262 261.98L317.462 263.78ZM351.842 253.484H351.41L348.746 256.292V273.932H351.842V256.256H368.042V253.484H351.842ZM350.222 259.352V261.98H366.89V259.352H350.222ZM350.366 265.148V267.812H366.926V265.148H350.366ZM350.258 271.088V273.932H368.762V271.088H350.258ZM357.494 254.6V272.528H360.446V254.6H357.494ZM351.518 247.868C349.934 252.44 347.342 257.012 344.498 259.964C345.038 260.612 345.938 262.088 346.262 262.7C349.466 259.28 352.454 253.952 354.326 248.66L351.518 247.868ZM356.63 248.948C357.638 250.784 358.682 253.232 359.078 254.744L362.03 253.808C361.634 252.296 360.482 249.884 359.438 248.12L356.63 248.948ZM337.334 249.2C338.954 250.964 341.006 253.484 341.978 254.996L344.57 253.124C343.562 251.648 341.546 249.38 339.89 247.652L337.334 249.2ZM336.218 255.968V258.74H343.994V255.968H336.218ZM343.022 272.096L340.754 273.104C343.418 279.44 348.026 280.484 356.414 280.484C360.482 280.484 365.054 280.412 368.582 280.196C368.762 279.26 369.23 277.676 369.698 276.992C365.846 277.316 360.266 277.532 356.486 277.532C349.61 277.496 345.11 276.884 343.022 272.096ZM342.914 264.86V265.4C341.942 271.88 339.278 276.416 335.426 278.792C336.074 279.26 337.19 280.448 337.622 281.096C341.726 278.396 344.714 273.212 345.938 265.4L344.282 264.788L343.706 264.86H342.914ZM336.794 268.064C337.082 267.776 338.054 267.56 338.954 267.56H343.922L343.958 264.86H338.198L336.794 265.58V268.064ZM336.794 268.064C336.794 267.272 339.206 266.12 339.206 266.12C341.258 263.78 344.534 259.244 346.262 256.796L344.102 255.788L343.166 256.184V256.292C341.942 258.236 338.522 262.988 337.406 264.068C336.758 264.788 336.182 265.04 335.606 265.184C335.93 265.832 336.578 267.344 336.794 268.064ZM386.438 249.74V252.98H404.078V249.74H386.438ZM396.338 260.684V276.848C396.338 277.424 396.122 277.568 395.438 277.604C394.79 277.64 392.378 277.64 390.038 277.532C390.506 278.54 390.974 279.98 391.118 280.952C394.502 280.952 396.662 280.916 398.03 280.412C399.398 279.872 399.83 278.864 399.83 276.92V260.684H396.338ZM384.854 259.712V262.952H405.05V259.712H384.854ZM377.294 263.132V281.132H380.678V260.324L380.282 260.144L377.294 263.132ZM381.398 255.392C378.986 259.496 375.026 263.672 371.318 266.3C372.002 266.984 373.19 268.496 373.694 269.18C377.51 266.084 381.83 261.26 384.638 256.616L381.398 255.392ZM379.994 247.616C378.194 250.172 374.702 253.412 371.714 255.392C372.29 256.076 373.19 257.408 373.658 258.164C376.97 255.824 380.75 252.224 383.27 248.948L379.994 247.616ZM414.086 263.348V266.192H437.81V257.732H411.206V260.576H434.462V263.348H414.086ZM412.538 263.348C412.25 266.156 411.71 269.576 411.206 271.88H414.554C414.986 269.684 415.454 266.228 415.778 263.348H412.538ZM413.474 269L412.61 271.88H436.766V269H413.474ZM435.866 269V269.432C435.506 273.86 435.11 275.696 434.534 276.236C434.246 276.524 433.886 276.56 433.274 276.56C432.626 276.596 431.006 276.56 429.35 276.38C429.854 277.244 430.25 278.54 430.322 279.512C432.158 279.584 433.922 279.584 434.858 279.476C435.938 279.404 436.694 279.152 437.342 278.432C438.278 277.496 438.746 275.228 439.178 270.296C439.25 269.864 439.286 269 439.286 269H435.866ZM422.618 258.416V281.024H425.966V258.416H422.618ZM421.826 269.936C419.09 273.464 413.726 276.776 408.758 278.324C409.514 278.972 410.486 280.196 410.954 280.988C415.994 279.08 421.394 275.336 424.49 271.088L421.826 269.936ZM412.898 250.028V252.692H424.274V250.028H412.898ZM427.766 250.064V252.692H441.086V250.064H427.766ZM413.366 247.328C412.214 250.28 410.198 253.16 408.038 255.104C408.722 255.644 409.874 256.796 410.378 257.408C412.646 255.14 414.986 251.648 416.39 248.192L413.366 247.328ZM428.234 247.328C427.334 249.92 425.678 252.44 423.698 254.096C424.454 254.528 425.714 255.572 426.29 256.112C428.306 254.204 430.25 251.18 431.366 248.12L428.234 247.328ZM415.382 253.844C416.606 254.96 418.154 256.508 418.874 257.552L421.07 255.572C420.278 254.6 418.694 253.124 417.434 252.08L415.382 253.844ZM431.078 253.988C432.374 255.032 433.994 256.508 434.786 257.516L437.09 255.5C436.226 254.564 434.57 253.16 433.274 252.188L431.078 253.988ZM444.074 262.124V265.832H477.194V262.124H444.074ZM493.07 252.62V255.788H510.53V252.62H493.07ZM493.142 261.548V264.608H508.622V261.548H493.142ZM499.838 247.58V263.24H503.15V247.58H499.838ZM491.27 252.62V261.764C491.27 267.02 490.91 274.256 487.094 279.296C487.922 279.62 489.362 280.448 489.938 280.988C493.934 275.66 494.546 267.488 494.546 261.8V252.62H491.27ZM509.666 252.62V253.124C509.054 255.356 508.118 258.092 507.29 259.748L510.242 260.648C511.25 258.74 512.366 255.788 513.266 253.124L510.782 252.512L510.206 252.62H509.666ZM497.642 263.42L494.726 264.284C497.678 272.456 503.042 278.396 511.286 281.024C511.754 280.16 512.726 278.828 513.482 278.108C505.598 275.984 500.162 270.512 497.642 263.42ZM481.802 250.388C483.89 251.504 486.698 253.268 488.066 254.42L490.082 251.684C488.678 250.568 485.798 248.948 483.746 247.904L481.802 250.388ZM479.786 260.144C481.91 261.188 484.826 262.844 486.194 263.96L488.138 261.152C486.698 260.108 483.782 258.524 481.694 257.624L479.786 260.144ZM480.578 278.54L483.602 280.592C485.474 277.172 487.526 272.816 489.146 269L486.482 266.948C484.682 271.124 482.306 275.768 480.578 278.54ZM507.398 261.548V262.196C505.346 270.728 499.55 275.84 492.17 278.288C492.89 278.9 493.934 280.304 494.366 281.096C501.998 278.288 508.262 272.384 510.818 262.376L508.694 261.44L508.082 261.548H507.398ZM531.014 257.444V260.288H548.978V257.444H531.014ZM519.674 276.164V278.864H528.314V276.164H519.674ZM519.746 258.776V261.476H526.406V264.788H519.71V267.488H529.61V258.776H519.746ZM519.71 269.864V272.6H527.018V280.232H530.186V269.864H519.71ZM517.838 258.776V280.916H521.006V258.776H517.838ZM522.158 255.68C521.726 256.904 520.898 258.704 520.25 259.892L523.202 260.576C523.922 259.496 524.786 257.984 525.65 256.328L522.158 255.68ZM531.914 262.988V277.712H534.974V265.904H545.666V262.988H531.914ZM544.694 262.988V274.328C544.694 274.652 544.622 274.76 544.298 274.76C543.938 274.796 543.038 274.796 541.922 274.76C542.318 275.588 542.642 276.776 542.75 277.676C544.55 277.676 545.846 277.64 546.782 277.136C547.718 276.632 547.934 275.804 547.934 274.364V262.988H544.694ZM538.286 258.344V280.988H541.454V258.344H538.286ZM520.826 250.064V252.692H532.706V250.064H520.826ZM535.874 250.1V252.692H549.194V250.1H535.874ZM521.366 247.328C520.178 250.46 518.09 253.556 515.822 255.608C516.506 256.148 517.658 257.3 518.162 257.912C520.502 255.536 522.95 251.828 524.39 248.192L521.366 247.328ZM536.666 247.292C535.766 250.028 534.11 252.692 532.13 254.42C532.886 254.852 534.146 255.896 534.722 256.436C536.738 254.42 538.718 251.288 539.834 248.084L536.666 247.292ZM523.67 253.988C524.75 254.924 526.154 256.292 526.802 257.156L528.962 255.212C528.278 254.348 526.838 253.088 525.722 252.224L523.67 253.988ZM540.05 253.916C541.094 254.96 542.426 256.436 543.038 257.372L545.342 255.392C544.694 254.492 543.326 253.124 542.246 252.188L540.05 253.916ZM229.168 314.808V317.364H249.976V314.808H229.168ZM227.728 320.244V322.8H251.2V320.244H227.728ZM233.884 312.54V321.648H237.052V312.54H233.884ZM241.912 312.54V321.648H245.08V312.54H241.912ZM241.156 324.276C243.568 325.464 246.124 327.084 247.528 328.344L250.552 326.868C248.86 325.608 245.944 323.988 243.388 322.764L241.156 324.276ZM235.108 322.836C233.488 324.204 230.824 325.536 228.34 326.4C229.096 326.868 230.284 327.876 230.896 328.452C233.344 327.372 236.26 325.644 238.132 323.88L235.108 322.836ZM230.14 300.948V303.144H235.756V305.196H230.14V307.392H238.636V300.948H230.14ZM241.588 300.984V303.18H247.384V305.232H241.588V307.428H250.3V300.984H241.588ZM240.292 300.984V308.148C240.292 310.92 240.976 311.964 243.82 311.964C244.432 311.964 247.672 311.964 248.428 311.964C249.436 311.964 250.444 311.892 251.02 311.748C250.912 311.1 250.84 310.092 250.768 309.372C250.156 309.516 249.04 309.552 248.356 309.552C247.672 309.552 244.648 309.552 243.964 309.552C243.172 309.552 243.028 309.228 243.028 308.22V300.984H240.292ZM228.952 312.936C229.6 312.576 230.752 312.36 238.456 311.028C238.492 310.452 238.672 309.336 238.852 308.652L230.14 309.948L228.844 310.812L228.952 312.936ZM228.952 312.936C228.952 311.964 231.544 310.56 231.544 310.56V300.948H228.844V308.148C228.844 309.516 228.304 310.056 227.8 310.308C228.232 310.956 228.772 312.216 228.952 312.936ZM219.16 301.308C220.78 303.108 222.832 305.592 223.804 307.104L226.432 305.232C225.388 303.792 223.372 301.524 221.68 299.76L219.16 301.308ZM218.62 308.04V310.812H225.208V308.04H218.62ZM225.28 324.096L223.012 325.104C225.676 331.476 230.32 332.484 238.78 332.484C242.884 332.484 247.456 332.412 251.02 332.196C251.2 331.26 251.632 329.676 252.136 328.956C248.248 329.316 242.668 329.532 238.816 329.532C231.904 329.496 227.368 328.884 225.28 324.096ZM224.596 316.86V317.4C223.732 323.772 221.392 328.344 217.9 330.792C218.548 331.26 219.664 332.412 220.132 333.096C223.84 330.288 226.54 325.068 227.62 317.364L225.964 316.788L225.424 316.86H224.596ZM219.304 320.064C219.592 319.812 220.564 319.56 221.392 319.56H225.496V316.86H220.672L219.304 317.58V320.064ZM219.304 320.064C219.304 319.272 221.68 318.084 221.68 318.084C223.408 315.816 226.144 311.1 227.548 308.652L225.388 307.824L224.488 308.184V308.292C223.516 310.2 220.708 315.096 219.808 316.104C219.232 316.824 218.692 317.04 218.152 317.22C218.476 317.832 219.124 319.344 219.304 320.064ZM271.108 310.74C268.012 310.74 265.456 313.26 265.456 316.356C265.456 319.488 268.012 322.008 271.108 322.008C274.204 322.008 276.724 319.488 276.724 316.356C276.724 313.26 274.204 310.74 271.108 310.74ZM271.108 319.848C269.2 319.848 267.616 318.3 267.616 316.356C267.616 314.448 269.2 312.9 271.108 312.9C273.016 312.9 274.564 314.448 274.564 316.356C274.564 318.3 273.016 319.848 271.108 319.848Z" fill="black"/>
<path d="M368.444 126.208V130.384H384.788V126.208H368.444ZM382.268 126.208V127.252C382.016 144.46 381.692 151.012 380.612 152.308C380.252 152.848 379.856 153.028 379.244 153.028C378.38 153.028 376.688 152.992 374.78 152.848C375.5 154 376.004 155.8 376.076 156.952C378.02 157.024 380 157.06 381.296 156.844C382.664 156.592 383.564 156.124 384.5 154.72C385.796 152.812 386.12 146.548 386.48 128.332C386.48 127.792 386.516 126.208 386.516 126.208H382.268ZM373.016 128.332C372.872 140.176 371.72 148.96 365.384 153.748C366.356 154.54 368.156 156.34 368.732 157.168C375.536 151.3 377.084 141.796 377.444 128.404L373.016 128.332ZM359.336 141.616V157.24H363.8V136.36L359.336 141.616ZM367.112 136.648C366.356 137.836 364.88 139.672 363.872 140.752L365.78 142.516C366.932 141.652 368.336 140.284 369.92 138.988L367.112 136.648ZM354.8 129.52V133.372H365.384V129.52H354.8ZM362.972 138.952L360.956 140.896C362.504 142.588 365.564 146.332 366.86 148.348L369.308 144.928C368.372 143.92 364.268 139.888 362.972 138.952ZM363.98 129.52V130.384C362.18 135.28 357.968 140.86 353.792 143.704C354.44 144.532 355.484 146.8 355.808 147.988C360.416 144.352 365.384 137.728 367.94 131.068L365.564 129.34L364.808 129.52H363.98ZM358.148 125.128C359.264 126.676 360.668 128.836 361.28 130.168L364.772 127.936C364.088 126.676 362.72 124.732 361.532 123.256L358.148 125.128ZM401.312 138.412V141.544H422.012V138.412H401.312ZM399.98 143.812V146.944H423.308V143.812H399.98ZM405.668 136.54V145.576H409.628V136.54H405.668ZM413.588 136.54V145.576H417.584V136.54H413.588ZM413.012 148.42C415.136 149.5 417.476 151.048 418.736 152.164L422.588 150.4C421.004 149.248 418.196 147.7 415.82 146.548L413.012 148.42ZM406.928 146.656C405.416 147.844 402.86 148.996 400.412 149.752C401.348 150.328 402.86 151.588 403.616 152.308C406.028 151.3 408.908 149.68 410.708 147.988L406.928 146.656ZM402.5 124.624V127.288H407.324V128.872H402.5V131.536H410.924V124.624H402.5ZM413.912 124.66V127.324H418.916V128.908H413.912V131.572H422.588V124.66H413.912ZM412.292 124.66V131.68C412.292 134.812 413.084 136.036 416.36 136.036C417.008 136.036 419.708 136.036 420.428 136.036C421.436 136.036 422.516 135.964 423.128 135.784C422.984 134.992 422.912 133.768 422.84 132.868C422.192 133.048 421.04 133.084 420.32 133.084C419.672 133.084 417.224 133.084 416.576 133.084C415.82 133.084 415.712 132.724 415.712 131.752V124.66H412.292ZM401.096 137.08C401.816 136.72 403.04 136.504 410.384 135.316C410.456 134.596 410.708 133.192 410.996 132.328L402.464 133.516L400.952 134.524L401.096 137.08ZM401.096 137.08C401.096 135.964 404.228 134.272 404.228 134.272V124.624H400.88V131.572C400.88 132.976 400.304 133.588 399.728 133.912C400.232 134.668 400.916 136.216 401.096 137.08ZM390.872 125.452C392.528 127.252 394.616 129.772 395.588 131.284L398.9 128.908C397.82 127.468 395.768 125.2 394.04 123.472L390.872 125.452ZM390.512 131.896V135.352H397.136V131.896H390.512ZM397.748 147.484L394.868 148.636C397.532 155.548 401.996 156.664 410.384 156.664C414.632 156.664 419.24 156.556 422.984 156.34C423.2 155.152 423.776 153.208 424.388 152.308C420.284 152.704 414.344 152.956 410.456 152.956C403.94 152.92 399.692 152.344 397.748 147.484ZM396.236 140.572V141.22C395.444 147.448 393.212 151.984 389.684 154.396C390.512 154.972 391.916 156.412 392.492 157.276C396.272 154.432 398.936 149.068 400.016 141.22L397.964 140.5L397.28 140.572H396.236ZM391.34 144.496C391.628 144.172 392.672 143.92 393.464 143.92H397.424V140.572H392.852L391.34 141.4V144.496ZM391.34 144.496C391.34 143.524 394.184 142.12 394.184 142.12C395.948 139.816 398.612 135.172 400.016 132.688L397.388 131.68L396.344 132.112V132.22C395.336 134.164 392.6 138.88 391.7 139.852C391.088 140.608 390.548 140.86 389.972 141.04C390.368 141.76 391.124 143.596 391.34 144.496Z" fill="black"/>
</svg>
