<svg width="114" height="106" viewBox="0 0 114 106" fill="none" xmlns="http://www.w3.org/2000/svg">
<path d="M41.6532 27.8391C41.6532 27.8391 36.6793 19.0407 22.5278 27.2653C22.5278 27.2653 -4.05837 44.2835 0.532893 75.4555C0.532893 75.4555 9.33281 103.185 30.7538 101.655L34.1973 101.081C34.1973 101.081 40.7016 105.863 45.4841 104.907C45.4841 104.907 47.3972 105.098 49.8841 102.229C49.8841 102.229 53.7102 106.245 59.6408 104.907L63.2756 103.185C63.2756 103.185 64.2318 106.054 72.4576 105.48L75.5187 104.141C75.5187 104.141 92.3483 105.48 104.018 92.4741C104.018 92.4741 117.601 80.8064 111.67 56.9025C111.67 56.9025 105.739 32.9985 87.7623 23.2437C87.7623 23.2437 73.4144 16.9318 69.7847 25.9215C69.7847 25.9215 61.5583 23.435 61.5583 29.3644C61.5583 29.3644 55.2455 25.1564 52.7585 29.5557C52.7585 29.5557 46.2543 24.2 41.663 27.8342L41.6532 27.8391Z" fill="#E8672D"/>
<path d="M35.5364 6.79934V2.01757C35.5364 2.01757 39.9364 -1.61658 47.9711 0.869949C47.9711 0.869949 56.5797 3.93028 59.832 16.5542L62.8925 31.0907L48.7363 30.5169L50.6493 17.1279C50.6493 17.1279 51.032 8.13823 45.4841 7.18189L35.5364 6.79934Z" fill="#44413E"/>
<path d="M25.2404 30.9289C19.5503 36.4954 15.3515 43.5331 13.1147 51.1693C10.7897 59.1046 10.7063 67.6139 12.7714 75.6173C13.9486 80.1835 15.8224 84.573 18.3191 88.57C18.9667 89.6145 20.6246 88.6531 19.9722 87.6041C15.7047 80.7623 13.3501 72.8024 13.203 64.7446C13.0608 57.0003 15.0277 49.3007 18.7851 42.5326C20.8797 38.7562 23.5088 35.3036 26.5942 32.2825C27.4771 31.4193 26.1233 30.0706 25.2404 30.9289Z" fill="#A85C17"/>
<path d="M23.9406 83.3515C24.8676 88.1485 27.3742 92.5918 30.9893 95.8724C31.8968 96.6968 33.2555 95.3479 32.3432 94.519C28.9439 91.4393 26.6531 87.3439 25.7849 82.8417C25.5544 81.6354 23.71 82.1452 23.9406 83.3515Z" fill="#A85C17"/>
<path d="M39.0535 29.4429C36.2183 32.1844 34.1335 35.6372 33.0103 39.4184C32.6571 40.6004 34.5014 41.1055 34.8546 39.9285C35.8896 36.4562 37.8075 33.3174 40.4073 30.7965C41.2952 29.9383 39.9413 28.5895 39.0535 29.4429Z" fill="#A85C17"/>
<path d="M50.1833 31.1692C47.6768 35.6224 45.7638 40.4041 44.5227 45.3575C44.2235 46.5493 46.0679 47.0593 46.3671 45.8676C47.5737 41.0613 49.4083 36.4512 51.8364 32.1354C52.4397 31.0613 50.7916 30.0951 50.1833 31.1692Z" fill="#A85C17"/>
<path d="M42.541 63.9304C42.1633 66.5495 41.9082 69.1777 41.7954 71.8212C41.7758 72.3367 42.2516 72.778 42.7519 72.778C43.2866 72.778 43.6839 72.3412 43.7084 71.8212C43.8114 69.3548 44.0322 66.8879 44.3853 64.4402C44.4589 63.9304 44.2578 63.4155 43.7183 63.2633C43.267 63.1405 42.6146 63.4155 42.541 63.9304Z" fill="#A85C17"/>
<path d="M45.3223 92.1551C45.9845 95.2597 46.7791 98.3298 47.7112 101.365C48.0692 102.538 49.9185 102.038 49.5555 100.856C48.6235 97.82 47.8289 94.7494 47.1667 91.6453C47.0587 91.14 46.4652 90.8458 45.9894 90.9782C45.4645 91.1202 45.2144 91.6498 45.3223 92.1551Z" fill="#A85C17"/>
<path d="M60.9404 32.3168C62.8682 35.3526 64.1973 38.7023 64.8938 42.2285C64.9922 42.7337 65.6005 43.0279 66.0712 42.8955C66.6009 42.7484 66.8413 42.2285 66.7383 41.7185C66.0175 38.0402 64.6047 34.509 62.5937 31.3457C61.9363 30.3109 60.2784 31.2672 60.9404 32.3119V32.3168Z" fill="#A85C17"/>
<path d="M68.8279 63.2832C69.25 66.3482 69.0927 69.4969 68.4211 72.5133C68.1512 73.71 69.9952 74.2249 70.265 73.0231C71.0204 69.644 71.1432 66.2011 70.6724 62.7728C70.6034 62.263 69.9465 61.9835 69.495 62.1063C68.941 62.2579 68.7543 62.7683 68.8279 63.2832Z" fill="#A85C17"/>
<path d="M67.2974 93.5532C66.5273 95.9562 65.5954 98.3004 64.5017 100.576C64.2759 101.042 64.3738 101.611 64.8451 101.885C65.2622 102.131 65.9292 102.008 66.1544 101.542C67.3172 99.1197 68.3181 96.6182 69.1419 94.063C69.2987 93.5724 68.9558 93.0185 68.4749 92.8861C67.96 92.7435 67.4547 93.0626 67.2974 93.5532Z" fill="#A85C17"/>
<path d="M71.6927 28.0206C73.8116 30.1589 75.7541 32.464 77.4855 34.926C77.7848 35.3478 78.3195 35.5439 78.7953 35.2693C79.2123 35.0241 79.4381 34.3865 79.1388 33.9598C77.314 31.3654 75.2782 28.9181 73.0467 26.667C72.1781 25.7891 70.8247 27.1427 71.6927 28.0206Z" fill="#A85C17"/>
<path d="M91.3524 56.9812C94.8746 67.2654 92.7704 78.4227 88.3214 88.0699C87.0607 90.8067 85.6185 93.4547 84.0687 96.0394C83.4355 97.0986 85.0889 98.0599 85.7214 97.0058C91.3671 87.594 95.6447 76.8928 94.9827 65.7304C94.796 62.5816 94.2172 59.4628 93.197 56.4758C92.7998 55.3184 90.9507 55.8138 91.3524 56.9857V56.9812Z" fill="#A85C17"/>
<path d="M88.5664 30.8358C95.8309 37.545 100.673 46.6524 102.336 56.3925C102.806 59.1489 102.988 61.9491 102.919 64.7397C102.89 65.9709 104.803 65.9709 104.832 64.7397C105.083 54.4896 101.786 44.1953 95.6985 35.951C93.9773 33.6166 92.0541 31.4488 89.9204 29.4773C89.0179 28.6435 87.6588 29.9922 88.5664 30.8309V30.8358Z" fill="#A85C17"/>
<path d="M4.29031 58.6383C3.52019 66.4907 4.90346 74.4698 8.14582 81.65C9.06799 83.6903 10.152 85.6565 11.3734 87.5351C12.0406 88.5603 13.6985 87.6035 13.0265 86.5692C8.87176 80.193 6.43389 72.7435 6.04637 65.1367C5.93847 62.9691 5.99239 60.7963 6.20332 58.6338C6.25238 58.1189 5.72753 57.677 5.24683 57.677C4.68763 57.677 4.33936 58.1189 4.29031 58.6338V58.6383Z" fill="#A85C17"/>
<path d="M22.5278 53.6558C22.5278 53.6558 23.2931 40.8407 34.7712 43.5185L44.9103 53.082C44.9103 53.082 50.0755 59.0113 42.2321 59.9676C42.2321 59.9676 25.0197 61.6893 22.5328 53.6558H22.5278Z" fill="#371522"/>
<path d="M61.3626 51.8412C61.1957 52.2041 61.0485 52.5818 60.9309 52.9741C59.8468 56.6134 62.0342 59.2422 65.7573 59.3938C65.7573 59.3938 79.7227 59.9676 84.8829 54.2296C84.8829 54.2296 91.1957 49.8304 86.9872 44.6661C85.0838 42.3267 80.9098 39.1781 77.8634 38.5356C73.2277 37.5499 70.5152 42.0373 67.6805 44.8574C65.4925 47.03 62.6917 48.9868 61.3626 51.8412Z" fill="#371522"/>
<path d="M22.9105 69.335C22.9105 69.335 19.0844 66.4658 19.467 70.4825C19.467 70.4825 23.6757 84.8276 37.4445 86.3581L40.5054 83.4889L43.7575 88.4618C43.7575 88.4618 49.4966 91.5223 62.1179 90.1836C62.1179 90.1836 77.6133 89.8011 84.3041 75.0729L89.0863 63.5971C89.0863 63.5971 89.4688 59.1973 86.5996 62.2578L73.9734 72.5867L71.2954 79.2809L68.4256 75.2642C68.4256 75.2642 59.8173 81.5764 43.7526 77.1772C43.7526 77.1772 30.3614 73.7342 22.9055 69.335H22.9105Z" fill="#3C141D"/>
</svg>
