<svg width="128" height="27" viewBox="0 0 128 27" fill="none" xmlns="http://www.w3.org/2000/svg">
<path d="M122.583 21.3584C121.186 21.3584 120.011 21.8731 119.055 22.7556C117.512 19.667 112.883 17.3873 107.371 17.3873C103.918 17.3873 100.831 18.2698 98.6269 19.667C97.1572 16.8726 94.2914 14.9606 90.9111 14.9606C88.5597 14.9606 86.4286 15.9166 84.8855 17.3873C81.7992 12.7545 75.3326 9.59235 67.9108 9.59235C62.6935 9.59235 57.9905 11.1366 54.6103 13.6369C51.6709 5.91547 44.2491 0.400146 35.578 0.400146C26.8335 0.400146 19.4851 5.84193 16.6193 13.5634C15.1496 12.9015 13.6064 12.4603 11.9163 12.4603C5.67022 12.4603 0.599854 17.5344 0.599854 23.7851C0.599854 24.8146 0.820304 25.8442 1.04075 26.8002H16.1784H22.6449H49.246H54.7572H82.6075H86.2817H95.3936H98.9208H117.218H119.055H127.726C127.726 26.7266 127.726 26.6531 127.726 26.5795C127.8 23.7116 125.448 21.3584 122.583 21.3584Z" fill="#F6F6F6"/>
<path opacity="0.1" d="M122.583 21.3586C121.186 21.3586 120.011 21.8734 119.055 22.7558C118.761 22.1675 118.321 21.6528 117.88 21.138C103.697 22.5352 88.1188 23.2706 71.8054 23.2706C45.8657 23.2706 21.8366 21.3586 2.14301 18.0494C1.18772 19.7408 0.599854 21.6528 0.599854 23.7854C0.599854 24.8149 0.820304 25.8444 1.04075 26.8004H16.1784H22.6449H49.246H54.7572H82.6075H86.2817H95.3936H98.9208H117.218H119.055H127.726C127.726 26.7269 127.726 26.6533 127.726 26.5798C127.8 23.7118 125.448 21.3586 122.583 21.3586Z" fill="#1D1D1B"/>
</svg>
