<svg width="139" height="40" viewBox="0 0 139 40" fill="none" xmlns="http://www.w3.org/2000/svg">
<path d="M125.085 22.6832C121.664 22.6832 118.488 24.0246 116.168 26.0978C114.457 11.4637 101.998 0.000244141 86.7286 0.000244141C73.536 0.000244141 62.42 8.65878 58.5111 20.4881C54.8465 14.3905 48.2502 10.3661 40.6767 10.3661C30.9044 10.3661 22.7201 17.1954 20.5213 26.2198C18.3225 24.5124 15.6352 23.4149 12.7035 23.4149C5.61858 23.4149 -0.000488281 29.0246 -0.000488281 35.9759C-0.000488281 37.4393 0.243819 38.7807 0.732433 40.0003H21.865H24.4302H58.7554H59.4883H112.625H114.824H137.911C138.277 38.7807 138.644 37.4393 138.644 35.9759C138.4 28.6588 132.414 22.6832 125.085 22.6832Z" fill="#F6F6F6"/>
<path opacity="0.1" d="M133.269 25.61C115.801 30.4881 94.5464 33.4149 71.5815 33.4149C47.2729 33.4149 25.041 30.1222 6.96227 24.7563C2.9312 26.8295 -0.000488281 31.0978 -0.000488281 35.9759C-0.000488281 37.4393 0.243819 38.7807 0.732433 40.0003H21.865H24.4302H58.7554H59.4883H112.625H114.824H137.911C138.277 38.7807 138.644 37.4393 138.644 35.9759C138.4 31.8295 136.445 28.049 133.269 25.61Z" fill="#1D1D1B"/>
</svg>
