<svg width="550" height="201" viewBox="0 0 550 201" fill="none" xmlns="http://www.w3.org/2000/svg">
<path d="M348.212 0.981069L348.212 13.1807C346.677 16.1549 343.578 18.1928 339.998 18.1928L339.909 18.1928C337.196 18.1928 334.759 17.0224 333.072 15.1566L333.072 0.98107L277.3 0.981072L277.3 2.93632C272.859 4.76765 269.726 9.13254 269.726 14.2341C269.726 19.3356 272.859 23.7074 277.3 25.5318L277.3 30.8124C272.859 32.6437 269.726 37.0086 269.726 42.1102C269.726 47.2117 272.859 51.5835 277.3 53.4079L277.3 59.3769C272.859 61.2083 269.726 65.5732 269.726 70.6747C269.726 75.7763 272.859 80.148 277.3 81.9725L277.3 88.2857C272.859 90.117 269.726 94.4819 269.726 99.5835C269.726 104.685 272.859 109.057 277.3 110.881L277.3 116.506C272.859 118.337 269.726 122.702 269.726 127.804C269.726 132.905 272.859 137.277 277.3 139.102L277.3 144.726C272.859 146.558 269.726 150.923 269.726 156.024C269.726 161.126 272.859 165.497 277.3 167.322L277.3 173.635C272.859 175.501 269.726 179.873 269.726 184.974C269.726 190.076 272.859 194.448 277.3 196.272L277.3 199.948L333.066 199.948L333.066 184.444C334.759 182.351 337.348 181.015 340.246 181.015L340.336 181.015C343.668 181.015 346.58 182.785 348.205 185.429L348.205 199.948L549.465 200.465C549.258 199.026 548.804 197.663 548.143 196.43C545.699 195.315 543.689 193.429 542.422 191.067C542.401 191.06 542.38 191.046 542.36 191.04L542.36 190.943C541.485 189.256 540.983 187.349 540.983 185.318C540.983 180.176 544.157 175.79 548.652 173.979C548.811 173.194 548.9 172.382 548.9 171.549C548.9 170.151 548.659 168.809 548.226 167.556C543.957 165.649 540.983 161.373 540.983 156.403C540.983 151.432 544.157 146.874 548.652 145.064C548.811 144.279 548.9 143.466 548.9 142.633C548.9 141.532 548.749 140.465 548.473 139.446C544.074 137.594 540.983 133.25 540.983 128.176C540.983 123.102 544.157 118.647 548.652 116.836C548.811 116.052 548.9 115.239 548.9 114.406C548.9 113.305 548.749 112.238 548.473 111.219C544.074 109.367 540.983 105.022 540.983 99.9484C540.983 94.8743 544.157 90.42 548.652 88.6093C548.811 87.8244 548.9 87.012 548.9 86.179C548.9 84.7814 548.659 83.4389 548.226 82.1859C543.957 80.2788 540.983 76.0034 540.983 71.0327C540.983 66.062 544.157 61.5043 548.652 59.6936C548.811 58.9088 548.9 58.0964 548.9 57.2633C548.9 56.0172 548.707 54.8124 548.356 53.6764C544.019 51.8038 540.983 47.4871 540.983 42.4613C540.983 37.4354 544.157 32.9329 548.652 31.1222C548.811 30.3373 548.9 29.525 548.9 28.6919C548.9 27.7212 548.783 26.7848 548.57 25.883C544.122 24.0585 540.983 19.6867 540.983 14.5783C540.983 9.46987 544.157 5.04991 548.652 3.23924C548.811 2.45438 548.9 1.64199 548.9 0.808944C548.9 0.691904 548.886 0.581749 548.88 0.46471L348.212 0.981069Z" fill="#070707"/>
<path d="M293.823 22.606L293.823 181.415L324.115 181.415L324.115 22.606L293.823 22.606Z" stroke="white" stroke-width="3" stroke-miterlimit="10"/>
<path d="M366.112 22.606L366.112 181.415L519.64 181.415L519.64 22.606L366.112 22.606Z" stroke="white" stroke-width="3" stroke-miterlimit="10"/>
<path d="M317.424 149.966C316.735 151.232 315.751 152.224 314.463 152.94C313.176 153.656 311.689 154.007 309.995 154.007C308.301 154.007 306.794 153.649 305.506 152.926C304.239 152.224 303.255 151.246 302.566 150C301.878 148.754 301.534 147.343 301.534 145.759C301.534 144.726 301.651 143.79 301.885 142.964C302.119 142.131 302.491 141.277 302.986 140.403C303.158 140.045 303.461 139.859 303.902 139.859C304.136 139.859 304.35 139.948 304.535 140.127C304.721 140.306 304.818 140.541 304.818 140.823C304.818 140.995 304.79 141.139 304.721 141.243C304.343 141.966 304.067 142.654 303.888 143.308C303.709 143.969 303.62 144.713 303.62 145.539C303.62 146.888 303.895 148.024 304.446 148.947C304.997 149.869 305.74 150.578 306.69 151.074C307.64 151.57 308.742 151.818 309.995 151.818C311.248 151.818 312.336 151.577 313.265 151.088C314.25 150.599 315.014 149.883 315.558 148.926C316.102 147.969 316.37 146.84 316.37 145.539C316.37 144.706 316.281 143.962 316.102 143.308C315.923 142.654 315.64 141.959 315.269 141.243C315.207 141.133 315.172 140.995 315.172 140.823C315.172 140.541 315.262 140.306 315.441 140.127C315.62 139.948 315.84 139.859 316.088 139.859C316.508 139.859 316.818 140.038 317.004 140.403C317.506 141.277 317.871 142.131 318.105 142.964C318.339 143.797 318.456 144.726 318.456 145.759C318.456 147.329 318.112 148.726 317.424 149.966Z" fill="white"/>
<path d="M317.375 134.213C316.652 135.439 315.654 136.389 314.381 137.071C313.107 137.752 311.64 138.11 309.995 138.138C308.35 138.11 306.89 137.752 305.623 137.077C304.336 136.403 303.337 135.439 302.615 134.186C301.892 132.933 301.534 131.494 301.534 129.862C301.534 128.231 301.892 126.771 302.615 125.511C303.337 124.286 304.336 123.336 305.623 122.654C306.911 121.972 308.363 121.614 309.995 121.587C311.627 121.621 313.072 121.972 314.346 122.647C315.647 123.336 316.659 124.306 317.375 125.552C318.098 126.799 318.456 128.238 318.456 129.862C318.456 131.487 318.098 132.96 317.375 134.213V134.213ZM315.565 126.62C315.014 125.711 314.257 125.009 313.3 124.513C312.343 124.017 311.234 123.769 309.995 123.769C308.756 123.769 307.675 124.01 306.704 124.499C305.72 125.002 304.948 125.711 304.398 126.64C303.847 127.57 303.572 128.637 303.572 129.862C303.572 131.088 303.854 132.21 304.418 133.105C304.969 134.014 305.72 134.716 306.683 135.212C307.647 135.707 308.749 135.955 309.988 135.955C311.227 135.955 312.308 135.714 313.279 135.225C314.284 134.723 315.055 134.014 315.592 133.098C316.136 132.182 316.405 131.102 316.405 129.869C316.405 128.637 316.122 127.522 315.558 126.627L315.565 126.62Z" fill="white"/>
<path d="M317.754 114.633C317.265 115.714 316.529 116.575 315.544 117.215C314.56 117.855 313.389 118.179 312.04 118.179L302.752 118.179C302.456 118.179 302.195 118.076 301.974 117.862C301.754 117.649 301.644 117.394 301.644 117.098C301.644 116.802 301.754 116.54 301.974 116.32C302.195 116.1 302.449 115.99 302.752 115.99L312.109 115.99C313.066 115.99 313.857 115.769 314.484 115.329C315.124 114.922 315.613 114.372 315.95 113.669C316.288 112.974 316.453 112.217 316.453 111.404C316.453 110.592 316.288 109.855 315.957 109.146C315.613 108.41 315.11 107.838 314.442 107.432C313.775 107.026 312.997 106.819 312.102 106.819L302.745 106.819C302.449 106.819 302.188 106.716 301.967 106.503C301.747 106.289 301.637 106.034 301.637 105.738C301.637 105.442 301.747 105.181 301.967 104.96C302.188 104.74 302.442 104.63 302.745 104.63L312.033 104.63C313.41 104.63 314.594 104.96 315.585 105.614C316.529 106.255 317.238 107.095 317.726 108.12C318.215 109.146 318.456 110.241 318.456 111.398C318.456 112.554 318.222 113.601 317.754 114.62L317.754 114.633Z" fill="white"/>
<path d="M318.022 99.9345C317.809 100.148 317.554 100.251 317.258 100.251L302.876 100.251C302.58 100.251 302.318 100.148 302.098 99.9345C301.878 99.7211 301.768 99.4664 301.768 99.1703L301.768 93.814C301.768 92.3407 302.016 91.129 302.518 90.172C302.986 89.2977 303.606 88.6299 304.363 88.1893C305.121 87.7418 306.002 87.5214 307.007 87.5214C307.929 87.5214 308.776 87.728 309.547 88.1342C310.38 88.5541 311.034 89.2495 311.523 90.2134C312.012 91.1772 312.253 92.382 312.253 93.8209L312.253 98.0757L317.258 98.0757C317.554 98.0757 317.809 98.1858 318.022 98.4061C318.236 98.6264 318.339 98.8812 318.339 99.1841C318.339 99.487 318.236 99.7349 318.022 99.9483L318.022 99.9345ZM309.375 90.7917C308.831 90.0619 308.047 89.697 307.014 89.697C305.981 89.697 305.189 90.0619 304.652 90.7917C304.108 91.5214 303.84 92.5955 303.84 94.0206L303.84 97.7796C303.84 97.9655 303.936 98.0619 304.122 98.0619L310.188 98.0619L310.188 94.0206C310.188 92.5955 309.919 91.5146 309.375 90.7917Z" fill="white"/>
<path d="M317.375 81.518C316.652 82.7435 315.654 83.6936 314.381 84.3751C313.107 85.0567 311.64 85.4147 309.995 85.4423C308.35 85.4147 306.89 85.0567 305.623 84.382C304.336 83.7073 303.337 82.7435 302.615 81.4905C301.892 80.2374 301.534 78.7986 301.534 77.1669C301.534 75.5352 301.892 74.0757 302.615 72.8158C303.337 71.5903 304.336 70.6402 305.623 69.9586C306.911 69.277 308.363 68.919 309.995 68.8915C311.627 68.9259 313.072 69.277 314.346 69.9517C315.647 70.6402 316.659 71.6109 317.375 72.8571C318.098 74.1032 318.456 75.5421 318.456 77.1669C318.456 78.7917 318.098 80.265 317.375 81.518V81.518ZM315.565 73.9242C315.014 73.0154 314.257 72.3132 313.3 71.8175C312.343 71.3218 311.234 71.0739 309.995 71.0739C308.756 71.0739 307.675 71.3149 306.704 71.8037C305.72 72.3063 304.948 73.0154 304.398 73.9448C303.847 74.8743 303.572 75.9414 303.572 77.1669C303.572 78.3924 303.854 79.5146 304.418 80.4096C304.969 81.3183 305.72 82.0206 306.683 82.5163C307.647 83.012 308.749 83.2598 309.988 83.2598C311.227 83.2598 312.308 83.0189 313.279 82.53C314.284 82.0275 315.055 81.3183 315.592 80.4027C316.136 79.487 316.405 78.4061 316.405 77.1738C316.405 75.9414 316.122 74.8261 315.558 73.9311L315.565 73.9242Z" fill="white"/>
<path d="M318.023 65.0568C317.809 65.2703 317.554 65.3735 317.258 65.3735L303.227 65.3735C302.807 65.3735 302.436 65.2221 302.126 64.9123C301.809 64.6093 301.658 64.2445 301.658 63.8176L301.658 63.5147C301.658 63.0121 301.892 62.5715 302.36 62.1997L314.89 53.525C314.986 53.4493 315.028 53.3873 315.028 53.3391C315.028 53.3047 315.007 53.2772 314.959 53.2427C314.911 53.2083 314.856 53.1945 314.794 53.1945L302.759 53.1945C302.463 53.1945 302.202 53.0913 301.981 52.8778C301.761 52.6644 301.651 52.4097 301.651 52.1136C301.651 51.8176 301.761 51.556 301.981 51.3357C302.202 51.1154 302.456 51.0052 302.759 51.0052L316.79 51.0052C317.217 51.0052 317.575 51.1636 317.885 51.4734C318.188 51.7901 318.346 52.1549 318.346 52.5749L318.346 52.8572C318.346 53.105 318.284 53.346 318.167 53.5732C318.05 53.8004 317.899 53.9863 317.706 54.124L305.107 62.8469C305.01 62.9226 304.962 62.9914 304.962 63.0327C304.962 63.0672 304.983 63.0947 305.031 63.1291C305.079 63.1636 305.134 63.1773 305.196 63.1773L317.251 63.1773C317.547 63.1773 317.802 63.2875 318.016 63.5078C318.229 63.7281 318.332 63.9828 318.332 64.2858C318.332 64.5887 318.229 64.8365 318.016 65.05L318.023 65.0568Z" fill="white"/>
<path d="M434.429 71.7072C433.031 71.0807 431.909 70.1237 431.076 68.8432C430.243 67.5626 429.83 66.0549 429.83 64.3062L429.83 52.2786C429.83 51.8931 429.967 51.5557 430.243 51.2735C430.518 50.9912 430.849 50.8466 431.234 50.8466C431.62 50.8466 431.957 50.9912 432.239 51.2735C432.522 51.5557 432.666 51.8931 432.666 52.2786L432.666 64.3957C432.666 65.6349 432.948 66.6607 433.52 67.4731C434.05 68.3062 434.759 68.9395 435.668 69.3733C436.577 69.807 437.547 70.0273 438.608 70.0273C439.668 70.0273 440.618 69.8139 441.534 69.387C442.491 68.9395 443.227 68.2855 443.757 67.4249C444.288 66.5643 444.549 65.5523 444.549 64.3957L444.549 52.2786C444.549 51.8931 444.687 51.5557 444.962 51.2735C445.238 50.9912 445.568 50.8466 445.954 50.8466C446.339 50.8466 446.677 50.9912 446.959 51.2735C447.241 51.5557 447.386 51.8931 447.386 52.2786L447.386 64.3062C447.386 66.0893 446.959 67.6246 446.105 68.9051C445.272 70.1237 444.191 71.0463 442.862 71.6728C441.534 72.2993 440.115 72.616 438.615 72.616C437.114 72.616 435.764 72.313 434.442 71.7003L434.429 71.7072Z" fill="white"/>
<path d="M453.472 72.0582C453.196 71.7829 453.059 71.4524 453.059 71.0668L453.059 52.2785C453.059 51.893 453.196 51.5557 453.472 51.2734C453.747 50.9911 454.078 50.8465 454.463 50.8465C454.849 50.8465 455.186 50.9911 455.468 51.2734C455.751 51.5557 455.895 51.893 455.895 52.2785L455.895 71.0668C455.895 71.4524 455.751 71.7829 455.468 72.0582C455.186 72.3336 454.849 72.4713 454.463 72.4713C454.078 72.4713 453.747 72.3336 453.472 72.0582Z" fill="white"/>
<path d="M407.799 111.129C407.799 110.496 408.398 110.021 409.596 109.697C411.647 109.126 413.32 108.41 414.621 107.535L414.621 107.473C413.809 106.64 413.107 105.697 412.522 104.644C412.177 104.058 411.923 103.57 411.757 103.184C411.592 102.799 411.516 102.461 411.516 102.179C411.516 101.594 411.943 101.298 412.797 101.298C413.327 101.298 413.733 101.725 414.016 102.578C414.787 104.1 415.62 105.256 416.515 106.048L416.577 106.048C417.472 105.277 418.374 104.272 419.289 103.033C419.695 102.503 420.033 102.041 420.294 101.649C420.556 101.25 420.694 100.995 420.694 100.871C420.694 100.589 420.501 100.444 420.115 100.444L410.525 100.444C410.078 100.444 409.733 100.348 409.492 100.155C409.251 99.9621 409.127 99.6729 409.127 99.2874C409.127 98.537 409.596 98.1583 410.525 98.1583L421.21 98.1583C422.973 98.1583 423.861 98.716 423.861 99.8313C423.861 100.437 423.255 101.614 422.036 103.363C420.776 105.146 419.613 106.509 418.532 107.446L418.532 107.535C419.971 108.368 421.954 109.091 424.467 109.697C425.238 109.883 425.623 110.296 425.623 110.943C425.623 111.879 425.196 112.341 424.343 112.341C423.427 112.341 422.222 112.024 420.721 111.398C419.138 110.709 417.74 109.945 416.522 109.112L416.46 109.112C415.117 109.986 413.706 110.737 412.226 111.363C410.683 112.031 409.589 112.368 408.935 112.368C408.184 112.368 407.806 111.948 407.806 111.122L407.799 111.129ZM399.578 110.888C399.152 110.482 398.938 109.876 398.938 109.064L398.938 104.864C398.938 103.219 399.778 102.399 401.465 102.399L405.086 102.399C406.794 102.399 407.64 103.219 407.64 104.864L407.64 109.002C407.64 109.814 407.42 110.434 406.986 110.861C406.553 111.287 405.912 111.501 405.086 111.501L401.465 111.501C400.632 111.501 400.005 111.301 399.578 110.895L399.578 110.888ZM405.272 108.602L405.272 105.25C405.272 104.761 405.031 104.52 404.542 104.52L402.043 104.52C401.534 104.52 401.279 104.761 401.279 105.25L401.279 108.602C401.279 109.112 401.534 109.367 402.043 109.367L404.542 109.367C405.031 109.367 405.272 109.112 405.272 108.602ZM399 99.4664C399 98.7366 399.434 98.3717 400.308 98.3717L406.305 98.3717C407.2 98.3717 407.647 98.7504 407.647 99.5008C407.647 99.8657 407.53 100.141 407.296 100.32C407.062 100.499 406.732 100.595 406.305 100.595L400.37 100.595C399.455 100.595 399 100.224 399 99.4664ZM408.893 95.9965C408.893 95.6316 409.079 95.308 409.444 95.0189C410.319 94.3717 410.862 93.6213 411.09 92.7676C411.289 92.0172 411.393 90.4612 411.393 88.1067C411.393 86.6471 412.184 85.9173 413.768 85.9173L418.181 85.9173C419.744 85.9173 420.529 86.6815 420.529 88.2031L420.529 93.3184C420.529 93.9242 420.893 94.234 421.623 94.234C422.029 94.234 422.325 94.2065 422.504 94.1583C422.69 94.1101 422.807 94.0206 422.869 93.8967C423.035 93.5731 423.124 92.981 423.145 92.1273C423.186 91.191 423.551 90.7228 424.239 90.7228C425.031 90.7228 425.43 91.1015 425.43 91.8519C425.43 94.1652 425.072 95.5284 424.363 95.9345C423.813 96.2375 422.807 96.3889 421.348 96.3889C419.296 96.3889 418.27 95.79 418.27 94.592L418.27 89.2358C418.27 88.5886 417.926 88.2444 417.238 88.2031L414.56 88.2031C414.133 88.2031 413.871 88.3132 413.768 88.5404C413.644 88.8227 413.589 89.4767 413.589 90.4888C413.589 92.2581 413.348 93.5869 412.859 94.475C411.881 96.2581 410.931 97.1531 409.995 97.1531C409.265 97.1531 408.9 96.7676 408.9 95.9965L408.893 95.9965ZM399 95.4182C399 95.0533 399.11 94.7779 399.337 94.5989C399.558 94.413 399.888 94.3235 400.315 94.3235L406.312 94.3235C406.739 94.3235 407.069 94.413 407.303 94.5989C407.537 94.7848 407.654 95.0533 407.654 95.4182C407.654 96.1686 407.207 96.5473 406.312 96.5473L400.315 96.5473C399.441 96.5473 399.007 96.1686 399.007 95.4182L399 95.4182ZM397.809 91.3975C397.809 90.6471 398.257 90.2685 399.152 90.2685L407.344 90.2685C408.26 90.2685 408.714 90.6471 408.714 91.3975C408.714 92.148 408.26 92.5266 407.344 92.5266L399.152 92.5266C398.257 92.5266 397.809 92.148 397.809 91.3975ZM398.904 87.2874C398.904 86.537 399.337 86.1583 400.212 86.1583L406.394 86.1583C407.289 86.1583 407.737 86.537 407.737 87.2874C407.737 88.0378 407.289 88.4165 406.394 88.4165L400.212 88.4165C399.337 88.4165 398.904 88.0447 398.904 87.2874Z" fill="white"/>
<path d="M456.701 95.8726C456.701 96.623 456.267 97.0017 455.393 97.0017L450.002 97.0017L450.002 111.102C450.002 111.673 449.899 112.079 449.699 112.334C449.499 112.589 449.162 112.713 448.694 112.713C448.226 112.713 447.888 112.589 447.689 112.334C447.482 112.079 447.386 111.666 447.386 111.102L447.386 97.0017L442.243 97.0017C441.348 97.0017 440.9 96.6161 440.9 95.845C440.9 95.074 441.348 94.6884 442.243 94.6884L447.386 94.6884L447.386 86.5576C447.386 86.0068 447.489 85.6006 447.702 85.339C447.916 85.0774 448.246 84.9397 448.694 84.9397C449.141 84.9397 449.492 85.0636 449.699 85.3184C449.899 85.5731 450.002 85.9862 450.002 86.5507L450.002 94.6815L455.393 94.6815C456.267 94.6815 456.701 95.0809 456.701 95.8657L456.701 95.8726ZM439.833 104.857L439.833 109.305C439.833 110.929 439.007 111.742 437.369 111.742L432.618 111.742C430.973 111.742 430.153 110.929 430.153 109.305L430.153 104.857C430.153 103.232 430.973 102.42 432.618 102.42L437.369 102.42C439.014 102.42 439.833 103.232 439.833 104.857ZM437.486 105.435C437.486 105.153 437.424 104.947 437.3 104.83C437.176 104.706 436.976 104.644 436.694 104.644L433.286 104.644C433.024 104.644 432.832 104.706 432.708 104.83C432.584 104.953 432.515 105.153 432.494 105.435L432.494 108.726C432.494 109.009 432.556 109.215 432.68 109.332C432.804 109.456 433.004 109.525 433.286 109.546L436.694 109.546C436.955 109.546 437.148 109.477 437.272 109.346C437.396 109.215 437.465 109.009 437.486 108.719L437.486 105.429L437.486 105.435ZM439.95 99.5008C439.95 100.251 439.537 100.63 438.704 100.63L431.427 100.63C430.615 100.63 430.208 100.251 430.208 99.5008C430.208 98.7504 430.615 98.3717 431.427 98.3717L438.704 98.3717C439.537 98.3717 439.95 98.7504 439.95 99.5008ZM438.608 94.3855C439.441 94.3855 439.854 94.7642 439.854 95.5146C439.854 96.265 439.441 96.6437 438.608 96.6437L431.42 96.6437C430.608 96.6437 430.202 96.265 430.202 95.5146C430.202 94.7642 430.608 94.3855 431.42 94.3855L438.608 94.3855ZM430.236 92.5886C429.382 92.5886 428.955 92.2031 428.955 91.432C428.955 90.6609 429.382 90.2478 430.236 90.2478L439.916 90.2478C440.77 90.2478 441.196 90.6471 441.196 91.432C441.196 92.2168 440.77 92.5886 439.916 92.5886L430.236 92.5886ZM430.112 87.2323C430.112 86.4612 430.525 86.0757 431.358 86.0757L438.725 86.0757C439.131 86.0757 439.448 86.179 439.668 86.3786C439.888 86.5783 440.005 86.8743 440.005 87.2599C440.005 88.0309 439.579 88.4165 438.725 88.4165L431.358 88.4165C430.525 88.4165 430.112 88.0241 430.112 87.2323Z" fill="white"/>
<path d="M480.942 89.1185L480.942 92.9877L484.294 92.9877C485.231 92.9877 485.899 93.1942 486.305 93.6142C486.711 94.0341 486.911 94.7157 486.911 95.6727L486.911 105.841C486.911 106.915 486.677 107.693 486.208 108.168C485.74 108.643 484.983 108.884 483.923 108.884L482.945 108.884C482.029 108.884 481.575 108.458 481.575 107.604C481.575 107.198 481.692 106.895 481.926 106.688C482.16 106.489 482.47 106.385 482.856 106.385L483.406 106.385C483.833 106.385 484.122 106.303 484.274 106.144C484.425 105.979 484.501 105.676 484.501 105.229L484.501 96.2166C484.501 95.9137 484.412 95.6727 484.239 95.5006C484.067 95.3285 483.826 95.239 483.523 95.239L480.935 95.239L480.935 111.349C480.935 112.285 480.522 112.747 479.689 112.747C478.856 112.747 478.504 112.279 478.504 111.349L478.504 95.239L476.129 95.239C475.379 95.239 475 95.5625 475 96.2166L475 107.542C475 108.52 474.594 109.001 473.782 109.001C472.969 109.001 472.597 108.513 472.597 107.542L472.597 95.6658C472.597 94.7157 472.797 94.0273 473.203 93.6073C473.609 93.1942 474.277 92.9808 475.214 92.9808L478.504 92.9808L478.504 89.1116L473.238 89.1116C472.425 89.1116 472.019 88.7398 472.019 87.9825C472.019 87.2252 472.425 86.8534 473.238 86.8534L486.422 86.8534C487.234 86.8534 487.64 87.2321 487.64 87.9825C487.64 88.368 487.537 88.6503 487.338 88.8362C487.138 89.0221 486.828 89.1116 486.422 89.1116L480.942 89.1116L480.942 89.1185ZM471.165 103.094L471.165 108.334C471.165 109.208 470.966 109.848 470.573 110.254C470.181 110.661 469.561 110.826 468.728 110.743L463.792 110.743C462.938 110.743 462.319 110.55 461.919 110.165C461.52 109.779 461.348 109.174 461.389 108.341L461.389 90.8603C461.389 90.0273 461.534 89.4076 461.83 89.0014C462.126 88.5952 462.608 88.3956 463.276 88.3956L464.432 88.3956L464.887 86.1443C465.052 85.3526 465.444 84.9532 466.071 84.9532C466.904 84.9532 467.317 85.3113 467.317 86.0204C467.317 86.4472 467.083 87.239 466.615 88.3956L468.439 88.3956C469.293 88.3956 469.906 88.5884 470.284 88.9739C470.656 89.3594 470.828 89.986 470.787 90.8603L470.787 95.3629C470.787 96.2372 470.594 96.8706 470.208 97.2631C469.823 97.6555 469.203 97.8345 468.35 97.7932L463.689 97.7932L463.689 100.685L468.714 100.685C470.443 100.54 471.255 101.346 471.152 103.087L471.165 103.094ZM468.88 103.886C468.88 103.521 468.811 103.28 468.666 103.156C468.522 103.032 468.26 102.964 467.875 102.943L463.702 102.943L463.702 107.542C463.702 107.907 463.771 108.148 463.902 108.272C464.033 108.396 464.281 108.464 464.646 108.485L467.875 108.485C468.26 108.485 468.522 108.423 468.652 108.285C468.783 108.148 468.859 107.907 468.88 107.542L468.88 103.886ZM463.702 95.5419L467.599 95.5419C468.191 95.5419 468.501 95.2252 468.542 94.5987L468.542 91.5832C468.542 91.2596 468.467 91.0255 468.315 90.881C468.164 90.7364 467.923 90.6606 467.599 90.64L464.646 90.64C464.04 90.64 463.723 90.9567 463.702 91.5832L463.702 95.5419Z" fill="white"/>
<path d="M403.565 128.664L403.565 148.547C403.565 149.497 403.159 149.979 402.346 149.979C401.534 149.979 401.19 149.504 401.19 148.547L401.19 134.695C400.68 135.872 400.233 136.767 399.833 137.387C399.434 138.007 399.117 138.316 398.876 138.316C398.532 138.316 398.27 138.234 398.098 138.076C397.926 137.91 397.837 137.704 397.837 137.435C397.837 137.194 397.906 136.905 398.05 136.582C398.195 136.258 398.436 135.776 398.78 135.15C399.386 134.076 400.143 132.244 401.031 129.669C401.844 127.335 402.408 125.304 402.739 123.576C402.904 122.723 403.31 122.296 403.957 122.296C404.77 122.296 405.176 122.695 405.176 123.48C405.176 124.031 404.639 125.752 403.565 128.657L403.565 128.664ZM425.671 148.699C425.671 149.49 425.245 149.883 424.391 149.883C423.028 149.883 421.486 149.69 419.764 149.304C418.119 148.94 416.597 148.423 415.2 147.748C411.606 149.229 408.487 149.972 405.85 149.972C405.079 149.972 404.694 149.614 404.694 148.905C404.694 148.299 405.362 147.948 406.704 147.872C408.591 147.728 410.773 147.28 413.251 146.53C412.157 145.8 411.241 144.919 410.511 143.879C408.48 145.339 407.048 146.069 406.215 146.069C405.623 146.069 405.334 145.752 405.334 145.125C405.334 144.74 405.802 144.354 406.732 143.969C408.763 143.115 410.415 141.972 411.696 140.526C411.248 140.526 410.904 140.396 410.663 140.134C410.422 139.872 410.298 139.528 410.298 139.101L410.298 137.277C410.298 136.609 410.642 136.272 411.331 136.272C412.019 136.272 412.336 136.609 412.336 137.277L412.336 138.495C412.336 138.86 412.522 139.046 412.887 139.046L416.054 139.046C416.804 139.046 417.258 138.998 417.424 138.895C417.568 138.812 417.665 138.578 417.727 138.193C417.788 137.642 418.064 137.373 418.553 137.373C418.876 137.373 419.117 137.463 419.282 137.649C419.448 137.835 419.523 138.082 419.523 138.413C419.523 139.569 419.076 140.237 418.181 140.423C417.63 140.547 416.239 140.609 414.009 140.609L413.004 141.738L420.949 141.738C421.981 141.738 422.498 142.076 422.498 142.743C422.498 143.046 421.961 143.638 420.887 144.513C419.992 145.242 418.924 145.952 417.692 146.647C419.558 147.218 421.637 147.542 423.937 147.625C425.093 147.666 425.671 148.031 425.671 148.719L425.671 148.699ZM415.441 145.718C416.191 145.353 416.976 144.926 417.788 144.437C418.622 143.927 419.035 143.618 419.035 143.494C419.035 143.39 418.966 143.342 418.821 143.342L412.246 143.342C413.162 144.279 414.229 145.07 415.441 145.718V145.718ZM408.054 136.843C408.184 136.692 408.35 136.616 408.556 136.616C409.148 136.616 409.437 136.871 409.437 137.38C409.437 137.545 409.327 137.91 409.1 138.475C409.079 138.557 408.997 138.812 408.859 139.239C408.653 139.831 408.432 140.272 408.191 140.582C407.95 140.891 407.696 141.036 407.427 141.036C406.801 141.036 406.484 140.733 406.484 140.12C406.484 139.941 406.697 139.514 407.124 138.84L407.64 137.559C407.785 137.236 407.916 136.995 408.054 136.843V136.843ZM422.167 137.8C422.773 138.798 423.083 139.411 423.083 139.659C423.083 139.941 422.993 140.168 422.807 140.327C422.622 140.492 422.374 140.568 422.043 140.568C421.658 140.568 421.293 140.21 420.949 139.501L419.819 137.339C419.799 136.974 419.854 136.712 419.985 136.561C420.115 136.409 420.336 136.334 420.639 136.334C421.024 136.334 421.534 136.823 422.16 137.793L422.167 137.8ZM412.852 126.592L413.19 125.346L406.98 125.346C406.594 125.346 406.319 125.27 406.153 125.119C405.988 124.967 405.912 124.726 405.912 124.403C405.912 123.797 406.27 123.487 406.98 123.487L423.757 123.487C424.467 123.487 424.825 123.79 424.825 124.403C424.825 124.726 424.742 124.967 424.584 125.119C424.418 125.27 424.15 125.346 423.764 125.346L415.544 125.346L414.938 126.592L419.964 126.592C421.589 126.592 422.401 127.363 422.401 128.905L422.401 134.358L423.041 134.358C424.46 134.358 425.176 135.067 425.176 136.492L425.176 137.8C425.176 138.165 425.086 138.447 424.9 138.654C424.714 138.86 424.453 138.957 424.109 138.957C423.42 138.957 423.076 138.571 423.076 137.8L423.076 136.857C423.076 136.285 422.773 135.996 422.16 135.976L407.634 135.976C407.331 135.976 407.11 136.045 406.98 136.189C406.849 136.334 406.773 136.554 406.752 136.857L406.752 137.862C406.752 138.633 406.408 139.019 405.72 139.019C405.031 139.019 404.714 138.633 404.714 137.862L404.714 136.554C404.714 135.094 405.437 134.365 406.876 134.365L407.544 134.365L407.544 128.912C407.544 127.37 408.35 126.599 409.947 126.599L412.873 126.599L412.852 126.592ZM416.019 136.699C416.467 136.96 416.687 137.249 416.687 137.552C416.687 138.124 416.405 138.406 415.833 138.406C415.709 138.406 415.338 138.206 414.704 137.8C414.443 137.635 414.229 137.477 414.078 137.311C413.926 137.146 413.85 137.029 413.85 136.946C413.85 136.416 414.153 136.155 414.766 136.155C415.028 136.155 415.448 136.334 416.012 136.705L416.019 136.699ZM420.005 134.351L420.005 133.132L409.899 133.132L409.899 134.351L420.005 134.351ZM420.005 131.79L420.005 130.606L409.899 130.606L409.899 131.79L420.005 131.79ZM419.276 128.196L410.628 128.196C410.367 128.196 410.174 128.251 410.064 128.361C409.954 128.471 409.899 128.65 409.899 128.891L409.899 129.256L420.005 129.256L420.005 128.891C420.005 128.423 419.764 128.189 419.276 128.189L419.276 128.196Z" fill="white"/>
<path d="M450.181 145.415C450.181 147.425 449.492 148.623 448.109 149.008C447.152 149.291 445.437 149.435 442.959 149.435C439.957 149.435 438.14 149.27 437.506 148.946C436.873 148.644 436.529 148.107 436.474 147.335L436.474 143.349C436.474 142.358 436.887 141.855 437.72 141.855C438.553 141.855 438.966 142.351 438.966 143.349L438.966 146.213C438.966 146.805 439.971 147.095 441.981 147.095C444.522 147.095 446.009 147.033 446.456 146.909C447.021 146.743 447.372 146.144 447.489 145.112C447.572 144.341 448.019 143.955 448.832 143.955C449.727 143.955 450.174 144.444 450.174 145.415L450.181 145.415ZM433.919 143.466C433.919 144.058 433.41 145.449 432.398 147.638C431.909 148.692 431.393 149.222 430.849 149.222C429.954 149.222 429.506 148.878 429.506 148.189C429.506 147.824 429.871 146.943 430.601 145.539C430.883 145.029 431.179 144.279 431.482 143.287C431.682 142.64 432.074 142.31 432.639 142.31C433.492 142.31 433.919 142.695 433.919 143.466V143.466ZM454.656 144.471C455.813 145.952 456.391 146.95 456.391 147.453C456.391 148.286 455.943 148.699 455.048 148.699C454.642 148.699 454.023 148.107 453.19 146.929L451.544 144.465C451.379 144.224 451.241 143.99 451.117 143.776C450.993 143.563 450.938 143.404 450.938 143.301C450.938 142.571 451.351 142.206 452.184 142.206C452.632 142.206 453.451 142.957 454.649 144.458L454.656 144.471ZM442.931 144.348L441.775 143.039C441.575 142.798 441.472 142.53 441.472 142.248C441.472 141.58 441.871 141.243 442.663 141.243C442.986 141.243 443.537 141.601 444.308 142.31C445.1 143.039 445.492 143.618 445.492 144.045C445.492 144.857 445.066 145.263 444.212 145.263C443.888 145.263 443.461 144.96 442.931 144.348V144.348ZM456.666 125.408C456.666 126.076 456.281 126.413 455.51 126.413L443.881 126.413L443.881 127.907L451.709 127.907C452.646 127.907 453.32 128.113 453.733 128.533C454.147 128.946 454.339 129.614 454.298 130.53L454.298 134.399C454.298 135.335 454.091 136.017 453.671 136.458C453.258 136.891 452.604 137.091 451.709 137.05L443.819 137.05L443.819 138.874L450.064 138.812C449.616 138.468 449.396 138.193 449.396 137.993C449.396 137.422 449.754 137.139 450.463 137.139C450.849 137.139 451.895 137.697 453.603 138.812C455.289 139.907 456.129 140.671 456.129 141.098C456.129 141.463 456.033 141.731 455.84 141.903C455.647 142.076 455.351 142.165 454.945 142.165C454.704 142.165 453.919 141.649 452.597 140.609L452.356 140.423L451.964 140.451L436.343 140.967L430.924 141.091C430.009 141.112 429.554 140.767 429.554 140.058C429.554 139.287 430.181 138.902 431.441 138.902L441.458 138.902L441.458 137.043L434.181 137.043C433.224 137.043 432.536 136.829 432.109 136.403C431.682 135.976 431.503 135.308 431.558 134.392L431.558 130.523C431.558 129.566 431.758 128.878 432.164 128.451C432.57 128.024 433.238 127.845 434.174 127.9L441.451 127.9L441.451 126.406L430.401 126.406C429.995 126.406 429.699 126.323 429.52 126.165C429.341 126.007 429.245 125.752 429.245 125.401C429.245 124.733 429.63 124.396 430.401 124.396L441.451 124.396L441.451 123.301C441.451 122.592 441.844 122.234 442.635 122.234C443.468 122.234 443.881 122.592 443.881 123.301L443.881 124.396L455.51 124.396C456.281 124.396 456.666 124.733 456.666 125.401L456.666 125.408ZM441.444 133.263L434.043 133.263L434.043 134.117C434.043 134.785 434.387 135.129 435.076 135.15L441.437 135.15L441.437 133.263L441.444 133.263ZM451.826 133.263L443.819 133.263L443.819 135.15L450.794 135.15C451.441 135.15 451.792 134.805 451.826 134.117L451.826 133.263ZM441.444 129.759L435.083 129.759C434.436 129.759 434.085 130.117 434.05 130.826L434.05 131.618L441.451 131.618L441.451 129.759L441.444 129.759ZM450.794 129.759L443.819 129.759L443.819 131.618L451.826 131.618L451.826 130.826C451.826 130.158 451.482 129.8 450.794 129.759Z" fill="white"/>
<path d="M488.033 141.057C488.033 141.972 487.606 142.427 486.752 142.427C486.449 142.427 485.988 142.261 485.368 141.924C484.749 141.587 483.902 141.063 482.828 140.354C480.797 139.012 479.055 137.311 477.589 135.239L470.036 135.239C469.651 135.845 469.231 136.409 468.769 136.912C468.315 137.421 467.647 138.096 466.773 138.95C466.917 138.909 467.186 138.888 467.592 138.888L479.103 138.888C481.072 138.888 482.057 139.721 482.057 141.387C482.057 142.378 481.926 143.714 481.658 145.373C481.375 147.143 480.845 148.32 480.074 148.905C479.241 149.511 477.919 149.821 476.115 149.821C475 149.821 474.442 149.353 474.442 148.416C474.442 147.563 474.807 147.136 475.537 147.136L476.935 147.163C477.664 147.163 478.215 146.943 478.58 146.495C478.904 146.089 479.152 144.953 479.31 143.088L479.399 141.931C479.441 141.401 479.117 141.139 478.422 141.139L472.604 141.139C472.26 143.294 471.771 144.843 471.145 145.8C470.353 146.977 469.183 147.934 467.64 148.664C466.057 149.415 464.735 149.793 463.682 149.793C462.828 149.793 462.401 149.346 462.401 148.451C462.401 147.859 462.8 147.487 463.585 147.322C466.346 146.833 468.184 145.828 469.1 144.306C469.485 143.68 469.788 142.619 470.016 141.139L467.337 141.139C466.911 141.139 466.573 141.05 466.319 140.864C466.064 140.678 465.94 140.43 465.94 140.1C465.94 139.921 465.947 139.783 465.967 139.707C464.893 140.74 463.957 141.518 463.165 142.034C462.374 142.551 461.775 142.812 461.368 142.812C460.962 142.812 460.652 142.709 460.439 142.495C460.226 142.282 460.122 141.993 460.122 141.628C460.122 141.057 460.467 140.575 461.155 140.168C462.477 139.418 463.558 138.681 464.411 137.958C465.265 137.236 466.119 136.327 466.973 135.232L461.768 135.232C460.873 135.232 460.425 134.867 460.425 134.137C460.425 133.408 460.873 133.008 461.768 133.008L468.618 133.008C469.265 131.996 469.795 130.991 470.201 129.993L463.227 129.993C462.312 129.993 461.857 129.621 461.857 128.864C461.857 128.107 462.312 127.735 463.227 127.735L470.959 127.735C471.262 126.681 471.558 125.387 471.84 123.866C472.04 122.812 472.549 122.282 473.362 122.282C474.174 122.282 474.518 122.647 474.518 123.377C474.518 124.107 474.181 125.539 473.513 127.735L484.935 127.735C485.85 127.735 486.305 128.113 486.305 128.864C486.305 129.614 485.85 129.993 484.935 129.993L477.534 129.993C478.022 131.335 478.449 132.341 478.814 133.008L486.367 133.008C487.303 133.008 487.771 133.387 487.771 134.137C487.771 134.888 487.303 135.232 486.367 135.232L480.398 135.232C481.961 137.057 484.04 138.509 486.642 139.583C487.558 139.969 488.012 140.458 488.012 141.043L488.033 141.057ZM471.379 133.015L476.37 133.015C475.985 132.203 475.606 131.198 475.241 130L472.776 130C472.391 131.033 471.923 132.038 471.372 133.015L471.379 133.015ZM478.897 126.165C478.897 125.903 479.041 125.518 479.324 125.008L480.143 123.604C480.487 122.998 480.942 122.688 481.513 122.688C482.408 122.688 482.856 123.094 482.856 123.907C482.856 124.21 482.539 124.843 481.912 125.793C481.279 126.771 480.694 127.253 480.143 127.253C479.31 127.253 478.897 126.888 478.897 126.158L478.897 126.165ZM464.253 124.705C463.992 124.361 463.861 124.065 463.861 123.824C463.861 123.136 464.294 122.792 465.169 122.792C465.658 122.792 466.126 123.094 466.573 123.707C466.876 124.134 467.234 124.65 467.64 125.263C467.881 125.587 468.005 125.924 468.005 126.268C468.005 126.551 467.902 126.785 467.689 126.971C467.475 127.156 467.145 127.246 466.697 127.246C466.188 127.246 465.74 126.929 465.355 126.303L464.26 124.719L464.253 124.705Z" fill="white"/>
<path d="M79.0208 0.981069L79.0208 13.1807C77.4855 16.1549 74.3874 18.1928 70.8073 18.1928L70.7178 18.1928C68.0053 18.1928 65.5681 17.0224 63.8813 15.1566L63.8813 0.98107L8.10854 0.981072L8.10854 2.93632C3.66792 4.76765 0.535392 9.13254 0.535392 14.2341C0.535392 19.3356 3.66792 23.7074 8.10854 25.5318L8.10854 30.8124C3.66792 32.6437 0.535393 37.0086 0.535393 42.1102C0.535394 47.2117 3.66792 51.5835 8.10854 53.4079L8.10854 59.3769C3.66792 61.2083 0.535394 65.5732 0.535395 70.6747C0.535395 75.7763 3.66793 80.148 8.10854 81.9725L8.10854 88.2857C3.66793 90.117 0.535396 94.4819 0.535396 99.5835C0.535396 104.685 3.66793 109.057 8.10855 110.881L8.10855 116.506C3.66793 118.337 0.535397 122.702 0.535397 127.804C0.535397 132.905 3.66793 137.277 8.10855 139.102L8.10855 144.726C3.66793 146.558 0.535398 150.923 0.535398 156.024C0.535399 161.126 3.66793 165.497 8.10855 167.322L8.10855 173.635C3.66793 175.501 0.535399 179.873 0.5354 184.974C0.5354 190.076 3.66793 194.448 8.10855 196.272L8.10855 199.948L63.8745 199.948L63.8745 184.444C65.5681 182.351 68.1567 181.015 71.0552 181.015L71.1447 181.015C74.4769 181.015 77.3891 182.785 79.0139 185.429L79.0139 199.948L280.274 200.465C280.067 199.026 279.613 197.663 278.952 196.43C276.508 195.315 274.498 193.429 273.231 191.067C273.21 191.06 273.189 191.046 273.169 191.04L273.169 190.943C272.294 189.256 271.792 187.349 271.792 185.318C271.792 180.176 274.966 175.79 279.461 173.979C279.62 173.194 279.709 172.382 279.709 171.549C279.709 170.151 279.468 168.809 279.035 167.556C274.766 165.649 271.792 161.373 271.792 156.403C271.792 151.432 274.966 146.874 279.461 145.064C279.62 144.279 279.709 143.466 279.709 142.633C279.709 141.532 279.558 140.465 279.282 139.446C274.883 137.594 271.792 133.25 271.792 128.176C271.792 123.102 274.966 118.647 279.461 116.836C279.62 116.052 279.709 115.239 279.709 114.406C279.709 113.305 279.558 112.238 279.282 111.219C274.883 109.367 271.792 105.022 271.792 99.9484C271.792 94.8743 274.966 90.42 279.461 88.6093C279.62 87.8244 279.709 87.012 279.709 86.179C279.709 84.7814 279.468 83.4389 279.035 82.1859C274.766 80.2788 271.792 76.0034 271.792 71.0327C271.792 66.062 274.966 61.5043 279.461 59.6936C279.62 58.9088 279.709 58.0964 279.709 57.2633C279.709 56.0172 279.516 54.8124 279.165 53.6764C274.828 51.8038 271.792 47.4871 271.792 42.4613C271.792 37.4354 274.966 32.9329 279.461 31.1222C279.62 30.3373 279.709 29.525 279.709 28.6919C279.709 27.7212 279.592 26.7848 279.379 25.883C274.931 24.0585 271.792 19.6867 271.792 14.5783C271.792 9.46987 274.966 5.04991 279.461 3.23924C279.62 2.45438 279.709 1.64199 279.709 0.808944C279.709 0.691904 279.695 0.581749 279.689 0.46471L79.0208 0.981069Z" fill="#23288E"/>
<path d="M24.6318 22.606L24.6318 181.415L54.9244 181.415L54.9244 22.606L24.6318 22.606Z" stroke="white" stroke-width="3" stroke-miterlimit="10"/>
<path d="M96.9209 22.606L96.9209 181.415L250.449 181.415L250.449 22.606L96.9209 22.606Z" stroke="white" stroke-width="3" stroke-miterlimit="10"/>
<path d="M48.2324 149.966C47.5439 151.232 46.5594 152.224 45.272 152.94C43.9845 153.656 42.4974 154.007 40.8038 154.007C39.1102 154.007 37.6024 153.649 36.315 152.926C35.0482 152.224 34.0637 151.246 33.3752 150C32.6868 148.754 32.3425 147.343 32.3425 145.759C32.3425 144.726 32.4596 143.79 32.6936 142.964C32.9277 142.131 33.2995 141.277 33.7952 140.403C33.9673 140.045 34.2702 139.859 34.7109 139.859C34.9449 139.859 35.1584 139.948 35.3443 140.127C35.5301 140.306 35.6265 140.541 35.6265 140.823C35.6265 140.995 35.599 141.139 35.5301 141.243C35.1515 141.966 34.8761 142.654 34.6971 143.308C34.5181 143.969 34.4286 144.713 34.4286 145.539C34.4286 146.888 34.704 148.024 35.2547 148.947C35.8055 149.869 36.5491 150.578 37.4992 151.074C38.4492 151.57 39.5508 151.818 40.8038 151.818C42.0568 151.818 43.1446 151.577 44.074 151.088C45.0585 150.599 45.8227 149.883 46.3666 148.926C46.9105 147.969 47.179 146.84 47.179 145.539C47.179 144.706 47.0895 143.962 46.9105 143.308C46.7315 142.654 46.4492 141.959 46.0775 141.243C46.0155 141.133 45.9811 140.995 45.9811 140.823C45.9811 140.541 46.0706 140.306 46.2496 140.127C46.4286 139.948 46.6489 139.859 46.8967 139.859C47.3167 139.859 47.6265 140.038 47.8124 140.403C48.315 141.277 48.6799 142.131 48.914 142.964C49.148 143.797 49.2651 144.726 49.2651 145.759C49.2651 147.329 48.9208 148.726 48.2324 149.966Z" fill="white"/>
<path d="M48.1842 134.213C47.4613 135.439 46.463 136.389 45.1893 137.071C43.9157 137.752 42.4492 138.11 40.8038 138.138C39.1584 138.11 37.6988 137.752 36.432 137.077C35.1446 136.403 34.1463 135.439 33.4234 134.186C32.7005 132.933 32.3425 131.494 32.3425 129.862C32.3425 128.231 32.7005 126.771 33.4234 125.511C34.1463 124.286 35.1446 123.336 36.432 122.654C37.7195 121.972 39.1721 121.614 40.8038 121.587C42.4355 121.621 43.8813 121.972 45.1549 122.647C46.4561 123.336 47.4682 124.306 48.1842 125.552C48.9071 126.799 49.2651 128.238 49.2651 129.862C49.2651 131.487 48.9071 132.96 48.1842 134.213V134.213ZM46.3735 126.62C45.8227 125.711 45.0654 125.009 44.1084 124.513C43.1515 124.017 42.043 123.769 40.8038 123.769C39.5646 123.769 38.4837 124.01 37.5129 124.499C36.5284 125.002 35.7573 125.711 35.2066 126.64C34.6558 127.57 34.3804 128.637 34.3804 129.862C34.3804 131.088 34.6627 132.21 35.2272 133.105C35.778 134.014 36.5284 134.716 37.4923 135.212C38.4561 135.707 39.5577 135.955 40.7969 135.955C42.0362 135.955 43.1171 135.714 44.0878 135.225C45.093 134.723 45.864 134.014 46.4011 133.098C46.9449 132.182 47.2134 131.102 47.2134 129.869C47.2134 128.637 46.9312 127.522 46.3666 126.627L46.3735 126.62Z" fill="white"/>
<path d="M48.5628 114.633C48.074 115.714 47.3374 116.575 46.3529 117.215C45.3684 117.855 44.198 118.179 42.8486 118.179L33.5611 118.179C33.2651 118.179 33.0035 118.076 32.7832 117.862C32.5628 117.649 32.4527 117.394 32.4527 117.098C32.4527 116.802 32.5628 116.54 32.7832 116.32C33.0035 116.1 33.2582 115.99 33.5611 115.99L42.9174 115.99C43.8744 115.99 44.6661 115.769 45.2926 115.329C45.9329 114.922 46.4217 114.372 46.7591 113.669C47.0964 112.974 47.2616 112.217 47.2616 111.404C47.2616 110.592 47.0964 109.855 46.7659 109.146C46.4217 108.41 45.9191 107.838 45.2513 107.432C44.5835 107.026 43.8055 106.819 42.9105 106.819L33.5542 106.819C33.2582 106.819 32.9966 106.716 32.7763 106.503C32.556 106.289 32.4458 106.034 32.4458 105.738C32.4458 105.442 32.556 105.181 32.7763 104.96C32.9966 104.74 33.2513 104.63 33.5542 104.63L42.8417 104.63C44.2186 104.63 45.4028 104.96 46.3942 105.614C47.3374 106.255 48.0465 107.095 48.5353 108.12C49.0241 109.146 49.2651 110.241 49.2651 111.398C49.2651 112.554 49.031 113.601 48.5628 114.62L48.5628 114.633Z" fill="white"/>
<path d="M48.8314 99.9345C48.618 100.148 48.3632 100.251 48.0672 100.251L33.6851 100.251C33.3891 100.251 33.1274 100.148 32.9071 99.9345C32.6868 99.7211 32.5767 99.4664 32.5767 99.1703L32.5767 93.814C32.5767 92.3407 32.8245 91.129 33.3271 90.172C33.7952 89.2977 34.4149 88.6299 35.1722 88.1893C35.9295 87.7418 36.8107 87.5214 37.8159 87.5214C38.7385 87.5214 39.5853 87.728 40.3563 88.1342C41.1894 88.5541 41.8434 89.2495 42.3323 90.2134C42.8211 91.1772 43.062 92.382 43.062 93.8209L43.062 98.0757L48.0672 98.0757C48.3632 98.0757 48.618 98.1858 48.8314 98.4061C49.0448 98.6264 49.1481 98.8812 49.1481 99.1841C49.1481 99.487 49.0448 99.7349 48.8314 99.9483L48.8314 99.9345ZM40.1842 90.7917C39.6403 90.0619 38.8555 89.697 37.8228 89.697C36.7901 89.697 35.9983 90.0619 35.4613 90.7917C34.9175 91.5214 34.6489 92.5955 34.6489 94.0206L34.6489 97.7796C34.6489 97.9655 34.7453 98.0619 34.9312 98.0619L40.9966 98.0619L40.9966 94.0206C40.9966 92.5955 40.7281 91.5146 40.1842 90.7917Z" fill="white"/>
<path d="M48.1842 81.518C47.4613 82.7435 46.463 83.6936 45.1893 84.3751C43.9157 85.0567 42.4492 85.4147 40.8038 85.4423C39.1584 85.4147 37.6988 85.0567 36.432 84.382C35.1446 83.7073 34.1463 82.7435 33.4234 81.4905C32.7005 80.2374 32.3425 78.7986 32.3425 77.1669C32.3425 75.5352 32.7005 74.0757 33.4234 72.8158C34.1463 71.5903 35.1446 70.6402 36.432 69.9586C37.7195 69.277 39.1721 68.919 40.8038 68.8915C42.4355 68.9259 43.8813 69.277 45.1549 69.9517C46.4561 70.6402 47.4682 71.6109 48.1842 72.8571C48.9071 74.1032 49.2651 75.5421 49.2651 77.1669C49.2651 78.7917 48.9071 80.265 48.1842 81.518V81.518ZM46.3735 73.9242C45.8227 73.0154 45.0654 72.3132 44.1084 71.8175C43.1515 71.3218 42.043 71.0739 40.8038 71.0739C39.5646 71.0739 38.4837 71.3149 37.5129 71.8037C36.5284 72.3063 35.7573 73.0154 35.2066 73.9448C34.6558 74.8743 34.3804 75.9414 34.3804 77.1669C34.3804 78.3924 34.6627 79.5146 35.2272 80.4096C35.778 81.3183 36.5284 82.0206 37.4923 82.5163C38.4561 83.012 39.5577 83.2598 40.7969 83.2598C42.0362 83.2598 43.1171 83.0189 44.0878 82.53C45.093 82.0275 45.864 81.3183 46.4011 80.4027C46.9449 79.487 47.2134 78.4061 47.2134 77.1738C47.2134 75.9414 46.9312 74.8261 46.3666 73.9311L46.3735 73.9242Z" fill="white"/>
<path d="M48.8312 65.0568C48.6178 65.2703 48.3631 65.3735 48.067 65.3735L34.0361 65.3735C33.6161 65.3735 33.2443 65.2221 32.9345 64.9123C32.6178 64.6093 32.4664 64.2445 32.4664 63.8176L32.4664 63.5147C32.4664 63.0121 32.7004 62.5715 33.1686 62.1997L45.6987 53.525C45.7951 53.4493 45.8364 53.3873 45.8364 53.3391C45.8364 53.3047 45.8158 53.2772 45.7676 53.2427C45.7194 53.2083 45.6643 53.1945 45.6023 53.1945L33.5679 53.1945C33.2719 53.1945 33.0102 53.0913 32.7899 52.8778C32.5696 52.6644 32.4595 52.4097 32.4595 52.1136C32.4595 51.8176 32.5696 51.556 32.7899 51.3357C33.0102 51.1154 33.265 51.0052 33.5679 51.0052L47.5989 51.0052C48.0257 51.0052 48.3837 51.1636 48.6936 51.4734C48.9965 51.7901 49.1548 52.1549 49.1548 52.5749L49.1548 52.8572C49.1548 53.105 49.0929 53.346 48.9758 53.5732C48.8588 53.8004 48.7073 53.9863 48.5146 54.124L35.9156 62.8469C35.8192 62.9226 35.771 62.9914 35.771 63.0327C35.771 63.0672 35.7917 63.0947 35.8399 63.1291C35.888 63.1636 35.9431 63.1773 36.0051 63.1773L48.0602 63.1773C48.3562 63.1773 48.6109 63.2875 48.8244 63.5078C49.0378 63.7281 49.1411 63.9828 49.1411 64.2858C49.1411 64.5887 49.0378 64.8365 48.8244 65.05L48.8312 65.0568Z" fill="white"/>
<path d="M146.009 75.1014L146.009 59.9964C146.009 59.1014 146.208 58.4542 146.601 58.0481C146.993 57.6419 147.64 57.4629 148.535 57.4973L155.021 57.4973C155.936 57.4973 156.597 57.6969 157.017 58.0894C157.437 58.4818 157.609 59.1221 157.547 59.9895L157.547 73.2012C157.692 75.3148 156.714 76.3269 154.622 76.2443L153.162 76.2443C152.184 76.2443 151.702 75.8312 151.702 74.9981C151.702 74.1651 152.115 73.752 152.949 73.752L154.016 73.752C154.663 73.752 155.007 73.394 155.048 72.6849L155.048 69.394L148.473 69.394L148.473 74.9637C148.473 75.9758 148.074 76.4852 147.282 76.4852C146.429 76.4852 146.002 76.0171 146.002 75.0808L146.009 75.1014ZM163.214 74.9224C163.214 74.048 163.689 73.6143 164.646 73.6143L166.078 73.6143C166.869 73.6143 167.276 73.1875 167.296 72.3338L167.296 58.5713C167.296 57.635 167.723 57.1737 168.577 57.1737C169.43 57.1737 169.823 57.6419 169.823 58.5713L169.823 73.098C169.823 74.2339 169.568 75.0601 169.059 75.5765C168.549 76.0928 167.751 76.32 166.656 76.2649L164.646 76.2649C163.689 76.2649 163.214 75.8174 163.214 74.9224V74.9224ZM160.625 70.0205L160.625 59.363C160.625 58.5093 161.038 58.0825 161.871 58.0825C162.704 58.0825 163.117 58.5093 163.117 59.363L163.117 70.0205C163.117 70.8329 162.697 71.2391 161.871 71.2391C161.045 71.2391 160.625 70.8329 160.625 70.0205ZM155.055 67.2529L155.055 64.6642L148.48 64.6642L148.48 67.2529L155.055 67.2529ZM155.055 60.74C155.055 60.1479 154.752 59.8381 154.14 59.7968L149.389 59.7968C148.818 59.7968 148.515 60.1135 148.473 60.74L148.473 62.4749L155.048 62.4749L155.048 60.74L155.055 60.74ZM144.184 54.1307C144.184 53.3183 144.673 52.9121 145.644 52.9121L151.523 52.9121L150.794 51.2666L150.491 50.5988C150.25 50.0481 150.126 49.7451 150.126 49.6832C150.126 49.036 150.56 48.7055 151.434 48.7055C152.164 48.7055 152.818 49.3527 153.382 50.6539L154.36 52.9052L161.183 52.9052L162.374 49.7107C162.635 49.0016 163.138 48.6436 163.868 48.6436C164.825 48.6436 165.3 49.0291 165.3 49.8002C165.3 50.2271 165.024 50.9293 164.473 51.9L163.93 52.9052L170.539 52.9052C171.53 52.9052 172.033 53.3114 172.033 54.1238C172.033 54.9362 171.537 55.3424 170.539 55.3424L145.665 55.3424C144.687 55.3424 144.205 54.9362 144.205 54.1238L144.184 54.1307Z" fill="white"/>
<path d="M194.236 61.277C193.974 61.9655 193.527 62.888 192.893 64.0447L199.744 64.0447C201.389 64.0447 202.208 64.8639 202.208 66.5094L202.208 73.7245C202.208 75.4113 201.389 76.265 199.744 76.2856L198.828 76.2856C198.036 76.2856 197.644 75.9001 197.644 75.129C197.644 74.3579 198.029 73.9379 198.801 73.9379L199.255 73.9379C199.702 73.9379 199.943 73.697 199.985 73.2082L199.985 67.1497C199.985 66.5438 199.668 66.234 199.041 66.234L197.155 66.234L197.155 74.3028C197.155 75.1359 196.811 75.549 196.122 75.549C195.758 75.549 195.496 75.4457 195.331 75.246C195.165 75.0464 195.09 74.7297 195.09 74.3028L195.09 66.234L192.742 66.234L192.742 74.6058C192.742 75.4388 192.398 75.8519 191.709 75.8519C191.021 75.8519 190.677 75.4319 190.677 74.6058L190.677 66.234L189.369 66.234C188.776 66.234 188.467 66.5369 188.425 67.1497L188.425 75.1565C188.425 75.9689 188.067 76.3751 187.358 76.3751C186.649 76.3751 186.264 75.9689 186.264 75.1565L186.264 66.4474C186.264 64.8433 187.055 64.0447 188.639 64.0447L190.649 64.0447L191.682 61.4904L191.744 61.277L186.869 61.277C185.954 61.277 185.499 60.9121 185.499 60.1824C185.499 59.4526 185.954 59.0533 186.869 59.0533L201.823 59.0533C202.739 59.0533 203.193 59.4319 203.193 60.1824C203.193 60.9328 202.739 61.277 201.823 61.277L194.243 61.277L194.236 61.277ZM185.403 68.7951C185.568 69.0223 185.644 69.3321 185.644 69.7383C185.644 70.2064 185.327 70.53 184.701 70.7159L177.3 72.5128L176.57 72.6367C176.164 72.6987 175.861 72.6092 175.654 72.3751C175.455 72.141 175.351 71.8037 175.351 71.3562C175.351 70.7641 175.634 70.3786 176.205 70.1996L180.832 69.3459L180.921 68.7676L181.045 68.1892L182.387 59.3287C182.491 58.6195 182.635 58.0963 182.828 57.7589C183.021 57.4216 183.276 57.2564 183.606 57.2564C184.398 57.2564 184.79 57.5731 184.79 58.1996L182.752 68.919L184.701 68.5541C185.004 68.4922 185.238 68.5748 185.403 68.7951ZM179.255 62.7021L179.62 66.5713C179.682 67.2598 179.303 67.604 178.491 67.604C177.899 67.604 177.575 67.3631 177.513 66.8743L176.659 59.5696L176.597 58.7779C176.556 58.1927 176.914 57.8966 177.665 57.8966C178.153 57.8966 178.477 58.2202 178.642 58.8743C178.828 59.6453 179.028 60.9259 179.248 62.709L179.255 62.7021ZM187.186 56.3201C186.787 55.9483 186.615 55.3424 186.649 54.5094L186.649 51.3768C186.649 50.4405 187.028 49.9724 187.778 49.9724C188.529 49.9724 188.907 50.4405 188.907 51.3768L188.907 53.814C188.907 54.4061 189.224 54.7159 189.85 54.7572L192.955 54.7572L192.955 49.9173C192.955 49.0842 193.327 48.6712 194.085 48.6712C194.842 48.6712 195.214 49.0842 195.214 49.9173L195.214 54.7572L198.319 54.7572C198.945 54.7572 199.262 54.4405 199.262 53.814L199.262 51.4113C199.262 50.4543 199.661 49.9793 200.453 49.9793C201.245 49.9793 201.609 50.4543 201.609 51.4113L201.609 54.5163C201.609 55.37 201.417 55.9896 201.031 56.3751C200.646 56.7607 200.033 56.9328 199.207 56.8915L189.066 56.8915C188.212 56.8915 187.592 56.7056 187.193 56.3269L187.186 56.3201ZM175.448 55.1772C175.448 54.4268 175.847 54.0481 176.632 54.0481L179.62 54.0481L179.62 50.1789C179.62 49.2839 180.026 48.8364 180.838 48.8364C181.651 48.8364 182.023 49.2839 182.023 50.1789L182.023 54.0481L184.611 54.0481C185.444 54.0481 185.857 54.4336 185.857 55.2047C185.857 55.9758 185.437 56.3338 184.611 56.3338L176.632 56.3338C175.84 56.3338 175.448 55.9483 175.448 55.1772Z" fill="white"/>
<path d="M138.546 112.334C138.546 111.7 139.145 111.225 140.343 110.902C142.394 110.33 144.067 109.614 145.368 108.74L145.368 108.678C144.556 107.845 143.854 106.902 143.269 105.849C142.924 105.263 142.67 104.774 142.504 104.389C142.339 104.003 142.263 103.666 142.263 103.384C142.263 102.799 142.69 102.503 143.544 102.503C144.074 102.503 144.48 102.929 144.763 103.783C145.534 105.305 146.367 106.461 147.262 107.253L147.324 107.253C148.219 106.482 149.121 105.477 150.036 104.237C150.442 103.707 150.78 103.246 151.041 102.854C151.303 102.461 151.441 102.2 151.441 102.076C151.441 101.793 151.248 101.649 150.862 101.649L141.272 101.649C140.825 101.649 140.48 101.552 140.239 101.36C139.998 101.167 139.875 100.878 139.875 100.492C139.875 99.7418 140.343 99.3631 141.279 99.3631L151.964 99.3631C153.733 99.3631 154.615 99.9208 154.615 101.036C154.615 101.642 154.009 102.819 152.79 104.568C151.53 106.351 150.367 107.714 149.286 108.651L149.286 108.74C150.725 109.573 152.708 110.296 155.22 110.902C155.992 111.088 156.377 111.501 156.377 112.148C156.377 113.084 155.95 113.546 155.097 113.546C154.181 113.546 152.976 113.229 151.475 112.602C149.892 111.914 148.494 111.15 147.276 110.317L147.214 110.317C145.871 111.191 144.46 111.941 142.98 112.568C141.437 113.236 140.343 113.573 139.689 113.573C138.938 113.573 138.56 113.153 138.56 112.327L138.546 112.334ZM130.325 112.093C129.899 111.687 129.685 111.081 129.685 110.268L129.685 106.069C129.685 104.423 130.525 103.604 132.212 103.604L135.833 103.604C137.541 103.604 138.394 104.423 138.394 106.069L138.394 110.207C138.394 111.019 138.174 111.639 137.74 112.065C137.307 112.492 136.666 112.706 135.84 112.706L132.219 112.706C131.386 112.706 130.759 112.506 130.332 112.1L130.325 112.093ZM136.019 109.807L136.019 106.454C136.019 105.966 135.778 105.725 135.289 105.725L132.79 105.725C132.281 105.725 132.026 105.966 132.026 106.454L132.026 109.807C132.026 110.317 132.281 110.571 132.79 110.571L135.289 110.571C135.778 110.571 136.019 110.317 136.019 109.807ZM129.747 100.671C129.747 99.9415 130.181 99.5766 131.055 99.5766L137.052 99.5766C137.947 99.5766 138.394 99.9552 138.394 100.706C138.394 101.071 138.277 101.346 138.043 101.525C137.809 101.704 137.479 101.8 137.052 101.8L131.117 101.8C130.202 101.8 129.747 101.429 129.747 100.671ZM139.647 97.2013C139.647 96.8365 139.833 96.5129 140.198 96.2237C141.072 95.5766 141.616 94.8261 141.844 93.9724C142.043 93.222 142.146 91.6661 142.146 89.3115C142.146 87.852 142.938 87.1222 144.522 87.1222L148.935 87.1222C150.498 87.1222 151.282 87.8864 151.282 89.4079L151.282 94.5232C151.282 95.1291 151.647 95.4389 152.377 95.4389C152.783 95.4389 153.079 95.4113 153.258 95.3631C153.437 95.3149 153.561 95.2254 153.623 95.1015C153.788 94.7779 153.878 94.1859 153.899 93.3322C153.94 92.3958 154.305 91.9277 154.993 91.9277C155.785 91.9277 156.177 92.3063 156.177 93.0568C156.177 95.37 155.819 96.7332 155.11 97.1394C154.56 97.4423 153.554 97.5938 152.095 97.5938C150.043 97.5938 149.017 96.9948 149.017 95.7969L149.017 90.4406C149.017 89.7934 148.673 89.4492 147.985 89.4079L145.307 89.4079C144.88 89.4079 144.618 89.518 144.515 89.7452C144.391 90.0275 144.329 90.6815 144.329 91.6936C144.329 93.463 144.088 94.7917 143.599 95.6798C142.622 97.463 141.671 98.358 140.735 98.358C140.005 98.358 139.64 97.9724 139.64 97.2013L139.647 97.2013ZM129.747 96.623C129.747 96.2581 129.857 95.9828 130.084 95.8038C130.312 95.6248 130.635 95.5284 131.062 95.5284L137.059 95.5284C137.486 95.5284 137.816 95.6179 138.05 95.8038C138.284 95.9896 138.401 96.2581 138.401 96.623C138.401 97.3735 137.954 97.7521 137.059 97.7521L131.062 97.7521C130.188 97.7521 129.754 97.3735 129.754 96.623L129.747 96.623ZM128.563 92.6024C128.563 91.852 129.01 91.4733 129.905 91.4733L138.098 91.4733C139.014 91.4733 139.468 91.8519 139.468 92.6024C139.468 93.3528 139.014 93.7315 138.098 93.7315L129.905 93.7315C129.01 93.7315 128.563 93.3528 128.563 92.6024ZM129.658 88.4922C129.658 87.7418 130.091 87.3631 130.966 87.3631L137.148 87.3631C138.043 87.3631 138.491 87.7418 138.491 88.4922C138.491 89.2427 138.043 89.6213 137.148 89.6213L130.966 89.6213C130.091 89.6213 129.658 89.2495 129.658 88.4922Z" fill="white"/>
<path d="M187.448 97.0773C187.448 97.8277 187.014 98.2064 186.14 98.2064L180.749 98.2064L180.749 112.306C180.749 112.878 180.646 113.284 180.446 113.539C180.246 113.793 179.909 113.917 179.441 113.917C178.973 113.917 178.635 113.793 178.436 113.539C178.229 113.284 178.133 112.871 178.133 112.306L178.133 98.2064L172.99 98.2064C172.095 98.2064 171.647 97.8208 171.647 97.0498C171.647 96.2787 172.095 95.8931 172.99 95.8931L178.133 95.8931L178.133 87.7623C178.133 87.2116 178.236 86.8054 178.449 86.5437C178.663 86.2821 178.993 86.1444 179.441 86.1444C179.888 86.1444 180.239 86.2684 180.446 86.5231C180.646 86.7778 180.749 87.1909 180.749 87.7554L180.749 95.8863L186.14 95.8863C187.014 95.8863 187.448 96.2856 187.448 97.0704L187.448 97.0773ZM170.58 106.062L170.58 110.509C170.58 112.134 169.761 112.946 168.115 112.946L163.365 112.946C161.72 112.946 160.9 112.134 160.9 110.509L160.9 106.062C160.9 104.437 161.72 103.625 163.365 103.625L168.115 103.625C169.761 103.625 170.58 104.437 170.58 106.062ZM168.233 106.64C168.233 106.358 168.171 106.151 168.054 106.034C167.93 105.91 167.73 105.848 167.448 105.848L164.04 105.848C163.778 105.848 163.585 105.91 163.461 106.034C163.337 106.158 163.269 106.358 163.248 106.64L163.248 109.931C163.248 110.213 163.31 110.42 163.427 110.537C163.551 110.661 163.751 110.73 164.033 110.75L167.441 110.75C167.702 110.75 167.895 110.681 168.019 110.551C168.143 110.42 168.212 110.213 168.233 109.924L168.233 106.633L168.233 106.64ZM170.697 100.706C170.697 101.456 170.277 101.835 169.451 101.835L162.174 101.835C161.362 101.835 160.955 101.456 160.955 100.706C160.955 99.9551 161.362 99.5764 162.174 99.5764L169.451 99.5764C170.284 99.5764 170.697 99.9551 170.697 100.706ZM169.355 95.5902C170.188 95.5902 170.601 95.9689 170.601 96.7193C170.601 97.4697 170.181 97.8484 169.355 97.8484L162.167 97.8484C161.355 97.8484 160.949 97.4697 160.949 96.7193C160.949 95.9689 161.355 95.5902 162.167 95.5902L169.355 95.5902ZM160.983 93.7933C160.129 93.7933 159.702 93.4078 159.702 92.6367C159.702 91.8656 160.129 91.4525 160.983 91.4525L170.663 91.4525C171.517 91.4525 171.943 91.8518 171.943 92.6367C171.943 93.4215 171.517 93.7933 170.663 93.7933L160.983 93.7933ZM160.859 88.437C160.859 87.6659 161.272 87.2804 162.105 87.2804L169.472 87.2804C169.878 87.2804 170.195 87.3837 170.415 87.5833C170.635 87.783 170.752 88.079 170.752 88.4646C170.752 89.2357 170.325 89.6212 169.472 89.6212L162.105 89.6212C161.272 89.6212 160.859 89.2288 160.859 88.437Z" fill="white"/>
<path d="M211.689 90.3233L211.689 94.1925L215.041 94.1925C215.978 94.1925 216.646 94.399 217.052 94.819C217.458 95.239 217.658 95.9206 217.658 96.8775L217.658 107.046C217.658 108.12 217.424 108.898 216.955 109.373C216.487 109.848 215.73 110.089 214.67 110.089L213.692 110.089C212.776 110.089 212.322 109.662 212.322 108.809C212.322 108.402 212.439 108.1 212.673 107.893C212.907 107.693 213.217 107.59 213.603 107.59L214.153 107.59C214.58 107.59 214.869 107.507 215.021 107.349C215.172 107.184 215.248 106.881 215.248 106.433L215.248 97.4214C215.248 97.1185 215.158 96.8775 214.986 96.7054C214.814 96.5333 214.573 96.4438 214.27 96.4438L211.682 96.4438L211.682 112.554C211.682 113.49 211.269 113.952 210.436 113.952C209.603 113.952 209.251 113.483 209.251 112.554L209.251 96.4438L206.876 96.4438C206.126 96.4438 205.747 96.7674 205.747 97.4214L205.747 108.747C205.747 109.724 205.341 110.206 204.529 110.206C203.716 110.206 203.344 109.717 203.344 108.747L203.344 96.8706C203.344 95.9206 203.544 95.2321 203.95 94.8121C204.356 94.399 205.024 94.1856 205.961 94.1856L209.251 94.1856L209.251 90.3164L203.985 90.3164C203.172 90.3164 202.766 89.9447 202.766 89.1873C202.766 88.43 203.172 88.0582 203.985 88.0582L217.169 88.0582C217.981 88.0582 218.387 88.4369 218.387 89.1873C218.387 89.5729 218.284 89.8552 218.084 90.041C217.885 90.2269 217.575 90.3164 217.169 90.3164L211.689 90.3164L211.689 90.3233ZM201.912 104.299L201.912 109.538C201.912 110.413 201.713 111.053 201.32 111.459C200.928 111.865 200.308 112.031 199.475 111.948L194.539 111.948C193.685 111.948 193.066 111.755 192.666 111.37C192.267 110.984 192.095 110.378 192.136 109.545L192.136 92.0651C192.136 91.2321 192.281 90.6125 192.577 90.2063C192.873 89.8001 193.355 89.6004 194.023 89.6004L195.179 89.6004L195.634 87.3491C195.799 86.5574 196.191 86.1581 196.818 86.1581C197.651 86.1581 198.064 86.5161 198.064 87.2252C198.064 87.6521 197.83 88.4438 197.362 89.6004L199.186 89.6004C200.04 89.6004 200.652 89.7932 201.031 90.1787C201.403 90.5643 201.575 91.1908 201.534 92.0651L201.534 96.5677C201.534 97.4421 201.341 98.0755 200.955 98.4679C200.57 98.8603 199.95 99.0393 199.097 98.998L194.436 98.998L194.436 101.89L199.461 101.89C201.189 101.745 202.002 102.551 201.899 104.292L201.912 104.299ZM199.627 105.091C199.627 104.726 199.558 104.485 199.413 104.361C199.269 104.237 199.007 104.168 198.621 104.148L194.449 104.148L194.449 108.747C194.449 109.112 194.518 109.353 194.649 109.476C194.78 109.6 195.028 109.669 195.393 109.69L198.621 109.69C199.007 109.69 199.269 109.628 199.399 109.49C199.53 109.353 199.606 109.112 199.627 108.747L199.627 105.091ZM194.449 96.7467L198.346 96.7467C198.938 96.7467 199.248 96.43 199.289 95.8035L199.289 92.788C199.289 92.4645 199.214 92.2304 199.062 92.0858C198.911 91.9412 198.67 91.8655 198.346 91.8448L195.393 91.8448C194.787 91.8448 194.47 92.1615 194.449 92.788L194.449 96.7467Z" fill="white"/>
<path d="M134.312 129.869L134.312 149.752C134.312 150.702 133.906 151.184 133.093 151.184C132.281 151.184 131.937 150.709 131.937 149.752L131.937 135.9C131.427 137.077 130.98 137.972 130.58 138.592C130.181 139.211 129.864 139.521 129.623 139.521C129.279 139.521 129.017 139.439 128.845 139.28C128.673 139.115 128.584 138.909 128.584 138.64C128.584 138.399 128.653 138.11 128.797 137.786C128.942 137.463 129.183 136.981 129.527 136.354C130.133 135.28 130.883 133.449 131.778 130.874C132.591 128.54 133.155 126.509 133.486 124.781C133.651 123.928 134.057 123.501 134.704 123.501C135.517 123.501 135.923 123.9 135.923 124.685C135.923 125.236 135.386 126.957 134.312 129.862L134.312 129.869ZM156.419 149.903C156.419 150.695 155.992 151.088 155.138 151.088C153.775 151.088 152.233 150.895 150.511 150.509C148.866 150.144 147.344 149.628 145.947 148.953C142.353 150.434 139.241 151.177 136.598 151.177C135.826 151.177 135.441 150.819 135.441 150.11C135.441 149.504 136.109 149.153 137.451 149.077C139.338 148.933 141.52 148.485 143.999 147.735C142.904 147.005 141.988 146.124 141.258 145.084C139.227 146.544 137.795 147.273 136.962 147.273C136.37 147.273 136.081 146.957 136.081 146.33C136.081 145.945 136.549 145.559 137.486 145.174C139.517 144.32 141.169 143.177 142.449 141.731C142.002 141.731 141.658 141.6 141.417 141.339C141.176 141.077 141.052 140.733 141.052 140.306L141.052 138.482C141.052 137.814 141.396 137.477 142.085 137.477C142.773 137.477 143.09 137.814 143.09 138.482L143.09 139.7C143.09 140.065 143.269 140.251 143.634 140.251L146.801 140.251C147.551 140.251 148.005 140.203 148.171 140.1C148.315 140.017 148.412 139.783 148.474 139.397C148.536 138.847 148.811 138.578 149.293 138.578C149.616 138.578 149.864 138.668 150.023 138.853C150.188 139.039 150.264 139.287 150.264 139.618C150.264 140.774 149.816 141.442 148.921 141.628C148.37 141.752 146.98 141.814 144.749 141.814L143.744 142.943L151.689 142.943C152.721 142.943 153.245 143.28 153.245 143.948C153.245 144.251 152.708 144.843 151.634 145.718C150.739 146.447 149.672 147.156 148.439 147.852C150.305 148.423 152.384 148.747 154.684 148.829C155.84 148.871 156.419 149.236 156.419 149.924L156.419 149.903ZM146.188 146.922C146.938 146.557 147.723 146.131 148.536 145.642C149.369 145.132 149.782 144.823 149.782 144.699C149.782 144.595 149.713 144.547 149.568 144.547L142.993 144.547C143.909 145.483 144.976 146.275 146.188 146.922V146.922ZM138.801 138.048C138.931 137.897 139.104 137.821 139.303 137.821C139.888 137.821 140.184 138.076 140.184 138.585C140.184 138.75 140.074 139.115 139.847 139.68C139.826 139.762 139.744 140.017 139.606 140.444C139.406 141.036 139.179 141.477 138.938 141.786C138.697 142.096 138.443 142.241 138.174 142.241C137.548 142.241 137.231 141.938 137.231 141.325C137.231 141.146 137.444 140.719 137.871 140.045L138.388 138.764C138.532 138.44 138.67 138.199 138.801 138.048V138.048ZM152.914 139.005C153.52 140.003 153.83 140.616 153.83 140.864C153.83 141.146 153.74 141.373 153.554 141.532C153.375 141.697 153.121 141.773 152.79 141.773C152.405 141.773 152.04 141.415 151.696 140.705L150.567 138.544C150.546 138.179 150.601 137.917 150.732 137.766C150.863 137.614 151.083 137.539 151.386 137.539C151.771 137.539 152.281 138.027 152.907 138.998L152.914 139.005ZM143.599 127.797L143.937 126.551L137.727 126.551C137.341 126.551 137.066 126.475 136.907 126.323C136.742 126.172 136.666 125.931 136.666 125.607C136.666 125.002 137.017 124.692 137.733 124.692L154.511 124.692C155.221 124.692 155.579 124.995 155.579 125.607C155.579 125.931 155.496 126.172 155.338 126.323C155.172 126.475 154.904 126.551 154.518 126.551L146.298 126.551L145.692 127.797L150.718 127.797C152.343 127.797 153.155 128.568 153.155 130.11L153.155 135.563L153.795 135.563C155.214 135.563 155.93 136.272 155.93 137.697L155.93 139.005C155.93 139.37 155.84 139.652 155.654 139.859C155.468 140.065 155.207 140.162 154.863 140.162C154.174 140.162 153.83 139.776 153.83 139.005L153.83 138.062C153.83 137.49 153.527 137.201 152.914 137.181L138.388 137.181C138.085 137.181 137.864 137.249 137.733 137.394C137.603 137.539 137.527 137.759 137.506 138.062L137.506 139.067C137.506 139.838 137.162 140.224 136.474 140.224C135.785 140.224 135.468 139.838 135.468 139.067L135.468 137.759C135.468 136.299 136.191 135.57 137.63 135.57L138.298 135.57L138.298 130.117C138.298 128.575 139.097 127.804 140.701 127.804L143.627 127.804L143.599 127.797ZM146.766 137.903C147.214 138.165 147.434 138.454 147.434 138.757C147.434 139.329 147.152 139.611 146.58 139.611C146.456 139.611 146.085 139.411 145.451 139.005C145.19 138.84 144.976 138.681 144.825 138.516C144.673 138.351 144.598 138.234 144.598 138.151C144.598 137.621 144.9 137.36 145.513 137.36C145.775 137.36 146.195 137.539 146.759 137.91L146.766 137.903ZM150.752 135.556L150.752 134.337L140.646 134.337L140.646 135.556L150.752 135.556ZM150.752 132.995L150.752 131.81L140.646 131.81L140.646 132.995L150.752 132.995ZM150.023 129.401L141.375 129.401C141.114 129.401 140.921 129.456 140.811 129.566C140.701 129.676 140.646 129.855 140.646 130.096L140.646 130.461L150.752 130.461L150.752 130.096C150.752 129.628 150.511 129.394 150.023 129.394L150.023 129.401Z" fill="white"/>
<path d="M180.935 146.619C180.935 148.63 180.246 149.828 178.863 150.213C177.906 150.496 176.191 150.64 173.713 150.64C170.711 150.64 168.893 150.475 168.26 150.151C167.634 149.848 167.282 149.311 167.227 148.54L167.227 144.554C167.227 143.563 167.64 143.06 168.474 143.06C169.307 143.06 169.72 143.556 169.72 144.554L169.72 147.418C169.72 148.01 170.725 148.299 172.735 148.299C175.276 148.299 176.763 148.237 177.21 148.113C177.775 147.948 178.126 147.349 178.243 146.317C178.326 145.545 178.773 145.16 179.585 145.16C180.48 145.16 180.928 145.649 180.928 146.619L180.935 146.619ZM164.673 144.671C164.673 145.263 164.164 146.654 163.152 148.843C162.663 149.897 162.147 150.427 161.596 150.427C160.701 150.427 160.253 150.082 160.253 149.394C160.253 149.029 160.618 148.148 161.348 146.743C161.63 146.234 161.926 145.484 162.229 144.492C162.429 143.845 162.814 143.514 163.386 143.514C164.239 143.514 164.666 143.9 164.666 144.671L164.673 144.671ZM185.41 145.676C186.566 147.156 187.145 148.155 187.145 148.657C187.145 149.49 186.697 149.903 185.802 149.903C185.396 149.903 184.776 149.311 183.943 148.134L182.298 145.669C182.133 145.428 181.995 145.194 181.871 144.981C181.747 144.768 181.692 144.609 181.692 144.506C181.692 143.776 182.105 143.411 182.938 143.411C183.386 143.411 184.205 144.162 185.403 145.663L185.41 145.676ZM173.685 145.552L172.529 144.244C172.322 144.003 172.226 143.735 172.226 143.453C172.226 142.785 172.625 142.447 173.41 142.447C173.733 142.447 174.284 142.805 175.055 143.514C175.847 144.244 176.239 144.823 176.239 145.249C176.239 146.062 175.813 146.468 174.959 146.468C174.635 146.468 174.208 146.165 173.678 145.552L173.685 145.552ZM187.42 126.613C187.42 127.28 187.035 127.618 186.264 127.618L174.635 127.618L174.635 129.112L182.463 129.112C183.4 129.112 184.074 129.318 184.487 129.738C184.9 130.151 185.093 130.819 185.052 131.735L185.052 135.604C185.052 136.54 184.845 137.222 184.425 137.663C184.012 138.096 183.358 138.296 182.463 138.255L174.573 138.255L174.573 140.079L180.818 140.017C180.37 139.673 180.15 139.397 180.15 139.198C180.15 138.626 180.508 138.344 181.217 138.344C181.603 138.344 182.649 138.902 184.356 140.017C186.043 141.112 186.883 141.876 186.883 142.303C186.883 142.668 186.787 142.936 186.594 143.108C186.401 143.28 186.105 143.37 185.699 143.37C185.458 143.37 184.673 142.854 183.351 141.814L183.11 141.628L182.718 141.656L167.097 142.172L161.678 142.296C160.763 142.317 160.308 141.972 160.308 141.263C160.308 140.492 160.935 140.107 162.195 140.107L172.212 140.107L172.212 138.248L164.935 138.248C163.978 138.248 163.289 138.034 162.863 137.607C162.436 137.181 162.257 136.513 162.319 135.597L162.319 131.728C162.319 130.771 162.518 130.082 162.924 129.656C163.331 129.229 163.998 129.05 164.935 129.105L172.212 129.105L172.212 127.611L161.162 127.611C160.756 127.611 160.46 127.528 160.281 127.37C160.102 127.205 160.005 126.957 160.005 126.606C160.005 125.938 160.391 125.601 161.162 125.601L172.212 125.601L172.212 124.506C172.212 123.797 172.611 123.439 173.403 123.439C174.236 123.439 174.649 123.797 174.649 124.506L174.649 125.601L186.277 125.601C187.048 125.601 187.434 125.938 187.434 126.606L187.42 126.613ZM172.191 134.468L164.79 134.468L164.79 135.322C164.79 135.99 165.134 136.334 165.823 136.354L172.184 136.354L172.184 134.468L172.191 134.468ZM182.573 134.468L174.566 134.468L174.566 136.354L181.541 136.354C182.188 136.354 182.539 136.01 182.573 135.322L182.573 134.468ZM172.191 130.964L165.83 130.964C165.183 130.964 164.838 131.322 164.797 132.031L164.797 132.823L172.198 132.823L172.198 130.964L172.191 130.964ZM181.541 130.964L174.566 130.964L174.566 132.823L182.573 132.823L182.573 132.031C182.573 131.363 182.229 131.005 181.541 130.964Z" fill="white"/>
<path d="M218.78 142.261C218.78 143.177 218.353 143.631 217.499 143.631C217.196 143.631 216.735 143.466 216.116 143.129C215.496 142.792 214.649 142.268 213.575 141.559C211.544 140.217 209.802 138.516 208.336 136.444L200.783 136.444C200.398 137.05 199.978 137.614 199.517 138.117C199.062 138.626 198.394 139.301 197.52 140.155C197.665 140.113 197.933 140.093 198.339 140.093L209.85 140.093C211.819 140.093 212.804 140.926 212.804 142.592C212.804 143.583 212.673 144.919 212.405 146.578C212.122 148.347 211.592 149.525 210.821 150.11C209.988 150.716 208.666 151.026 206.863 151.026C205.747 151.026 205.19 150.557 205.19 149.621C205.19 148.767 205.554 148.341 206.284 148.341L207.682 148.368C208.412 148.368 208.962 148.148 209.327 147.7C209.651 147.294 209.899 146.158 210.057 144.292L210.146 143.136C210.188 142.606 209.864 142.344 209.169 142.344L203.351 142.344C203.007 144.499 202.518 146.048 201.892 147.005C201.1 148.182 199.93 149.139 198.387 149.869C196.804 150.619 195.482 150.998 194.429 150.998C193.575 150.998 193.148 150.551 193.148 149.656C193.148 149.063 193.548 148.692 194.332 148.526C197.093 148.038 198.931 147.033 199.847 145.511C200.233 144.884 200.535 143.824 200.763 142.344L198.085 142.344C197.658 142.344 197.32 142.255 197.066 142.069C196.811 141.883 196.687 141.635 196.687 141.304C196.687 141.125 196.694 140.988 196.714 140.912C195.64 141.945 194.704 142.723 193.912 143.239C193.121 143.755 192.522 144.017 192.116 144.017C191.709 144.017 191.4 143.914 191.186 143.7C190.973 143.487 190.869 143.198 190.869 142.833C190.869 142.261 191.214 141.78 191.902 141.373C193.224 140.623 194.305 139.886 195.159 139.163C196.012 138.44 196.866 137.532 197.72 136.437L192.515 136.437C191.62 136.437 191.172 136.072 191.172 135.342C191.172 134.613 191.62 134.213 192.515 134.213L199.365 134.213C200.012 133.201 200.542 132.196 200.949 131.198L193.974 131.198C193.059 131.198 192.604 130.826 192.604 130.069C192.604 129.311 193.059 128.94 193.974 128.94L201.706 128.94C202.009 127.886 202.305 126.592 202.587 125.07C202.787 124.017 203.296 123.487 204.109 123.487C204.921 123.487 205.265 123.852 205.265 124.582C205.265 125.311 204.928 126.743 204.26 128.94L215.682 128.94C216.597 128.94 217.052 129.318 217.052 130.069C217.052 130.819 216.597 131.198 215.682 131.198L208.281 131.198C208.77 132.54 209.196 133.545 209.561 134.213L217.114 134.213C218.05 134.213 218.518 134.592 218.518 135.342C218.518 136.093 218.05 136.437 217.114 136.437L211.145 136.437C212.708 138.261 214.787 139.714 217.389 140.788C218.305 141.174 218.759 141.662 218.759 142.248L218.78 142.261ZM202.126 134.22L207.117 134.22C206.732 133.408 206.353 132.403 205.988 131.205L203.523 131.205C203.138 132.237 202.67 133.242 202.119 134.22L202.126 134.22ZM209.644 127.37C209.644 127.108 209.788 126.723 210.071 126.213L210.89 124.809C211.234 124.203 211.689 123.893 212.26 123.893C213.155 123.893 213.603 124.299 213.603 125.112C213.603 125.415 213.286 126.048 212.659 126.998C212.026 127.976 211.441 128.458 210.89 128.458C210.057 128.458 209.644 128.093 209.644 127.363L209.644 127.37ZM195 125.91C194.739 125.566 194.608 125.27 194.608 125.029C194.608 124.341 195.042 123.996 195.916 123.996C196.405 123.996 196.873 124.299 197.32 124.912C197.623 125.339 197.981 125.855 198.387 126.468C198.628 126.792 198.752 127.129 198.752 127.473C198.752 127.755 198.649 127.989 198.436 128.175C198.222 128.361 197.892 128.451 197.444 128.451C196.935 128.451 196.487 128.134 196.102 127.508L195.007 125.924L195 125.91Z" fill="white"/>
</svg>
