<svg width="200" height="549" viewBox="0 0 200 549" fill="none" xmlns="http://www.w3.org/2000/svg">
<path d="M199.484 347.676H187.284C184.31 346.141 182.272 343.043 182.272 339.463V339.373C182.272 336.661 183.442 334.224 185.308 332.537H199.484V276.764H197.528C195.697 272.324 191.332 269.191 186.231 269.191C181.129 269.191 176.757 272.324 174.933 276.764H169.652C167.821 272.324 163.456 269.191 158.355 269.191C153.253 269.191 148.881 272.324 147.057 276.764H141.088C139.256 272.324 134.892 269.191 129.79 269.191C124.688 269.191 120.317 272.324 118.492 276.764H112.179C110.348 272.324 105.983 269.191 100.881 269.191C95.7797 269.191 91.4079 272.324 89.5835 276.764H83.9587C82.1274 272.324 77.7625 269.191 72.6609 269.191C67.5594 269.191 63.1876 272.324 61.3632 276.764H55.7384C53.9071 272.324 49.5422 269.191 44.4406 269.191C39.3391 269.191 34.9673 272.324 33.1429 276.764H26.8296C24.9639 272.324 20.5921 269.191 15.4905 269.191C10.389 269.191 6.01721 272.324 4.19277 276.764H0.516351V332.53H16.0207C18.1136 334.224 19.4492 336.812 19.4492 339.711V339.8C19.4492 343.133 17.6799 346.045 15.0361 347.67H0.516351L0 548.929C1.4389 548.723 2.80207 548.268 4.03442 547.608C5.14974 545.163 7.03614 543.153 9.39759 541.886C9.40447 541.866 9.41824 541.845 9.42513 541.824H9.52151C11.2083 540.95 13.1153 540.447 15.1463 540.447C20.2892 540.447 24.6747 543.621 26.4854 548.117C27.2702 548.275 28.0826 548.365 28.9157 548.365C30.3133 548.365 31.6558 548.124 32.9088 547.69C34.8158 543.422 39.0912 540.447 44.062 540.447C49.0327 540.447 53.5904 543.621 55.401 548.117C56.1859 548.275 56.9983 548.365 57.8313 548.365C58.9329 548.365 60 548.213 61.0189 547.938C62.8709 543.539 67.2151 540.447 72.2892 540.447C77.3632 540.447 81.8176 543.621 83.6282 548.117C84.4131 548.275 85.2255 548.365 86.0585 548.365C87.1601 548.365 88.2272 548.213 89.2461 547.938C91.0981 543.539 95.4423 540.447 100.516 540.447C105.59 540.447 110.045 543.621 111.855 548.117C112.64 548.275 113.453 548.365 114.286 548.365C115.683 548.365 117.026 548.124 118.279 547.69C120.186 543.422 124.461 540.447 129.432 540.447C134.403 540.447 138.96 543.621 140.771 548.117C141.556 548.275 142.368 548.365 143.201 548.365C144.448 548.365 145.652 548.172 146.788 547.821C148.661 543.484 152.978 540.447 158.003 540.447C163.029 540.447 167.532 543.621 169.343 548.117C170.127 548.275 170.94 548.365 171.773 548.365C172.744 548.365 173.68 548.248 174.582 548.034C176.406 543.587 180.778 540.447 185.886 540.447C190.995 540.447 195.415 543.621 197.225 548.117C198.01 548.275 198.823 548.365 199.656 548.365C199.773 548.365 199.883 548.351 200 548.344L199.484 347.676Z" fill="#070707"/>
<path d="M177.859 293.287H19.0498V323.58H177.859V293.287Z" stroke="white" stroke-width="3" stroke-miterlimit="10"/>
<path d="M177.859 365.577H19.0498V519.105H177.859V365.577Z" stroke="white" stroke-width="3" stroke-miterlimit="10"/>
<path d="M50.4991 316.888C49.2323 316.2 48.2409 315.215 47.5249 313.928C46.8089 312.64 46.4578 311.153 46.4578 309.46C46.4578 307.766 46.8158 306.258 47.5387 304.971C48.2409 303.704 49.2185 302.719 50.4646 302.031C51.7108 301.343 53.1221 300.998 54.7056 300.998C55.7383 300.998 56.6746 301.115 57.5008 301.349C58.3338 301.583 59.1875 301.955 60.0619 302.451C60.4199 302.623 60.6058 302.926 60.6058 303.367C60.6058 303.601 60.5163 303.814 60.3373 304C60.1583 304.186 59.9242 304.282 59.6419 304.282C59.4698 304.282 59.3252 304.255 59.222 304.186C58.4991 303.807 57.8106 303.532 57.1566 303.353C56.4956 303.174 55.7521 303.084 54.9259 303.084C53.5765 303.084 52.4406 303.36 51.518 303.911C50.5955 304.461 49.8863 305.205 49.3906 306.155C48.8949 307.105 48.6471 308.207 48.6471 309.46C48.6471 310.713 48.8881 311.8 49.3769 312.73C49.8657 313.714 50.5817 314.478 51.5387 315.022C52.4956 315.566 53.6247 315.835 54.9259 315.835C55.759 315.835 56.5025 315.745 57.1566 315.566C57.8106 315.387 58.506 315.105 59.222 314.733C59.3321 314.671 59.4698 314.637 59.6419 314.637C59.9242 314.637 60.1583 314.726 60.3373 314.905C60.5163 315.084 60.6058 315.305 60.6058 315.553C60.6058 315.972 60.4268 316.282 60.0619 316.468C59.1875 316.971 58.3338 317.336 57.5008 317.57C56.6677 317.804 55.7383 317.921 54.7056 317.921C53.1359 317.921 51.7383 317.577 50.4991 316.888Z" fill="white"/>
<path d="M66.2514 316.84C65.0259 316.117 64.0759 315.119 63.3943 313.845C62.7127 312.571 62.3547 311.105 62.3271 309.46C62.3547 307.814 62.7127 306.355 63.3874 305.088C64.0621 303.8 65.0259 302.802 66.279 302.079C67.532 301.356 68.9709 300.998 70.6025 300.998C72.2342 300.998 73.6938 301.356 74.9537 302.079C76.1791 302.802 77.1292 303.8 77.8108 305.088C78.4924 306.375 78.8504 307.828 78.8779 309.46C78.8435 311.091 78.4924 312.537 77.8177 313.811C77.1292 315.112 76.1585 316.124 74.9123 316.84C73.6662 317.563 72.2273 317.921 70.6025 317.921C68.9778 317.921 67.5044 317.563 66.2514 316.84V316.84ZM73.8452 315.029C74.754 314.478 75.4562 313.721 75.9519 312.764C76.4476 311.807 76.6955 310.699 76.6955 309.46C76.6955 308.22 76.4545 307.139 75.9657 306.169C75.4631 305.184 74.754 304.413 73.8246 303.862C72.8951 303.312 71.828 303.036 70.6025 303.036C69.3771 303.036 68.2549 303.318 67.3598 303.883C66.4511 304.434 65.7488 305.184 65.2531 306.148C64.7574 307.112 64.5096 308.213 64.5096 309.453C64.5096 310.692 64.7506 311.773 65.2394 312.744C65.742 313.749 66.4511 314.52 67.3667 315.057C68.2824 315.601 69.3633 315.869 70.5957 315.869C71.828 315.869 72.9433 315.587 73.8383 315.022L73.8452 315.029Z" fill="white"/>
<path d="M85.8313 317.219C84.7504 316.73 83.8898 315.993 83.2495 315.009C82.6092 314.024 82.2856 312.854 82.2856 311.504V302.217C82.2856 301.921 82.3889 301.659 82.6023 301.439C82.8158 301.219 83.0705 301.108 83.3665 301.108C83.6626 301.108 83.9242 301.219 84.1445 301.439C84.3648 301.659 84.475 301.914 84.475 302.217V311.573C84.475 312.53 84.6953 313.322 85.1359 313.948C85.5421 314.589 86.0929 315.077 86.7951 315.415C87.4905 315.752 88.2478 315.917 89.0602 315.917C89.8726 315.917 90.6092 315.752 91.3183 315.422C92.055 315.077 92.6264 314.575 93.0326 313.907C93.4388 313.239 93.6454 312.461 93.6454 311.566V302.21C93.6454 301.914 93.7486 301.652 93.9621 301.432C94.1755 301.212 94.4302 301.102 94.7263 301.102C95.0223 301.102 95.2839 301.212 95.5042 301.432C95.7245 301.652 95.8347 301.907 95.8347 302.21V311.497C95.8347 312.874 95.5042 314.059 94.8502 315.05C94.2099 315.993 93.37 316.702 92.3442 317.191C91.3184 317.68 90.2237 317.921 89.0671 317.921C87.9104 317.921 86.864 317.687 85.845 317.219H85.8313Z" fill="white"/>
<path d="M100.53 317.487C100.317 317.274 100.213 317.019 100.213 316.723V302.341C100.213 302.045 100.317 301.783 100.53 301.563C100.744 301.342 100.998 301.232 101.294 301.232H106.651C108.124 301.232 109.336 301.48 110.293 301.983C111.167 302.451 111.835 303.071 112.275 303.828C112.723 304.585 112.943 305.466 112.943 306.472C112.943 307.394 112.737 308.241 112.33 309.012C111.91 309.845 111.215 310.499 110.251 310.988C109.287 311.477 108.083 311.718 106.644 311.718H102.389V316.723C102.389 317.019 102.279 317.274 102.058 317.487C101.838 317.7 101.583 317.804 101.281 317.804C100.978 317.804 100.73 317.7 100.516 317.487H100.53ZM109.673 308.84C110.403 308.296 110.768 307.511 110.768 306.478C110.768 305.446 110.403 304.654 109.673 304.117C108.943 303.573 107.869 303.305 106.444 303.305H102.685C102.499 303.305 102.403 303.401 102.403 303.587V309.652H106.444C107.869 309.652 108.95 309.384 109.673 308.84Z" fill="white"/>
<path d="M118.947 316.84C117.721 316.117 116.771 315.119 116.09 313.845C115.408 312.571 115.05 311.105 115.022 309.46C115.05 307.814 115.408 306.355 116.083 305.088C116.757 303.8 117.721 302.802 118.974 302.079C120.227 301.356 121.666 300.998 123.298 300.998C124.93 300.998 126.389 301.356 127.649 302.079C128.874 302.802 129.825 303.8 130.506 305.088C131.188 306.375 131.546 307.828 131.573 309.46C131.539 311.091 131.188 312.537 130.513 313.811C129.825 315.112 128.854 316.124 127.608 316.84C126.362 317.563 124.923 317.921 123.298 317.921C121.673 317.921 120.2 317.563 118.947 316.84V316.84ZM126.541 315.029C127.449 314.478 128.152 313.721 128.647 312.764C129.143 311.807 129.391 310.699 129.391 309.46C129.391 308.22 129.15 307.139 128.661 306.169C128.158 305.184 127.449 304.413 126.52 303.862C125.59 303.312 124.523 303.036 123.298 303.036C122.072 303.036 120.95 303.318 120.055 303.883C119.146 304.434 118.444 305.184 117.948 306.148C117.453 307.112 117.205 308.213 117.205 309.453C117.205 310.692 117.446 311.773 117.935 312.744C118.437 313.749 119.146 314.52 120.062 315.057C120.978 315.601 122.059 315.869 123.291 315.869C124.523 315.869 125.639 315.587 126.534 315.022L126.541 315.029Z" fill="white"/>
<path d="M135.408 317.487C135.195 317.274 135.091 317.019 135.091 316.723V302.692C135.091 302.272 135.243 301.9 135.553 301.59C135.856 301.274 136.22 301.122 136.647 301.122H136.95C137.453 301.122 137.893 301.356 138.265 301.824L146.94 314.355C147.016 314.451 147.078 314.492 147.126 314.492C147.16 314.492 147.188 314.472 147.222 314.423C147.257 314.375 147.27 314.32 147.27 314.258V302.224C147.27 301.928 147.374 301.666 147.587 301.446C147.8 301.226 148.055 301.115 148.351 301.115C148.647 301.115 148.909 301.226 149.129 301.446C149.349 301.666 149.46 301.921 149.46 302.224V316.255C149.46 316.682 149.301 317.04 148.991 317.349C148.675 317.652 148.31 317.811 147.89 317.811H147.608C147.36 317.811 147.119 317.749 146.892 317.632C146.664 317.515 146.479 317.363 146.341 317.17L137.618 304.571C137.542 304.475 137.473 304.427 137.432 304.427C137.398 304.427 137.37 304.448 137.336 304.496C137.301 304.544 137.288 304.599 137.288 304.661V316.716C137.288 317.012 137.177 317.267 136.957 317.48C136.737 317.694 136.482 317.797 136.179 317.797C135.876 317.797 135.628 317.694 135.415 317.48L135.408 317.487Z" fill="white"/>
<path d="M128.757 433.893C129.384 432.496 130.341 431.373 131.621 430.54C132.902 429.707 134.41 429.294 136.158 429.294H148.186C148.572 429.294 148.909 429.432 149.191 429.707C149.473 429.983 149.618 430.313 149.618 430.699C149.618 431.084 149.473 431.422 149.191 431.704C148.909 431.986 148.572 432.131 148.186 432.131H136.069C134.83 432.131 133.804 432.413 132.991 432.985C132.158 433.515 131.525 434.224 131.091 435.133C130.658 436.041 130.437 437.012 130.437 438.072C130.437 439.133 130.651 440.083 131.078 440.998C131.525 441.955 132.179 442.692 133.04 443.222C133.9 443.752 134.912 444.014 136.069 444.014H148.186C148.572 444.014 148.909 444.151 149.191 444.427C149.473 444.702 149.618 445.033 149.618 445.418C149.618 445.804 149.473 446.141 149.191 446.423C148.909 446.706 148.572 446.85 148.186 446.85H136.158C134.375 446.85 132.84 446.423 131.559 445.57C130.341 444.737 129.418 443.656 128.792 442.327C128.165 440.998 127.849 439.58 127.849 438.079C127.849 436.578 128.152 435.229 128.764 433.907L128.757 433.893Z" fill="white"/>
<path d="M128.406 452.936C128.682 452.661 129.012 452.523 129.398 452.523H148.186C148.571 452.523 148.909 452.661 149.191 452.936C149.473 453.212 149.618 453.542 149.618 453.928C149.618 454.313 149.473 454.651 149.191 454.933C148.909 455.215 148.571 455.36 148.186 455.36H129.398C129.012 455.36 128.682 455.215 128.406 454.933C128.131 454.651 127.993 454.313 127.993 453.928C127.993 453.542 128.131 453.212 128.406 452.936Z" fill="white"/>
<path d="M89.3357 407.263C89.9691 407.263 90.4441 407.862 90.7677 409.06C91.3391 411.112 92.0551 412.785 92.9295 414.086H92.9914C93.8245 413.274 94.7677 412.571 95.821 411.986C96.4062 411.642 96.8951 411.387 97.2806 411.222C97.6661 411.057 98.0035 410.981 98.2858 410.981C98.871 410.981 99.167 411.408 99.167 412.262C99.167 412.792 98.7401 413.198 97.8864 413.48C96.3649 414.251 95.2083 415.084 94.4166 415.979V416.041C95.1877 416.936 96.1928 417.838 97.4321 418.754C97.9622 419.16 98.4235 419.497 98.8159 419.759C99.2152 420.021 99.4699 420.158 99.5939 420.158C99.8761 420.158 100.021 419.966 100.021 419.58V409.99C100.021 409.542 100.117 409.198 100.31 408.957C100.503 408.716 100.792 408.592 101.177 408.592C101.928 408.592 102.306 409.06 102.306 409.99V420.675C102.306 422.437 101.749 423.325 100.633 423.325C100.028 423.325 98.8503 422.719 97.1016 421.501C95.3185 420.241 93.9553 419.077 93.019 417.997H92.9295C92.0964 419.435 91.3735 421.418 90.7677 423.931C90.5818 424.702 90.1687 425.088 89.5216 425.088C88.5852 425.088 88.124 424.661 88.124 423.807C88.124 422.892 88.4407 421.687 89.0672 420.186C89.7556 418.602 90.5198 417.205 91.3529 415.986V415.924C90.4785 414.582 89.7281 413.17 89.1016 411.69C88.4338 410.148 88.0964 409.053 88.0964 408.399C88.0964 407.649 88.5164 407.27 89.3426 407.27L89.3357 407.263ZM89.5766 399.043C89.9828 398.616 90.5887 398.403 91.4011 398.403H95.6007C97.2462 398.403 98.0655 399.243 98.0655 400.929V404.551C98.0655 406.258 97.2462 407.105 95.6007 407.105H91.463C90.6507 407.105 90.031 406.885 89.6042 406.451C89.1773 406.017 88.9639 405.377 88.9639 404.551V400.929C88.9639 400.096 89.1636 399.47 89.5698 399.043H89.5766ZM91.8624 404.737H95.2152C95.704 404.737 95.945 404.496 95.945 404.007V401.508C95.945 400.998 95.704 400.744 95.2152 400.744H91.8624C91.3529 400.744 91.0982 400.998 91.0982 401.508V404.007C91.0982 404.496 91.3529 404.737 91.8624 404.737ZM100.998 398.465C101.728 398.465 102.093 398.898 102.093 399.773V405.769C102.093 406.664 101.714 407.112 100.964 407.112C100.599 407.112 100.324 406.995 100.145 406.761C99.9656 406.527 99.8692 406.196 99.8692 405.769V399.835C99.8692 398.919 100.241 398.465 100.998 398.465ZM104.468 408.358C104.833 408.358 105.157 408.544 105.446 408.909C106.093 409.783 106.843 410.327 107.697 410.554C108.448 410.754 110.003 410.857 112.358 410.857C113.818 410.857 114.547 411.649 114.547 413.232V417.645C114.547 419.208 113.783 419.993 112.262 419.993H107.146C106.541 419.993 106.231 420.358 106.231 421.088C106.231 421.494 106.258 421.79 106.306 421.969C106.355 422.155 106.444 422.272 106.568 422.334C106.892 422.499 107.484 422.589 108.337 422.609C109.274 422.651 109.742 423.016 109.742 423.704C109.742 424.496 109.363 424.895 108.613 424.895C106.3 424.895 104.936 424.537 104.53 423.828C104.227 423.277 104.076 422.272 104.076 420.812C104.076 418.761 104.675 417.735 105.873 417.735H111.229C111.876 417.735 112.22 417.391 112.262 416.702V414.024C112.262 413.597 112.152 413.336 111.924 413.232C111.642 413.108 110.988 413.053 109.976 413.053C108.207 413.053 106.878 412.812 105.99 412.324C104.207 411.346 103.312 410.396 103.312 409.46C103.312 408.73 103.697 408.365 104.468 408.365V408.358ZM105.047 398.465C105.411 398.465 105.687 398.575 105.866 398.802C106.052 399.022 106.141 399.353 106.141 399.78V405.776C106.141 406.203 106.052 406.534 105.866 406.768C105.68 407.002 105.411 407.119 105.047 407.119C104.296 407.119 103.917 406.671 103.917 405.776V399.78C103.917 398.905 104.296 398.472 105.047 398.472V398.465ZM109.067 397.274C109.818 397.274 110.196 397.721 110.196 398.616V406.809C110.196 407.725 109.818 408.179 109.067 408.179C108.317 408.179 107.938 407.725 107.938 406.809V398.616C107.938 397.721 108.317 397.274 109.067 397.274ZM113.177 398.368C113.928 398.368 114.306 398.802 114.306 399.676V405.859C114.306 406.754 113.928 407.201 113.177 407.201C112.427 407.201 112.048 406.754 112.048 405.859V399.676C112.048 398.802 112.42 398.368 113.177 398.368Z" fill="white"/>
<path d="M104.592 456.165C103.842 456.165 103.463 455.732 103.463 454.857V449.467H89.3632C88.7918 449.467 88.3856 449.363 88.1309 449.164C87.8761 448.964 87.7522 448.627 87.7522 448.158C87.7522 447.69 87.8761 447.353 88.1309 447.153C88.3856 446.947 88.7987 446.85 89.3632 446.85H103.463V441.707C103.463 440.812 103.849 440.365 104.62 440.365C105.391 440.365 105.776 440.812 105.776 441.707V446.85H113.907C114.458 446.85 114.864 446.954 115.126 447.167C115.387 447.38 115.525 447.711 115.525 448.158C115.525 448.606 115.401 448.957 115.146 449.164C114.892 449.363 114.479 449.467 113.914 449.467H105.783V454.857C105.783 455.732 105.384 456.165 104.599 456.165H104.592ZM95.6076 439.298H91.1601C89.5353 439.298 88.7229 438.472 88.7229 436.833V432.083C88.7229 430.437 89.5353 429.618 91.1601 429.618H95.6076C97.2324 429.618 98.0448 430.437 98.0448 432.083V436.833C98.0448 438.479 97.2324 439.298 95.6076 439.298ZM95.0293 436.95C95.3116 436.95 95.5181 436.888 95.6352 436.764C95.7591 436.64 95.821 436.441 95.821 436.158V432.751C95.821 432.489 95.7591 432.296 95.6352 432.172C95.5112 432.048 95.3116 431.979 95.0293 431.959H91.7384C91.4562 431.959 91.2496 432.021 91.1326 432.145C91.0086 432.269 90.9398 432.468 90.9191 432.751V436.158C90.9191 436.42 90.988 436.613 91.1188 436.737C91.2496 436.861 91.4562 436.93 91.7453 436.95H95.0362H95.0293ZM100.964 439.415C100.213 439.415 99.8348 439.002 99.8348 438.169V430.892C99.8348 430.079 100.213 429.673 100.964 429.673C101.714 429.673 102.093 430.079 102.093 430.892V438.169C102.093 439.002 101.714 439.415 100.964 439.415ZM106.079 438.072C106.079 438.905 105.701 439.318 104.95 439.318C104.2 439.318 103.821 438.905 103.821 438.072V430.885C103.821 430.072 104.2 429.666 104.95 429.666C105.701 429.666 106.079 430.072 106.079 430.885V438.072ZM107.876 429.701C107.876 428.847 108.262 428.42 109.033 428.42C109.804 428.42 110.217 428.847 110.217 429.701V439.38C110.217 440.234 109.818 440.661 109.033 440.661C108.248 440.661 107.876 440.234 107.876 439.38V429.701ZM113.232 429.577C114.003 429.577 114.389 429.99 114.389 430.823V438.189C114.389 438.596 114.286 438.912 114.086 439.133C113.886 439.353 113.59 439.47 113.205 439.47C112.434 439.47 112.048 439.043 112.048 438.189V430.823C112.048 429.99 112.441 429.577 113.232 429.577Z" fill="white"/>
<path d="M111.346 480.406H107.477V483.759C107.477 484.695 107.27 485.363 106.85 485.769C106.43 486.176 105.749 486.375 104.792 486.375H94.6231C93.5491 486.375 92.7711 486.141 92.2961 485.673C91.821 485.205 91.5801 484.448 91.5801 483.387V482.41C91.5801 481.494 92.0069 481.04 92.8606 481.04C93.2668 481.04 93.5698 481.157 93.7763 481.391C93.976 481.625 94.0792 481.935 94.0792 482.32V482.871C94.0792 483.298 94.1618 483.587 94.3202 483.738C94.4854 483.89 94.7883 483.966 95.2358 483.966H104.248C104.551 483.966 104.792 483.876 104.964 483.704C105.136 483.532 105.226 483.291 105.226 482.988V480.399H89.1154C88.179 480.399 87.7178 479.986 87.7178 479.153C87.7178 478.32 88.1859 477.969 89.1154 477.969H105.226V475.594C105.226 474.843 104.902 474.465 104.248 474.465H92.9226C91.945 474.465 91.463 474.059 91.463 473.246C91.463 472.434 91.9519 472.062 92.9226 472.062H104.799C105.749 472.062 106.437 472.262 106.857 472.668C107.27 473.074 107.484 473.742 107.484 474.678V477.969H111.353V472.702C111.353 471.89 111.725 471.484 112.482 471.484C113.239 471.484 113.611 471.89 113.611 472.702V485.886C113.611 486.699 113.232 487.105 112.482 487.105C112.096 487.105 111.814 487.002 111.628 486.802C111.442 486.602 111.353 486.293 111.353 485.886V480.406H111.346ZM97.3701 470.63H92.1309C91.2565 470.63 90.6162 470.43 90.21 470.038C89.8038 469.645 89.6386 469.026 89.7212 468.193V463.257C89.7212 462.403 89.914 461.783 90.2995 461.384C90.6851 460.985 91.2909 460.812 92.124 460.854H109.604C110.437 460.854 111.057 460.998 111.463 461.294C111.869 461.59 112.069 462.072 112.069 462.74V463.897L114.32 464.351C115.112 464.516 115.511 464.909 115.511 465.535C115.511 466.368 115.153 466.781 114.444 466.781C114.017 466.781 113.226 466.547 112.069 466.079V467.904C112.069 468.757 111.876 469.37 111.491 469.749C111.105 470.121 110.479 470.293 109.604 470.251H105.102C104.227 470.251 103.594 470.059 103.201 469.673C102.809 469.287 102.63 468.668 102.671 467.814V463.153H99.7797V468.179C99.9243 469.907 99.1188 470.72 97.377 470.616L97.3701 470.63ZM96.5784 468.344C96.9432 468.344 97.1842 468.275 97.3081 468.131C97.4321 467.986 97.5009 467.725 97.5216 467.339V463.167H92.9226C92.5577 463.167 92.3167 463.236 92.1928 463.367C92.0689 463.497 92 463.745 91.9794 464.11V467.339C91.9794 467.725 92.0414 467.986 92.179 468.117C92.3167 468.248 92.5577 468.324 92.9226 468.344H96.5784ZM104.923 463.167V467.064C104.923 467.656 105.239 467.966 105.866 468.007H108.881C109.205 468.007 109.439 467.931 109.584 467.78C109.728 467.628 109.804 467.387 109.824 467.064V464.11C109.824 463.504 109.508 463.188 108.881 463.167H104.923Z" fill="white"/>
<path d="M71.8003 403.029H51.9174C50.9673 403.029 50.4854 402.623 50.4854 401.811C50.4854 400.998 50.9604 400.654 51.9174 400.654H65.7693C64.5921 400.145 63.6971 399.697 63.0774 399.298C62.4578 398.899 62.148 398.582 62.148 398.341C62.148 397.997 62.2306 397.735 62.389 397.563C62.5542 397.391 62.7607 397.301 63.0292 397.301C63.2702 397.301 63.5594 397.37 63.8829 397.515C64.2065 397.659 64.6885 397.9 65.315 398.244C66.389 398.85 68.2203 399.608 70.7952 400.496C73.1291 401.308 75.16 401.873 76.8881 402.203C77.7418 402.368 78.1687 402.775 78.1687 403.422C78.1687 404.234 77.7693 404.64 76.9845 404.64C76.4337 404.64 74.7125 404.103 71.8072 403.029H71.8003ZM51.7659 425.136C50.9742 425.136 50.5817 424.709 50.5817 423.855C50.5817 422.492 50.7745 420.95 51.16 419.229C51.5249 417.584 52.0413 416.062 52.716 414.664C51.2358 411.071 50.4922 407.952 50.4922 405.315C50.4922 404.544 50.8502 404.158 51.5594 404.158C52.1652 404.158 52.5163 404.826 52.5921 406.169C52.7366 408.055 53.1841 410.238 53.9346 412.716C54.6643 411.621 55.5456 410.706 56.5852 409.976C55.1256 407.945 54.3959 406.513 54.3959 405.68C54.3959 405.088 54.7125 404.799 55.339 404.799C55.7246 404.799 56.1101 405.267 56.4957 406.196C57.3494 408.227 58.4922 409.88 59.938 411.16C59.938 410.713 60.0688 410.368 60.3304 410.127C60.5921 409.886 60.9363 409.763 61.3631 409.763H63.1876C63.8554 409.763 64.1927 410.107 64.1927 410.795C64.1927 411.484 63.8554 411.8 63.1876 411.8H61.969C61.6041 411.8 61.4182 411.986 61.4182 412.351V415.518C61.4182 416.269 61.4664 416.723 61.5697 416.888C61.6523 417.033 61.8864 417.129 62.2719 417.191C62.8227 417.253 63.0912 417.528 63.0912 418.017C63.0912 418.341 63.0017 418.582 62.8158 418.747C62.6299 418.912 62.3821 418.988 62.0516 418.988C60.895 418.988 60.2272 418.541 60.0413 417.646C59.9174 417.095 59.8554 415.704 59.8554 413.473L58.7263 412.468V420.413C58.7263 421.446 58.389 421.962 57.7211 421.962C57.4182 421.962 56.8261 421.425 55.9518 420.351C55.222 419.456 54.5129 418.389 53.8175 417.157C53.2461 419.022 52.9225 421.102 52.8399 423.401C52.7986 424.558 52.4337 425.136 51.7452 425.136H51.7659ZM54.747 414.905C55.1119 415.656 55.5387 416.441 56.0275 417.253C56.537 418.086 56.8468 418.499 56.9707 418.499C57.074 418.499 57.1222 418.43 57.1222 418.286V411.711C56.1859 412.627 55.3941 413.694 54.747 414.905V414.905ZM63.6213 407.518C63.7728 407.649 63.8485 407.814 63.8485 408.021C63.8485 408.613 63.5938 408.902 63.0843 408.902C62.9191 408.902 62.5542 408.792 61.9897 408.565C61.907 408.544 61.6523 408.461 61.2255 408.324C60.6334 408.117 60.1928 407.897 59.8829 407.656C59.5731 407.415 59.4286 407.16 59.4286 406.892C59.4286 406.265 59.7315 405.948 60.3442 405.948C60.5232 405.948 60.9501 406.162 61.6248 406.589L62.9053 407.105C63.2289 407.25 63.4699 407.38 63.6213 407.518V407.518ZM62.6643 421.632C61.6661 422.238 61.0533 422.547 60.8055 422.547C60.5232 422.547 60.296 422.458 60.1377 422.272C59.9724 422.086 59.8967 421.838 59.8967 421.508C59.8967 421.122 60.2547 420.757 60.9638 420.413L63.1256 419.284C63.4905 419.263 63.7521 419.318 63.9036 419.449C64.0551 419.58 64.1308 419.8 64.1308 420.103C64.1308 420.489 63.642 420.998 62.6712 421.625L62.6643 421.632ZM73.8726 412.317L75.1187 412.654V406.444C75.1187 406.059 75.1945 405.783 75.3459 405.618C75.4974 405.453 75.7384 405.377 76.0619 405.377C76.6678 405.377 76.9776 405.735 76.9776 406.444V423.222C76.9776 423.931 76.6747 424.289 76.0619 424.289C75.7384 424.289 75.4974 424.207 75.3459 424.048C75.1945 423.883 75.1187 423.615 75.1187 423.229V415.009L73.8726 414.403V419.429C73.8726 421.053 73.1015 421.866 71.5594 421.866H66.1067V422.506C66.1067 423.924 65.3976 424.64 63.9724 424.64H62.6643C62.2995 424.64 62.0172 424.551 61.8107 424.365C61.6041 424.179 61.5077 423.917 61.5077 423.573C61.5077 422.885 61.8933 422.541 62.6643 422.541H63.6076C64.179 422.541 64.4681 422.238 64.4888 421.625V407.098C64.4888 406.795 64.4199 406.575 64.2754 406.444C64.1308 406.313 63.9105 406.238 63.6076 406.217H62.6024C61.8313 406.217 61.4458 405.873 61.4458 405.184C61.4458 404.496 61.8313 404.179 62.6024 404.179H63.9105C65.37 404.179 66.0998 404.902 66.0998 406.341V407.009H71.5525C73.0946 407.009 73.8657 407.814 73.8657 409.411V412.337L73.8726 412.317ZM63.7659 415.484C63.5043 415.931 63.2151 416.152 62.9122 416.152C62.3408 416.152 62.0585 415.869 62.0585 415.298C62.0585 415.174 62.2582 414.802 62.6643 414.169C62.8296 413.907 62.9879 413.694 63.1532 413.542C63.3184 413.391 63.4354 413.315 63.5181 413.315C64.0482 413.315 64.3098 413.618 64.3098 414.231C64.3098 414.492 64.1308 414.912 63.759 415.477L63.7659 415.484ZM66.1136 419.47H67.3322V409.363H66.1136V419.47ZM68.6747 419.47H69.8588V409.363H68.6747V419.47ZM72.2685 418.74V410.093C72.2685 409.831 72.2134 409.639 72.1033 409.528C71.9931 409.418 71.8141 409.363 71.5731 409.363H71.2082V419.47H71.5731C72.0413 419.47 72.2754 419.229 72.2754 418.74H72.2685Z" fill="white"/>
<path d="M55.0499 449.646C53.0396 449.646 51.8417 448.957 51.4561 447.573C51.1739 446.616 51.0293 444.902 51.0293 442.424C51.0293 439.422 51.1945 437.604 51.5181 436.971C51.821 436.337 52.358 435.993 53.1291 435.938H57.1154C58.1067 435.938 58.6093 436.351 58.6093 437.184C58.6093 438.017 58.1136 438.43 57.1154 438.43H54.2513C53.6592 438.43 53.3701 439.436 53.3701 441.446C53.3701 443.986 53.432 445.473 53.556 445.921C53.7212 446.485 54.3202 446.837 55.3529 446.954C56.124 447.036 56.5095 447.484 56.5095 448.296C56.5095 449.191 56.0207 449.639 55.0499 449.639V449.646ZM56.9983 433.384C56.4062 433.384 55.0155 432.874 52.8262 431.862C51.7728 431.374 51.2427 430.857 51.2427 430.313C51.2427 429.418 51.587 428.971 52.2754 428.971C52.6403 428.971 53.5215 429.336 54.926 430.066C55.4355 430.348 56.1859 430.644 57.1773 430.947C57.8245 431.146 58.1549 431.539 58.1549 432.103C58.1549 432.957 57.7694 433.384 56.9983 433.384V433.384ZM55.9932 454.121C54.5129 455.277 53.5147 455.856 53.0121 455.856C52.179 455.856 51.766 455.408 51.766 454.513C51.766 454.107 52.358 453.487 53.5353 452.654L56 451.009C56.241 450.843 56.4751 450.706 56.6885 450.582C56.9019 450.458 57.0603 450.403 57.1635 450.403C57.8933 450.403 58.2582 450.816 58.2582 451.649C58.2582 452.096 57.5078 452.916 56.0069 454.114L55.9932 454.121ZM56.1171 442.396L57.4252 441.239C57.6661 441.04 57.9346 440.936 58.2169 440.936C58.8847 440.936 59.2221 441.336 59.2221 442.127C59.2221 442.451 58.8641 443.002 58.1549 443.773C57.4252 444.565 56.8468 444.957 56.42 444.957C55.6076 444.957 55.2014 444.53 55.2014 443.677C55.2014 443.353 55.5043 442.926 56.1171 442.396V442.396ZM75.0568 456.131C74.389 456.131 74.0517 455.745 74.0517 454.974V443.346H72.5577V451.174C72.5577 452.11 72.3512 452.785 71.9312 453.198C71.5181 453.611 70.8503 453.804 69.9346 453.763H66.0654C65.1291 453.763 64.4475 453.556 64.0069 453.136C63.5732 452.723 63.3735 452.069 63.4148 451.174V443.284H61.5904L61.6524 449.529C61.9966 449.081 62.272 448.861 62.4716 448.861C63.0431 448.861 63.3253 449.219 63.3253 449.928C63.3253 450.313 62.7677 451.36 61.6524 453.067C60.5577 454.754 59.7935 455.594 59.3666 455.594C59.0018 455.594 58.7333 455.498 58.5611 455.305C58.389 455.112 58.2995 454.816 58.2995 454.41C58.2995 454.169 58.8159 453.384 59.8555 452.062L60.0413 451.821L60.0138 451.429L59.4975 435.807L59.3735 430.389C59.3529 429.473 59.6971 429.019 60.4062 429.019C61.1773 429.019 61.5629 429.646 61.5629 430.905V440.923H63.4217V433.646C63.4217 432.689 63.6351 432 64.062 431.573C64.4888 431.146 65.1567 430.967 66.0723 431.022H69.9415C70.8985 431.022 71.587 431.222 72.0138 431.628C72.4407 432.035 72.6197 432.702 72.5646 433.639V440.916H74.0586V429.866C74.0586 429.46 74.1412 429.164 74.2995 428.985C74.4579 428.806 74.7126 428.709 75.0637 428.709C75.7315 428.709 76.0689 429.095 76.0689 429.866V440.916H77.1635C77.8727 440.916 78.2307 441.308 78.2307 442.1C78.2307 442.933 77.8727 443.346 77.1635 443.346H76.0689V454.974C76.0689 455.745 75.7315 456.131 75.0637 456.131H75.0568ZM67.2014 440.909V433.508H66.3477C65.6799 433.508 65.3357 433.852 65.315 434.541V440.902H67.2014V440.909ZM67.2014 451.291V443.284H65.315V450.258C65.315 450.905 65.6592 451.257 66.3477 451.291H67.2014ZM70.7057 440.909V434.547C70.7057 433.9 70.3477 433.549 69.6386 433.515H68.8469V440.916H70.7057V440.909ZM70.7057 450.258V443.284H68.8469V451.291H69.6386C70.3064 451.291 70.6644 450.947 70.7057 450.258Z" fill="white"/>
<path d="M59.408 487.497C58.4923 487.497 58.038 487.071 58.038 486.217C58.038 485.914 58.2032 485.453 58.5405 484.833C58.8779 484.213 59.4011 483.367 60.1102 482.293C61.4527 480.262 63.1533 478.52 65.2256 477.053V469.501C64.6197 469.115 64.0552 468.695 63.5526 468.234C63.0431 467.78 62.3684 467.112 61.5147 466.238C61.556 466.382 61.5767 466.651 61.5767 467.057V478.568C61.5767 480.537 60.7436 481.522 59.0775 481.522C58.0861 481.522 56.7505 481.391 55.0913 481.122C53.3219 480.84 52.1447 480.31 51.5595 479.539C50.9536 478.706 50.6438 477.384 50.6438 475.58C50.6438 474.465 51.112 473.907 52.0483 473.907C52.902 473.907 53.3288 474.272 53.3288 475.002L53.3013 476.399C53.3013 477.129 53.5216 477.68 53.9691 478.045C54.3753 478.368 55.5113 478.616 57.377 478.775L58.5336 478.864C59.0638 478.905 59.3254 478.582 59.3254 477.886V472.069C57.1705 471.725 55.6214 471.236 54.6645 470.609C53.4872 469.818 52.5302 468.647 51.8004 467.105C51.05 465.522 50.6713 464.2 50.6713 463.146C50.6713 462.293 51.1188 461.866 52.0139 461.866C52.6059 461.866 52.9777 462.265 53.1429 463.05C53.6318 465.811 54.6369 467.649 56.1584 468.565C56.7849 468.95 57.8452 469.253 59.3254 469.48V466.802C59.3254 466.375 59.4149 466.038 59.6008 465.783C59.7867 465.528 60.0345 465.404 60.365 465.404C60.544 465.404 60.6817 465.411 60.7574 465.432C59.7247 464.358 58.9467 463.422 58.4304 462.63C57.914 461.838 57.6524 461.239 57.6524 460.833C57.6524 460.427 57.7557 460.117 57.9691 459.904C58.1825 459.69 58.4717 459.587 58.8366 459.587C59.408 459.587 59.8899 459.931 60.2961 460.62C61.0466 461.941 61.7832 463.022 62.5061 463.876C63.229 464.73 64.1378 465.583 65.2324 466.437V461.232C65.2324 460.337 65.5973 459.89 66.3271 459.89C67.0569 459.89 67.4562 460.337 67.4562 461.232V468.083C68.4682 468.73 69.4734 469.26 70.4717 469.666V462.692C70.4717 461.776 70.8435 461.322 71.6008 461.322C72.3581 461.322 72.7299 461.776 72.7299 462.692V470.423C73.7832 470.726 75.0775 471.022 76.5991 471.305C77.6524 471.504 78.1825 472.014 78.1825 472.826C78.1825 473.639 77.8176 473.983 77.0879 473.983C76.3581 473.983 74.9261 473.645 72.7299 472.978V484.399C72.7299 485.315 72.3512 485.769 71.6008 485.769C70.8503 485.769 70.4717 485.315 70.4717 484.399V476.998C69.1292 477.487 68.124 477.914 67.4562 478.279V485.831C67.4562 486.768 67.0775 487.236 66.3271 487.236C65.5767 487.236 65.2324 486.768 65.2324 485.831V479.862C63.408 481.425 61.9553 483.504 60.8813 486.107C60.4958 487.022 60.007 487.477 59.4218 487.477L59.408 487.497ZM67.4493 470.843V475.835C68.2617 475.449 69.2669 475.071 70.4648 474.706V472.241C69.4321 471.855 68.4269 471.387 67.4493 470.837V470.843ZM74.2996 478.361C74.5612 478.361 74.9467 478.506 75.4562 478.788L76.8607 479.608C77.4665 479.952 77.7763 480.406 77.7763 480.978C77.7763 481.873 77.3701 482.32 76.5577 482.32C76.2548 482.32 75.6214 482.003 74.6713 481.377C73.6937 480.744 73.2118 480.158 73.2118 479.608C73.2118 478.775 73.5767 478.361 74.3065 478.361H74.2996ZM75.7591 463.718C76.1034 463.456 76.3994 463.325 76.6404 463.325C77.3288 463.325 77.6731 463.759 77.6731 464.633C77.6731 465.122 77.3701 465.59 76.7574 466.038C76.3305 466.341 75.8142 466.699 75.2015 467.105C74.8779 467.346 74.5405 467.47 74.1963 467.47C73.914 467.47 73.6799 467.367 73.4941 467.153C73.3082 466.94 73.2187 466.609 73.2187 466.162C73.2187 465.652 73.5354 465.205 74.1619 464.819L75.7453 463.725L75.7591 463.718Z" fill="white"/>
<path d="M199.484 78.4854H187.284C184.31 76.9501 182.272 73.852 182.272 70.2719V70.1824C182.272 67.4699 183.442 65.0327 185.308 63.346H199.484V7.57315H197.528C195.697 3.13253 191.332 0 186.231 0C181.129 0 176.757 3.13253 174.933 7.57315H169.652C167.821 3.13253 163.456 0 158.355 0C153.253 0 148.881 3.13253 147.057 7.57315H141.088C139.256 3.13253 134.892 0 129.79 0C124.688 0 120.317 3.13253 118.492 7.57315H112.179C110.348 3.13253 105.983 0 100.881 0C95.7797 0 91.4079 3.13253 89.5835 7.57315H83.9587C82.1274 3.13253 77.7625 0 72.6609 0C67.5594 0 63.1876 3.13253 61.3632 7.57315H55.7384C53.9071 3.13253 49.5422 0 44.4406 0C39.3391 0 34.9673 3.13253 33.1429 7.57315H26.8296C24.9639 3.13253 20.5921 0 15.4905 0C10.389 0 6.01721 3.13253 4.19277 7.57315H0.516351V63.3391H16.0207C18.1136 65.0327 19.4492 67.6213 19.4492 70.5198V70.6093C19.4492 73.9415 17.6799 76.8537 15.0361 78.4785H0.516351L0 279.738C1.4389 279.532 2.80207 279.077 4.03442 278.416C5.14974 275.972 7.03614 273.962 9.39759 272.695C9.40447 272.675 9.41824 272.654 9.42513 272.633H9.52151C11.2083 271.759 13.1153 271.256 15.1463 271.256C20.2892 271.256 24.6747 274.43 26.4854 278.926C27.2702 279.084 28.0826 279.174 28.9157 279.174C30.3133 279.174 31.6558 278.933 32.9088 278.499C34.8158 274.231 39.0912 271.256 44.062 271.256C49.0327 271.256 53.5904 274.43 55.401 278.926C56.1859 279.084 56.9983 279.174 57.8313 279.174C58.9329 279.174 60 279.022 61.0189 278.747C62.8709 274.348 67.2151 271.256 72.2892 271.256C77.3632 271.256 81.8176 274.43 83.6282 278.926C84.4131 279.084 85.2255 279.174 86.0585 279.174C87.1601 279.174 88.2272 279.022 89.2461 278.747C91.0981 274.348 95.4423 271.256 100.516 271.256C105.59 271.256 110.045 274.43 111.855 278.926C112.64 279.084 113.453 279.174 114.286 279.174C115.683 279.174 117.026 278.933 118.279 278.499C120.186 274.231 124.461 271.256 129.432 271.256C134.403 271.256 138.96 274.43 140.771 278.926C141.556 279.084 142.368 279.174 143.201 279.174C144.448 279.174 145.652 278.981 146.788 278.63C148.661 274.293 152.978 271.256 158.003 271.256C163.029 271.256 167.532 274.43 169.343 278.926C170.127 279.084 170.94 279.174 171.773 279.174C172.744 279.174 173.68 279.057 174.582 278.843C176.406 274.396 180.778 271.256 185.886 271.256C190.995 271.256 195.415 274.43 197.225 278.926C198.01 279.084 198.823 279.174 199.656 279.174C199.773 279.174 199.883 279.16 200 279.153L199.484 78.4854Z" fill="#23288E"/>
<path d="M177.859 24.0964H19.0498V54.389H177.859V24.0964Z" stroke="white" stroke-width="3" stroke-miterlimit="10"/>
<path d="M177.859 96.3856H19.0498V249.914H177.859V96.3856Z" stroke="white" stroke-width="3" stroke-miterlimit="10"/>
<path d="M50.4991 47.697C49.2323 47.0086 48.2409 46.0241 47.5249 44.7366C46.8089 43.4492 46.4578 41.9621 46.4578 40.2685C46.4578 38.5748 46.8158 37.0671 47.5387 35.7797C48.2409 34.5129 49.2185 33.5284 50.4646 32.8399C51.7108 32.1514 53.1221 31.8072 54.7056 31.8072C55.7383 31.8072 56.6746 31.9242 57.5008 32.1583C58.3338 32.3924 59.1875 32.7642 60.0619 33.2599C60.4199 33.432 60.6058 33.7349 60.6058 34.1755C60.6058 34.4096 60.5163 34.623 60.3373 34.8089C60.1583 34.9948 59.9242 35.0912 59.6419 35.0912C59.4698 35.0912 59.3252 35.0636 59.222 34.9948C58.4991 34.6161 57.8106 34.3408 57.1566 34.1617C56.4956 33.9827 55.7521 33.8932 54.9259 33.8932C53.5765 33.8932 52.4406 34.1686 51.518 34.7194C50.5955 35.2702 49.8863 36.0137 49.3906 36.9638C48.8949 37.9139 48.6471 39.0155 48.6471 40.2685C48.6471 41.5215 48.8881 42.6093 49.3769 43.5387C49.8657 44.5232 50.5817 45.2874 51.5387 45.8313C52.4956 46.3752 53.6247 46.6437 54.9259 46.6437C55.759 46.6437 56.5025 46.5542 57.1566 46.3752C57.8106 46.1962 58.506 45.9139 59.222 45.5421C59.3321 45.4802 59.4698 45.4457 59.6419 45.4457C59.9242 45.4457 60.1583 45.5352 60.3373 45.7142C60.5163 45.8932 60.6058 46.1136 60.6058 46.3614C60.6058 46.7814 60.4268 47.0912 60.0619 47.2771C59.1875 47.7796 58.3338 48.1445 57.5008 48.3786C56.6677 48.6127 55.7383 48.7297 54.7056 48.7297C53.1359 48.7297 51.7383 48.3855 50.4991 47.697Z" fill="white"/>
<path d="M66.2514 47.6488C65.0259 46.9259 64.0759 45.9277 63.3943 44.654C62.7127 43.3803 62.3547 41.9139 62.3271 40.2685C62.3547 38.623 62.7127 37.1635 63.3874 35.8967C64.0621 34.6093 65.0259 33.611 66.279 32.8881C67.532 32.1652 68.9709 31.8072 70.6025 31.8072C72.2342 31.8072 73.6938 32.1652 74.9537 32.8881C76.1791 33.611 77.1292 34.6093 77.8108 35.8967C78.4924 37.1841 78.8504 38.6368 78.8779 40.2685C78.8435 41.9001 78.4924 43.3459 77.8177 44.6196C77.1292 45.9208 76.1585 46.9328 74.9123 47.6488C73.6662 48.3717 72.2273 48.7297 70.6025 48.7297C68.9778 48.7297 67.5044 48.3717 66.2514 47.6488V47.6488ZM73.8452 45.8382C74.754 45.2874 75.4562 44.5301 75.9519 43.5731C76.4476 42.6161 76.6955 41.5077 76.6955 40.2685C76.6955 39.0292 76.4545 37.9483 75.9657 36.9776C75.4631 35.9931 74.754 35.222 73.8246 34.6712C72.8951 34.1204 71.828 33.8451 70.6025 33.8451C69.3771 33.8451 68.2549 34.1273 67.3598 34.6919C66.4511 35.2426 65.7488 35.9931 65.2531 36.9569C64.7574 37.9208 64.5096 39.0223 64.5096 40.2616C64.5096 41.5008 64.7506 42.5817 65.2394 43.5525C65.742 44.5576 66.4511 45.3287 67.3667 45.8657C68.2824 46.4096 69.3633 46.6781 70.5957 46.6781C71.828 46.6781 72.9433 46.3958 73.8383 45.8313L73.8452 45.8382Z" fill="white"/>
<path d="M85.8313 48.0275C84.7504 47.5387 83.8898 46.802 83.2495 45.8175C82.6092 44.833 82.2856 43.6626 82.2856 42.3132V33.0258C82.2856 32.7297 82.3889 32.4681 82.6023 32.2478C82.8158 32.0275 83.0705 31.9173 83.3665 31.9173C83.6626 31.9173 83.9242 32.0275 84.1445 32.2478C84.3648 32.4681 84.475 32.7229 84.475 33.0258V42.3821C84.475 43.339 84.6953 44.1308 85.1359 44.7573C85.5421 45.3976 86.0929 45.8864 86.7951 46.2237C87.4905 46.5611 88.2478 46.7263 89.0602 46.7263C89.8726 46.7263 90.6092 46.5611 91.3183 46.2306C92.055 45.8864 92.6264 45.3838 93.0326 44.716C93.4388 44.0482 93.6454 43.2702 93.6454 42.3752V33.0189C93.6454 32.7229 93.7486 32.4612 93.9621 32.2409C94.1755 32.0206 94.4302 31.9105 94.7263 31.9105C95.0223 31.9105 95.2839 32.0206 95.5042 32.2409C95.7245 32.4612 95.8347 32.716 95.8347 33.0189V42.3063C95.8347 43.6833 95.5042 44.8674 94.8502 45.8588C94.2099 46.802 93.37 47.5112 92.3442 48C91.3184 48.4888 90.2237 48.7297 89.0671 48.7297C87.9104 48.7297 86.864 48.4957 85.845 48.0275H85.8313Z" fill="white"/>
<path d="M100.53 48.2961C100.317 48.0826 100.213 47.8279 100.213 47.5319V33.1498C100.213 32.8537 100.317 32.5921 100.53 32.3718C100.744 32.1515 100.998 32.0413 101.294 32.0413H106.651C108.124 32.0413 109.336 32.2892 110.293 32.7918C111.167 33.2599 111.835 33.8795 112.275 34.6368C112.723 35.3942 112.943 36.2754 112.943 37.2806C112.943 38.2031 112.737 39.0499 112.33 39.821C111.91 40.6541 111.215 41.3081 110.251 41.7969C109.287 42.2857 108.083 42.5267 106.644 42.5267H102.389V47.5319C102.389 47.8279 102.279 48.0826 102.058 48.2961C101.838 48.5095 101.583 48.6127 101.281 48.6127C100.978 48.6127 100.73 48.5095 100.516 48.2961H100.53ZM109.673 39.6489C110.403 39.105 110.768 38.3201 110.768 37.2874C110.768 36.2547 110.403 35.463 109.673 34.926C108.943 34.3821 107.869 34.1136 106.444 34.1136H102.685C102.499 34.1136 102.403 34.21 102.403 34.3959V40.4613H106.444C107.869 40.4613 108.95 40.1928 109.673 39.6489Z" fill="white"/>
<path d="M118.947 47.6488C117.721 46.9259 116.771 45.9277 116.09 44.654C115.408 43.3803 115.05 41.9139 115.022 40.2685C115.05 38.623 115.408 37.1635 116.083 35.8967C116.757 34.6093 117.721 33.611 118.974 32.8881C120.227 32.1652 121.666 31.8072 123.298 31.8072C124.93 31.8072 126.389 32.1652 127.649 32.8881C128.874 33.611 129.825 34.6093 130.506 35.8967C131.188 37.1841 131.546 38.6368 131.573 40.2685C131.539 41.9001 131.188 43.3459 130.513 44.6196C129.825 45.9208 128.854 46.9328 127.608 47.6488C126.362 48.3717 124.923 48.7297 123.298 48.7297C121.673 48.7297 120.2 48.3717 118.947 47.6488V47.6488ZM126.541 45.8382C127.449 45.2874 128.152 44.5301 128.647 43.5731C129.143 42.6161 129.391 41.5077 129.391 40.2685C129.391 39.0292 129.15 37.9483 128.661 36.9776C128.158 35.9931 127.449 35.222 126.52 34.6712C125.59 34.1204 124.523 33.8451 123.298 33.8451C122.072 33.8451 120.95 34.1273 120.055 34.6919C119.146 35.2426 118.444 35.9931 117.948 36.9569C117.453 37.9208 117.205 39.0223 117.205 40.2616C117.205 41.5008 117.446 42.5817 117.935 43.5525C118.437 44.5576 119.146 45.3287 120.062 45.8657C120.978 46.4096 122.059 46.6781 123.291 46.6781C124.523 46.6781 125.639 46.3958 126.534 45.8313L126.541 45.8382Z" fill="white"/>
<path d="M135.408 48.296C135.195 48.0825 135.091 47.8278 135.091 47.5318V33.5008C135.091 33.0808 135.243 32.709 135.553 32.3992C135.856 32.0825 136.22 31.9311 136.647 31.9311H136.95C137.453 31.9311 137.893 32.1652 138.265 32.6333L146.94 45.1634C147.016 45.2598 147.078 45.3011 147.126 45.3011C147.16 45.3011 147.188 45.2805 147.222 45.2323C147.257 45.1841 147.27 45.129 147.27 45.0671V33.0326C147.27 32.7366 147.374 32.475 147.587 32.2547C147.8 32.0343 148.055 31.9242 148.351 31.9242C148.647 31.9242 148.909 32.0343 149.129 32.2547C149.349 32.475 149.46 32.7297 149.46 33.0326V47.0636C149.46 47.4905 149.301 47.8485 148.991 48.1583C148.675 48.4612 148.31 48.6196 147.89 48.6196H147.608C147.36 48.6196 147.119 48.5576 146.892 48.4405C146.664 48.3235 146.479 48.172 146.341 47.9793L137.618 35.3803C137.542 35.2839 137.473 35.2357 137.432 35.2357C137.398 35.2357 137.37 35.2564 137.336 35.3046C137.301 35.3528 137.288 35.4078 137.288 35.4698V47.5249C137.288 47.8209 137.177 48.0757 136.957 48.2891C136.737 48.5025 136.482 48.6058 136.179 48.6058C135.876 48.6058 135.628 48.5025 135.415 48.2891L135.408 48.296Z" fill="white"/>
<path d="M125.363 145.473H140.468C141.363 145.473 142.01 145.673 142.417 146.065C142.823 146.458 143.002 147.105 142.967 148V154.485C142.967 155.401 142.768 156.062 142.375 156.482C141.983 156.902 141.343 157.074 140.475 157.012H127.263C125.15 157.157 124.138 156.179 124.22 154.086V152.626C124.22 151.649 124.634 151.167 125.467 151.167C126.3 151.167 126.713 151.58 126.713 152.413V153.48C126.713 154.127 127.071 154.472 127.78 154.513H131.071V147.938H125.501C124.489 147.938 123.979 147.539 123.979 146.747C123.979 145.893 124.448 145.466 125.384 145.466L125.363 145.473ZM125.542 162.678C126.417 162.678 126.85 163.153 126.85 164.11V165.542C126.85 166.334 127.277 166.74 128.131 166.761H141.893C142.83 166.761 143.291 167.188 143.291 168.041C143.291 168.895 142.823 169.287 141.893 169.287H127.367C126.231 169.287 125.405 169.033 124.888 168.523C124.372 168.014 124.145 167.215 124.2 166.12V164.11C124.2 163.153 124.647 162.678 125.542 162.678V162.678ZM130.444 160.089H141.102C141.955 160.089 142.382 160.503 142.382 161.336C142.382 162.169 141.955 162.582 141.102 162.582H130.444C129.632 162.582 129.226 162.162 129.226 161.336C129.226 160.509 129.632 160.089 130.444 160.089ZM133.212 154.52H135.8V147.945H133.212V154.52ZM139.725 154.52C140.317 154.52 140.627 154.217 140.668 153.604V148.854C140.668 148.282 140.351 147.979 139.725 147.938H137.99V154.513H139.725V154.52ZM146.334 143.649C147.146 143.649 147.553 144.138 147.553 145.108V150.988L149.198 150.258L149.866 149.955C150.417 149.714 150.72 149.59 150.782 149.59C151.429 149.59 151.759 150.024 151.759 150.898C151.759 151.628 151.112 152.282 149.811 152.847L147.56 153.824V160.647L150.754 161.838C151.463 162.1 151.821 162.602 151.821 163.332C151.821 164.289 151.436 164.764 150.665 164.764C150.238 164.764 149.535 164.489 148.565 163.938L147.56 163.394V170.003C147.56 170.995 147.153 171.497 146.341 171.497C145.529 171.497 145.122 171.002 145.122 170.003V145.129C145.122 144.151 145.529 143.669 146.341 143.669L146.334 143.649Z" fill="white"/>
<path d="M139.188 193.7C138.499 193.439 137.577 192.991 136.42 192.358V199.208C136.42 200.854 135.601 201.673 133.955 201.673H126.74C125.053 201.673 124.2 200.854 124.179 199.208V198.293C124.179 197.501 124.565 197.108 125.336 197.108C126.107 197.108 126.527 197.494 126.527 198.265V198.719C126.527 199.167 126.768 199.408 127.257 199.449H133.315C133.921 199.449 134.231 199.132 134.231 198.506V196.62H126.162C125.329 196.62 124.916 196.275 124.916 195.587C124.916 195.222 125.019 194.96 125.219 194.795C125.418 194.63 125.735 194.554 126.162 194.554H134.231V192.206H125.859C125.026 192.206 124.613 191.862 124.613 191.174C124.613 190.485 125.033 190.141 125.859 190.141H134.231V188.833C134.231 188.241 133.928 187.931 133.315 187.89H125.308C124.496 187.89 124.09 187.532 124.09 186.823C124.09 186.114 124.496 185.728 125.308 185.728H134.017C135.621 185.728 136.42 186.52 136.42 188.103V190.114L138.974 191.146L139.188 191.208V186.334C139.188 185.418 139.553 184.964 140.282 184.964C141.012 184.964 141.411 185.418 141.411 186.334V201.287C141.411 202.203 141.033 202.657 140.282 202.657C139.532 202.657 139.188 202.203 139.188 201.287V193.707V193.7ZM131.67 184.867C131.442 185.033 131.133 185.108 130.726 185.108C130.258 185.108 129.935 184.792 129.749 184.165L127.952 176.764L127.828 176.034C127.766 175.628 127.856 175.325 128.09 175.119C128.324 174.919 128.661 174.816 129.109 174.816C129.701 174.816 130.086 175.098 130.265 175.67L131.119 180.296L131.697 180.386L132.275 180.509L141.136 181.852C141.845 181.955 142.368 182.1 142.706 182.293C143.043 182.485 143.208 182.74 143.208 183.071C143.208 183.862 142.892 184.255 142.265 184.255L131.546 182.217L131.911 184.165C131.973 184.468 131.89 184.702 131.67 184.867ZM137.763 178.719L133.893 179.084C133.205 179.146 132.861 178.768 132.861 177.955C132.861 177.363 133.102 177.04 133.59 176.978L140.895 176.124L141.687 176.062C142.272 176.021 142.568 176.379 142.568 177.129C142.568 177.618 142.245 177.941 141.59 178.107C140.819 178.293 139.539 178.492 137.756 178.713L137.763 178.719ZM144.145 186.651C144.516 186.251 145.122 186.079 145.955 186.114H149.088C150.024 186.114 150.492 186.492 150.492 187.243C150.492 187.993 150.024 188.372 149.088 188.372H146.651C146.059 188.372 145.749 188.688 145.707 189.315V192.42H150.547C151.38 192.42 151.794 192.792 151.794 193.549C151.794 194.306 151.38 194.678 150.547 194.678H145.707V197.783C145.707 198.41 146.024 198.726 146.651 198.726H149.053C150.01 198.726 150.485 199.126 150.485 199.917C150.485 200.709 150.01 201.074 149.053 201.074H145.948C145.095 201.074 144.475 200.881 144.09 200.496C143.704 200.11 143.532 199.497 143.573 198.671V188.53C143.573 187.676 143.759 187.057 144.138 186.657L144.145 186.651ZM145.288 174.912C146.038 174.912 146.417 175.311 146.417 176.096V179.084H150.286C151.181 179.084 151.628 179.491 151.628 180.303C151.628 181.115 151.181 181.487 150.286 181.487H146.417V184.076C146.417 184.909 146.031 185.322 145.26 185.322C144.489 185.322 144.131 184.902 144.131 184.076V176.096C144.131 175.305 144.516 174.912 145.288 174.912Z" fill="white"/>
<path d="M88.1308 138.01C88.7642 138.01 89.2393 138.609 89.5629 139.807C90.1343 141.859 90.8503 143.532 91.7246 144.833H91.7866C92.6197 144.021 93.5629 143.318 94.6162 142.733C95.2014 142.389 95.6902 142.134 96.0758 141.969C96.4613 141.804 96.7987 141.728 97.0809 141.728C97.6661 141.728 97.9622 142.155 97.9622 143.009C97.9622 143.539 97.5353 143.945 96.6816 144.227C95.1601 144.998 94.0035 145.831 93.2117 146.726V146.788C93.9828 147.683 94.988 148.585 96.2272 149.501C96.7574 149.907 97.2186 150.244 97.6111 150.506C98.0035 150.768 98.2651 150.905 98.389 150.905C98.6713 150.905 98.8159 150.713 98.8159 150.327V140.737C98.8159 140.289 98.9123 139.945 99.105 139.704C99.2978 139.463 99.587 139.339 99.9725 139.339C100.723 139.339 101.102 139.807 101.102 140.744V151.429C101.102 153.198 100.544 154.079 99.4286 154.079C98.8228 154.079 97.6455 153.473 95.8968 152.255C94.1136 150.995 92.7505 149.831 91.8141 148.75H91.7246C90.8916 150.189 90.1687 152.172 89.5629 154.685C89.377 155.456 88.9639 155.842 88.3167 155.842C87.3804 155.842 86.9191 155.415 86.9191 154.561C86.9191 153.645 87.2358 152.441 87.8623 150.94C88.5508 149.356 89.315 147.959 90.1481 146.74V146.678C89.2737 145.336 88.5233 143.924 87.8968 142.444C87.229 140.902 86.8916 139.807 86.8916 139.153C86.8916 138.403 87.3116 138.024 88.1377 138.024L88.1308 138.01ZM88.3718 129.79C88.778 129.363 89.3839 129.15 90.1962 129.15H94.3959C96.0413 129.15 96.8606 129.99 96.8606 131.676V135.298C96.8606 137.005 96.0413 137.859 94.3959 137.859H90.2582C89.4458 137.859 88.8262 137.639 88.3993 137.205C87.9725 136.771 87.7591 136.131 87.7591 135.305V131.683C87.7591 130.85 87.9587 130.224 88.3649 129.797L88.3718 129.79ZM90.6575 135.484H94.0104C94.4992 135.484 94.7401 135.243 94.7401 134.754V132.255C94.7401 131.745 94.4992 131.491 94.0104 131.491H90.6575C90.1481 131.491 89.8933 131.745 89.8933 132.255V134.754C89.8933 135.243 90.1481 135.484 90.6575 135.484ZM99.7935 129.212C100.523 129.212 100.888 129.645 100.888 130.52V136.516C100.888 137.411 100.509 137.859 99.7591 137.859C99.3942 137.859 99.1188 137.742 98.9398 137.508C98.7608 137.274 98.6644 136.943 98.6644 136.516V130.582C98.6644 129.666 99.0362 129.212 99.7935 129.212ZM103.263 139.112C103.628 139.112 103.952 139.298 104.241 139.663C104.888 140.537 105.639 141.081 106.492 141.308C107.243 141.508 108.799 141.611 111.153 141.611C112.613 141.611 113.343 142.403 113.343 143.986V148.399C113.343 149.962 112.578 150.747 111.057 150.747H105.942C105.336 150.747 105.026 151.112 105.026 151.842C105.026 152.248 105.053 152.544 105.102 152.723C105.15 152.902 105.239 153.026 105.363 153.088C105.687 153.253 106.279 153.342 107.133 153.363C108.069 153.404 108.537 153.769 108.537 154.458C108.537 155.25 108.158 155.642 107.408 155.642C105.095 155.642 103.732 155.284 103.325 154.575C103.022 154.024 102.871 153.019 102.871 151.559C102.871 149.508 103.47 148.482 104.668 148.482H110.024C110.671 148.482 111.016 148.138 111.057 147.449V144.771C111.057 144.344 110.947 144.083 110.719 143.979C110.437 143.855 109.783 143.793 108.771 143.793C107.002 143.793 105.673 143.552 104.785 143.064C103.002 142.086 102.107 141.136 102.107 140.2C102.107 139.47 102.492 139.105 103.263 139.105V139.112ZM103.842 129.212C104.207 129.212 104.482 129.322 104.661 129.549C104.84 129.776 104.936 130.1 104.936 130.527V136.523C104.936 136.95 104.847 137.281 104.661 137.515C104.475 137.749 104.207 137.866 103.842 137.866C103.091 137.866 102.713 137.418 102.713 136.523V130.527C102.713 129.652 103.091 129.219 103.842 129.219V129.212ZM107.862 128.028C108.613 128.028 108.991 128.475 108.991 129.37V137.563C108.991 138.478 108.613 138.933 107.862 138.933C107.112 138.933 106.733 138.478 106.733 137.563V129.37C106.733 128.475 107.112 128.028 107.862 128.028ZM111.972 129.122C112.723 129.122 113.102 129.556 113.102 130.43V136.613C113.102 137.508 112.723 137.955 111.972 137.955C111.222 137.955 110.843 137.508 110.843 136.613V130.43C110.843 129.556 111.215 129.122 111.972 129.122Z" fill="white"/>
<path d="M103.387 186.912C102.637 186.912 102.258 186.478 102.258 185.604V180.213H88.1584C87.587 180.213 87.1808 180.11 86.926 179.91C86.6713 179.711 86.5474 179.373 86.5474 178.905C86.5474 178.437 86.6713 178.1 86.926 177.9C87.1808 177.694 87.5938 177.597 88.1584 177.597H102.258V172.454C102.258 171.559 102.644 171.112 103.415 171.112C104.186 171.112 104.571 171.559 104.571 172.454V177.597H112.702C113.253 177.597 113.659 177.701 113.921 177.914C114.182 178.127 114.32 178.458 114.32 178.905C114.32 179.353 114.196 179.704 113.942 179.91C113.687 180.11 113.274 180.213 112.709 180.213H104.578V185.604C104.578 186.478 104.179 186.912 103.394 186.912H103.387ZM94.4028 170.045H89.9553C88.3305 170.045 87.5181 169.225 87.5181 167.58V162.83C87.5181 161.184 88.3305 160.365 89.9553 160.365H94.4028C96.0276 160.365 96.84 161.184 96.84 162.83V167.58C96.84 169.225 96.0276 170.045 94.4028 170.045ZM93.8245 167.697C94.1067 167.697 94.3133 167.635 94.4303 167.518C94.5543 167.394 94.6162 167.194 94.6162 166.912V163.504C94.6162 163.243 94.5543 163.05 94.4303 162.926C94.3064 162.802 94.1067 162.733 93.8245 162.713H90.5336C90.2513 162.713 90.0448 162.775 89.9277 162.892C89.8038 163.015 89.735 163.215 89.7143 163.497V166.905C89.7143 167.167 89.7832 167.36 89.914 167.484C90.0448 167.608 90.2513 167.676 90.5405 167.697H93.8314H93.8245ZM99.7591 170.162C99.0086 170.162 98.63 169.742 98.63 168.916V161.639C98.63 160.826 99.0086 160.42 99.7591 160.42C100.509 160.42 100.888 160.826 100.888 161.639V168.916C100.888 169.749 100.509 170.162 99.7591 170.162ZM104.874 168.819C104.874 169.652 104.496 170.065 103.745 170.065C102.995 170.065 102.616 169.645 102.616 168.819V161.632C102.616 160.819 102.995 160.413 103.745 160.413C104.496 160.413 104.874 160.819 104.874 161.632V168.819ZM106.671 160.447C106.671 159.594 107.057 159.167 107.828 159.167C108.599 159.167 109.012 159.594 109.012 160.447V170.127C109.012 170.981 108.613 171.408 107.828 171.408C107.043 171.408 106.671 170.981 106.671 170.127V160.447ZM112.028 160.324C112.799 160.324 113.184 160.737 113.184 161.57V168.936C113.184 169.342 113.081 169.659 112.881 169.879C112.682 170.1 112.386 170.217 112 170.217C111.229 170.217 110.843 169.79 110.843 168.936V161.57C110.843 160.737 111.236 160.324 112.028 160.324Z" fill="white"/>
<path d="M110.141 211.153H106.272V214.506C106.272 215.442 106.065 216.11 105.645 216.516C105.225 216.923 104.544 217.122 103.587 217.122H93.4183C92.3443 217.122 91.5663 216.888 91.0912 216.42C90.6162 215.952 90.3752 215.195 90.3752 214.134V213.157C90.3752 212.241 90.8021 211.787 91.6558 211.787C92.062 211.787 92.3649 211.904 92.5715 212.138C92.7711 212.372 92.8744 212.682 92.8744 213.067V213.618C92.8744 214.045 92.957 214.334 93.1153 214.485C93.2806 214.637 93.5835 214.713 94.031 214.713H103.043C103.346 214.713 103.587 214.623 103.759 214.451C103.931 214.279 104.021 214.038 104.021 213.735V211.146H87.9105C86.9742 211.146 86.5129 210.733 86.5129 209.9C86.5129 209.067 86.9811 208.716 87.9105 208.716H104.021V206.341C104.021 205.59 103.697 205.212 103.043 205.212H91.7178C90.7401 205.212 90.2582 204.806 90.2582 203.993C90.2582 203.181 90.747 202.809 91.7178 202.809H103.594C104.544 202.809 105.232 203.009 105.652 203.415C106.065 203.821 106.279 204.489 106.279 205.425V208.716H110.148V203.449C110.148 202.637 110.52 202.231 111.277 202.231C112.034 202.231 112.406 202.637 112.406 203.449V216.633C112.406 217.446 112.028 217.852 111.277 217.852C110.892 217.852 110.609 217.749 110.423 217.549C110.238 217.349 110.148 217.04 110.148 216.633V211.153H110.141ZM96.1653 201.377H90.926C90.0517 201.377 89.4114 201.177 89.0052 200.785C88.599 200.392 88.4338 199.773 88.5164 198.94V194.003C88.5164 193.15 88.7092 192.53 89.0947 192.131C89.4802 191.732 90.0861 191.559 90.9191 191.601H108.399C109.232 191.601 109.852 191.745 110.258 192.041C110.664 192.337 110.864 192.819 110.864 193.487V194.644L113.115 195.098C113.907 195.263 114.306 195.656 114.306 196.282C114.306 197.115 113.948 197.528 113.239 197.528C112.812 197.528 112.021 197.294 110.864 196.826V198.651C110.864 199.504 110.671 200.117 110.286 200.496C109.9 200.868 109.274 201.04 108.399 200.998H103.897C103.022 200.998 102.389 200.806 101.997 200.42C101.604 200.034 101.425 199.415 101.466 198.561V193.9H98.5749V198.926C98.7195 200.654 97.914 201.466 96.1721 201.363L96.1653 201.377ZM95.3735 199.091C95.7384 199.091 95.9794 199.022 96.1033 198.878C96.2272 198.733 96.2961 198.472 96.3167 198.086V193.914H91.7178C91.3529 193.914 91.1119 193.983 90.988 194.114C90.8641 194.244 90.7952 194.492 90.7746 194.857V198.086C90.7746 198.472 90.8365 198.733 90.9742 198.864C91.1119 198.995 91.3529 199.071 91.7178 199.091H95.3735ZM103.718 193.914V197.811C103.718 198.403 104.034 198.713 104.661 198.754H107.676C108 198.754 108.234 198.678 108.379 198.527C108.523 198.375 108.599 198.134 108.62 197.811V194.857C108.62 194.251 108.303 193.935 107.676 193.914H103.718Z" fill="white"/>
<path d="M70.5955 133.776H50.7125C49.7624 133.776 49.2805 133.37 49.2805 132.558C49.2805 131.745 49.7556 131.401 50.7125 131.401H64.5645C63.3872 130.892 62.4922 130.444 61.8726 130.045C61.253 129.645 60.9432 129.329 60.9432 129.088C60.9432 128.744 61.0258 128.482 61.1841 128.31C61.3494 128.138 61.5559 128.048 61.8244 128.048C62.0654 128.048 62.3545 128.117 62.6781 128.262C63.0017 128.406 63.4836 128.647 64.1101 128.991C65.1841 129.597 67.0155 130.348 69.5903 131.243C71.9242 132.055 73.9552 132.62 75.6833 132.95C76.537 133.115 76.9638 133.521 76.9638 134.169C76.9638 134.981 76.5645 135.387 75.7797 135.387C75.2289 135.387 73.5077 134.85 70.6024 133.776H70.5955ZM50.5611 155.883C49.7693 155.883 49.3769 155.456 49.3769 154.602C49.3769 153.239 49.5697 151.697 49.9552 149.976C50.3201 148.33 50.8365 146.809 51.5112 145.411C50.0309 141.818 49.2874 138.706 49.2874 136.062C49.2874 135.291 49.6454 134.905 50.3545 134.905C50.9604 134.905 51.3115 135.573 51.3872 136.916C51.5318 138.802 51.9793 140.984 52.7297 143.463C53.4595 142.368 54.3408 141.453 55.3803 140.723C53.9208 138.692 53.191 137.26 53.191 136.427C53.191 135.835 53.5077 135.546 54.1342 135.546C54.5198 135.546 54.9053 136.014 55.2908 136.95C56.1445 138.981 57.2874 140.633 58.7332 141.914C58.7332 141.466 58.864 141.122 59.1256 140.881C59.3872 140.64 59.7315 140.516 60.1583 140.516H61.9828C62.6506 140.516 62.9879 140.861 62.9879 141.549C62.9879 142.237 62.6506 142.554 61.9828 142.554H60.7642C60.3993 142.554 60.2134 142.733 60.2134 143.098V146.265C60.2134 147.015 60.2616 147.47 60.3649 147.635C60.4475 147.78 60.6815 147.876 61.0671 147.938C61.6179 148 61.8864 148.275 61.8864 148.757C61.8864 149.081 61.7969 149.329 61.611 149.487C61.4251 149.652 61.1772 149.728 60.8468 149.728C59.6902 149.728 59.0223 149.281 58.8365 148.386C58.7125 147.835 58.6506 146.444 58.6506 144.213L57.5215 143.208V151.153C57.5215 152.186 57.1841 152.709 56.5163 152.709C56.2134 152.709 55.6213 152.172 54.747 151.098C54.0172 150.203 53.3081 149.136 52.6127 147.904C52.0413 149.769 51.7177 151.848 51.6351 154.148C51.5938 155.305 51.2289 155.883 50.5404 155.883H50.5611ZM53.5421 145.652C53.907 146.403 54.3339 147.188 54.8227 148C55.3321 148.833 55.642 149.246 55.7659 149.246C55.8692 149.246 55.9174 149.177 55.9174 149.033V142.458C54.981 143.373 54.1893 144.441 53.5421 145.652V145.652ZM62.4165 138.265C62.568 138.396 62.6437 138.568 62.6437 138.768C62.6437 139.353 62.3889 139.649 61.8795 139.649C61.7142 139.649 61.3494 139.539 60.7848 139.311C60.7022 139.291 60.4475 139.208 60.0206 139.071C59.4285 138.871 58.9879 138.644 58.6781 138.403C58.3683 138.162 58.2237 137.907 58.2237 137.639C58.2237 137.012 58.5266 136.695 59.1394 136.695C59.3184 136.695 59.7452 136.909 60.4199 137.336L61.7005 137.852C62.0241 137.997 62.265 138.134 62.4165 138.265V138.265ZM61.4595 152.379C60.4612 152.984 59.8485 153.294 59.6007 153.294C59.3184 153.294 59.0912 153.205 58.9328 153.019C58.7676 152.84 58.6919 152.585 58.6919 152.255C58.6919 151.869 59.0499 151.504 59.759 151.16L61.9208 150.031C62.2857 150.01 62.5473 150.065 62.6988 150.196C62.8502 150.327 62.926 150.547 62.926 150.85C62.926 151.236 62.4371 151.745 61.4664 152.372L61.4595 152.379ZM72.6678 143.064L73.9139 143.401V137.191C73.9139 136.805 73.9896 136.53 74.1411 136.372C74.2926 136.207 74.5335 136.131 74.8571 136.131C75.463 136.131 75.7728 136.482 75.7728 137.198V153.976C75.7728 154.685 75.4698 155.043 74.8571 155.043C74.5335 155.043 74.2926 154.96 74.1411 154.802C73.9896 154.637 73.9139 154.368 73.9139 153.983V145.762L72.6678 145.157V150.182C72.6678 151.807 71.8967 152.62 70.3545 152.62H64.9019V153.26C64.9019 154.678 64.1927 155.394 62.7676 155.394H61.4595C61.0946 155.394 60.8124 155.305 60.6058 155.119C60.3993 154.933 60.3029 154.671 60.3029 154.327C60.3029 153.639 60.6884 153.294 61.4595 153.294H62.4027C62.9741 153.294 63.2633 152.991 63.284 152.379V137.852C63.284 137.549 63.2151 137.329 63.0705 137.198C62.926 137.067 62.7056 136.991 62.4027 136.971H61.3976C60.6265 136.971 60.2409 136.626 60.2409 135.938C60.2409 135.25 60.6265 134.933 61.3976 134.933H62.7056C64.1652 134.933 64.895 135.656 64.895 137.095V137.762H70.3476C71.8898 137.762 72.6609 138.561 72.6609 140.165V143.091L72.6678 143.064ZM62.5611 146.231C62.2995 146.678 62.0103 146.898 61.7074 146.898C61.1359 146.898 60.8537 146.616 60.8537 146.045C60.8537 145.921 61.0533 145.549 61.4595 144.916C61.6247 144.654 61.7831 144.441 61.9483 144.289C62.1136 144.138 62.2306 144.062 62.3132 144.062C62.8433 144.062 63.105 144.365 63.105 144.978C63.105 145.239 62.926 145.659 62.5542 146.224L62.5611 146.231ZM64.9087 150.217H66.1273V140.11H64.9087V150.217ZM67.4698 150.217H68.654V140.11H67.4698V150.217ZM71.0636 149.487V140.84C71.0636 140.578 71.0086 140.386 70.8984 140.275C70.7883 140.165 70.6093 140.11 70.3683 140.11H70.0034V150.217H70.3683C70.8365 150.217 71.0705 149.976 71.0705 149.487H71.0636Z" fill="white"/>
<path d="M53.8451 180.399C51.8348 180.399 50.6369 179.711 50.2513 178.327C49.969 177.37 49.8245 175.656 49.8245 173.177C49.8245 170.176 49.9897 168.358 50.3133 167.725C50.6162 167.098 51.1532 166.747 51.9243 166.692H55.9105C56.9019 166.692 57.4045 167.105 57.4045 167.938C57.4045 168.771 56.9088 169.184 55.9105 169.184H53.0465C52.4544 169.184 52.1653 170.189 52.1653 172.2C52.1653 174.74 52.2272 176.227 52.3511 176.675C52.5164 177.239 53.1153 177.59 54.148 177.707C54.9191 177.79 55.3047 178.238 55.3047 179.05C55.3047 179.945 54.8159 180.392 53.8451 180.392V180.399ZM55.7935 164.138C55.2014 164.138 53.8107 163.628 51.6214 162.616C50.568 162.127 50.0379 161.611 50.0379 161.06C50.0379 160.165 50.3821 159.718 51.0706 159.718C51.4355 159.718 52.3167 160.083 53.7212 160.812C54.2307 161.095 54.9811 161.391 55.9725 161.694C56.6196 161.893 56.9501 162.279 56.9501 162.85C56.9501 163.704 56.5646 164.131 55.7935 164.131V164.138ZM54.7883 184.874C53.3081 186.031 52.3098 186.609 51.8072 186.609C50.9742 186.609 50.5611 186.162 50.5611 185.267C50.5611 184.861 51.1532 184.241 52.3305 183.408L54.7952 181.763C55.0362 181.597 55.2702 181.46 55.4837 181.336C55.6971 181.212 55.8554 181.157 55.9587 181.157C56.6885 181.157 57.0534 181.57 57.0534 182.403C57.0534 182.85 56.3029 183.67 54.8021 184.867L54.7883 184.874ZM54.9122 173.15L56.2203 171.993C56.4613 171.787 56.7298 171.69 57.0121 171.69C57.6799 171.69 58.0172 172.09 58.0172 172.874C58.0172 173.198 57.6592 173.749 56.9501 174.52C56.2203 175.312 55.642 175.704 55.2152 175.704C54.4028 175.704 53.9966 175.277 53.9966 174.423C53.9966 174.1 54.2995 173.673 54.9122 173.143V173.15ZM73.852 186.885C73.1842 186.885 72.8468 186.499 72.8468 185.728V174.1H71.3529V181.928C71.3529 182.864 71.1463 183.539 70.7264 183.952C70.3133 184.365 69.6455 184.558 68.7298 184.516H64.8606C63.9243 184.516 63.2427 184.31 62.8021 183.89C62.3684 183.477 62.1687 182.823 62.21 181.928V174.038H60.3856L60.4475 180.282C60.7918 179.835 61.0671 179.614 61.2668 179.614C61.8382 179.614 62.1205 179.972 62.1205 180.682C62.1205 181.067 61.5628 182.114 60.4475 183.821C59.3529 185.508 58.5887 186.348 58.1618 186.348C57.7969 186.348 57.5284 186.251 57.3563 186.059C57.1842 185.866 57.0947 185.57 57.0947 185.164C57.0947 184.923 57.611 184.138 58.6506 182.816L58.8365 182.575L58.809 182.182L58.2926 166.561L58.1687 161.143C58.148 160.227 58.4923 159.773 59.2014 159.773C59.9725 159.773 60.358 160.399 60.358 161.659V171.676H62.2169V164.399C62.2169 163.442 62.4303 162.754 62.8572 162.327C63.284 161.9 63.9518 161.721 64.8675 161.783H68.7367C69.6936 161.783 70.3821 161.983 70.809 162.389C71.2358 162.795 71.4148 163.463 71.3597 164.399V171.676H72.8537V160.627C72.8537 160.22 72.9363 159.924 73.0947 159.745C73.2599 159.566 73.5078 159.47 73.8589 159.47C74.5267 159.47 74.864 159.855 74.864 160.627V171.676H75.9587C76.6678 171.676 77.0258 172.076 77.0258 172.867C77.0258 173.701 76.6678 174.114 75.9587 174.114H74.864V185.742C74.864 186.513 74.5267 186.898 73.8589 186.898L73.852 186.885ZM65.9966 171.656V164.255H65.1429C64.4751 164.255 64.1308 164.599 64.1102 165.287V171.649H65.9966V171.656ZM65.9966 182.038V174.031H64.1102V181.005C64.1102 181.652 64.4544 182.003 65.1429 182.038H65.9966ZM69.5009 171.656V165.294C69.5009 164.647 69.1429 164.303 68.4338 164.262H67.642V171.663H69.5009V171.656ZM69.5009 181.005V174.031H67.642V182.038H68.4338C69.1016 182.038 69.4596 181.694 69.5009 181.005Z" fill="white"/>
<path d="M58.2032 218.244C57.2875 218.244 56.8331 217.818 56.8331 216.964C56.8331 216.661 56.9983 216.2 57.3357 215.58C57.673 214.96 58.1963 214.114 58.9054 213.04C60.2479 211.009 61.9484 209.267 64.0207 207.8V200.248C63.4149 199.862 62.8503 199.442 62.3477 198.981C61.8383 198.527 61.1636 197.859 60.3099 196.984C60.3512 197.129 60.3718 197.398 60.3718 197.804V209.315C60.3718 211.284 59.5388 212.268 57.8727 212.268C56.8813 212.268 55.5457 212.138 53.8865 211.869C52.1171 211.587 50.9398 211.057 50.3546 210.286C49.7488 209.453 49.439 208.131 49.439 206.327C49.439 205.212 49.9071 204.654 50.8434 204.654C51.6971 204.654 52.124 205.019 52.124 205.749L52.0965 207.146C52.0965 207.876 52.3168 208.427 52.7643 208.792C53.1705 209.115 54.3064 209.363 56.1722 209.521L57.3288 209.611C57.8589 209.652 58.1205 209.329 58.1205 208.633V202.816C55.9656 202.472 54.4166 201.983 53.4596 201.356C52.2823 200.565 51.3254 199.394 50.5956 197.852C49.8452 196.268 49.4665 194.947 49.4665 193.893C49.4665 193.04 49.914 192.613 50.809 192.613C51.4011 192.613 51.7729 193.012 51.9381 193.797C52.4269 196.558 53.4321 198.396 54.9536 199.311C55.5801 199.697 56.6403 200 58.1205 200.227V197.549C58.1205 197.122 58.2101 196.785 58.3959 196.53C58.5818 196.275 58.8297 196.151 59.1601 196.151C59.3391 196.151 59.4768 196.158 59.5526 196.179C58.5199 195.105 57.7419 194.169 57.2255 193.377C56.7092 192.585 56.4476 191.986 56.4476 191.58C56.4476 191.174 56.5508 190.864 56.7643 190.651C56.9777 190.437 57.2668 190.334 57.6317 190.334C58.2032 190.334 58.6851 190.678 59.0913 191.367C59.8417 192.688 60.5784 193.769 61.3013 194.623C62.0242 195.477 62.9329 196.33 64.0276 197.184V191.979C64.0276 191.084 64.3925 190.637 65.1223 190.637C65.852 190.637 66.2514 191.084 66.2514 191.979V198.83C67.2634 199.477 68.2686 200.007 69.2668 200.413V193.439C69.2668 192.523 69.6386 192.069 70.3959 192.069C71.1533 192.069 71.525 192.523 71.525 193.439V201.17C72.5784 201.473 73.8727 201.769 75.3942 202.052C76.4476 202.251 76.9777 202.761 76.9777 203.573C76.9777 204.386 76.6128 204.73 75.883 204.73C75.1533 204.73 73.7212 204.392 71.525 203.725V215.146C71.525 216.062 71.1464 216.516 70.3959 216.516C69.6455 216.516 69.2668 216.062 69.2668 215.146V207.745C67.9243 208.234 66.9192 208.661 66.2514 209.026V216.578C66.2514 217.515 65.8727 217.983 65.1223 217.983C64.3718 217.983 64.0276 217.515 64.0276 216.578V210.609C62.2032 212.172 60.7505 214.251 59.6765 216.854C59.2909 217.769 58.8021 218.224 58.2169 218.224L58.2032 218.244ZM66.2445 201.59V206.582C67.0569 206.196 68.062 205.818 69.26 205.453V202.988C68.2273 202.602 67.2221 202.134 66.2445 201.583V201.59ZM73.0947 209.108C73.3563 209.108 73.7419 209.253 74.2514 209.535L75.6558 210.355C76.2617 210.699 76.5715 211.153 76.5715 211.725C76.5715 212.62 76.1653 213.067 75.3529 213.067C75.05 213.067 74.4166 212.75 73.4665 212.124C72.4889 211.49 72.007 210.905 72.007 210.355C72.007 209.521 72.3718 209.108 73.1016 209.108H73.0947ZM74.5543 194.465C74.8985 194.203 75.1946 194.072 75.4355 194.072C76.124 194.072 76.4682 194.506 76.4682 195.38C76.4682 195.869 76.1653 196.337 75.5526 196.785C75.1257 197.088 74.6094 197.446 73.9966 197.852C73.673 198.093 73.3357 198.217 72.9915 198.217C72.7092 198.217 72.4751 198.114 72.2892 197.9C72.1033 197.687 72.0138 197.356 72.0138 196.909C72.0138 196.399 72.3305 195.952 72.957 195.566L74.5405 194.472L74.5543 194.465Z" fill="white"/>
</svg>
