<svg width="660" height="607" viewBox="0 0 660 607" fill="none" xmlns="http://www.w3.org/2000/svg">
<path d="M639.311 591.904H213.749C213.749 591.904 74.8233 -33.7718 357.067 2.36829C595.382 33.0874 639.311 591.904 639.311 591.904Z" fill="#838593"/>
<path d="M343.339 473.093C292.272 481.676 241.754 483.483 193.981 479.869C203.316 546.277 213.749 592.355 213.749 592.355H639.311C639.311 592.355 631.075 486.646 601.972 364.673C533.882 417.076 444.376 456.378 343.339 473.093Z" fill="#6C6C7C"/>
<path d="M411.429 130.214C458.653 148.736 505.328 172.678 549.806 199.783C507.524 98.1395 445.474 14.1137 357.067 2.36822C283.486 -7.11856 238.459 29.0215 212.101 87.2974C271.406 88.2009 338.397 102.205 411.429 130.214Z" fill="#6C6C7C"/>
<path d="M506.975 591.904H0.143965C0.143965 591.904 -15.7803 85.491 287.33 8.69326C544.315 -55.9072 506.975 591.904 506.975 591.904Z" fill="#B2B7C1"/>
<path d="M357.616 10.0479C519.605 77.3588 466.89 555.763 462.497 591.903H506.975C506.975 591.903 537.176 70.1308 357.616 10.0479Z" fill="#9C9EAF"/>
<path d="M555.462 500.288C556.231 535.218 546.469 545.099 546.469 545.099C533.852 506.447 538.78 404.197 538.78 404.197C524.457 432.512 514.401 508.173 514.401 508.173C514.912 457.752 491.258 381.369 491.258 381.369C499.797 412.959 485.634 500.12 485.634 500.12L475.092 455.982L471.966 511.408C460.556 475.301 446.893 354.02 446.893 354.02C434.766 441.531 447.751 541.662 447.751 541.662L405.629 441.465L422.947 558.18L385.975 522.75C385.975 522.75 399.868 539.547 415.112 592.283L561.252 592.042C576.561 544.55 555.462 500.288 555.462 500.288Z" fill="#3C3542"/>
<path d="M644.552 500.288C645.321 535.218 635.559 545.099 635.559 545.099C622.942 506.447 627.869 404.197 627.869 404.197C613.546 432.512 603.491 508.173 603.491 508.173C604.001 457.752 580.348 381.369 580.348 381.369C588.887 412.959 574.723 500.12 574.723 500.12L564.182 455.982L561.055 511.408C549.645 475.301 535.982 354.02 535.982 354.02C523.856 441.531 536.841 541.662 536.841 541.662L494.719 441.465L512.037 558.18L475.065 522.75C475.065 522.75 488.958 539.547 504.201 592.283L650.342 592.042C665.651 544.55 644.552 500.288 644.552 500.288Z" fill="#3C3542"/>
<path d="M460.233 70.9279C460.233 70.9279 466.945 62.6043 461.303 52.7392C461.303 52.7392 458.287 58.6994 452.353 57.1579L438.149 90.3498L436.009 126.727C436.009 126.727 446.029 97.4403 458.482 112.443C458.482 112.443 461.011 87.8835 478.328 102.476C478.328 102.476 493.991 76.2715 510.529 107.511C510.529 107.511 528.332 65.0705 477.744 43.4907C477.744 43.4907 486.013 62.5015 460.233 70.9279Z" fill="#26143A"/>
<path d="M439.608 65.4811C439.608 65.4811 437.371 54.7939 446.71 48.8338C446.71 48.8338 446.71 55.5132 452.742 57.1574L450.602 93.5348L436.398 126.829C436.398 126.829 440.387 96.0011 422.875 103.092C422.875 103.092 431.436 80.0731 409.742 84.4919C409.742 84.4919 407.407 53.6635 379 73.0854C379 73.0854 381.821 26.7401 436.203 32.4947C436.106 32.7003 420.443 45.4426 439.608 65.4811Z" fill="#26143A"/>
<path d="M122.544 225.04V228.388H147.312V225.04H122.544ZM122.544 235.588V238.936H147.24V235.588H122.544ZM120.888 214.564V241.06H124.272V217.984H145.62V240.952H149.184V214.564H120.888ZM133.092 207.652V237.352H136.584V207.652H133.092ZM154.908 216.94V220.468H187.2V216.94H154.908ZM163.8 224.176C161.46 229.324 157.788 234.94 154.404 238.468C155.34 239.008 157.032 240.16 157.824 240.808C161.1 236.956 164.916 230.944 167.58 225.4L163.8 224.176ZM174.24 225.472C177.48 230.296 181.764 236.776 183.672 240.592L187.236 238.612C185.112 234.796 180.684 228.532 177.48 223.924L174.24 225.472ZM167.292 208.912C168.48 211.36 169.956 214.6 170.604 216.544L174.384 215.104C173.592 213.196 172.044 210.064 170.82 207.76L167.292 208.912ZM197.64 215.86V218.884H219.024V215.86H197.64ZM197.64 222.988V225.904H218.484V222.988H197.64ZM197.064 230.224V233.176H218.628V230.224H197.064ZM195.732 215.86V225.04C195.732 229.54 195.192 235.012 190.044 238.828C190.728 239.296 191.988 240.556 192.456 241.24C198.072 237.028 199.044 230.26 199.044 225.076V215.86H195.732ZM217.224 215.86V236.956C217.224 237.64 217.008 237.856 216.216 237.892C215.388 237.928 212.508 237.928 209.772 237.82C210.276 238.72 210.888 240.196 211.068 241.096C214.704 241.096 217.116 241.06 218.628 240.52C220.104 240.016 220.608 239.008 220.608 236.992V215.86H217.224ZM206.244 217.12V231.736H209.484V217.12H206.244ZM200.7 209.668V212.512H211.896V209.668H200.7ZM200.628 207.508C198.864 211.108 195.588 215.428 190.836 218.596C191.628 219.1 192.744 220.252 193.284 221.08C198.36 217.336 201.888 212.62 204.3 208.156L200.628 207.508ZM210.708 209.668V210.316C209.952 212.152 208.26 214.996 206.784 216.688C207.504 217.084 208.548 217.768 209.196 218.272C210.924 216.436 213.048 213.484 214.344 211.036L212.04 209.524L211.464 209.668H210.708ZM226.764 231.376V234.184H259.2V231.376H226.764ZM233.604 225.148V227.632H250.092V225.148H233.604ZM241.668 230.08V237.568C241.668 238.036 241.524 238.144 240.948 238.18C240.372 238.18 238.284 238.18 236.268 238.108C236.7 238.936 237.204 240.088 237.384 240.988C240.192 240.988 242.064 240.988 243.36 240.556C244.656 240.088 245.016 239.296 245.016 237.676V230.08H241.668ZM249.264 225.148V225.724C247.644 227.128 244.404 229.036 241.668 230.08C242.1 230.476 242.892 231.304 243.252 231.844C246.528 230.584 250.164 228.676 252.756 226.732L250.776 224.968L250.056 225.148H249.264ZM227.484 220.54V227.488H230.724V223.096H255.204V227.488H258.588V220.54H227.484ZM253.404 208.912C253.224 213.052 252.864 218.488 252.396 221.872H255.672C256.068 218.596 256.428 213.16 256.644 208.912H253.404ZM247.932 208.912V211.144H254.736V208.912H247.932ZM236.736 207.868C234.864 208.48 231.732 209.38 229.608 209.74L230.832 211.648C232.992 211.324 236.052 210.748 238.212 209.884L236.736 207.868ZM231.336 212.8V214.996H237.96V212.8H231.336ZM231.48 216.652V218.884H238.104V216.652H231.48ZM248.148 212.8V214.996H254.412V212.8H248.148ZM247.932 216.652V218.884H254.16V216.652H247.932ZM244.548 207.904C243.18 209.74 240.696 211.432 238.248 212.584C238.788 212.944 239.688 213.736 240.084 214.168C242.532 212.872 245.232 210.784 246.852 208.552L244.548 207.904ZM238.932 209.668C241.272 210.784 244.116 212.548 245.484 213.844L247.176 212.296C245.7 211.036 242.856 209.308 240.552 208.264L238.932 209.668ZM244.62 213.988C243.18 215.932 240.516 217.732 237.96 218.884C238.5 219.28 239.364 220.18 239.76 220.612C242.352 219.244 245.196 217.048 246.924 214.672L244.62 213.988ZM238.788 215.752C241.236 217.012 244.188 218.956 245.592 220.36L247.32 218.776C245.844 217.372 242.82 215.536 240.444 214.384L238.788 215.752ZM229.608 209.74L230.364 221.764H233.532L232.848 210.604L229.608 209.74ZM277.74 218.524V221.476H292.392V218.524H277.74ZM274.968 224.968V228.028H295.488V224.968H274.968ZM274.86 211.972V218.704H278.028V214.96H292.032V218.704H295.272V211.972H274.86ZM279.828 226.408C279.432 232.492 278.46 236.236 271.836 238.288C272.556 238.936 273.456 240.196 273.78 241.024C281.268 238.432 282.672 233.68 283.104 226.408H279.828ZM286.164 226.336V236.596C286.164 239.62 286.812 240.592 289.62 240.592C290.16 240.592 291.96 240.592 292.536 240.592C294.876 240.592 295.704 239.296 295.956 234.472C295.092 234.256 293.76 233.752 293.112 233.212C293.04 237.1 292.86 237.676 292.176 237.676C291.816 237.676 290.448 237.676 290.16 237.676C289.476 237.676 289.404 237.532 289.404 236.56V226.336H286.164ZM281.952 208.264C282.816 209.74 283.716 211.792 284.076 213.124L287.388 211.972C286.956 210.712 286.02 208.768 285.12 207.292L281.952 208.264ZM263.664 209.092V240.952H266.688V212.152H271.98V209.092H263.664ZM271.188 209.092V210.028C270.54 212.368 269.316 216.76 268.128 220C270.468 222.7 271.044 225.148 271.044 227.02C271.044 228.1 270.828 229 270.36 229.36C270.072 229.576 269.676 229.648 269.28 229.684C268.776 229.72 268.164 229.684 267.408 229.648C267.912 230.476 268.2 231.772 268.2 232.6C269.028 232.636 269.892 232.636 270.612 232.528C271.368 232.42 272.016 232.204 272.556 231.808C273.636 231.016 274.068 229.468 274.068 227.344C274.068 225.148 273.528 222.592 271.08 219.64C272.232 216.796 273.492 213.232 274.464 210.244L272.268 208.948L271.764 209.092H271.188ZM320.76 209.344V212.296H327.42V209.344H320.76ZM312.552 210.856V213.7H319.644V210.856H312.552ZM321.12 216.22V219.064H327.276V216.22H321.12ZM320.868 222.916V225.76H326.988V222.916H320.868ZM303.084 216.148V218.992H309.168V216.148H303.084ZM303.264 222.808V225.652H309.312V222.808H303.264ZM325.512 209.344C325.548 216.112 325.26 225.328 324.864 230.728H328.032C328.428 225.4 328.608 216.256 328.644 209.344H325.512ZM308.196 207.796C306.36 208.696 303.66 209.776 301.392 210.532C301.716 211.252 302.076 212.26 302.22 212.944C304.56 212.332 307.404 211.504 309.744 210.568L308.196 207.796ZM310.896 207.904V219.748H318.24V217.048H313.812V207.904H310.896ZM298.548 229.468V232.636H331.488V229.468H298.548ZM318.204 235.048C321.912 236.812 325.908 239.224 328.32 240.88L330.552 238.288C328.068 236.668 323.856 234.4 320.076 232.672L318.204 235.048ZM308.988 232.852C306.684 234.724 302.292 237.1 298.872 238.432C299.52 239.152 300.384 240.268 300.816 240.988C304.344 239.512 308.772 237.136 311.796 234.976L308.988 232.852ZM301.392 210.532L302.076 230.512H305.136L304.488 211.432L301.392 210.532ZM311.76 221.008C311.508 223.06 311.076 225.112 310.068 226.588C310.68 226.876 311.832 227.596 312.3 227.992C313.344 226.372 314.028 223.888 314.352 221.44L311.76 221.008ZM316.512 217.084V226.444C316.512 226.768 316.404 226.876 316.044 226.876C315.72 226.912 314.64 226.912 313.524 226.876C313.848 227.488 314.172 228.388 314.316 229.072C316.08 229.072 317.376 229.072 318.276 228.676C319.14 228.316 319.392 227.74 319.392 226.444V217.084H316.512ZM337.788 207.976C337.356 209.452 336.564 211.18 335.34 212.548C336.024 212.8 336.924 213.304 337.464 213.808C338.796 212.116 339.588 210.28 340.2 208.336L337.788 207.976ZM338.652 209.884L337.356 212.08H349.596V209.884H338.652ZM341.964 207.616V215.068H344.772V207.616H341.964ZM334.944 214.024V216.256H350.388V214.024H334.944ZM339.192 215.248C338.796 217.768 337.716 219.64 334.332 220.648C334.908 221.152 335.7 222.196 336.024 222.844C340.056 221.296 341.388 218.812 341.928 215.248H339.192ZM353.592 207.976C353.124 209.452 352.296 211.18 351 212.548C351.684 212.8 352.584 213.34 353.124 213.808C354.528 212.152 355.356 210.316 356.004 208.372L353.592 207.976ZM354.528 209.956L353.268 212.116H365.796V209.956H354.528ZM357.624 207.616V214.924H360.432V207.616H357.624ZM351.288 214.024V216.256H367.02V214.024H351.288ZM355.104 215.248C354.78 217.588 353.736 218.992 350.388 219.82C350.964 220.252 351.72 221.332 352.008 221.98C356.04 220.684 357.372 218.596 357.804 215.248H355.104ZM359.604 215.356V218.632C359.604 220.972 360.108 221.656 362.52 221.656C362.952 221.656 364.464 221.656 364.932 221.656C366.66 221.656 367.344 220.972 367.56 218.38C366.84 218.2 365.796 217.84 365.328 217.444C365.22 219.136 365.112 219.352 364.572 219.352C364.212 219.352 363.168 219.352 362.916 219.352C362.376 219.352 362.304 219.28 362.304 218.632V215.356H359.604ZM342.684 227.956H359.676V229.936H342.684V227.956ZM342.684 231.88H359.676V233.86H342.684V231.88ZM342.684 224.068H359.676V225.976H342.684V224.068ZM339.372 221.98V235.948H363.132V221.98H339.372ZM353.52 237.496C357.444 238.648 361.368 240.088 363.564 241.06L367.272 239.368C364.608 238.324 360.18 236.884 356.22 235.804L353.52 237.496ZM345.456 235.84C342.9 237.064 338.544 238.108 334.728 238.72C335.484 239.26 336.636 240.484 337.212 241.132C340.884 240.304 345.6 238.792 348.552 237.172L345.456 235.84ZM343.512 221.728C344.016 221.404 344.916 221.152 350.532 219.856C350.496 219.316 350.532 218.344 350.64 217.696L344.448 218.956L343.404 219.784L343.512 221.728ZM343.548 221.692C343.548 220.72 346.644 219.1 346.644 219.1V215.176L343.872 215.068V217.336C343.872 218.776 343.08 219.388 342.54 219.676C342.9 220.108 343.404 221.116 343.548 221.692ZM385.848 215.608V218.848H400.716V215.608H385.848ZM399.312 215.608V216.328C398.988 230.692 398.664 235.948 397.728 237.064C397.404 237.532 397.008 237.64 396.396 237.64C395.64 237.64 393.876 237.604 391.932 237.496C392.508 238.36 392.904 239.8 392.976 240.736C394.848 240.808 396.756 240.844 397.908 240.7C399.096 240.556 399.924 240.196 400.68 239.116C401.868 237.496 402.192 232.276 402.552 217.228C402.552 216.796 402.552 215.608 402.552 215.608H399.312ZM391.32 207.652C391.284 221.152 391.572 232.6 382.248 238.54C383.076 239.116 384.192 240.268 384.696 241.096C394.56 234.472 394.596 221.98 394.632 207.652H391.32ZM372.636 209.272V235.012H375.66V212.368H381.564V232.744H384.732V209.272H372.636ZM370.08 234.04L370.656 237.496C375.048 236.488 381.132 235.048 386.856 233.68L386.532 230.62C380.52 231.952 374.148 233.284 370.08 234.04ZM374.22 216.904V219.928H383.112V216.904H374.22ZM374.22 224.5V227.524H383.112V224.5H374.22ZM429.912 219.676V222.52H439.452V219.676H429.912ZM412.884 222.196V240.7H415.26V224.752H425.088V222.196H412.884ZM418.176 214.636V223.816H421.056V214.636H418.176ZM424.116 222.196V237.532C424.116 237.928 423.972 238.036 423.54 238.036C423.144 238.072 421.74 238.072 420.264 238.036C420.588 238.72 420.912 239.8 421.02 240.52C423.144 240.556 424.548 240.484 425.484 240.088C426.384 239.656 426.636 238.9 426.636 237.568V222.196H424.116ZM417.672 226.912V229.108H420.876V233.104H417.672V235.3H422.496V226.912H417.672ZM416.808 226.912V236.524H418.392V226.912H416.808ZM429.84 214.564C429.048 219.136 427.644 223.6 425.52 226.516C426.204 226.948 427.356 227.992 427.86 228.496C430.128 225.256 431.82 220.252 432.792 215.104L429.84 214.564ZM412.344 216.58C413.46 218.02 414.54 220.036 414.936 221.368L417.204 220.252C416.808 218.92 415.656 216.976 414.504 215.572L412.344 216.58ZM430.74 221.908L428.472 222.34C429.876 230.8 432.612 237.712 438.012 241.096C438.48 240.304 439.38 239.224 440.028 238.684C434.88 235.876 432.072 229.432 430.74 221.908ZM424.116 215.5C423.504 217.012 422.352 219.244 421.452 220.612L423.612 221.404C424.584 220.108 425.7 218.164 426.744 216.364L424.116 215.5ZM410.58 210.856V213.736H439.344V210.856H410.58ZM408.564 210.856V221.872C408.564 227.02 408.384 234.112 406.008 239.08C406.728 239.404 408.06 240.412 408.6 241.024C411.228 235.624 411.66 227.416 411.66 221.872V210.856H408.564ZM435.24 221.044C434.448 228.172 432.18 235.372 425.736 239.044C426.276 239.548 427.068 240.628 427.464 241.24C434.484 237.208 437.076 229.36 438.192 221.368L435.24 221.044ZM421.596 208.156C422.352 209.236 423.18 210.82 423.468 211.828L426.672 210.46C426.312 209.488 425.448 208.048 424.62 206.968L421.596 208.156ZM120.996 271.064V292.952H124.236V273.872H147.708V271.064H120.996ZM145.98 271.064V289.604C145.98 290.108 145.764 290.288 145.152 290.288C144.612 290.324 142.524 290.36 140.508 290.288C140.904 291.008 141.336 292.088 141.48 292.844C144.468 292.844 146.376 292.808 147.528 292.412C148.716 291.98 149.112 291.224 149.112 289.604V271.064H145.98ZM129.888 279.992V282.44H138.888V286.076H129.888V288.488H141.696V279.992H129.888ZM128.088 279.992V290.108H130.968V279.992H128.088ZM119.088 263.324V266.24H150.948V263.324H119.088ZM126.684 267.032C127.44 268.364 128.34 270.164 128.772 271.244L131.796 270.092C131.328 269.048 130.356 267.356 129.6 266.096L126.684 267.032ZM140.22 266.276C139.644 267.896 138.456 270.2 137.52 271.676L140.148 272.396C141.192 271.064 142.488 268.94 143.64 267.032L140.22 266.276ZM132.66 260.228C133.236 261.704 133.884 263.72 134.172 264.98L137.556 264.008C137.196 262.784 136.512 260.876 135.9 259.4L132.66 260.228ZM130.104 272.54C129.852 275.78 128.844 277.292 124.2 278.12C124.776 278.66 125.532 279.776 125.748 280.46C131.328 279.236 132.732 276.896 133.092 272.54H130.104ZM136.368 272.576V275.528C136.368 277.904 136.836 279.02 139.356 279.02C139.968 279.02 142.092 279.02 142.776 279.02C143.532 279.02 144.468 278.984 144.936 278.804C144.828 278.084 144.792 277.256 144.72 276.464C144.216 276.608 143.244 276.644 142.704 276.644C142.2 276.644 140.544 276.644 140.076 276.644C139.464 276.644 139.392 276.356 139.392 275.564V272.576H136.368ZM156.06 270.56V273.188H167.184V270.56H156.06ZM156.06 275.348V277.976H167.22V275.348H156.06ZM154.548 265.664V268.436H168.516V265.664H154.548ZM157.572 280.244V283.016H164.232V288.164H157.572V290.936H167.22V280.244H157.572ZM156.06 280.244V292.556H159.012V280.244H156.06ZM158.508 260.768C159.48 262.28 160.632 264.404 161.136 265.736L163.908 264.188C163.332 262.892 162.216 260.948 161.172 259.472L158.508 260.768ZM168.804 267.716V271.028H187.38V267.716H168.804ZM179.82 259.832V288.668C179.82 289.352 179.532 289.532 178.884 289.604C178.2 289.604 176.004 289.604 173.664 289.496C174.132 290.54 174.672 292.088 174.852 293.06C178.092 293.096 180.18 292.988 181.44 292.376C182.736 291.836 183.24 290.828 183.24 288.704V259.832H179.82ZM170.208 275.204C171.9 277.832 173.52 281.432 174.096 283.772L177.192 282.44C176.508 280.1 174.852 276.68 173.052 274.052L170.208 275.204ZM204.768 282.296V285.14H220.464V282.296H204.768ZM206.208 269.624V272.54H218.376V269.624H206.208ZM203.22 275.168V293.132H206.028V278.012H220.176V275.168H203.22ZM208.584 276.5V292.16H210.996V276.5H208.584ZM213.624 276.5V292.16H216V276.5H213.624ZM218.736 275.168V289.604C218.736 289.892 218.664 290 218.412 290C218.16 290 217.44 290 216.648 289.964C217.008 290.792 217.296 292.016 217.404 292.808C218.808 292.808 219.816 292.772 220.608 292.304C221.4 291.836 221.544 291.008 221.544 289.64V275.168H218.736ZM212.148 259.436C209.808 263.756 204.984 268.184 200.52 270.236C201.276 271.064 202.14 272.468 202.572 273.404C207.18 270.812 212.148 265.952 214.776 261.2L212.148 259.436ZM213.624 261.596L210.888 262.604C213.228 266.996 217.332 271.064 221.688 272.972C222.228 272.036 223.272 270.596 224.064 269.876C219.852 268.4 215.712 265.016 213.624 261.596ZM191.592 270.56V273.188H200.628V270.56H191.592ZM191.592 275.348V277.976H200.628V275.348H191.592ZM190.296 265.664V268.436H201.636V265.664H190.296ZM192.888 280.244V283.016H198.072V288.164H192.888V290.936H200.88V280.244H192.888ZM191.412 280.244V292.556H194.184V280.244H191.412ZM193.32 260.768C194.292 262.28 195.444 264.404 195.948 265.736L198.684 264.188C198.144 262.892 196.992 260.948 195.948 259.472L193.32 260.768ZM240.012 283.664C244.08 282.368 246.6 279.236 246.6 275.276C246.6 272.54 245.412 270.776 243.18 270.776C241.524 270.776 240.084 271.82 240.084 273.656C240.084 275.492 241.488 276.5 243.108 276.5C243.864 276.5 244.584 276.284 245.124 275.708L243.144 272.756L243.648 275.996C243.648 278.444 242.028 280.244 239.04 281.324L240.012 283.664ZM278.244 265.484H277.812L275.148 268.292V285.932H278.244V268.256H294.444V265.484H278.244ZM276.624 271.352V273.98H293.292V271.352H276.624ZM276.768 277.148V279.812H293.328V277.148H276.768ZM276.66 283.088V285.932H295.164V283.088H276.66ZM283.896 266.6V284.528H286.848V266.6H283.896ZM277.92 259.868C276.336 264.44 273.744 269.012 270.9 271.964C271.44 272.612 272.34 274.088 272.664 274.7C275.868 271.28 278.856 265.952 280.728 260.66L277.92 259.868ZM283.032 260.948C284.04 262.784 285.084 265.232 285.48 266.744L288.432 265.808C288.036 264.296 286.884 261.884 285.84 260.12L283.032 260.948ZM263.736 261.2C265.356 262.964 267.408 265.484 268.38 266.996L270.972 265.124C269.964 263.648 267.948 261.38 266.292 259.652L263.736 261.2ZM262.62 267.968V270.74H270.396V267.968H262.62ZM269.424 284.096L267.156 285.104C269.82 291.44 274.428 292.484 282.816 292.484C286.884 292.484 291.456 292.412 294.984 292.196C295.164 291.26 295.632 289.676 296.1 288.992C292.248 289.316 286.668 289.532 282.888 289.532C276.012 289.496 271.512 288.884 269.424 284.096ZM269.316 276.86V277.4C268.344 283.88 265.68 288.416 261.828 290.792C262.476 291.26 263.592 292.448 264.024 293.096C268.128 290.396 271.116 285.212 272.34 277.4L270.684 276.788L270.108 276.86H269.316ZM263.196 280.064C263.484 279.776 264.456 279.56 265.356 279.56H270.324L270.36 276.86H264.6L263.196 277.58V280.064ZM263.196 280.064C263.196 279.272 265.608 278.12 265.608 278.12C267.66 275.78 270.936 271.244 272.664 268.796L270.504 267.788L269.568 268.184V268.292C268.344 270.236 264.924 274.988 263.808 276.068C263.16 276.788 262.584 277.04 262.008 277.184C262.332 277.832 262.98 279.344 263.196 280.064ZM312.84 261.74V264.98H330.48V261.74H312.84ZM322.74 272.684V288.848C322.74 289.424 322.524 289.568 321.84 289.604C321.192 289.64 318.78 289.64 316.44 289.532C316.908 290.54 317.376 291.98 317.52 292.952C320.904 292.952 323.064 292.916 324.432 292.412C325.8 291.872 326.232 290.864 326.232 288.92V272.684H322.74ZM311.256 271.712V274.952H331.452V271.712H311.256ZM303.696 275.132V293.132H307.08V272.324L306.684 272.144L303.696 275.132ZM307.8 267.392C305.388 271.496 301.428 275.672 297.72 278.3C298.404 278.984 299.592 280.496 300.096 281.18C303.912 278.084 308.232 273.26 311.04 268.616L307.8 267.392ZM306.396 259.616C304.596 262.172 301.104 265.412 298.116 267.392C298.692 268.076 299.592 269.408 300.06 270.164C303.372 267.824 307.152 264.224 309.672 260.948L306.396 259.616ZM338.724 260.876V272.18H342.036V263.36H359.892V272.18H363.348V260.876H338.724ZM343.44 265.196V267.32H358.488V265.196H343.44ZM343.44 269.156V271.388H358.416V269.156H343.44ZM334.944 273.368V276.14H366.948V273.368H334.944ZM350.892 277.976V280.676H363.384V277.976H350.892ZM339.948 278.084V280.532H348.516V278.084H339.948ZM339.948 282.548V284.996H348.516V282.548H339.948ZM355.14 280.424L352.404 281.216C354.816 287.012 359.316 291.188 365.58 293.024C366.048 292.232 366.912 290.972 367.632 290.36C361.656 288.92 357.228 285.248 355.14 280.424ZM362.592 277.976V278.516C360.792 284.384 355.644 288.596 349.92 290.288C350.532 290.936 351.36 292.16 351.756 292.952C358.128 290.72 363.6 286.148 365.868 278.696L363.78 277.868L363.204 277.976H362.592ZM334.512 288.02L334.836 290.936C338.58 290.54 343.692 290 348.624 289.424L348.552 286.76C343.368 287.264 338.04 287.768 334.512 288.02ZM346.752 274.268V293.024H349.992V274.268H346.752ZM337.86 274.304V288.848H340.992V274.304H337.86ZM388.62 274.196C386.784 278.192 383.472 281.828 379.872 284.132C380.556 284.708 381.708 285.968 382.14 286.616C385.884 283.916 389.52 279.704 391.716 275.096L388.62 274.196ZM395.172 269.948C397.152 272.432 399.636 275.888 400.716 278.048L403.524 276.428C402.336 274.34 399.78 270.992 397.8 268.616L395.172 269.948ZM383.724 278.084L380.952 279.02C384.84 286.4 391.752 291.188 401.148 293.132C401.58 292.232 402.48 290.9 403.2 290.18C394.092 288.632 387.072 284.312 383.724 278.084ZM388.224 278.228L385.74 281H398.412V278.228H388.224ZM397.26 278.228V278.696C394.596 285.032 387.108 288.848 379.116 290.288C379.692 291.008 380.448 292.34 380.736 293.168C389.376 291.296 397.296 287.12 400.644 279.092L398.484 278.084L397.944 278.228H397.26ZM378.18 267.14C376.308 270.848 373.176 274.484 370.152 276.86C370.728 277.58 371.7 279.236 372.024 279.956C375.408 277.076 378.936 272.576 381.24 268.22L378.18 267.14ZM377.424 259.616C375.948 262.1 373.068 265.16 370.476 267.032C371.016 267.644 371.88 268.832 372.312 269.516C375.228 267.284 378.432 263.9 380.448 260.804L377.424 259.616ZM374.94 274.304V293.132H378.18V271.604L377.82 271.46L374.94 274.304ZM382.248 269.912C382.248 269.264 384.228 268.364 384.228 268.364V268.256C387.18 266.636 390.384 264.044 393.084 261.344L389.7 259.832C387.612 262.388 384.516 264.764 383.58 265.448C382.644 266.06 381.888 266.564 381.168 266.672C381.564 267.572 382.104 269.192 382.248 269.912ZM382.248 269.912C383.004 269.624 384.228 269.444 392.04 269.156C392.292 268.508 392.868 267.32 393.336 266.564L383.904 266.816L382.248 267.716V269.912ZM381.456 276.608C381.456 275.996 383.472 275.168 383.472 275.168V275.06C388.872 272.612 394.668 269.012 399.888 264.692L396.756 262.964C392.508 266.924 386.352 270.74 384.48 271.712C382.788 272.684 381.564 273.296 380.484 273.44C380.808 274.304 381.312 275.96 381.456 276.608ZM381.456 276.608C382.644 276.14 384.408 275.996 400.068 275.024C399.924 274.376 399.744 273.224 399.708 272.396L383.256 273.296L381.384 274.268L381.456 276.608ZM421.416 269.444V272.288H439.38V269.444H421.416ZM410.076 288.164V290.864H418.716V288.164H410.076ZM410.148 270.776V273.476H416.808V276.788H410.112V279.488H420.012V270.776H410.148ZM410.112 281.864V284.6H417.42V292.232H420.588V281.864H410.112ZM408.24 270.776V292.916H411.408V270.776H408.24ZM412.56 267.68C412.128 268.904 411.3 270.704 410.652 271.892L413.604 272.576C414.324 271.496 415.188 269.984 416.052 268.328L412.56 267.68ZM422.316 274.988V289.712H425.376V277.904H436.068V274.988H422.316ZM435.096 274.988V286.328C435.096 286.652 435.024 286.76 434.7 286.76C434.34 286.796 433.44 286.796 432.324 286.76C432.72 287.588 433.044 288.776 433.152 289.676C434.952 289.676 436.248 289.64 437.184 289.136C438.12 288.632 438.336 287.804 438.336 286.364V274.988H435.096ZM428.688 270.344V292.988H431.856V270.344H428.688ZM411.228 262.064V264.692H423.108V262.064H411.228ZM426.276 262.1V264.692H439.596V262.1H426.276ZM411.768 259.328C410.58 262.46 408.492 265.556 406.224 267.608C406.908 268.148 408.06 269.3 408.564 269.912C410.904 267.536 413.352 263.828 414.792 260.192L411.768 259.328ZM427.068 259.292C426.168 262.028 424.512 264.692 422.532 266.42C423.288 266.852 424.548 267.896 425.124 268.436C427.14 266.42 429.12 263.288 430.236 260.084L427.068 259.292ZM414.072 265.988C415.152 266.924 416.556 268.292 417.204 269.156L419.364 267.212C418.68 266.348 417.24 265.088 416.124 264.224L414.072 265.988ZM430.452 265.916C431.496 266.96 432.828 268.436 433.44 269.372L435.744 267.392C435.096 266.492 433.728 265.124 432.648 264.188L430.452 265.916ZM129.168 326.808V329.364H149.976V326.808H129.168ZM127.728 332.244V334.8H151.2V332.244H127.728ZM133.884 324.54V333.648H137.052V324.54H133.884ZM141.912 324.54V333.648H145.08V324.54H141.912ZM141.156 336.276C143.568 337.464 146.124 339.084 147.528 340.344L150.552 338.868C148.86 337.608 145.944 335.988 143.388 334.764L141.156 336.276ZM135.108 334.836C133.488 336.204 130.824 337.536 128.34 338.4C129.096 338.868 130.284 339.876 130.896 340.452C133.344 339.372 136.26 337.644 138.132 335.88L135.108 334.836ZM130.14 312.948V315.144H135.756V317.196H130.14V319.392H138.636V312.948H130.14ZM141.588 312.984V315.18H147.384V317.232H141.588V319.428H150.3V312.984H141.588ZM140.292 312.984V320.148C140.292 322.92 140.976 323.964 143.82 323.964C144.432 323.964 147.672 323.964 148.428 323.964C149.436 323.964 150.444 323.892 151.02 323.748C150.912 323.1 150.84 322.092 150.768 321.372C150.156 321.516 149.04 321.552 148.356 321.552C147.672 321.552 144.648 321.552 143.964 321.552C143.172 321.552 143.028 321.228 143.028 320.22V312.984H140.292ZM128.952 324.936C129.6 324.576 130.752 324.36 138.456 323.028C138.492 322.452 138.672 321.336 138.852 320.652L130.14 321.948L128.844 322.812L128.952 324.936ZM128.952 324.936C128.952 323.964 131.544 322.56 131.544 322.56V312.948H128.844V320.148C128.844 321.516 128.304 322.056 127.8 322.308C128.232 322.956 128.772 324.216 128.952 324.936ZM119.16 313.308C120.78 315.108 122.832 317.592 123.804 319.104L126.432 317.232C125.388 315.792 123.372 313.524 121.68 311.76L119.16 313.308ZM118.62 320.04V322.812H125.208V320.04H118.62ZM125.28 336.096L123.012 337.104C125.676 343.476 130.32 344.484 138.78 344.484C142.884 344.484 147.456 344.412 151.02 344.196C151.2 343.26 151.632 341.676 152.136 340.956C148.248 341.316 142.668 341.532 138.816 341.532C131.904 341.496 127.368 340.884 125.28 336.096ZM124.596 328.86V329.4C123.732 335.772 121.392 340.344 117.9 342.792C118.548 343.26 119.664 344.412 120.132 345.096C123.84 342.288 126.54 337.068 127.62 329.364L125.964 328.788L125.424 328.86H124.596ZM119.304 332.064C119.592 331.812 120.564 331.56 121.392 331.56H125.496V328.86H120.672L119.304 329.58V332.064ZM119.304 332.064C119.304 331.272 121.68 330.084 121.68 330.084C123.408 327.816 126.144 323.1 127.548 320.652L125.388 319.824L124.488 320.184V320.292C123.516 322.2 120.708 327.096 119.808 328.104C119.232 328.824 118.692 329.04 118.152 329.22C118.476 329.832 119.124 331.344 119.304 332.064ZM168.012 335.664C172.08 334.368 174.6 331.236 174.6 327.276C174.6 324.54 173.412 322.776 171.18 322.776C169.524 322.776 168.084 323.82 168.084 325.656C168.084 327.492 169.488 328.5 171.108 328.5C171.864 328.5 172.584 328.284 173.124 327.708L171.144 324.756L171.648 327.996C171.648 330.444 170.028 332.244 167.04 333.324L168.012 335.664ZM191.7 318.492V321.84H222.336V318.492H191.7ZM190.836 340.092V343.584H223.164V340.092H190.836ZM201.384 320.868V341.856H204.768V320.868H201.384ZM209.088 320.868V341.856H212.472V320.868H209.088ZM217.404 324.648C216.648 328.248 215.064 333.144 213.696 336.204L216.756 337.068C218.16 334.116 219.816 329.508 221.076 325.512L217.404 324.648ZM214.488 311.616C213.696 313.632 212.184 316.44 210.924 318.24L214.02 319.248C215.316 317.592 216.9 315.036 218.232 312.66L214.488 311.616ZM193.284 325.764C194.868 329.328 196.2 334.008 196.488 337.068L199.764 336.204C199.404 333.108 198.036 328.536 196.344 324.972L193.284 325.764ZM196.452 312.876C197.82 314.712 199.224 317.34 199.764 319.032L202.932 317.664C202.356 316.008 200.916 313.524 199.476 311.688L196.452 312.876ZM226.8 317.412V320.58H241.632V317.412H226.8ZM232.38 325.116V328.212H238.5V325.116H232.38ZM230.076 319.104C229.968 329.292 229.86 337.572 225.936 342.432C226.8 342.972 227.916 344.124 228.456 344.952C232.884 339.408 233.28 330.228 233.388 319.104H230.076ZM237.276 325.116V325.764C236.952 336.348 236.628 340.02 235.98 340.92C235.692 341.28 235.404 341.424 234.936 341.388C234.432 341.388 233.424 341.388 232.308 341.28C232.74 342.108 233.1 343.44 233.136 344.376C234.504 344.448 235.8 344.412 236.592 344.304C237.564 344.16 238.212 343.872 238.824 342.972C239.796 341.676 240.12 337.716 240.444 326.52C240.48 326.124 240.48 325.116 240.48 325.116H237.276ZM246.096 327.744C248.256 329.256 251.028 331.452 252.324 332.856L254.664 330.372C253.26 328.968 250.452 326.916 248.292 325.512L246.096 327.744ZM243.828 337.86C247.212 339.696 251.676 342.504 253.764 344.484L256.104 341.532C253.872 339.66 249.3 336.96 245.988 335.304L243.828 337.86ZM230.976 312.624C232.128 314.208 233.352 316.332 233.784 317.736L236.952 316.404C236.448 315.036 235.188 312.984 234 311.472L230.976 312.624ZM251.388 314.028L248.724 314.964C250.668 319.572 254.16 324.324 257.724 326.736C258.3 325.872 259.38 324.648 260.172 324C256.716 322.056 253.152 317.88 251.388 314.028ZM249.228 311.436C247.608 317.052 244.368 321.696 240.192 324.324C241.02 325.008 242.028 326.124 242.532 327.024C247.212 323.712 250.488 318.636 252.36 312.372L249.228 311.436ZM272.146 342H287.302V338.58H282.118V315.504H278.986C277.438 316.44 275.71 317.088 273.19 317.52V320.148H277.978V338.58H272.146V342ZM291.165 342H308.301V338.472H301.677C300.381 338.472 298.689 338.616 297.321 338.76C302.937 333.36 307.041 328.068 307.041 322.992C307.041 318.168 303.909 315.036 299.049 315.036C295.593 315.036 293.253 316.512 290.949 318.996L293.325 321.264C294.729 319.644 296.457 318.348 298.545 318.348C301.497 318.348 303.009 320.328 303.009 323.172C303.009 327.528 299.013 332.676 291.165 339.588V342ZM310.58 348.48H313.46L323.432 313.236H320.588L310.58 348.48ZM333.788 342.504C338.684 342.504 342.68 339.696 342.68 334.908C342.68 331.308 340.268 329.04 337.208 328.248V328.068C340.016 327.024 341.78 324.9 341.78 321.84C341.78 317.484 338.432 315.036 333.68 315.036C330.62 315.036 328.172 316.332 326.048 318.204L328.244 320.832C329.756 319.32 331.484 318.348 333.5 318.348C336.056 318.348 337.568 319.824 337.568 322.164C337.568 324.828 335.84 326.772 330.656 326.772V329.868C336.596 329.868 338.468 331.74 338.468 334.692C338.468 337.428 336.416 339.084 333.464 339.084C330.692 339.084 328.748 337.752 327.2 336.168L325.148 338.832C326.948 340.848 329.648 342.504 333.788 342.504ZM354.967 342.504C360.151 342.504 363.535 337.86 363.535 328.644C363.535 319.5 360.151 315.036 354.967 315.036C349.747 315.036 346.399 319.5 346.399 328.644C346.399 337.86 349.747 342.504 354.967 342.504ZM354.967 339.192C352.267 339.192 350.359 336.312 350.359 328.644C350.359 321.084 352.267 318.276 354.967 318.276C357.667 318.276 359.539 321.084 359.539 328.644C359.539 336.312 357.667 339.192 354.967 339.192ZM373.77 349.164L376.326 348.048C373.266 342.864 371.826 336.78 371.826 330.768C371.826 324.756 373.266 318.672 376.326 313.488L373.77 312.336C370.386 317.808 368.406 323.64 368.406 330.768C368.406 337.896 370.386 343.728 373.77 349.164ZM382.246 315.036V318.384H409.714V315.036H382.246ZM380.05 339.804V343.188H412.198V339.804H380.05ZM392.542 316.224C391.57 324.396 389.734 335.304 388.258 341.856H392.002C393.37 335.484 395.17 324.612 396.358 316.224H392.542ZM384.226 325.512V328.824H403.882V325.512H384.226ZM402.622 325.512V325.908C402.406 329.58 401.794 336.744 401.146 341.892L404.71 342.18C405.358 336.996 406.006 330.372 406.258 325.584L403.594 325.368L402.982 325.512H402.622ZM418.318 349.164C421.666 343.728 423.646 337.896 423.646 330.768C423.646 323.64 421.666 317.808 418.318 312.336L415.726 313.488C418.786 318.672 420.262 324.756 420.262 330.768C420.262 336.78 418.786 342.864 415.726 348.048L418.318 349.164ZM122.544 381.04V384.388H147.312V381.04H122.544ZM122.544 391.588V394.936H147.24V391.588H122.544ZM120.888 370.564V397.06H124.272V373.984H145.62V396.952H149.184V370.564H120.888ZM133.092 363.652V393.352H136.584V363.652H133.092ZM183.384 370.204C182.952 372.904 182.016 376.72 181.152 379.096L183.816 379.78C184.68 377.512 185.724 373.948 186.624 370.924L183.384 370.204ZM169.632 371.14C170.46 373.876 171.18 377.476 171.324 379.852L174.204 379.132C174.06 376.792 173.304 373.264 172.368 370.492L169.632 371.14ZM169.056 365.56V368.728H187.056V365.56H169.056ZM167.724 381.112V384.352H187.776V381.112H167.724ZM176.148 366.64V397.024H179.496V366.64H176.148ZM155.988 374.56V377.188H166.32V374.56H155.988ZM155.988 379.348V381.976H166.32V379.348H155.988ZM154.548 369.664V372.436H167.796V369.664H154.548ZM157.356 384.244V387.016H163.584V392.164H157.356V394.936H166.356V384.244H157.356ZM155.988 384.244V396.556H158.688V384.244H155.988ZM158.256 364.768C159.156 366.28 160.236 368.404 160.704 369.736L163.26 368.188C162.72 366.892 161.64 364.948 160.668 363.472L158.256 364.768ZM205.344 372.616V383.272H208.44V372.616H205.344ZM205.344 385.504V394.828H208.44V385.504H205.344ZM195.3 384.136V396.952H198.432V386.548H215.604V396.844H218.916V384.136H195.3ZM191.088 377.116V379.816H222.912V377.116H191.088ZM197.424 388.888V391.012H216.9V388.888H197.424ZM197.424 393.46V395.908H216.9V393.46H197.424ZM215.928 370.096C211.176 370.888 202.896 371.356 196.056 371.536C196.344 372.148 196.668 373.228 196.74 373.876C203.688 373.84 212.148 373.336 217.692 372.436L215.928 370.096ZM203.652 377.728C200.664 380.68 194.904 383.56 190.008 384.892C190.656 385.504 191.592 386.62 192.024 387.34C196.884 385.684 202.716 382.372 205.956 378.844L203.652 377.728ZM196.452 374.344C197.244 375.388 197.964 376.792 198.252 377.764L201.636 376.864C201.312 375.892 200.52 374.56 199.692 373.624L196.452 374.344ZM214.488 373.084C213.768 374.38 212.4 376.252 211.356 377.44L213.948 378.34C215.1 377.26 216.54 375.64 217.836 374.02L214.488 373.084ZM191.628 366.316V373.084H194.652V369.16H219.204V373.084H222.408V366.316H191.628ZM203.976 364.228C204.66 365.524 205.272 367.324 205.488 368.404L209.232 367.504C209.016 366.388 208.26 364.66 207.576 363.4L203.976 364.228ZM207.864 379.78C213.084 382.12 218.232 384.964 221.328 387.052L223.524 385.144C220.212 383.056 214.776 380.248 209.664 377.98L207.864 379.78ZM242.244 369.484H241.812L239.148 372.292V389.932H242.244V372.256H258.444V369.484H242.244ZM240.624 375.352V377.98H257.292V375.352H240.624ZM240.768 381.148V383.812H257.328V381.148H240.768ZM240.66 387.088V389.932H259.164V387.088H240.66ZM247.896 370.6V388.528H250.848V370.6H247.896ZM241.92 363.868C240.336 368.44 237.744 373.012 234.9 375.964C235.44 376.612 236.34 378.088 236.664 378.7C239.868 375.28 242.856 369.952 244.728 364.66L241.92 363.868ZM247.032 364.948C248.04 366.784 249.084 369.232 249.48 370.744L252.432 369.808C252.036 368.296 250.884 365.884 249.84 364.12L247.032 364.948ZM227.736 365.2C229.356 366.964 231.408 369.484 232.38 370.996L234.972 369.124C233.964 367.648 231.948 365.38 230.292 363.652L227.736 365.2ZM226.62 371.968V374.74H234.396V371.968H226.62ZM233.424 388.096L231.156 389.104C233.82 395.44 238.428 396.484 246.816 396.484C250.884 396.484 255.456 396.412 258.984 396.196C259.164 395.26 259.632 393.676 260.1 392.992C256.248 393.316 250.668 393.532 246.888 393.532C240.012 393.496 235.512 392.884 233.424 388.096ZM233.316 380.86V381.4C232.344 387.88 229.68 392.416 225.828 394.792C226.476 395.26 227.592 396.448 228.024 397.096C232.128 394.396 235.116 389.212 236.34 381.4L234.684 380.788L234.108 380.86H233.316ZM227.196 384.064C227.484 383.776 228.456 383.56 229.356 383.56H234.324L234.36 380.86H228.6L227.196 381.58V384.064ZM227.196 384.064C227.196 383.272 229.608 382.12 229.608 382.12C231.66 379.78 234.936 375.244 236.664 372.796L234.504 371.788L233.568 372.184V372.292C232.344 374.236 228.924 378.988 227.808 380.068C227.16 380.788 226.584 381.04 226.008 381.184C226.332 381.832 226.98 383.344 227.196 384.064ZM276.84 365.74V368.98H294.48V365.74H276.84ZM286.74 376.684V392.848C286.74 393.424 286.524 393.568 285.84 393.604C285.192 393.64 282.78 393.64 280.44 393.532C280.908 394.54 281.376 395.98 281.52 396.952C284.904 396.952 287.064 396.916 288.432 396.412C289.8 395.872 290.232 394.864 290.232 392.92V376.684H286.74ZM275.256 375.712V378.952H295.452V375.712H275.256ZM267.696 379.132V397.132H271.08V376.324L270.684 376.144L267.696 379.132ZM271.8 371.392C269.388 375.496 265.428 379.672 261.72 382.3C262.404 382.984 263.592 384.496 264.096 385.18C267.912 382.084 272.232 377.26 275.04 372.616L271.8 371.392ZM270.396 363.616C268.596 366.172 265.104 369.412 262.116 371.392C262.692 372.076 263.592 373.408 264.06 374.164C267.372 371.824 271.152 368.224 273.672 364.948L270.396 363.616ZM299.556 366.496V369.556H330.444V366.496H299.556ZM313.056 363.544C312.876 366.568 312.3 370.816 311.688 373.48L314.856 373.912C315.54 371.392 316.26 367.396 316.836 363.904L313.056 363.544ZM305.244 377.368V379.924H324.972V377.368H305.244ZM305.244 382.336V384.892H324.972V382.336H305.244ZM298.584 392.74V395.836H331.452V392.74H298.584ZM303.516 371.968V394.108H306.828V374.812H323.208V394.108H326.664V371.968H303.516ZM305.388 387.484V390.04H325.116V387.484H305.388ZM364.608 363.832C360.072 364.768 352.224 365.416 345.708 365.704C345.996 366.388 346.392 367.504 346.464 368.188C353.088 368.044 361.116 367.396 366.444 366.316L364.608 363.832ZM345.276 373.3V375.964H367.308V373.3H345.276ZM354.564 366.064V381.868H357.66V366.064H354.564ZM354.672 383.632V394.18H357.48V383.632H354.672ZM347.94 369.016C348.624 370.348 349.38 372.148 349.776 373.228L352.584 372.256C352.188 371.212 351.324 369.484 350.64 368.188L347.94 369.016ZM361.8 367.648C361.26 369.484 360.108 372.148 359.28 373.804L361.8 374.596C362.7 373.012 363.78 370.636 364.752 368.44L361.8 367.648ZM352.872 374.884C350.964 377.764 347.292 380.572 343.764 381.904C344.484 382.516 345.42 383.632 345.888 384.388C349.596 382.696 353.412 379.384 355.536 375.82L352.872 374.884ZM347.004 382.66V397.06H349.992V385.288H362.448V396.88H365.616V382.66H347.004ZM349.236 387.88V390.328H363.276V387.88H349.236ZM349.236 393.1V395.584H363.204V393.1H349.236ZM333.864 382.444L334.512 385.72C337.68 384.604 341.64 383.164 345.348 381.76L344.808 378.736C340.812 380.14 336.636 381.58 333.864 382.444ZM334.404 370.708V373.84H345.384V370.708H334.404ZM338.616 363.652V393.28C338.616 393.784 338.436 393.928 338.004 393.928C337.572 393.964 336.24 393.964 334.764 393.892C335.196 394.828 335.592 396.232 335.7 397.06C338.004 397.06 339.48 396.952 340.416 396.412C341.424 395.908 341.748 395.008 341.748 393.28V363.652H338.616ZM356.4 376.432C359.748 378.52 363.996 381.616 366.012 383.632L367.992 381.472C365.832 379.492 361.512 376.504 358.2 374.56L356.4 376.432ZM390.672 384.244C393.516 388.168 396.972 393.568 398.592 396.916L402.048 395.044C400.32 391.768 396.9 386.656 393.984 382.732L390.672 384.244ZM380.052 364.588C377.82 369.952 374.04 375.244 370.08 378.556C370.944 379.204 372.456 380.644 373.104 381.4C377.064 377.656 381.168 371.716 383.796 365.776L380.052 364.588ZM374.688 395.512C374.688 394.756 377.352 393.532 377.352 393.532V393.46C381.708 389.068 386.208 382.768 389.772 376.432L385.848 374.776C382.896 380.86 378.288 387.196 376.776 388.816C375.372 390.472 374.4 391.552 373.32 391.84C373.824 392.848 374.472 394.756 374.688 395.512ZM374.688 395.512C376.308 394.864 378.612 394.756 398.7 393.28C398.484 392.488 398.124 391.048 397.944 390.004L376.956 391.3L374.58 392.596L374.688 395.512ZM390.708 364.516V366.46H391.5C393.408 372.112 397.044 377.908 401.58 381.328C402.156 380.284 403.416 378.736 404.208 378.016C399.852 375.244 396.36 369.952 394.704 364.516H390.708ZM385.776 364.516V368.008H393.516V364.516H385.776ZM407.052 368.98V372.256H438.984V368.98H407.052ZM423.036 373.804V397.06H426.492V373.804H423.036ZM412.848 378.34V393.748H416.232V381.58H435.168V378.34H412.848ZM433.692 378.34V389.752C433.692 390.22 433.512 390.364 432.9 390.4C432.36 390.4 430.344 390.436 428.328 390.364C428.76 391.228 429.264 392.524 429.408 393.46C432.324 393.46 434.268 393.424 435.492 392.92C436.752 392.416 437.112 391.48 437.112 389.824V378.34H433.692ZM418.968 363.58C416.952 371.176 412.668 379.384 405.864 383.956C406.512 384.712 407.412 386.044 407.88 386.908C415.368 381.652 419.868 372.976 422.46 364.372L418.968 363.58ZM130.392 444.488V447.62H147.204V444.488H130.392ZM128.88 419.216V422.24H141.912V419.216H128.88ZM130.212 415.472C128.124 419.396 124.056 423.932 118.116 427.136C118.872 427.748 120.024 428.972 120.528 429.8C126.864 426.02 131.184 421.16 134.064 416.228L130.212 415.472ZM140.796 419.216V419.792C137.232 429.08 127.584 436.1 117.972 438.872C118.692 439.592 119.556 440.996 119.952 441.932C130.176 438.548 140.076 431.276 144.36 420.26L142.056 419.036L141.444 419.216H140.796ZM124.308 426.272C127.008 428.216 130.32 431.132 131.76 433.112L134.532 430.664C132.912 428.684 129.528 425.948 126.828 424.076L124.308 426.272ZM145.584 433.292V449.096H149.112V433.292H145.584ZM131.868 433.292H131.112L128.448 435.884V449.024H131.868V436.388H147.312V433.292H131.868ZM169.092 427.352V449.024H172.62V427.352H169.092ZM161.856 433.58H180.324V436.172H161.856V433.58ZM161.856 428.468H180.324V431.06H161.856V428.468ZM158.508 425.804V438.836H183.816V425.804H158.508ZM154.98 441.212V444.2H187.056V441.212H154.98ZM160.452 419.18H166.572V422.024H160.452V419.18ZM157.428 417.02V424.148H169.776V417.02H157.428ZM175.392 419.18H181.584V422.024H175.392V419.18ZM172.332 417.02V424.148H184.788V417.02H172.332ZM205.524 437.072H208.44L209.268 423.824L209.412 419.072H204.552L204.696 423.824L205.524 437.072ZM207 446.252C208.476 446.252 209.664 445.172 209.664 443.552C209.664 441.896 208.476 440.78 207 440.78C205.488 440.78 204.3 441.896 204.3 443.552C204.3 445.172 205.452 446.252 207 446.252Z" fill="black"/>
<path d="M266.14 140.98V145.012H280.936V153.292H285.148V140.98H266.14ZM264.34 151.564V155.632H287.884V151.564H264.34ZM272.476 135.436V147.964C272.476 154.804 271.612 161.572 262.828 166.18C263.98 166.864 265.636 168.34 266.428 169.276C275.788 164.02 276.796 155.776 276.796 147.964V135.436H272.476ZM256.384 139C258.724 140.008 261.676 141.736 263.08 143.032L265.6 139.504C264.088 138.244 261.028 136.696 258.724 135.832L256.384 139ZM254.224 148.972C256.6 149.944 259.588 151.636 260.992 152.86L263.404 149.296C261.856 148.072 258.796 146.56 256.492 145.732L254.224 148.972ZM255.52 165.892L259.156 168.808C261.316 165.316 263.62 161.212 265.528 157.396L262.36 154.552C260.2 158.692 257.428 163.192 255.52 165.892ZM277.084 157.576C279.532 161.284 282.772 166.288 284.284 169.24L288.1 167.044C286.48 164.092 283.024 159.232 280.648 155.74L277.084 157.576ZM301.312 150.412V153.544H322.012V150.412H301.312ZM299.98 155.812V158.944H323.308V155.812H299.98ZM305.668 148.54V157.576H309.628V148.54H305.668ZM313.588 148.54V157.576H317.584V148.54H313.588ZM313.012 160.42C315.136 161.5 317.476 163.048 318.736 164.164L322.588 162.4C321.004 161.248 318.196 159.7 315.82 158.548L313.012 160.42ZM306.928 158.656C305.416 159.844 302.86 160.996 300.412 161.752C301.348 162.328 302.86 163.588 303.616 164.308C306.028 163.3 308.908 161.68 310.708 159.988L306.928 158.656ZM302.5 136.624V139.288H307.324V140.872H302.5V143.536H310.924V136.624H302.5ZM313.912 136.66V139.324H318.916V140.908H313.912V143.572H322.588V136.66H313.912ZM312.292 136.66V143.68C312.292 146.812 313.084 148.036 316.36 148.036C317.008 148.036 319.708 148.036 320.428 148.036C321.436 148.036 322.516 147.964 323.128 147.784C322.984 146.992 322.912 145.768 322.84 144.868C322.192 145.048 321.04 145.084 320.32 145.084C319.672 145.084 317.224 145.084 316.576 145.084C315.82 145.084 315.712 144.724 315.712 143.752V136.66H312.292ZM301.096 149.08C301.816 148.72 303.04 148.504 310.384 147.316C310.456 146.596 310.708 145.192 310.996 144.328L302.464 145.516L300.952 146.524L301.096 149.08ZM301.096 149.08C301.096 147.964 304.228 146.272 304.228 146.272V136.624H300.88V143.572C300.88 144.976 300.304 145.588 299.728 145.912C300.232 146.668 300.916 148.216 301.096 149.08ZM290.872 137.452C292.528 139.252 294.616 141.772 295.588 143.284L298.9 140.908C297.82 139.468 295.768 137.2 294.04 135.472L290.872 137.452ZM290.512 143.896V147.352H297.136V143.896H290.512ZM297.748 159.484L294.868 160.636C297.532 167.548 301.996 168.664 310.384 168.664C314.632 168.664 319.24 168.556 322.984 168.34C323.2 167.152 323.776 165.208 324.388 164.308C320.284 164.704 314.344 164.956 310.456 164.956C303.94 164.92 299.692 164.344 297.748 159.484ZM296.236 152.572V153.22C295.444 159.448 293.212 163.984 289.684 166.396C290.512 166.972 291.916 168.412 292.492 169.276C296.272 166.432 298.936 161.068 300.016 153.22L297.964 152.5L297.28 152.572H296.236ZM291.34 156.496C291.628 156.172 292.672 155.92 293.464 155.92H297.424V152.572H292.852L291.34 153.4V156.496ZM291.34 156.496C291.34 155.524 294.184 154.12 294.184 154.12C295.948 151.816 298.612 147.172 300.016 144.688L297.388 143.68L296.344 144.112V144.22C295.336 146.164 292.6 150.88 291.7 151.852C291.088 152.608 290.548 152.86 289.972 153.04C290.368 153.76 291.124 155.596 291.34 156.496Z" fill="black"/>
</svg>
